# Blender 4.4.1
# www.blender.org
mtllib floor2.mtl
o Plane
v -139.634521 0.000000 139.634521
v 139.634521 0.000000 139.634521
v -139.634521 0.000000 -139.634521
v 139.634521 0.000000 -139.634521
v -139.634521 0.000000 0.000000
v 139.634521 0.000000 0.000000
v 0.000000 0.000000 139.634521
v 0.000000 0.000000 -139.634521
v 0.000000 0.000000 0.000000
v 69.817261 0.000000 139.634521
v 69.817261 0.000000 -139.634521
v 69.817261 0.000000 0.000000
v -69.817261 0.000000 -139.634521
v -69.817261 0.000000 0.000000
v -69.817261 0.000000 139.634521
v 139.634521 0.000000 -69.817261
v -139.634521 0.000000 -69.817261
v 0.000000 0.000000 -69.817261
v 69.817261 0.000000 -69.817261
v -69.817261 0.000000 -69.817261
v -139.634521 0.000000 69.817261
v 139.634521 0.000000 69.817261
v 0.000000 0.000000 69.817261
v 69.817261 0.000000 69.817261
v -69.817261 0.000000 69.817261
v -139.634521 0.000000 -34.908630
v 139.634521 0.000000 -34.908630
v 0.000000 0.000000 -34.908630
v 69.817261 0.000000 -34.908630
v -69.817261 0.000000 -34.908630
v 139.634521 0.000000 -104.725891
v 0.000000 0.000000 -104.725891
v 69.817261 0.000000 -104.725891
v -69.817261 0.000000 -104.725891
v -139.634521 0.000000 -104.725891
v 139.634521 0.000000 34.908630
v 0.000000 0.000000 34.908630
v 69.817261 0.000000 34.908630
v -69.817261 0.000000 34.908630
v -139.634521 0.000000 34.908630
v -139.634521 0.000000 104.725891
v 139.634521 0.000000 104.725891
v 0.000000 0.000000 104.725891
v 69.817261 0.000000 104.725891
v -69.817261 0.000000 104.725891
v 104.725891 0.000000 139.634521
v 104.725891 0.000000 -139.634521
v 104.725891 0.000000 0.000000
v 104.725891 0.000000 -69.817261
v 104.725891 0.000000 69.817261
v 104.725891 0.000000 -34.908630
v 104.725891 0.000000 -104.725891
v 104.725891 0.000000 34.908630
v 104.725891 0.000000 104.725891
v 34.908630 0.000000 -139.634521
v 34.908630 0.000000 0.000000
v 34.908630 0.000000 139.634521
v 34.908630 0.000000 -69.817261
v 34.908630 0.000000 69.817261
v 34.908630 0.000000 -34.908630
v 34.908630 0.000000 -104.725891
v 34.908630 0.000000 34.908630
v 34.908630 0.000000 104.725891
v -34.908630 0.000000 139.634521
v -34.908630 0.000000 -139.634521
v -34.908630 0.000000 0.000000
v -34.908630 0.000000 -69.817261
v -34.908630 0.000000 69.817261
v -34.908630 0.000000 -34.908630
v -34.908630 0.000000 -104.725891
v -34.908630 0.000000 34.908630
v -34.908630 0.000000 104.725891
v -104.725891 0.000000 -139.634521
v -104.725891 0.000000 0.000000
v -104.725891 0.000000 139.634521
v -104.725891 0.000000 -69.817261
v -104.725891 0.000000 69.817261
v -104.725891 0.000000 -34.908630
v -104.725891 0.000000 -104.725891
v -104.725891 0.000000 34.908630
v -104.725891 0.000000 104.725891
v 139.634521 0.000000 -122.180206
v 0.000000 0.000000 -122.180206
v 69.817261 0.000000 -122.180206
v -69.817261 0.000000 -122.180206
v -139.634521 0.000000 -122.180206
v 104.725891 0.000000 -122.180206
v 34.908630 0.000000 -122.180206
v -34.908630 0.000000 -122.180206
v -104.725891 0.000000 -122.180206
v -139.634521 0.000000 -87.271576
v 139.634521 0.000000 -87.271576
v 0.000000 0.000000 -87.271576
v 69.817261 0.000000 -87.271576
v -69.817261 0.000000 -87.271576
v 104.725891 0.000000 -87.271576
v 34.908630 0.000000 -87.271576
v -34.908630 0.000000 -87.271576
v -104.725891 0.000000 -87.271576
v 139.634521 0.000000 -52.362946
v 0.000000 0.000000 -52.362946
v 69.817261 0.000000 -52.362946
v -69.817261 0.000000 -52.362946
v -139.634521 0.000000 -52.362946
v 104.725891 0.000000 -52.362946
v 34.908630 0.000000 -52.362946
v -34.908630 0.000000 -52.362946
v -104.725891 0.000000 -52.362946
v -139.634521 0.000000 -17.454315
v 139.634521 0.000000 -17.454315
v 0.000000 0.000000 -17.454315
v 69.817261 0.000000 -17.454315
v -69.817261 0.000000 -17.454315
v 104.725891 0.000000 -17.454315
v 34.908630 0.000000 -17.454315
v -34.908630 0.000000 -17.454315
v -104.725891 0.000000 -17.454315
v 139.634521 0.000000 17.454315
v 0.000000 0.000000 17.454315
v 69.817261 0.000000 17.454315
v -69.817261 0.000000 17.454315
v -139.634521 0.000000 17.454315
v 104.725891 0.000000 17.454315
v 34.908630 0.000000 17.454315
v -34.908630 0.000000 17.454315
v -104.725891 0.000000 17.454315
v -139.634521 0.000000 52.362946
v 139.634521 0.000000 52.362946
v 0.000000 0.000000 52.362946
v 69.817261 0.000000 52.362946
v -69.817261 0.000000 52.362946
v 104.725891 0.000000 52.362946
v 34.908630 0.000000 52.362946
v -34.908630 0.000000 52.362946
v -104.725891 0.000000 52.362946
v 139.634521 0.000000 87.271576
v 0.000000 0.000000 87.271576
v 69.817261 0.000000 87.271576
v -69.817261 0.000000 87.271576
v -139.634521 0.000000 87.271576
v 104.725891 0.000000 87.271576
v 34.908630 0.000000 87.271576
v -34.908630 0.000000 87.271576
v -104.725891 0.000000 87.271576
v -139.634521 0.000000 122.180206
v 139.634521 0.000000 122.180206
v 0.000000 0.000000 122.180206
v 69.817261 0.000000 122.180206
v -69.817261 0.000000 122.180206
v 104.725891 0.000000 122.180206
v 34.908630 0.000000 122.180206
v -34.908630 0.000000 122.180206
v -104.725891 0.000000 122.180206
v 122.180206 0.000000 139.634521
v 122.180206 0.000000 -139.634521
v 122.180206 0.000000 0.000000
v 122.180206 0.000000 -69.817261
v 122.180206 0.000000 69.817261
v 122.180206 0.000000 -34.908630
v 122.180206 0.000000 -104.725891
v 122.180206 0.000000 34.908630
v 122.180206 0.000000 104.725891
v 122.180206 0.000000 -122.180206
v 122.180206 0.000000 -87.271576
v 122.180206 0.000000 -52.362946
v 122.180206 0.000000 -17.454315
v 122.180206 0.000000 17.454315
v 122.180206 0.000000 52.362946
v 122.180206 0.000000 87.271576
v 122.180206 0.000000 122.180206
v 86.820068 0.000000 -139.634521
v 86.820068 0.000000 0.000000
v 86.820068 0.000000 -69.817261
v 86.820068 0.000000 69.817261
v 86.820068 0.000000 -34.908630
v 86.820068 0.000000 -104.725891
v 86.820068 0.000000 34.908630
v 86.820068 0.000000 104.725891
v 86.820068 0.000000 139.634521
v 86.820068 0.000000 -122.180206
v 86.820068 0.000000 -87.271576
v 86.820068 0.000000 -52.362946
v 86.820068 0.000000 -17.454315
v 86.820068 0.000000 17.454315
v 86.820068 0.000000 52.362946
v 86.820068 0.000000 87.271576
v 86.820068 0.000000 122.180206
v 52.362946 0.000000 139.634521
v 52.362946 0.000000 -139.634521
v 52.362946 0.000000 0.000000
v 52.362946 0.000000 -69.817261
v 52.362946 0.000000 69.817261
v 52.362946 0.000000 -34.908630
v 52.362946 0.000000 -104.725891
v 52.362946 0.000000 34.908630
v 52.362946 0.000000 104.725891
v 52.362946 0.000000 -122.180206
v 52.362946 0.000000 -87.271576
v 52.362946 0.000000 -52.362946
v 52.362946 0.000000 -17.454315
v 52.362946 0.000000 17.454315
v 52.362946 0.000000 52.362946
v 52.362946 0.000000 87.271576
v 52.362946 0.000000 122.180206
v 17.454315 0.000000 -139.634521
v 17.454315 0.000000 0.000000
v 17.454315 0.000000 -69.817261
v 17.454315 0.000000 69.817261
v 17.454315 0.000000 -34.908630
v 17.454315 0.000000 -104.725891
v 17.454315 0.000000 34.908630
v 17.454315 0.000000 104.725891
v 17.454315 0.000000 139.634521
v 17.454315 0.000000 -122.180206
v 17.454315 0.000000 -87.271576
v 17.454315 0.000000 -52.362946
v 17.454315 0.000000 -17.454315
v 17.454315 0.000000 17.454315
v 17.454315 0.000000 52.362946
v 17.454315 0.000000 87.271576
v 17.454315 0.000000 122.180206
v -17.454315 0.000000 139.634521
v -17.454315 0.000000 -139.634521
v -17.454315 0.000000 0.000000
v -17.454315 0.000000 -69.817261
v -17.454315 0.000000 69.817261
v -17.454315 0.000000 -34.908630
v -17.454315 0.000000 -104.725891
v -17.454315 0.000000 34.908630
v -17.454315 0.000000 104.725891
v -17.454315 0.000000 -122.180206
v -17.454315 0.000000 -87.271576
v -17.454315 0.000000 -52.362946
v -17.454315 0.000000 -17.454315
v -17.454315 0.000000 17.454315
v -17.454315 0.000000 52.362946
v -17.454315 0.000000 87.271576
v -17.454315 0.000000 122.180206
v -52.362946 0.000000 -139.634521
v -52.362946 0.000000 0.000000
v -52.362946 0.000000 -69.817261
v -52.362946 0.000000 69.817261
v -52.362946 0.000000 -34.908630
v -52.362946 0.000000 -104.725891
v -52.362946 0.000000 34.908630
v -52.362946 0.000000 104.725891
v -52.362946 0.000000 139.634521
v -52.362946 0.000000 -122.180206
v -52.362946 0.000000 -87.271576
v -52.362946 0.000000 -52.362946
v -52.362946 0.000000 -17.454315
v -52.362946 0.000000 17.454315
v -52.362946 0.000000 52.362946
v -52.362946 0.000000 87.271576
v -52.362946 0.000000 122.180206
v -87.271576 0.000000 139.634521
v -87.271576 0.000000 -139.634521
v -87.271576 0.000000 0.000000
v -87.271576 0.000000 -69.817261
v -87.271576 0.000000 69.817261
v -87.271576 0.000000 -34.908630
v -87.271576 0.000000 -104.725891
v -87.271576 0.000000 34.908630
v -87.271576 0.000000 104.725891
v -87.271576 0.000000 -122.180206
v -87.271576 0.000000 -87.271576
v -87.271576 0.000000 -52.362946
v -87.271576 0.000000 -17.454315
v -87.271576 0.000000 17.454315
v -87.271576 0.000000 52.362946
v -87.271576 0.000000 87.271576
v -87.271576 0.000000 122.180206
v -122.180206 0.000000 -139.634521
v -122.180206 0.000000 0.000000
v -122.180206 0.000000 -69.817261
v -122.180206 0.000000 69.817261
v -122.180206 0.000000 -34.908630
v -122.180206 0.000000 -104.725891
v -122.180206 0.000000 34.908630
v -122.180206 0.000000 104.725891
v -122.180206 0.000000 139.634521
v -122.180206 0.000000 -122.180206
v -122.180206 0.000000 -87.271576
v -122.180206 0.000000 -52.362946
v -122.180206 0.000000 -17.454315
v -122.180206 0.000000 17.454315
v -122.180206 0.000000 52.362946
v -122.180206 0.000000 87.271576
v -122.180206 0.000000 122.180206
vn -0.0000 1.0000 -0.0000
vt 0.937500 0.937500
vt 1.000000 0.937500
vt 1.000000 1.000000
vt 0.937500 1.000000
vt 0.937500 0.437500
vt 1.000000 0.437500
vt 1.000000 0.500000
vt 0.937500 0.500000
vt 0.437500 0.437500
vt 0.500000 0.437500
vt 0.500000 0.500000
vt 0.437500 0.500000
vt 0.437500 0.937500
vt 0.500000 0.937500
vt 0.500000 1.000000
vt 0.437500 1.000000
vt 0.687500 0.437500
vt 0.750000 0.437500
vt 0.750000 0.500000
vt 0.687500 0.500000
vt 0.687500 0.937500
vt 0.750000 0.937500
vt 0.750000 1.000000
vt 0.687500 1.000000
vt 0.187500 0.937500
vt 0.250000 0.937500
vt 0.250000 1.000000
vt 0.187500 1.000000
vt 0.187500 0.437500
vt 0.250000 0.437500
vt 0.250000 0.500000
vt 0.187500 0.500000
vt 0.187500 0.687500
vt 0.250000 0.687500
vt 0.250000 0.750000
vt 0.187500 0.750000
vt 0.687500 0.687500
vt 0.750000 0.687500
vt 0.750000 0.750000
vt 0.687500 0.750000
vt 0.437500 0.687500
vt 0.500000 0.687500
vt 0.500000 0.750000
vt 0.437500 0.750000
vt 0.937500 0.687500
vt 1.000000 0.687500
vt 1.000000 0.750000
vt 0.937500 0.750000
vt 0.187500 0.187500
vt 0.250000 0.187500
vt 0.250000 0.250000
vt 0.187500 0.250000
vt 0.687500 0.187500
vt 0.750000 0.187500
vt 0.750000 0.250000
vt 0.687500 0.250000
vt 0.437500 0.187500
vt 0.500000 0.187500
vt 0.500000 0.250000
vt 0.437500 0.250000
vt 0.937500 0.187500
vt 1.000000 0.187500
vt 1.000000 0.250000
vt 0.937500 0.250000
vt 0.937500 0.562500
vt 1.000000 0.562500
vt 1.000000 0.625000
vt 0.937500 0.625000
vt 0.437500 0.562500
vt 0.500000 0.562500
vt 0.500000 0.625000
vt 0.437500 0.625000
vt 0.687500 0.562500
vt 0.750000 0.562500
vt 0.750000 0.625000
vt 0.687500 0.625000
vt 0.187500 0.562500
vt 0.250000 0.562500
vt 0.250000 0.625000
vt 0.187500 0.625000
vt 0.187500 0.812500
vt 0.250000 0.812500
vt 0.250000 0.875000
vt 0.187500 0.875000
vt 0.687500 0.812500
vt 0.750000 0.812500
vt 0.750000 0.875000
vt 0.687500 0.875000
vt 0.437500 0.812500
vt 0.500000 0.812500
vt 0.500000 0.875000
vt 0.437500 0.875000
vt 0.937500 0.812500
vt 1.000000 0.812500
vt 1.000000 0.875000
vt 0.937500 0.875000
vt 0.187500 0.312500
vt 0.250000 0.312500
vt 0.250000 0.375000
vt 0.187500 0.375000
vt 0.687500 0.312500
vt 0.750000 0.312500
vt 0.750000 0.375000
vt 0.687500 0.375000
vt 0.437500 0.312500
vt 0.500000 0.312500
vt 0.500000 0.375000
vt 0.437500 0.375000
vt 0.937500 0.312500
vt 1.000000 0.312500
vt 1.000000 0.375000
vt 0.937500 0.375000
vt 0.937500 0.062500
vt 1.000000 0.062500
vt 1.000000 0.125000
vt 0.937500 0.125000
vt 0.437500 0.062500
vt 0.500000 0.062500
vt 0.500000 0.125000
vt 0.437500 0.125000
vt 0.687500 0.062500
vt 0.750000 0.062500
vt 0.750000 0.125000
vt 0.687500 0.125000
vt 0.187500 0.062500
vt 0.250000 0.062500
vt 0.250000 0.125000
vt 0.187500 0.125000
vt 0.810883 0.062500
vt 0.875000 0.062500
vt 0.875000 0.125000
vt 0.810883 0.125000
vt 0.810883 0.312500
vt 0.875000 0.312500
vt 0.875000 0.375000
vt 0.810883 0.375000
vt 0.810883 0.812500
vt 0.875000 0.812500
vt 0.875000 0.875000
vt 0.810883 0.875000
vt 0.810883 0.562500
vt 0.875000 0.562500
vt 0.875000 0.625000
vt 0.810883 0.625000
vt 0.810883 0.187500
vt 0.875000 0.187500
vt 0.875000 0.250000
vt 0.810883 0.250000
vt 0.810883 0.687500
vt 0.875000 0.687500
vt 0.875000 0.750000
vt 0.810883 0.750000
vt 0.810883 0.437500
vt 0.875000 0.437500
vt 0.875000 0.500000
vt 0.810883 0.500000
vt 0.810883 0.937500
vt 0.875000 0.937500
vt 0.875000 1.000000
vt 0.810883 1.000000
vt 0.562500 0.062500
vt 0.625000 0.062500
vt 0.625000 0.125000
vt 0.562500 0.125000
vt 0.562500 0.312500
vt 0.625000 0.312500
vt 0.625000 0.375000
vt 0.562500 0.375000
vt 0.562500 0.812500
vt 0.625000 0.812500
vt 0.625000 0.875000
vt 0.562500 0.875000
vt 0.562500 0.562500
vt 0.625000 0.562500
vt 0.625000 0.625000
vt 0.562500 0.625000
vt 0.562500 0.187500
vt 0.625000 0.187500
vt 0.625000 0.250000
vt 0.562500 0.250000
vt 0.562500 0.687500
vt 0.625000 0.687500
vt 0.625000 0.750000
vt 0.562500 0.750000
vt 0.562500 0.937500
vt 0.625000 0.937500
vt 0.625000 1.000000
vt 0.562500 1.000000
vt 0.562500 0.437500
vt 0.625000 0.437500
vt 0.625000 0.500000
vt 0.562500 0.500000
vt 0.312500 0.062500
vt 0.375000 0.062500
vt 0.375000 0.125000
vt 0.312500 0.125000
vt 0.312500 0.312500
vt 0.375000 0.312500
vt 0.375000 0.375000
vt 0.312500 0.375000
vt 0.312500 0.812500
vt 0.375000 0.812500
vt 0.375000 0.875000
vt 0.312500 0.875000
vt 0.312500 0.562500
vt 0.375000 0.562500
vt 0.375000 0.625000
vt 0.312500 0.625000
vt 0.312500 0.187500
vt 0.375000 0.187500
vt 0.375000 0.250000
vt 0.312500 0.250000
vt 0.312500 0.687500
vt 0.375000 0.687500
vt 0.375000 0.750000
vt 0.312500 0.750000
vt 0.312500 0.937500
vt 0.375000 0.937500
vt 0.375000 1.000000
vt 0.312500 1.000000
vt 0.312500 0.437500
vt 0.375000 0.437500
vt 0.375000 0.500000
vt 0.312500 0.500000
vt 0.062500 0.062500
vt 0.125000 0.062500
vt 0.125000 0.125000
vt 0.062500 0.125000
vt 0.062500 0.312500
vt 0.125000 0.312500
vt 0.125000 0.375000
vt 0.062500 0.375000
vt 0.062500 0.812500
vt 0.125000 0.812500
vt 0.125000 0.875000
vt 0.062500 0.875000
vt 0.062500 0.562500
vt 0.125000 0.562500
vt 0.125000 0.625000
vt 0.062500 0.625000
vt 0.062500 0.187500
vt 0.125000 0.187500
vt 0.125000 0.250000
vt 0.062500 0.250000
vt 0.062500 0.687500
vt 0.125000 0.687500
vt 0.125000 0.750000
vt 0.062500 0.750000
vt 0.062500 0.437500
vt 0.125000 0.437500
vt 0.125000 0.500000
vt 0.062500 0.500000
vt 0.062500 0.937500
vt 0.125000 0.937500
vt 0.125000 1.000000
vt 0.062500 1.000000
vt 0.062500 0.000000
vt 0.125000 0.000000
vt 0.312500 0.000000
vt 0.375000 0.000000
vt 0.562500 0.000000
vt 0.625000 0.000000
vt 0.810883 0.000000
vt 0.875000 0.000000
vt 0.187500 0.000000
vt 0.250000 0.000000
vt 0.687500 0.000000
vt 0.750000 0.000000
vt 0.437500 0.000000
vt 0.500000 0.000000
vt 0.937500 0.000000
vt 1.000000 0.000000
vt 0.000000 0.000000
vt 0.000000 0.062500
vt 0.000000 0.125000
vt 0.000000 0.187500
vt 0.000000 0.250000
vt 0.000000 0.312500
vt 0.000000 0.375000
vt 0.000000 0.437500
vt 0.000000 0.500000
vt 0.000000 0.562500
vt 0.000000 0.625000
vt 0.000000 0.687500
vt 0.000000 0.750000
vt 0.000000 0.812500
vt 0.000000 0.875000
vt 0.000000 0.937500
vt 0.000000 1.000000
s 0
f 163/1/1 82/2/1 4/3/1 155/4/1
f 167/5/1 118/6/1 6/7/1 156/8/1
f 235/9/1 119/10/1 9/11/1 224/12/1
f 231/13/1 83/14/1 8/15/1 223/16/1
f 201/17/1 120/18/1 12/19/1 190/20/1
f 197/21/1 84/22/1 11/23/1 189/24/1
f 265/25/1 85/26/1 13/27/1 257/28/1
f 269/29/1 121/30/1 14/31/1 258/32/1
f 267/33/1 103/34/1 20/35/1 259/36/1
f 199/37/1 102/38/1 19/39/1 191/40/1
f 233/41/1 101/42/1 18/43/1 225/44/1
f 165/45/1 100/46/1 16/47/1 157/48/1
f 271/49/1 139/50/1 25/51/1 260/52/1
f 203/53/1 138/54/1 24/55/1 192/56/1
f 237/57/1 137/58/1 23/59/1 226/60/1
f 169/61/1 136/62/1 22/63/1 158/64/1
f 166/65/1 110/66/1 27/67/1 159/68/1
f 234/69/1 111/70/1 28/71/1 227/72/1
f 200/73/1 112/74/1 29/75/1 193/76/1
f 268/77/1 113/78/1 30/79/1 261/80/1
f 266/81/1 95/82/1 34/83/1 262/84/1
f 198/85/1 94/86/1 33/87/1 194/88/1
f 232/89/1 93/90/1 32/91/1 228/92/1
f 164/93/1 92/94/1 31/95/1 160/96/1
f 270/97/1 131/98/1 39/99/1 263/100/1
f 202/101/1 130/102/1 38/103/1 195/104/1
f 236/105/1 129/106/1 37/107/1 229/108/1
f 168/109/1 128/110/1 36/111/1 161/112/1
f 170/113/1 146/114/1 42/115/1 162/116/1
f 238/117/1 147/118/1 43/119/1 230/120/1
f 204/121/1 148/122/1 44/123/1 196/124/1
f 272/125/1 149/126/1 45/127/1 264/128/1
f 187/129/1 150/130/1 54/131/1 178/132/1
f 185/133/1 132/134/1 53/135/1 177/136/1
f 181/137/1 96/138/1 52/139/1 176/140/1
f 183/141/1 114/142/1 51/143/1 175/144/1
f 186/145/1 141/146/1 50/147/1 174/148/1
f 182/149/1 105/150/1 49/151/1 173/152/1
f 184/153/1 123/154/1 48/155/1 172/156/1
f 180/157/1 87/158/1 47/159/1 171/160/1
f 221/161/1 151/162/1 63/163/1 212/164/1
f 219/165/1 133/166/1 62/167/1 211/168/1
f 215/169/1 97/170/1 61/171/1 210/172/1
f 217/173/1 115/174/1 60/175/1 209/176/1
f 220/177/1 142/178/1 59/179/1 208/180/1
f 216/181/1 106/182/1 58/183/1 207/184/1
f 214/185/1 88/186/1 55/187/1 205/188/1
f 218/189/1 124/190/1 56/191/1 206/192/1
f 255/193/1 152/194/1 72/195/1 246/196/1
f 253/197/1 134/198/1 71/199/1 245/200/1
f 249/201/1 98/202/1 70/203/1 244/204/1
f 251/205/1 116/206/1 69/207/1 243/208/1
f 254/209/1 143/210/1 68/211/1 242/212/1
f 250/213/1 107/214/1 67/215/1 241/216/1
f 248/217/1 89/218/1 65/219/1 239/220/1
f 252/221/1 125/222/1 66/223/1 240/224/1
f 289/225/1 153/226/1 81/227/1 280/228/1
f 287/229/1 135/230/1 80/231/1 279/232/1
f 283/233/1 99/234/1 79/235/1 278/236/1
f 285/237/1 117/238/1 78/239/1 277/240/1
f 288/241/1 144/242/1 77/243/1 276/244/1
f 284/245/1 108/246/1 76/247/1 275/248/1
f 286/249/1 126/250/1 74/251/1 274/252/1
f 282/253/1 90/254/1 73/255/1 273/256/1
f 278/236/1 79/235/1 90/254/1 282/253/1
f 244/204/1 70/203/1 89/218/1 248/217/1
f 210/172/1 61/171/1 88/186/1 214/185/1
f 176/140/1 52/139/1 87/158/1 180/157/1
f 262/84/1 34/83/1 85/26/1 265/25/1
f 194/88/1 33/87/1 84/22/1 197/21/1
f 228/92/1 32/91/1 83/14/1 231/13/1
f 160/96/1 31/95/1 82/2/1 163/1/1
f 275/248/1 76/247/1 99/234/1 283/233/1
f 241/216/1 67/215/1 98/202/1 249/201/1
f 207/184/1 58/183/1 97/170/1 215/169/1
f 173/152/1 49/151/1 96/138/1 181/137/1
f 157/48/1 16/47/1 92/94/1 164/93/1
f 225/44/1 18/43/1 93/90/1 232/89/1
f 191/40/1 19/39/1 94/86/1 198/85/1
f 259/36/1 20/35/1 95/82/1 266/81/1
f 277/240/1 78/239/1 108/246/1 284/245/1
f 243/208/1 69/207/1 107/214/1 250/213/1
f 209/176/1 60/175/1 106/182/1 216/181/1
f 175/144/1 51/143/1 105/150/1 182/149/1
f 159/68/1 27/67/1 100/46/1 165/45/1
f 227/72/1 28/71/1 101/42/1 233/41/1
f 193/76/1 29/75/1 102/38/1 199/37/1
f 261/80/1 30/79/1 103/34/1 267/33/1
f 274/252/1 74/251/1 117/238/1 285/237/1
f 240/224/1 66/223/1 116/206/1 251/205/1
f 206/192/1 56/191/1 115/174/1 217/173/1
f 172/156/1 48/155/1 114/142/1 183/141/1
f 258/32/1 14/31/1 113/78/1 268/77/1
f 190/20/1 12/19/1 112/74/1 200/73/1
f 224/12/1 9/11/1 111/70/1 234/69/1
f 156/8/1 6/7/1 110/66/1 166/65/1
f 279/232/1 80/231/1 126/250/1 286/249/1
f 245/200/1 71/199/1 125/222/1 252/221/1
f 211/168/1 62/167/1 124/190/1 218/189/1
f 177/136/1 53/135/1 123/154/1 184/153/1
f 263/100/1 39/99/1 121/30/1 269/29/1
f 195/104/1 38/103/1 120/18/1 201/17/1
f 229/108/1 37/107/1 119/10/1 235/9/1
f 161/112/1 36/111/1 118/6/1 167/5/1
f 276/244/1 77/243/1 135/230/1 287/229/1
f 242/212/1 68/211/1 134/198/1 253/197/1
f 208/180/1 59/179/1 133/166/1 219/165/1
f 174/148/1 50/147/1 132/134/1 185/133/1
f 158/64/1 22/63/1 128/110/1 168/109/1
f 226/60/1 23/59/1 129/106/1 236/105/1
f 192/56/1 24/55/1 130/102/1 202/101/1
f 260/52/1 25/51/1 131/98/1 270/97/1
f 280/228/1 81/227/1 144/242/1 288/241/1
f 246/196/1 72/195/1 143/210/1 254/209/1
f 212/164/1 63/163/1 142/178/1 220/177/1
f 178/132/1 54/131/1 141/146/1 186/145/1
f 162/116/1 42/115/1 136/62/1 169/61/1
f 230/120/1 43/119/1 137/58/1 237/57/1
f 196/124/1 44/123/1 138/54/1 203/53/1
f 264/128/1 45/127/1 139/50/1 271/49/1
f 281/257/1 75/258/1 153/226/1 289/225/1
f 247/259/1 64/260/1 152/194/1 255/193/1
f 213/261/1 57/262/1 151/162/1 221/161/1
f 179/263/1 46/264/1 150/130/1 187/129/1
f 256/265/1 15/266/1 149/126/1 272/125/1
f 188/267/1 10/268/1 148/122/1 204/121/1
f 222/269/1 7/270/1 147/118/1 238/117/1
f 154/271/1 2/272/1 146/114/1 170/113/1
f 46/264/1 154/271/1 170/113/1 150/130/1
f 54/131/1 162/116/1 169/61/1 141/146/1
f 50/147/1 158/64/1 168/109/1 132/134/1
f 53/135/1 161/112/1 167/5/1 123/154/1
f 48/155/1 156/8/1 166/65/1 114/142/1
f 51/143/1 159/68/1 165/45/1 105/150/1
f 49/151/1 157/48/1 164/93/1 96/138/1
f 52/139/1 160/96/1 163/1/1 87/158/1
f 150/130/1 170/113/1 162/116/1 54/131/1
f 132/134/1 168/109/1 161/112/1 53/135/1
f 96/138/1 164/93/1 160/96/1 52/139/1
f 114/142/1 166/65/1 159/68/1 51/143/1
f 141/146/1 169/61/1 158/64/1 50/147/1
f 105/150/1 165/45/1 157/48/1 49/151/1
f 123/154/1 167/5/1 156/8/1 48/155/1
f 87/158/1 163/1/1 155/4/1 47/159/1
f 10/268/1 179/263/1 187/129/1 148/122/1
f 44/123/1 178/132/1 186/145/1 138/54/1
f 24/55/1 174/148/1 185/133/1 130/102/1
f 38/103/1 177/136/1 184/153/1 120/18/1
f 12/19/1 172/156/1 183/141/1 112/74/1
f 29/75/1 175/144/1 182/149/1 102/38/1
f 19/39/1 173/152/1 181/137/1 94/86/1
f 33/87/1 176/140/1 180/157/1 84/22/1
f 84/22/1 180/157/1 171/160/1 11/23/1
f 120/18/1 184/153/1 172/156/1 12/19/1
f 102/38/1 182/149/1 173/152/1 19/39/1
f 138/54/1 186/145/1 174/148/1 24/55/1
f 112/74/1 183/141/1 175/144/1 29/75/1
f 94/86/1 181/137/1 176/140/1 33/87/1
f 130/102/1 185/133/1 177/136/1 38/103/1
f 148/122/1 187/129/1 178/132/1 44/123/1
f 57/262/1 188/267/1 204/121/1 151/162/1
f 63/163/1 196/124/1 203/53/1 142/178/1
f 59/179/1 192/56/1 202/101/1 133/166/1
f 62/167/1 195/104/1 201/17/1 124/190/1
f 56/191/1 190/20/1 200/73/1 115/174/1
f 60/175/1 193/76/1 199/37/1 106/182/1
f 58/183/1 191/40/1 198/85/1 97/170/1
f 61/171/1 194/88/1 197/21/1 88/186/1
f 151/162/1 204/121/1 196/124/1 63/163/1
f 133/166/1 202/101/1 195/104/1 62/167/1
f 97/170/1 198/85/1 194/88/1 61/171/1
f 115/174/1 200/73/1 193/76/1 60/175/1
f 142/178/1 203/53/1 192/56/1 59/179/1
f 106/182/1 199/37/1 191/40/1 58/183/1
f 88/186/1 197/21/1 189/24/1 55/187/1
f 124/190/1 201/17/1 190/20/1 56/191/1
f 7/270/1 213/261/1 221/161/1 147/118/1
f 43/119/1 212/164/1 220/177/1 137/58/1
f 23/59/1 208/180/1 219/165/1 129/106/1
f 37/107/1 211/168/1 218/189/1 119/10/1
f 9/11/1 206/192/1 217/173/1 111/70/1
f 28/71/1 209/176/1 216/181/1 101/42/1
f 18/43/1 207/184/1 215/169/1 93/90/1
f 32/91/1 210/172/1 214/185/1 83/14/1
f 119/10/1 218/189/1 206/192/1 9/11/1
f 83/14/1 214/185/1 205/188/1 8/15/1
f 101/42/1 216/181/1 207/184/1 18/43/1
f 137/58/1 220/177/1 208/180/1 23/59/1
f 111/70/1 217/173/1 209/176/1 28/71/1
f 93/90/1 215/169/1 210/172/1 32/91/1
f 129/106/1 219/165/1 211/168/1 37/107/1
f 147/118/1 221/161/1 212/164/1 43/119/1
f 64/260/1 222/269/1 238/117/1 152/194/1
f 72/195/1 230/120/1 237/57/1 143/210/1
f 68/211/1 226/60/1 236/105/1 134/198/1
f 71/199/1 229/108/1 235/9/1 125/222/1
f 66/223/1 224/12/1 234/69/1 116/206/1
f 69/207/1 227/72/1 233/41/1 107/214/1
f 67/215/1 225/44/1 232/89/1 98/202/1
f 70/203/1 228/92/1 231/13/1 89/218/1
f 152/194/1 238/117/1 230/120/1 72/195/1
f 134/198/1 236/105/1 229/108/1 71/199/1
f 98/202/1 232/89/1 228/92/1 70/203/1
f 116/206/1 234/69/1 227/72/1 69/207/1
f 143/210/1 237/57/1 226/60/1 68/211/1
f 107/214/1 233/41/1 225/44/1 67/215/1
f 89/218/1 231/13/1 223/16/1 65/219/1
f 125/222/1 235/9/1 224/12/1 66/223/1
f 15/266/1 247/259/1 255/193/1 149/126/1
f 45/127/1 246/196/1 254/209/1 139/50/1
f 25/51/1 242/212/1 253/197/1 131/98/1
f 39/99/1 245/200/1 252/221/1 121/30/1
f 14/31/1 240/224/1 251/205/1 113/78/1
f 30/79/1 243/208/1 250/213/1 103/34/1
f 20/35/1 241/216/1 249/201/1 95/82/1
f 34/83/1 244/204/1 248/217/1 85/26/1
f 121/30/1 252/221/1 240/224/1 14/31/1
f 85/26/1 248/217/1 239/220/1 13/27/1
f 103/34/1 250/213/1 241/216/1 20/35/1
f 139/50/1 254/209/1 242/212/1 25/51/1
f 113/78/1 251/205/1 243/208/1 30/79/1
f 95/82/1 249/201/1 244/204/1 34/83/1
f 131/98/1 253/197/1 245/200/1 39/99/1
f 149/126/1 255/193/1 246/196/1 45/127/1
f 75/258/1 256/265/1 272/125/1 153/226/1
f 81/227/1 264/128/1 271/49/1 144/242/1
f 77/243/1 260/52/1 270/97/1 135/230/1
f 80/231/1 263/100/1 269/29/1 126/250/1
f 74/251/1 258/32/1 268/77/1 117/238/1
f 78/239/1 261/80/1 267/33/1 108/246/1
f 76/247/1 259/36/1 266/81/1 99/234/1
f 79/235/1 262/84/1 265/25/1 90/254/1
f 153/226/1 272/125/1 264/128/1 81/227/1
f 135/230/1 270/97/1 263/100/1 80/231/1
f 99/234/1 266/81/1 262/84/1 79/235/1
f 117/238/1 268/77/1 261/80/1 78/239/1
f 144/242/1 271/49/1 260/52/1 77/243/1
f 108/246/1 267/33/1 259/36/1 76/247/1
f 126/250/1 269/29/1 258/32/1 74/251/1
f 90/254/1 265/25/1 257/28/1 73/255/1
f 1/273/1 281/257/1 289/225/1 145/274/1
f 41/275/1 280/228/1 288/241/1 140/276/1
f 21/277/1 276/244/1 287/229/1 127/278/1
f 40/279/1 279/232/1 286/249/1 122/280/1
f 5/281/1 274/252/1 285/237/1 109/282/1
f 26/283/1 277/240/1 284/245/1 104/284/1
f 17/285/1 275/248/1 283/233/1 91/286/1
f 35/287/1 278/236/1 282/253/1 86/288/1
f 86/288/1 282/253/1 273/256/1 3/289/1
f 122/280/1 286/249/1 274/252/1 5/281/1
f 104/284/1 284/245/1 275/248/1 17/285/1
f 140/276/1 288/241/1 276/244/1 21/277/1
f 109/282/1 285/237/1 277/240/1 26/283/1
f 91/286/1 283/233/1 278/236/1 35/287/1
f 127/278/1 287/229/1 279/232/1 40/279/1
f 145/274/1 289/225/1 280/228/1 41/275/1
