# Blender 4.4.1
# www.blender.org
mtllib separateFloors1426.mtl
o playerRoom
v 13.009092 -0.000003 18.213552
v -13.009092 -0.000003 18.213552
v 13.009092 0.000003 -18.213552
v -13.009092 0.000003 -18.213552
v 13.009092 4.585559 -18.213552
v 13.009092 4.585554 18.213552
v -13.009092 4.585554 18.213552
v -13.009092 4.585559 -18.213552
v -58.636574 -0.000003 18.213552
v -58.636574 0.000003 -18.213552
v -58.636574 4.585554 18.213552
v -58.636574 4.585559 -18.213552
v -23.723732 4.585559 -18.213552
v -23.723732 0.000003 -18.213552
v -23.723732 4.585565 -55.381939
v -23.723732 0.000008 -55.381939
v -49.192139 4.585559 -18.213552
v -49.192139 0.000003 -18.213552
v -49.192139 4.585565 -55.381939
v -49.192139 0.000008 -55.381939
v -12.551501 0.000003 -18.213552
v -12.551501 -0.000003 18.213552
v -12.551501 4.585559 -18.213552
v -12.551501 4.585554 18.213552
v 13.502812 -0.000003 18.213552
v 13.502812 0.000003 -18.213552
v -58.142857 -0.000003 18.213552
v -58.142857 0.000003 -18.213552
v -58.142857 4.585559 -18.213552
v -58.142857 4.585554 18.213552
v 13.502812 4.585559 -18.213552
v 13.502812 4.585554 18.213552
v -48.698418 0.000003 -18.213552
v -48.698418 0.000008 -55.381939
v -23.230011 0.000008 -55.381939
v -23.230011 0.000003 -18.213552
v -23.230011 4.585559 -18.213552
v -23.230011 4.585565 -55.381939
v -48.698418 4.585559 -18.213552
v -48.698418 4.585565 -55.381939
v 13.009092 0.000003 -18.663843
v -13.009092 0.000003 -18.663843
v -13.009092 -0.000003 17.763262
v 13.009092 -0.000003 17.763262
v -58.636574 0.000003 -18.663843
v -58.636574 4.585559 -18.663843
v -58.636574 4.585554 17.763262
v -58.636574 -0.000003 17.763262
v 13.009092 4.585559 -18.663843
v -13.009092 4.585559 -18.663843
v -13.009092 4.585554 17.763262
v 13.009092 4.585554 17.763262
v -49.192139 0.000008 -55.832230
v -23.723732 0.000008 -55.832230
v -23.723732 0.000003 -18.663843
v -49.192139 0.000003 -18.663843
v -23.723732 4.585559 -18.663843
v -23.723732 4.585565 -55.832230
v -49.192139 4.585559 -18.663843
v -49.192139 4.585565 -55.832230
v 13.009092 0.549279 18.213552
v 13.009092 0.549285 -18.213552
v -13.009092 0.549285 -18.213552
v -13.009092 0.549279 18.213552
vn 0.8137 -0.0000 -0.5812
vn -0.8137 -0.0000 -0.5812
vn 0.0765 -0.9956 -0.0547
vn -0.0000 -0.9985 0.0548
vn -0.0000 -0.0000 1.0000
vn -0.0000 -1.0000 -0.0000
vn 1.0000 -0.0000 -0.0000
vn -0.0000 1.0000 -0.0000
vn -0.0000 -0.0000 -1.0000
vn -0.0000 -0.9985 -0.0548
vn -1.0000 -0.0000 -0.0000
vn -0.0766 0.9971 -0.0000
vn 0.0765 -0.9956 0.0547
vn 0.8137 -0.0000 0.5812
vn 0.0766 -0.9971 -0.0000
vn -0.8137 -0.0000 0.5812
vt 1.000000 0.000000
vt 0.000000 0.000000
vt 1.000000 1.000000
vt 0.000000 1.000000
s 1
usemtl Material.001
f 2/1/1 64/1/3 61/2/2 1/2/2
f 1/2/4 25/2/4 32/2/5 6/2/5
s 0
f 11/2/6 47/2/6 51/2/6 7/2/6
s 1
f 9/1/7 48/1/7 47/1/7 11/1/7
s 0
f 2/2/8 43/2/8 48/2/8 9/2/8
f 16/2/6 35/2/6 36/2/6 14/2/6
s 1
f 8/3/9 23/3/1 21/3/3 4/3/10
f 10/3/5 28/3/5 29/3/5 12/3/5
s 0
f 18/2/6 56/2/6 55/2/6 14/2/6
s 1
f 17/3/9 39/3/2 33/3/2 18/3/9
f 19/3/11 60/3/11 53/3/11 20/3/11
f 6/2/11 52/2/11 44/2/12 1/2/12
f 12/3/11 46/3/11 45/3/11 10/3/11
f 22/2/13 21/2/3 23/2/1 24/2/14
s 0
f 7/2/8 24/2/8 23/2/8 8/2/8
s 1
f 4/3/10 21/3/3 22/1/13 2/1/4
f 2/1/4 22/1/13 24/1/14 7/1/5
f 27/1/11 30/1/11 29/3/11 28/3/11
f 26/4/7 31/4/7 32/2/7 25/2/7
f 36/3/14 35/3/7 38/3/7 37/3/14
f 39/3/2 40/3/11 34/3/11 33/3/2
f 20/3/5 34/3/5 40/3/5 19/3/5
s 0
f 12/2/6 29/2/6 30/2/6 11/2/6
f 19/2/6 40/2/6 39/2/6 17/2/6
s 1
f 11/1/9 30/1/9 27/1/9 9/1/9
f 14/2/5 36/2/14 37/2/14 13/2/5
f 3/4/10 26/4/10 25/2/4 1/2/4
f 5/4/9 31/4/9 26/4/10 3/4/10
s 0
f 13/2/8 37/2/8 38/2/8 15/2/8
f 6/2/8 32/2/8 31/2/8 5/2/8
s 1
f 15/3/9 38/3/9 35/3/9 16/3/9
s 0
f 18/2/8 33/2/8 34/2/8 20/2/8
f 9/2/8 27/2/8 28/2/8 10/2/8
s 1
f 42/3/9 50/3/9 49/4/9 41/4/9
f 44/2/5 52/2/5 51/1/5 43/1/5
f 51/1/5 47/1/5 48/1/5 43/1/5
f 42/2/9 55/2/9 57/2/9 50/2/9
f 55/3/9 56/3/9 59/3/9 57/3/9
f 60/3/9 58/3/9 54/3/9 53/3/9
f 46/3/9 59/3/9 56/3/9 45/3/9
s 0
f 13/2/8 57/2/8 59/2/8 17/2/8
s 1
f 3/4/15 41/4/15 49/4/7 5/4/7
f 4/3/6 42/3/6 41/4/15 3/4/15
s 0
f 15/2/8 58/2/8 60/2/8 19/2/8
f 5/2/8 49/2/8 50/2/8 8/2/8
s 1
f 16/3/7 54/3/7 58/3/7 15/3/7
s 0
f 10/2/6 45/2/6 56/2/6 18/2/6
f 8/2/8 50/2/8 57/2/8 13/2/8
s 1
f 1/2/12 44/2/12 43/1/8 2/1/8
s 0
f 17/2/8 59/2/8 46/2/8 12/2/8
f 14/2/6 55/2/6 42/2/6 4/2/6
f 20/2/6 53/2/6 54/2/6 16/2/6
f 7/2/6 51/2/6 52/2/6 6/2/6
s 1
f 61/2/6 64/1/3 63/3/13 62/4/6
f 3/4/16 62/4/16 63/3/13 4/3/14
f 4/3/14 63/3/13 64/1/3 2/1/1
f 1/2/2 61/2/2 62/4/16 3/4/16
o playerRoom.001
v -13.009092 -0.000003 18.213552
v -13.009092 0.000003 -18.213552
v -58.636574 -0.000003 18.213552
v -58.636574 0.000003 -18.213552
v -13.009092 0.549285 -18.213552
v -13.009092 0.549279 18.213552
v -58.636574 0.549279 18.213552
v -58.636574 0.549285 -18.213552
vn -0.0765 0.9956 -0.0547
vn -0.0000 1.0000 -0.0000
vn 0.0765 0.9956 0.0547
vn -0.0765 0.9956 0.0547
vn -0.0765 -0.9956 -0.0547
vn -0.0765 -0.9956 0.0547
vn 0.0765 -0.9956 0.0547
vn -0.0000 -1.0000 -0.0000
vn 0.8137 -0.0000 -0.5812
vt 1.000000 0.000000
vt 1.000000 1.000000
s 1
usemtl Material.001
f 65/5/17 66/6/20 68/6/19 67/5/18
f 70/5/21 71/5/24 72/6/23 69/6/22
f 67/5/25 71/5/25 70/5/21 65/5/17
f 65/5/17 70/5/21 69/6/22 66/6/20
f 66/6/20 69/6/22 72/6/23 68/6/19
f 68/6/19 72/6/23 71/5/25 67/5/25
o playerRoom.002
v -23.723732 0.000003 -18.213552
v -23.723732 0.000008 -55.381939
v -49.192139 0.000003 -18.213552
v -49.192139 0.000008 -55.381939
v -49.192139 0.549285 -18.213552
v -49.192139 0.549290 -55.381939
v -23.723732 0.549290 -55.381939
v -23.723732 0.549285 -18.213552
vn -0.0765 -0.9956 0.0547
vn 0.0765 -0.9956 0.0547
vn 0.0765 -0.9956 -0.0547
vn -0.0765 -0.9956 -0.0547
vn -0.0765 0.9956 0.0547
vn -0.0765 0.9956 -0.0547
vn 0.0765 0.9956 -0.0547
vn 0.0765 0.9956 0.0547
vt 1.000000 1.000000
s 1
usemtl Material.001
f 75/7/26 76/7/29 74/7/28 73/7/27
f 77/7/30 80/7/33 79/7/32 78/7/31
f 73/7/27 80/7/33 77/7/30 75/7/26
f 76/7/29 78/7/31 79/7/32 74/7/28
f 74/7/28 79/7/32 80/7/33 73/7/27
f 75/7/26 77/7/30 78/7/31 76/7/29
