# Blender 4.4.1
# www.blender.org
mtllib separateFloors.mtl
o playerRoom
v 13.009092 -0.000003 18.213552
v -13.009092 -0.000003 18.213552
v 13.009092 0.000003 -18.213552
v -13.009092 0.000003 -18.213552
v 13.009092 4.585559 -18.213552
v 13.009092 4.585554 18.213552
v -13.009092 4.585554 18.213552
v -13.009092 4.585559 -18.213552
v -58.636574 -0.000003 18.213552
v -58.636574 0.000003 -18.213552
v -58.636574 4.585554 18.213552
v -58.636574 4.585559 -18.213552
v -23.723732 4.585559 -18.213552
v -23.723732 0.000003 -18.213552
v -23.723732 4.585565 -55.381939
v -23.723732 0.000008 -55.381939
v -49.192139 4.585559 -18.213552
v -49.192139 0.000003 -18.213552
v -49.192139 4.585565 -55.381939
v -49.192139 0.000008 -55.381939
vn -0.0000 -1.0000 -0.0000
vn -1.0000 -0.0000 -0.0000
vn -0.0000 -0.0000 -1.0000
vn -0.0000 -0.0000 1.0000
vn 1.0000 -0.0000 -0.0000
vt 0.000000 0.000000
vt 0.000000 1.000000
vt 1.000000 1.000000
vt 1.000000 0.000000
s 1
usemtl Material.001
f 1/1/1 2/4/1 4/3/1 3/2/1
f 9/4/2 11/4/2 12/3/2 10/3/2
f 4/3/3 8/3/3 5/2/3 3/2/3
f 1/1/4 6/1/4 7/4/4 2/4/4
f 7/4/4 11/4/4 9/4/4 2/4/4
f 3/2/5 5/2/5 6/1/5 1/1/5
f 2/1/5 4/1/5 8/1/5 7/1/5
f 14/3/5 16/3/5 15/3/5 13/3/5
f 4/1/3 14/1/3 13/1/3 8/1/3
f 17/3/2 19/3/2 20/3/2 18/3/2
f 14/3/3 18/3/3 17/3/3 13/3/3
f 19/3/3 15/3/3 16/3/3 20/3/3
f 12/3/3 17/3/3 18/3/3 10/3/3
o playerRoom.001
v -13.009092 -0.000003 18.213552
v -13.009092 0.000003 -18.213552
v -58.636574 -0.000003 18.213552
v -58.636574 0.000003 -18.213552
vn -0.0000 -1.0000 -0.0000
vt 1.000000 0.000000
vt 1.000000 1.000000
s 1
usemtl Material.001
f 21/5/6 23/5/6 24/6/6 22/6/6
o playerRoom.002
v -23.723732 0.000003 -18.213552
v -23.723732 0.000008 -55.381939
v -49.192139 0.000003 -18.213552
v -49.192139 0.000008 -55.381939
vn -0.0000 1.0000 -0.0000
vt 1.000000 1.000000
s 1
usemtl Material.001
f 27/7/7 25/7/7 26/7/7 28/7/7
