# Blender 4.5.3 LTS
# www.blender.org
o Cube
v 0.620310 1.896920 -0.620310
v 1.000000 -1.000000 -1.000000
v 0.620310 1.896920 0.620310
v 1.000000 -1.000000 1.000000
v -0.620310 1.896920 -0.620310
v -1.000000 -1.000000 -1.000000
v -0.620310 1.896920 0.620310
v -1.000000 -1.000000 1.000000
v 1.000000 1.000000 1.000000
v -1.000000 1.000000 1.000000
v 1.000000 1.000000 -1.000000
v -1.000000 1.000000 -1.000000
vn -0.0000 1.0000 -0.0000
vn -0.0000 -0.0000 1.0000
vn -1.0000 -0.0000 -0.0000
vn -0.0000 -1.0000 -0.0000
vn 1.0000 -0.0000 -0.0000
vn -0.0000 -0.0000 -1.0000
vn -0.0000 0.3898 0.9209
vn 0.9209 0.3898 -0.0000
vn -0.9209 0.3898 -0.0000
vn -0.0000 0.3898 -0.9209
vt 0.810155 0.810155
vt 0.189845 0.810155
vt 0.189845 0.189845
vt 0.810155 0.189845
vt 1.000000 0.000000
vt 1.000000 1.000000
vt 0.000000 1.000000
vt 0.000000 0.000000
s 0
f 1/1/1 5/2/1 7/3/1 3/4/1
f 4/5/2 9/6/2 10/7/2 8/8/2
f 8/5/3 10/6/3 12/7/3 6/8/3
f 6/8/4 2/5/4 4/6/4 8/7/4
f 2/5/5 11/6/5 9/7/5 4/8/5
f 6/5/6 12/6/6 11/7/6 2/8/6
f 3/4/7 7/3/7 10/8/7 9/5/7
f 1/1/8 3/4/8 9/5/8 11/6/8
f 7/3/9 5/2/9 12/7/9 10/8/9
f 5/2/10 1/1/10 11/6/10 12/7/10
