# Blender 4.4.1
# www.blender.org
mtllib not_cube2.mtl
o Cube
v 0.500000 0.500000 -0.500000
v 0.500000 -0.500000 -0.500000
v 0.500000 0.500000 0.500000
v 0.500000 -0.500000 0.500000
v -0.500000 0.500000 -0.500000
v -0.500000 -0.500000 -0.500000
v -0.500000 0.500000 0.500000
v -0.500000 -0.500000 0.500000
v 0.500000 0.500000 -0.409091
v 0.500000 0.500000 -0.318182
v 0.500000 0.500000 -0.227273
v 0.500000 0.500000 -0.136364
v 0.500000 0.500000 -0.045455
v 0.500000 0.500000 0.045455
v 0.500000 0.500000 0.136364
v 0.500000 0.500000 0.227273
v 0.500000 0.500000 0.318182
v 0.500000 0.500000 0.409091
v -0.500000 0.500000 -0.409091
v -0.500000 0.500000 -0.318182
v -0.500000 0.500000 -0.227273
v -0.500000 0.500000 -0.136364
v -0.500000 0.500000 -0.045455
v -0.500000 0.500000 0.045455
v -0.500000 0.500000 0.136364
v -0.500000 0.500000 0.227273
v -0.500000 0.500000 0.318182
v -0.500000 0.500000 0.409091
v -0.500000 -0.500000 -0.409091
v -0.500000 -0.500000 -0.318182
v -0.500000 -0.500000 -0.227273
v -0.500000 -0.500000 -0.136364
v -0.500000 -0.500000 -0.045454
v -0.500000 -0.500000 0.045455
v -0.500000 -0.500000 0.136364
v -0.500000 -0.500000 0.227273
v -0.500000 -0.500000 0.318182
v -0.500000 -0.500000 0.409091
v 0.500000 -0.500000 -0.409091
v 0.500000 -0.500000 -0.318182
v 0.500000 -0.500000 -0.227273
v 0.500000 -0.500000 -0.136364
v 0.500000 -0.500000 -0.045454
v 0.500000 -0.500000 0.045455
v 0.500000 -0.500000 0.136364
v 0.500000 -0.500000 0.227273
v 0.500000 -0.500000 0.318182
v 0.500000 -0.500000 0.409091
v 0.412077 0.500000 -0.500000
v 0.321167 0.500000 -0.500000
v 0.230258 0.500000 -0.500000
v 0.139349 0.500000 -0.500000
v 0.048440 0.500000 -0.500000
v -0.042469 0.500000 -0.500000
v -0.133378 0.500000 -0.500000
v -0.224287 0.500000 -0.500000
v -0.315196 0.500000 -0.500000
v -0.406105 0.500000 -0.500000
v 0.412077 0.500000 0.500000
v 0.321167 0.500000 0.500000
v 0.230258 0.500000 0.500000
v 0.139349 0.500000 0.500000
v 0.048440 0.500000 0.500000
v -0.042469 0.500000 0.500000
v -0.133378 0.500000 0.500000
v -0.224287 0.500000 0.500000
v -0.315196 0.500000 0.500000
v -0.406105 0.500000 0.500000
v 0.412077 -0.500000 0.500000
v 0.321167 -0.500000 0.500000
v 0.230258 -0.500000 0.500000
v 0.139349 -0.500000 0.500000
v 0.048440 -0.500000 0.500000
v -0.042469 -0.500000 0.500000
v -0.133378 -0.500000 0.500000
v -0.224287 -0.500000 0.500000
v -0.315196 -0.500000 0.500000
v -0.406105 -0.500000 0.500000
v 0.412077 -0.500000 -0.500000
v 0.321167 -0.500000 -0.500000
v 0.230258 -0.500000 -0.500000
v 0.139349 -0.500000 -0.500000
v 0.048440 -0.500000 -0.500000
v -0.042469 -0.500000 -0.500000
v -0.133378 -0.500000 -0.500000
v -0.224287 -0.500000 -0.500000
v -0.315196 -0.500000 -0.500000
v -0.406105 -0.500000 -0.500000
v 0.412077 -0.500000 -0.409091
v 0.321167 -0.500000 -0.409091
v 0.230258 -0.500000 -0.409091
v 0.139349 -0.500000 -0.409091
v 0.048440 -0.500000 -0.409091
v -0.042469 -0.500000 -0.409091
v -0.133378 -0.500000 -0.409091
v -0.224287 -0.500000 -0.409091
v -0.315196 -0.500000 -0.409091
v -0.406105 -0.500000 -0.409091
v 0.412077 -0.500000 -0.318182
v 0.321167 -0.500000 -0.318182
v 0.230258 -0.500000 -0.318182
v 0.139349 -0.500000 -0.318182
v 0.048440 -0.500000 -0.318182
v -0.042469 -0.500000 -0.318182
v -0.133378 -0.500000 -0.318182
v -0.224287 -0.500000 -0.318182
v -0.315196 -0.500000 -0.318182
v -0.406105 -0.500000 -0.318182
v 0.412077 -0.500000 -0.227273
v 0.321167 -0.500000 -0.227273
v 0.230258 -0.500000 -0.227273
v 0.139349 -0.500000 -0.227273
v 0.048440 -0.500000 -0.227273
v -0.042469 -0.500000 -0.227273
v -0.133378 -0.500000 -0.227273
v -0.224287 -0.500000 -0.227273
v -0.315196 -0.500000 -0.227273
v -0.406105 -0.500000 -0.227273
v 0.412077 -0.500000 -0.136364
v 0.321167 -0.500000 -0.136364
v 0.230258 -0.500000 -0.136364
v 0.139349 -0.500000 -0.136364
v 0.048440 -0.500000 -0.136364
v -0.042469 -0.500000 -0.136364
v -0.133378 -0.500000 -0.136364
v -0.224287 -0.500000 -0.136364
v -0.315196 -0.500000 -0.136364
v -0.406105 -0.500000 -0.136364
v 0.412077 -0.500000 -0.045454
v 0.321167 -0.500000 -0.045454
v 0.230258 -0.500000 -0.045454
v 0.139349 -0.500000 -0.045454
v 0.048440 -0.500000 -0.045454
v -0.042469 -0.500000 -0.045454
v -0.133378 -0.500000 -0.045454
v -0.224287 -0.500000 -0.045454
v -0.315196 -0.500000 -0.045454
v -0.406105 -0.500000 -0.045454
v 0.412077 -0.500000 0.045455
v 0.321167 -0.500000 0.045455
v 0.230258 -0.500000 0.045455
v 0.139349 -0.500000 0.045455
v 0.048440 -0.500000 0.045455
v -0.042469 -0.500000 0.045455
v -0.133378 -0.500000 0.045455
v -0.224287 -0.500000 0.045455
v -0.315196 -0.500000 0.045455
v -0.406105 -0.500000 0.045455
v 0.412077 -0.500000 0.136364
v 0.321167 -0.500000 0.136364
v 0.230258 -0.500000 0.136364
v 0.139349 -0.500000 0.136364
v 0.048440 -0.500000 0.136364
v -0.042469 -0.500000 0.136364
v -0.133378 -0.500000 0.136364
v -0.224287 -0.500000 0.136364
v -0.315196 -0.500000 0.136364
v -0.406105 -0.500000 0.136364
v 0.412077 -0.500000 0.227273
v 0.321167 -0.500000 0.227273
v 0.230258 -0.500000 0.227273
v 0.139349 -0.500000 0.227273
v 0.048440 -0.500000 0.227273
v -0.042469 -0.500000 0.227273
v -0.133378 -0.500000 0.227273
v -0.224287 -0.500000 0.227273
v -0.315196 -0.500000 0.227273
v -0.406105 -0.500000 0.227273
v 0.412077 -0.500000 0.318182
v 0.321167 -0.500000 0.318182
v 0.230258 -0.500000 0.318182
v 0.139349 -0.500000 0.318182
v 0.048440 -0.500000 0.318182
v -0.042469 -0.500000 0.318182
v -0.133378 -0.500000 0.318182
v -0.224287 -0.500000 0.318182
v -0.315196 -0.500000 0.318182
v -0.406105 -0.500000 0.318182
v 0.412077 -0.500000 0.409091
v 0.321167 -0.500000 0.409091
v 0.230258 -0.500000 0.409091
v 0.139349 -0.500000 0.409091
v 0.048440 -0.500000 0.409091
v -0.042469 -0.500000 0.409091
v -0.133378 -0.500000 0.409091
v -0.224287 -0.500000 0.409091
v -0.315196 -0.500000 0.409091
v -0.406105 -0.500000 0.409091
v -0.406105 0.500000 -0.409091
v -0.315196 0.500000 -0.409091
v -0.224287 0.500000 -0.409091
v -0.133378 0.500000 -0.409091
v -0.042469 0.500000 -0.409091
v 0.048440 0.500000 -0.409091
v 0.139349 0.500000 -0.409091
v 0.230258 0.500000 -0.409091
v 0.321167 0.500000 -0.409091
v 0.412077 0.500000 -0.409091
v -0.406105 0.500000 -0.318182
v -0.315196 0.500000 -0.318182
v -0.224287 0.500000 -0.318182
v -0.133378 0.500000 -0.318182
v -0.042469 0.500000 -0.318182
v 0.048440 0.500000 -0.318182
v 0.139349 0.500000 -0.318182
v 0.230258 0.500000 -0.318182
v 0.321167 0.500000 -0.318182
v 0.412077 0.500000 -0.318182
v -0.406105 0.500000 -0.227273
v -0.315196 0.500000 -0.227273
v -0.224287 0.500000 -0.227273
v -0.133378 0.500000 -0.227273
v -0.042469 0.500000 -0.227273
v 0.048440 0.500000 -0.227273
v 0.139349 0.500000 -0.227273
v 0.230258 0.500000 -0.227273
v 0.321167 0.500000 -0.227273
v 0.412077 0.500000 -0.227273
v -0.406105 0.500000 -0.136364
v -0.315196 0.500000 -0.136364
v -0.224287 0.500000 -0.136364
v -0.133378 0.500000 -0.136364
v -0.042469 0.500000 -0.136364
v 0.048440 0.500000 -0.136364
v 0.139349 0.500000 -0.136364
v 0.230258 0.500000 -0.136364
v 0.321167 0.500000 -0.136364
v 0.412077 0.500000 -0.136364
v -0.406105 0.500000 -0.045455
v -0.315196 0.500000 -0.045455
v -0.224287 0.500000 -0.045455
v -0.133378 0.500000 -0.045455
v -0.042469 0.500000 -0.045455
v 0.048440 0.500000 -0.045455
v 0.139349 0.500000 -0.045455
v 0.230258 0.500000 -0.045455
v 0.321167 0.500000 -0.045455
v 0.412077 0.500000 -0.045455
v -0.406105 0.500000 0.045455
v -0.315196 0.500000 0.045455
v -0.224287 0.500000 0.045455
v -0.133378 0.500000 0.045455
v -0.042469 0.500000 0.045455
v 0.048440 0.500000 0.045455
v 0.139349 0.500000 0.045455
v 0.230258 0.500000 0.045455
v 0.321167 0.500000 0.045455
v 0.412077 0.500000 0.045455
v -0.406105 0.500000 0.136364
v -0.315196 0.500000 0.136364
v -0.224287 0.500000 0.136364
v -0.133378 0.500000 0.136364
v -0.042469 0.500000 0.136364
v 0.048440 0.500000 0.136364
v 0.139349 0.500000 0.136364
v 0.230258 0.500000 0.136364
v 0.321167 0.500000 0.136364
v 0.412077 0.500000 0.136364
v -0.406105 0.500000 0.227273
v -0.315196 0.500000 0.227273
v -0.224287 0.500000 0.227273
v -0.133378 0.500000 0.227273
v -0.042469 0.500000 0.227273
v 0.048440 0.500000 0.227273
v 0.139349 0.500000 0.227273
v 0.230258 0.500000 0.227273
v 0.321167 0.500000 0.227273
v 0.412077 0.500000 0.227273
v -0.406105 0.500000 0.318182
v -0.315196 0.500000 0.318182
v -0.224287 0.500000 0.318182
v -0.133378 0.500000 0.318182
v -0.042469 0.500000 0.318182
v 0.048440 0.500000 0.318182
v 0.139349 0.500000 0.318182
v 0.230258 0.500000 0.318182
v 0.321167 0.500000 0.318182
v 0.412077 0.500000 0.318182
v -0.406105 0.500000 0.409091
v -0.315196 0.500000 0.409091
v -0.224287 0.500000 0.409091
v -0.133378 0.500000 0.409091
v -0.042469 0.500000 0.409091
v 0.048440 0.500000 0.409091
v 0.139349 0.500000 0.409091
v 0.230258 0.500000 0.409091
v 0.321167 0.500000 0.409091
v 0.412077 0.500000 0.409091
v 0.500000 0.409091 0.500000
v 0.500000 0.318182 0.500000
v 0.500000 0.227273 0.500000
v 0.500000 0.136364 0.500000
v 0.500000 0.045455 0.500000
v 0.500000 -0.045455 0.500000
v 0.500000 -0.136364 0.500000
v 0.500000 -0.227273 0.500000
v 0.500000 -0.318182 0.500000
v 0.500000 -0.409091 0.500000
v -0.500000 0.409091 0.500000
v -0.500000 0.318182 0.500000
v -0.500000 0.227273 0.500000
v -0.500000 0.136364 0.500000
v -0.500000 0.045455 0.500000
v -0.500000 -0.045455 0.500000
v -0.500000 -0.136364 0.500000
v -0.500000 -0.227273 0.500000
v -0.500000 -0.318182 0.500000
v -0.500000 -0.409091 0.500000
v -0.500000 0.409091 -0.500000
v -0.500000 0.318182 -0.500000
v -0.500000 0.227273 -0.500000
v -0.500000 0.136364 -0.500000
v -0.500000 0.045454 -0.500000
v -0.500000 -0.045455 -0.500000
v -0.500000 -0.136364 -0.500000
v -0.500000 -0.227273 -0.500000
v -0.500000 -0.318182 -0.500000
v -0.500000 -0.409091 -0.500000
v 0.500000 0.409091 -0.500000
v 0.500000 0.318182 -0.500000
v 0.500000 0.227273 -0.500000
v 0.500000 0.136364 -0.500000
v 0.500000 0.045454 -0.500000
v 0.500000 -0.045455 -0.500000
v 0.500000 -0.136364 -0.500000
v 0.500000 -0.227273 -0.500000
v 0.500000 -0.318182 -0.500000
v 0.500000 -0.409091 -0.500000
v 0.500000 0.409091 -0.409091
v 0.500000 0.318182 -0.409091
v 0.500000 0.227273 -0.409091
v 0.500000 0.136364 -0.409091
v 0.500000 0.045455 -0.409091
v 0.500000 -0.045455 -0.409091
v 0.500000 -0.136364 -0.409091
v 0.500000 -0.227273 -0.409091
v 0.500000 -0.318182 -0.409091
v 0.500000 -0.409091 -0.409091
v 0.500000 0.409091 -0.318182
v 0.500000 0.318182 -0.318182
v 0.500000 0.227273 -0.318182
v 0.500000 0.136364 -0.318182
v 0.500000 0.045455 -0.318182
v 0.500000 -0.045455 -0.318182
v 0.500000 -0.136364 -0.318182
v 0.500000 -0.227273 -0.318182
v 0.500000 -0.318182 -0.318182
v 0.500000 -0.409091 -0.318182
v 0.500000 0.409091 -0.227273
v 0.500000 0.318182 -0.227273
v 0.500000 0.227273 -0.227273
v 0.500000 0.136364 -0.227273
v 0.500000 0.045455 -0.227273
v 0.500000 -0.045455 -0.227273
v 0.500000 -0.136364 -0.227273
v 0.500000 -0.227273 -0.227273
v 0.500000 -0.318182 -0.227273
v 0.500000 -0.409091 -0.227273
v 0.500000 0.409091 -0.136364
v 0.500000 0.318182 -0.136364
v 0.500000 0.227273 -0.136364
v 0.500000 0.136364 -0.136364
v 0.500000 0.045455 -0.136364
v 0.500000 -0.045455 -0.136364
v 0.500000 -0.136364 -0.136364
v 0.500000 -0.227273 -0.136364
v 0.500000 -0.318182 -0.136364
v 0.500000 -0.409091 -0.136364
v 0.500000 0.409091 -0.045455
v 0.500000 0.318182 -0.045455
v 0.500000 0.227273 -0.045455
v 0.500000 0.136364 -0.045455
v 0.500000 0.045455 -0.045455
v 0.500000 -0.045455 -0.045455
v 0.500000 -0.136364 -0.045455
v 0.500000 -0.227273 -0.045455
v 0.500000 -0.318182 -0.045455
v 0.500000 -0.409091 -0.045455
v 0.500000 0.409091 0.045455
v 0.500000 0.318182 0.045455
v 0.500000 0.227273 0.045455
v 0.500000 0.136364 0.045455
v 0.500000 0.045455 0.045455
v 0.500000 -0.045455 0.045455
v 0.500000 -0.136364 0.045455
v 0.500000 -0.227273 0.045455
v 0.500000 -0.318182 0.045455
v 0.500000 -0.409091 0.045455
v 0.500000 0.409091 0.136364
v 0.500000 0.318182 0.136364
v 0.500000 0.227273 0.136364
v 0.500000 0.136364 0.136364
v 0.500000 0.045455 0.136364
v 0.500000 -0.045455 0.136364
v 0.500000 -0.136364 0.136364
v 0.500000 -0.227273 0.136364
v 0.500000 -0.318182 0.136364
v 0.500000 -0.409091 0.136364
v 0.500000 0.409091 0.227273
v 0.500000 0.318182 0.227273
v 0.500000 0.227273 0.227273
v 0.500000 0.136364 0.227273
v 0.500000 0.045455 0.227273
v 0.500000 -0.045455 0.227273
v 0.500000 -0.136364 0.227273
v 0.500000 -0.227273 0.227273
v 0.500000 -0.318182 0.227273
v 0.500000 -0.409091 0.227273
v 0.500000 0.409091 0.318182
v 0.500000 0.318182 0.318182
v 0.500000 0.227273 0.318182
v 0.500000 0.136364 0.318182
v 0.500000 0.045455 0.318182
v 0.500000 -0.045455 0.318182
v 0.500000 -0.136364 0.318182
v 0.500000 -0.227273 0.318182
v 0.500000 -0.318182 0.318182
v 0.500000 -0.409091 0.318182
v 0.500000 0.409091 0.409091
v 0.500000 0.318182 0.409091
v 0.500000 0.227273 0.409091
v 0.500000 0.136364 0.409091
v 0.500000 0.045455 0.409091
v 0.500000 -0.045455 0.409091
v 0.500000 -0.136364 0.409091
v 0.500000 -0.227273 0.409091
v 0.500000 -0.318182 0.409091
v 0.500000 -0.409091 0.409091
v -0.500000 0.409091 0.409091
v -0.500000 0.318182 0.409091
v -0.500000 0.227273 0.409091
v -0.500000 0.136364 0.409091
v -0.500000 0.045455 0.409091
v -0.500000 -0.045455 0.409091
v -0.500000 -0.136364 0.409091
v -0.500000 -0.227273 0.409091
v -0.500000 -0.318182 0.409091
v -0.500000 -0.409091 0.409091
v -0.500000 0.409091 0.318182
v -0.500000 0.318182 0.318182
v -0.500000 0.227273 0.318182
v -0.500000 0.136364 0.318182
v -0.500000 0.045455 0.318182
v -0.500000 -0.045455 0.318182
v -0.500000 -0.136364 0.318182
v -0.500000 -0.227273 0.318182
v -0.500000 -0.318182 0.318182
v -0.500000 -0.409091 0.318182
v -0.500000 0.409091 0.227273
v -0.500000 0.318182 0.227273
v -0.500000 0.227273 0.227273
v -0.500000 0.136364 0.227273
v -0.500000 0.045455 0.227273
v -0.500000 -0.045455 0.227273
v -0.500000 -0.136364 0.227273
v -0.500000 -0.227273 0.227273
v -0.500000 -0.318182 0.227273
v -0.500000 -0.409091 0.227273
v -0.500000 0.409091 0.136364
v -0.500000 0.318182 0.136364
v -0.500000 0.227273 0.136364
v -0.500000 0.136364 0.136364
v -0.500000 0.045455 0.136364
v -0.500000 -0.045455 0.136364
v -0.500000 -0.136364 0.136364
v -0.500000 -0.227273 0.136364
v -0.500000 -0.318182 0.136364
v -0.500000 -0.409091 0.136364
v -0.500000 0.409091 0.045455
v -0.500000 0.318182 0.045455
v -0.500000 0.227273 0.045455
v -0.500000 0.136364 0.045455
v -0.500000 0.045455 0.045455
v -0.500000 -0.045455 0.045455
v -0.500000 -0.136364 0.045455
v -0.500000 -0.227273 0.045455
v -0.500000 -0.318182 0.045455
v -0.500000 -0.409091 0.045455
v -0.500000 0.409091 -0.045455
v -0.500000 0.318182 -0.045455
v -0.500000 0.227273 -0.045455
v -0.500000 0.136364 -0.045455
v -0.500000 0.045455 -0.045455
v -0.500000 -0.045455 -0.045455
v -0.500000 -0.136364 -0.045455
v -0.500000 -0.227273 -0.045455
v -0.500000 -0.318182 -0.045455
v -0.500000 -0.409091 -0.045455
v -0.500000 0.409091 -0.136364
v -0.500000 0.318182 -0.136364
v -0.500000 0.227273 -0.136364
v -0.500000 0.136364 -0.136364
v -0.500000 0.045455 -0.136364
v -0.500000 -0.045455 -0.136364
v -0.500000 -0.136364 -0.136364
v -0.500000 -0.227273 -0.136364
v -0.500000 -0.318182 -0.136364
v -0.500000 -0.409091 -0.136364
v -0.500000 0.409091 -0.227273
v -0.500000 0.318182 -0.227273
v -0.500000 0.227273 -0.227273
v -0.500000 0.136364 -0.227273
v -0.500000 0.045455 -0.227273
v -0.500000 -0.045455 -0.227273
v -0.500000 -0.136364 -0.227273
v -0.500000 -0.227273 -0.227273
v -0.500000 -0.318182 -0.227273
v -0.500000 -0.409091 -0.227273
v -0.500000 0.409091 -0.318182
v -0.500000 0.318182 -0.318182
v -0.500000 0.227273 -0.318182
v -0.500000 0.136364 -0.318182
v -0.500000 0.045455 -0.318182
v -0.500000 -0.045455 -0.318182
v -0.500000 -0.136364 -0.318182
v -0.500000 -0.227273 -0.318182
v -0.500000 -0.318182 -0.318182
v -0.500000 -0.409091 -0.318182
v -0.500000 0.409091 -0.409091
v -0.500000 0.318182 -0.409091
v -0.500000 0.227273 -0.409091
v -0.500000 0.136364 -0.409091
v -0.500000 0.045455 -0.409091
v -0.500000 -0.045455 -0.409091
v -0.500000 -0.136364 -0.409091
v -0.500000 -0.227273 -0.409091
v -0.500000 -0.318182 -0.409091
v -0.500000 -0.409091 -0.409091
v -0.406105 0.409091 -0.500000
v -0.406105 0.318182 -0.500000
v -0.406105 0.227273 -0.500000
v -0.406105 0.136364 -0.500000
v -0.406105 0.045454 -0.500000
v -0.406105 -0.045455 -0.500000
v -0.406105 -0.136364 -0.500000
v -0.406105 -0.227273 -0.500000
v -0.406105 -0.318182 -0.500000
v -0.406105 -0.409091 -0.500000
v -0.315196 0.409091 -0.500000
v -0.315196 0.318182 -0.500000
v -0.315196 0.227273 -0.500000
v -0.315196 0.136364 -0.500000
v -0.315196 0.045454 -0.500000
v -0.315196 -0.045455 -0.500000
v -0.315196 -0.136364 -0.500000
v -0.315196 -0.227273 -0.500000
v -0.315196 -0.318182 -0.500000
v -0.315196 -0.409091 -0.500000
v -0.224287 0.409091 -0.500000
v -0.224287 0.318182 -0.500000
v -0.224287 0.227273 -0.500000
v -0.224287 0.136364 -0.500000
v -0.224287 0.045454 -0.500000
v -0.224287 -0.045455 -0.500000
v -0.224287 -0.136364 -0.500000
v -0.224287 -0.227273 -0.500000
v -0.224287 -0.318182 -0.500000
v -0.224287 -0.409091 -0.500000
v -0.133378 0.409091 -0.500000
v -0.133378 0.318182 -0.500000
v -0.133378 0.227273 -0.500000
v -0.133378 0.136364 -0.500000
v -0.133378 0.045454 -0.500000
v -0.133378 -0.045455 -0.500000
v -0.133378 -0.136364 -0.500000
v -0.133378 -0.227273 -0.500000
v -0.133378 -0.318182 -0.500000
v -0.133378 -0.409091 -0.500000
v -0.042469 0.409091 -0.500000
v -0.042469 0.318182 -0.500000
v -0.042469 0.227273 -0.500000
v -0.042469 0.136364 -0.500000
v -0.042469 0.045454 -0.500000
v -0.042469 -0.045455 -0.500000
v -0.042469 -0.136364 -0.500000
v -0.042469 -0.227273 -0.500000
v -0.042469 -0.318182 -0.500000
v -0.042469 -0.409091 -0.500000
v 0.048440 0.409091 -0.500000
v 0.048440 0.318182 -0.500000
v 0.048440 0.227273 -0.500000
v 0.048440 0.136364 -0.500000
v 0.048440 0.045454 -0.500000
v 0.048440 -0.045455 -0.500000
v 0.048440 -0.136364 -0.500000
v 0.048440 -0.227273 -0.500000
v 0.048440 -0.318182 -0.500000
v 0.048440 -0.409091 -0.500000
v 0.139349 0.409091 -0.500000
v 0.139349 0.318182 -0.500000
v 0.139349 0.227273 -0.500000
v 0.139349 0.136364 -0.500000
v 0.139349 0.045454 -0.500000
v 0.139349 -0.045455 -0.500000
v 0.139349 -0.136364 -0.500000
v 0.139349 -0.227273 -0.500000
v 0.139349 -0.318182 -0.500000
v 0.139349 -0.409091 -0.500000
v 0.230258 0.409091 -0.500000
v 0.230258 0.318182 -0.500000
v 0.230258 0.227273 -0.500000
v 0.230258 0.136364 -0.500000
v 0.230258 0.045454 -0.500000
v 0.230258 -0.045455 -0.500000
v 0.230258 -0.136364 -0.500000
v 0.230258 -0.227273 -0.500000
v 0.230258 -0.318182 -0.500000
v 0.230258 -0.409091 -0.500000
v 0.321167 0.409091 -0.500000
v 0.321167 0.318182 -0.500000
v 0.321167 0.227273 -0.500000
v 0.321167 0.136364 -0.500000
v 0.321167 0.045454 -0.500000
v 0.321167 -0.045455 -0.500000
v 0.321167 -0.136364 -0.500000
v 0.321167 -0.227273 -0.500000
v 0.321167 -0.318182 -0.500000
v 0.321167 -0.409091 -0.500000
v 0.412077 0.409091 -0.500000
v 0.412077 0.318182 -0.500000
v 0.412077 0.227273 -0.500000
v 0.412077 0.136364 -0.500000
v 0.412077 0.045454 -0.500000
v 0.412077 -0.045455 -0.500000
v 0.412077 -0.136364 -0.500000
v 0.412077 -0.227273 -0.500000
v 0.412077 -0.318182 -0.500000
v 0.412077 -0.409091 -0.500000
v 0.412077 0.409091 0.500000
v 0.412077 0.318182 0.500000
v 0.412077 0.227273 0.500000
v 0.412077 0.136364 0.500000
v 0.412077 0.045455 0.500000
v 0.412077 -0.045455 0.500000
v 0.412077 -0.136364 0.500000
v 0.412077 -0.227273 0.500000
v 0.412077 -0.318182 0.500000
v 0.412077 -0.409091 0.500000
v 0.321167 0.409091 0.500000
v 0.321167 0.318182 0.500000
v 0.321167 0.227273 0.500000
v 0.321167 0.136364 0.500000
v 0.321167 0.045455 0.500000
v 0.321167 -0.045455 0.500000
v 0.321167 -0.136364 0.500000
v 0.321167 -0.227273 0.500000
v 0.321167 -0.318182 0.500000
v 0.321167 -0.409091 0.500000
v 0.230258 0.409091 0.500000
v 0.230258 0.318182 0.500000
v 0.230258 0.227273 0.500000
v 0.230258 0.136364 0.500000
v 0.230258 0.045455 0.500000
v 0.230258 -0.045455 0.500000
v 0.230258 -0.136364 0.500000
v 0.230258 -0.227273 0.500000
v 0.230258 -0.318182 0.500000
v 0.230258 -0.409091 0.500000
v 0.139349 0.409091 0.500000
v 0.139349 0.318182 0.500000
v 0.139349 0.227273 0.500000
v 0.139349 0.136364 0.500000
v 0.139349 0.045455 0.500000
v 0.139349 -0.045455 0.500000
v 0.139349 -0.136364 0.500000
v 0.139349 -0.227273 0.500000
v 0.139349 -0.318182 0.500000
v 0.139349 -0.409091 0.500000
v 0.048440 0.409091 0.500000
v 0.048440 0.318182 0.500000
v 0.048440 0.227273 0.500000
v 0.048440 0.136364 0.500000
v 0.048440 0.045455 0.500000
v 0.048440 -0.045455 0.500000
v 0.048440 -0.136364 0.500000
v 0.048440 -0.227273 0.500000
v 0.048440 -0.318182 0.500000
v 0.048440 -0.409091 0.500000
v -0.042469 0.409091 0.500000
v -0.042469 0.318182 0.500000
v -0.042469 0.227273 0.500000
v -0.042469 0.136364 0.500000
v -0.042469 0.045455 0.500000
v -0.042469 -0.045455 0.500000
v -0.042469 -0.136364 0.500000
v -0.042469 -0.227273 0.500000
v -0.042469 -0.318182 0.500000
v -0.042469 -0.409091 0.500000
v -0.133378 0.409091 0.500000
v -0.133378 0.318182 0.500000
v -0.133378 0.227273 0.500000
v -0.133378 0.136364 0.500000
v -0.133378 0.045455 0.500000
v -0.133378 -0.045455 0.500000
v -0.133378 -0.136364 0.500000
v -0.133378 -0.227273 0.500000
v -0.133378 -0.318182 0.500000
v -0.133378 -0.409091 0.500000
v -0.224287 0.409091 0.500000
v -0.224287 0.318182 0.500000
v -0.224287 0.227273 0.500000
v -0.224287 0.136364 0.500000
v -0.224287 0.045455 0.500000
v -0.224287 -0.045455 0.500000
v -0.224287 -0.136364 0.500000
v -0.224287 -0.227273 0.500000
v -0.224287 -0.318182 0.500000
v -0.224287 -0.409091 0.500000
v -0.315196 0.409091 0.500000
v -0.315196 0.318182 0.500000
v -0.315196 0.227273 0.500000
v -0.315196 0.136364 0.500000
v -0.315196 0.045455 0.500000
v -0.315196 -0.045455 0.500000
v -0.315196 -0.136364 0.500000
v -0.315196 -0.227273 0.500000
v -0.315196 -0.318182 0.500000
v -0.315196 -0.409091 0.500000
v -0.406105 0.409091 0.500000
v -0.406105 0.318182 0.500000
v -0.406105 0.227273 0.500000
v -0.406105 0.136364 0.500000
v -0.406105 0.045455 0.500000
v -0.406105 -0.045455 0.500000
v -0.406105 -0.136364 0.500000
v -0.406105 -0.227273 0.500000
v -0.406105 -0.318182 0.500000
v -0.406105 -0.409091 0.500000
vn -0.0000 1.0000 -0.0000
vn -0.0000 -0.0000 1.0000
vn -1.0000 -0.0000 -0.0000
vn -0.0000 -1.0000 -0.0000
vn 1.0000 -0.0000 -0.0000
vn -0.0000 -0.0000 -1.0000
vt 0.906105 0.090909
vt 1.000000 0.090909
vt 1.000000 0.000000
vt 0.906105 0.000000
vt 0.093895 0.909091
vt 0.093895 1.000000
vt 0.000000 1.000000
vt 0.000000 0.909091
vt 0.090909 0.909091
vt 0.090909 1.000000
vt 0.087923 0.090909
vt 0.000000 0.090909
vt 0.000000 0.000000
vt 0.087923 0.000000
vt 0.090909 0.909091
vt 0.090909 1.000000
vt 0.087923 0.909091
vt 0.087923 1.000000
vt 1.000000 0.909091
vt 1.000000 1.000000
vt 0.909091 1.000000
vt 0.909091 0.909091
vt 0.818182 1.000000
vt 0.818182 0.909091
vt 0.727273 1.000000
vt 0.727273 0.909091
vt 0.636364 1.000000
vt 0.636364 0.909091
vt 0.545455 1.000000
vt 0.545455 0.909091
vt 0.454545 1.000000
vt 0.454545 0.909091
vt 0.363636 1.000000
vt 0.363636 0.909091
vt 0.272727 1.000000
vt 0.272727 0.909091
vt 0.181818 1.000000
vt 0.181818 0.909091
vt 0.000000 0.818182
vt 0.087923 0.818182
vt 0.000000 0.727273
vt 0.087923 0.727273
vt 0.000000 0.636364
vt 0.087923 0.636364
vt 0.000000 0.545455
vt 0.087923 0.545455
vt 0.000000 0.454545
vt 0.087923 0.454545
vt 0.000000 0.363636
vt 0.087923 0.363636
vt 0.000000 0.272727
vt 0.087923 0.272727
vt 0.000000 0.181818
vt 0.087923 0.181818
vt 0.818182 1.000000
vt 0.727273 1.000000
vt 0.727273 0.909091
vt 0.636364 1.000000
vt 0.636364 0.909091
vt 0.454545 1.000000
vt 0.454545 0.909091
vt 0.181818 1.000000
vt 0.181818 0.909091
vt 0.906105 1.000000
vt 0.906105 0.909091
vt 1.000000 0.818182
vt 0.906105 0.818182
vt 1.000000 0.727273
vt 0.906105 0.727273
vt 1.000000 0.636364
vt 0.906105 0.636364
vt 1.000000 0.545455
vt 0.906105 0.545455
vt 1.000000 0.454545
vt 0.906105 0.454545
vt 1.000000 0.363636
vt 0.906105 0.363636
vt 1.000000 0.272727
vt 0.906105 0.272727
vt 1.000000 0.181818
vt 0.906105 0.181818
vt 0.087923 0.181818
vt 0.087923 0.090909
vt 0.178833 0.181818
vt 0.178833 0.090909
vt 0.269742 0.181818
vt 0.269742 0.090909
vt 0.360651 0.181818
vt 0.360651 0.090909
vt 0.451560 0.181818
vt 0.451560 0.090909
vt 0.542469 0.181818
vt 0.542469 0.090909
vt 0.633378 0.181818
vt 0.633378 0.090909
vt 0.724287 0.181818
vt 0.724287 0.090909
vt 0.815196 0.181818
vt 0.815196 0.090909
vt 0.087923 0.272727
vt 0.178833 0.272727
vt 0.269742 0.272727
vt 0.360651 0.272727
vt 0.451560 0.272727
vt 0.542469 0.272727
vt 0.633378 0.272727
vt 0.724287 0.272727
vt 0.815196 0.272727
vt 0.087923 0.363636
vt 0.178833 0.363636
vt 0.269742 0.363636
vt 0.360651 0.363636
vt 0.451560 0.363636
vt 0.542469 0.363636
vt 0.633378 0.363636
vt 0.724287 0.363636
vt 0.815196 0.363636
vt 0.087923 0.454545
vt 0.178833 0.454545
vt 0.269742 0.454545
vt 0.360651 0.454545
vt 0.451560 0.454545
vt 0.542469 0.454545
vt 0.633378 0.454545
vt 0.724287 0.454545
vt 0.815196 0.454545
vt 0.087923 0.545455
vt 0.178833 0.545455
vt 0.269742 0.545455
vt 0.360651 0.545455
vt 0.451560 0.545455
vt 0.542469 0.545455
vt 0.633378 0.545455
vt 0.724287 0.545455
vt 0.815196 0.545455
vt 0.087923 0.636364
vt 0.178833 0.636364
vt 0.269742 0.636364
vt 0.360651 0.636364
vt 0.451560 0.636364
vt 0.542469 0.636364
vt 0.633378 0.636364
vt 0.724287 0.636364
vt 0.815196 0.636364
vt 0.087923 0.727273
vt 0.178833 0.727273
vt 0.269742 0.727273
vt 0.360651 0.727273
vt 0.451560 0.727273
vt 0.542469 0.727273
vt 0.633378 0.727273
vt 0.724287 0.727273
vt 0.815196 0.727273
vt 0.087923 0.818182
vt 0.178833 0.818182
vt 0.269742 0.818182
vt 0.360651 0.818182
vt 0.451560 0.818182
vt 0.542469 0.818182
vt 0.633378 0.818182
vt 0.724287 0.818182
vt 0.815196 0.818182
vt 0.087923 0.909091
vt 0.178833 0.909091
vt 0.269742 0.909091
vt 0.360651 0.909091
vt 0.451560 0.909091
vt 0.542469 0.909091
vt 0.633378 0.909091
vt 0.724287 0.909091
vt 0.815196 0.909091
vt 0.178833 1.000000
vt 0.269742 1.000000
vt 0.360651 1.000000
vt 0.451560 1.000000
vt 0.542469 1.000000
vt 0.633378 1.000000
vt 0.724287 1.000000
vt 0.815196 1.000000
vt 0.906105 0.181818
vt 0.906105 0.090909
vt 0.815196 0.181818
vt 0.815196 0.090909
vt 0.724287 0.181818
vt 0.724287 0.090909
vt 0.633378 0.181818
vt 0.633378 0.090909
vt 0.451560 0.181818
vt 0.451560 0.090909
vt 0.178833 0.181818
vt 0.178833 0.090909
vt 0.906105 0.272727
vt 0.815196 0.272727
vt 0.724287 0.272727
vt 0.633378 0.272727
vt 0.451560 0.272727
vt 0.178833 0.272727
vt 0.815196 0.363636
vt 0.724287 0.363636
vt 0.633378 0.363636
vt 0.451560 0.363636
vt 0.178833 0.363636
vt 0.906105 0.454545
vt 0.815196 0.454545
vt 0.724287 0.454545
vt 0.633378 0.454545
vt 0.451560 0.454545
vt 0.178833 0.454545
vt 0.906105 0.545455
vt 0.815196 0.545455
vt 0.724287 0.545455
vt 0.633378 0.545455
vt 0.451560 0.545455
vt 0.178833 0.545455
vt 0.815196 0.636364
vt 0.724287 0.636364
vt 0.633378 0.636364
vt 0.451560 0.636364
vt 0.178833 0.636364
vt 0.906105 0.727273
vt 0.815196 0.727273
vt 0.724287 0.727273
vt 0.633378 0.727273
vt 0.451560 0.727273
vt 0.178833 0.727273
vt 0.815196 0.818182
vt 0.724287 0.818182
vt 0.633378 0.818182
vt 0.451560 0.818182
vt 0.269742 0.818182
vt 0.178833 0.818182
vt 0.815196 0.909091
vt 0.724287 0.909091
vt 0.633378 0.909091
vt 0.542469 0.909091
vt 0.451560 0.909091
vt 0.360651 0.909091
vt 0.269742 0.909091
vt 0.178833 0.909091
vt 0.906105 1.000000
vt 0.724287 1.000000
vt 0.542469 1.000000
vt 0.815196 0.909091
vt 0.724287 0.909091
vt 0.542469 0.909091
vt 0.451560 0.909091
vt 0.360651 0.909091
vt 0.178833 0.909091
vt 0.815196 0.000000
vt 0.724287 0.000000
vt 0.633378 0.000000
vt 0.542469 0.000000
vt 0.451560 0.000000
vt 0.360651 0.000000
vt 0.269742 0.000000
vt 0.178833 0.000000
vt 0.912077 1.000000
vt 0.912076 0.909091
vt 0.821167 1.000000
vt 0.821167 0.909091
vt 0.730258 1.000000
vt 0.730258 0.909091
vt 0.639349 1.000000
vt 0.639349 0.909091
vt 0.548440 1.000000
vt 0.548440 0.909091
vt 0.457531 1.000000
vt 0.457531 0.909091
vt 0.366622 1.000000
vt 0.366622 0.909091
vt 0.275713 1.000000
vt 0.275713 0.909091
vt 0.184804 1.000000
vt 0.184804 0.909091
vt 0.087923 0.000000
vt 0.178833 0.000000
vt 0.360651 0.000000
vt 0.542469 0.000000
vt 0.184804 0.000000
vt 0.184804 0.090909
vt 0.093895 0.090909
vt 0.093895 0.000000
vt 0.184804 0.181818
vt 0.093895 0.181818
vt 0.184804 0.272727
vt 0.093895 0.272727
vt 0.184804 0.363636
vt 0.093895 0.363636
vt 0.184804 0.454545
vt 0.093895 0.454545
vt 0.184804 0.545455
vt 0.093895 0.545455
vt 0.184804 0.636364
vt 0.093895 0.636364
vt 0.184804 0.727273
vt 0.093895 0.727273
vt 0.184804 0.818182
vt 0.093895 0.818182
vt 0.275713 0.000000
vt 0.275713 0.090909
vt 0.275713 0.181818
vt 0.275713 0.272727
vt 0.275713 0.363636
vt 0.275713 0.454545
vt 0.275713 0.545455
vt 0.275713 0.636364
vt 0.275713 0.727273
vt 0.275713 0.818182
vt 0.366622 0.000000
vt 0.366622 0.090909
vt 0.366622 0.181818
vt 0.366622 0.272727
vt 0.366622 0.363636
vt 0.366622 0.454545
vt 0.366622 0.545455
vt 0.366622 0.636364
vt 0.366622 0.727273
vt 0.366622 0.818182
vt 0.457531 0.000000
vt 0.457531 0.090909
vt 0.457531 0.181818
vt 0.457531 0.272727
vt 0.457531 0.363636
vt 0.457531 0.454545
vt 0.457531 0.545455
vt 0.457531 0.636364
vt 0.457531 0.727273
vt 0.457531 0.818182
vt 0.548440 0.000000
vt 0.548440 0.090909
vt 0.548440 0.181818
vt 0.548440 0.272727
vt 0.548440 0.363636
vt 0.548440 0.454545
vt 0.548440 0.545455
vt 0.548440 0.636364
vt 0.548440 0.727273
vt 0.548440 0.818182
vt 0.639349 0.000000
vt 0.639349 0.090909
vt 0.639349 0.181818
vt 0.639349 0.272727
vt 0.639349 0.363636
vt 0.639349 0.454545
vt 0.639349 0.545455
vt 0.639349 0.636364
vt 0.639349 0.727273
vt 0.639349 0.818182
vt 0.730258 0.000000
vt 0.730258 0.090909
vt 0.730258 0.181818
vt 0.730258 0.272727
vt 0.730258 0.363636
vt 0.730258 0.454545
vt 0.730258 0.545455
vt 0.730258 0.636364
vt 0.730258 0.727273
vt 0.730258 0.818182
vt 0.821167 0.000000
vt 0.821167 0.090909
vt 0.821167 0.181818
vt 0.821167 0.272727
vt 0.821167 0.363636
vt 0.821167 0.454545
vt 0.821167 0.545455
vt 0.821167 0.636364
vt 0.821167 0.727273
vt 0.821167 0.818182
vt 0.912077 0.000000
vt 0.912076 0.090909
vt 0.912076 0.181818
vt 0.912076 0.272727
vt 0.912076 0.363636
vt 0.912076 0.454545
vt 0.912076 0.545455
vt 0.912076 0.636364
vt 0.912076 0.727273
vt 0.912076 0.818182
vt 0.178833 0.090909
vt 0.087923 0.090909
vt 0.178833 0.181818
vt 0.087923 0.181818
vt 0.178833 0.454545
vt 0.087923 0.636364
vt 0.178833 0.727273
vt 0.087923 0.727273
vt 0.178833 0.818182
vt 0.087923 0.818182
vt 0.269742 0.272727
vt 0.269742 0.454545
vt 0.269742 0.545455
vt 0.360651 0.272727
vt 0.360651 0.454545
vt 0.360651 0.545455
vt 0.360651 0.636364
vt 0.360651 0.727273
vt 0.360651 0.818182
vt 0.451560 0.454545
vt 0.542469 0.090909
vt 0.542469 0.181818
vt 0.542469 0.272727
vt 0.542469 0.363636
vt 0.542469 0.454545
vt 0.542469 0.545455
vt 0.542469 0.636364
vt 0.542469 0.727273
vt 0.542469 0.818182
vt 0.633378 0.181818
vt 0.633378 0.272727
vt 0.633378 0.363636
vt 0.633378 0.454545
vt 0.724287 0.272727
vt 0.724287 0.454545
vt 0.724287 0.545455
vt 0.724287 0.818182
vt 0.815196 0.272727
vt 0.815196 0.454545
vt 0.815196 0.545455
vt 0.815196 0.727273
vt 0.815196 0.818182
vt 0.906105 0.272727
vt 0.906105 0.363636
vt 0.906105 0.454545
vt 0.906105 0.545455
vt 0.906105 0.818182
vt 0.181818 0.000000
vt 0.181818 0.090909
vt 0.090909 0.090909
vt 0.090909 0.000000
vt 0.181818 0.181818
vt 0.090909 0.181818
vt 0.181818 0.272727
vt 0.090909 0.272727
vt 0.181818 0.363636
vt 0.090909 0.363636
vt 0.181818 0.454545
vt 0.090909 0.454545
vt 0.181818 0.545455
vt 0.090909 0.545455
vt 0.181818 0.636364
vt 0.090909 0.636364
vt 0.181818 0.727273
vt 0.090909 0.727273
vt 0.181818 0.818182
vt 0.090909 0.818182
vt 0.272727 0.000000
vt 0.272727 0.090909
vt 0.272727 0.181818
vt 0.272727 0.272727
vt 0.272727 0.363636
vt 0.272727 0.454545
vt 0.272727 0.545455
vt 0.272727 0.636364
vt 0.272727 0.727273
vt 0.272727 0.818182
vt 0.363636 0.000000
vt 0.363636 0.090909
vt 0.363636 0.181818
vt 0.363636 0.272727
vt 0.363636 0.363636
vt 0.363636 0.454545
vt 0.363636 0.545455
vt 0.363636 0.636364
vt 0.363636 0.727273
vt 0.363636 0.818182
vt 0.454545 0.000000
vt 0.454545 0.090909
vt 0.454545 0.181818
vt 0.454545 0.272727
vt 0.454545 0.363636
vt 0.454545 0.454545
vt 0.454545 0.545455
vt 0.454545 0.636364
vt 0.454545 0.727273
vt 0.454545 0.818182
vt 0.545455 0.000000
vt 0.545455 0.090909
vt 0.545455 0.181818
vt 0.545455 0.272727
vt 0.545455 0.363636
vt 0.545455 0.454545
vt 0.545455 0.545455
vt 0.545455 0.636364
vt 0.545455 0.727273
vt 0.545455 0.818182
vt 0.636364 0.000000
vt 0.636364 0.090909
vt 0.636364 0.181818
vt 0.636364 0.272727
vt 0.636364 0.363636
vt 0.636364 0.454545
vt 0.636364 0.545455
vt 0.636364 0.636364
vt 0.636364 0.727273
vt 0.636364 0.818182
vt 0.727273 0.000000
vt 0.727273 0.090909
vt 0.727273 0.181818
vt 0.727273 0.272727
vt 0.727273 0.363636
vt 0.727273 0.454545
vt 0.727273 0.545455
vt 0.727273 0.636364
vt 0.727273 0.727273
vt 0.727273 0.818182
vt 0.818182 0.000000
vt 0.818182 0.090909
vt 0.818182 0.181818
vt 0.818182 0.272727
vt 0.818182 0.363636
vt 0.818182 0.454545
vt 0.818182 0.545455
vt 0.818182 0.636364
vt 0.818182 0.727273
vt 0.818182 0.818182
vt 0.909091 0.000000
vt 0.909091 0.090909
vt 0.909091 0.181818
vt 0.909091 0.272727
vt 0.909091 0.363636
vt 0.909091 0.454545
vt 0.909091 0.545455
vt 0.909091 0.636364
vt 0.909091 0.727273
vt 0.909091 0.818182
vt 0.181818 0.000000
vt 0.181818 0.090909
vt 0.090909 0.090909
vt 0.090909 0.000000
vt 0.181818 0.181818
vt 0.090909 0.181818
vt 0.181818 0.272727
vt 0.090909 0.272727
vt 0.181818 0.363636
vt 0.090909 0.363636
vt 0.181818 0.454545
vt 0.090909 0.454545
vt 0.181818 0.545455
vt 0.090909 0.545455
vt 0.181818 0.636364
vt 0.090909 0.636364
vt 0.181818 0.727273
vt 0.090909 0.727273
vt 0.181818 0.818182
vt 0.090909 0.818182
vt 0.454545 0.000000
vt 0.454545 0.090909
vt 0.454545 0.181818
vt 0.454545 0.272727
vt 0.454545 0.363636
vt 0.454545 0.454545
vt 0.454545 0.545455
vt 0.454545 0.636364
vt 0.454545 0.727273
vt 0.454545 0.818182
vt 0.636364 0.000000
vt 0.636364 0.090909
vt 0.636364 0.181818
vt 0.636364 0.272727
vt 0.636364 0.363636
vt 0.636364 0.454545
vt 0.636364 0.545455
vt 0.636364 0.636364
vt 0.636364 0.727273
vt 0.636364 0.818182
vt 0.727273 0.000000
vt 0.727273 0.090909
vt 0.727273 0.181818
vt 0.727273 0.272727
vt 0.727273 0.363636
vt 0.727273 0.454545
vt 0.727273 0.545455
vt 0.727273 0.636364
vt 0.727273 0.727273
vt 0.727273 0.818182
vt 0.818182 0.000000
vt 0.818182 0.181818
vt 0.818182 0.272727
vt 0.818182 0.363636
vt 0.818182 0.727273
s 1
f 279/1/1 28/2/1 7/3/1 68/4/1
f 719/5/2 68/6/2 7/7/2 299/8/2
f 519/9/3 19/10/3 5/7/3 309/8/3
f 179/11/4 48/12/4 4/13/4 69/14/4
f 419/15/5 18/16/5 3/7/5 289/8/5
f 619/17/6 49/18/6 1/7/6 319/8/6
f 319/19/5 1/20/5 9/21/5 329/22/5
f 329/22/5 9/21/5 10/23/5 339/24/5
f 339/24/5 10/23/5 11/25/5 349/26/5
f 349/26/5 11/25/5 12/27/5 359/28/5
f 359/28/5 12/27/5 13/29/5 369/30/5
f 369/30/5 13/29/5 14/31/5 379/32/5
f 379/32/5 14/31/5 15/33/5 389/34/5
f 389/34/5 15/33/5 16/35/5 399/36/5
f 399/36/5 16/35/5 17/37/5 409/38/5
f 409/38/5 17/37/5 18/16/5 419/15/5
f 79/18/4 2/7/4 39/8/4 89/17/4
f 89/17/4 39/8/4 40/39/4 99/40/4
f 99/40/4 40/39/4 41/41/4 109/42/4
f 109/42/4 41/41/4 42/43/4 119/44/4
f 119/44/4 42/43/4 43/45/4 129/46/4
f 129/46/4 43/45/4 44/47/4 139/48/4
f 139/48/4 44/47/4 45/49/4 149/50/4
f 149/50/4 45/49/4 46/51/4 159/52/4
f 159/52/4 46/51/4 47/53/4 169/54/4
f 169/54/4 47/53/4 48/12/4 179/11/4
f 299/19/3 7/20/3 28/21/3 429/22/3
f 429/22/3 28/21/3 27/55/3 439/24/3
f 439/24/3 27/55/3 26/56/3 449/57/3
f 449/57/3 26/56/3 25/58/3 459/59/3
f 459/59/3 25/58/3 24/29/3 469/30/3
f 469/30/3 24/29/3 23/60/3 479/61/3
f 479/61/3 23/60/3 22/33/3 489/34/3
f 489/34/3 22/33/3 21/35/3 499/36/3
f 499/36/3 21/35/3 20/62/3 509/63/3
f 509/63/3 20/62/3 19/10/3 519/9/3
f 58/64/1 5/20/1 19/19/1 189/65/1
f 189/65/1 19/19/1 20/66/1 199/67/1
f 199/67/1 20/66/1 21/68/1 209/69/1
f 209/69/1 21/68/1 22/70/1 219/71/1
f 219/71/1 22/70/1 23/72/1 229/73/1
f 229/73/1 23/72/1 24/74/1 239/75/1
f 239/75/1 24/74/1 25/76/1 249/77/1
f 249/77/1 25/76/1 26/78/1 259/79/1
f 259/79/1 26/78/1 27/80/1 269/81/1
f 269/81/1 27/80/1 28/2/1 279/1/1
f 17/53/1 278/82/1 288/83/1 18/12/1
f 278/82/1 277/84/1 287/85/1 288/83/1
f 277/84/1 276/86/1 286/87/1 287/85/1
f 276/86/1 275/88/1 285/89/1 286/87/1
f 275/88/1 274/90/1 284/91/1 285/89/1
f 274/90/1 273/92/1 283/93/1 284/91/1
f 273/92/1 272/94/1 282/95/1 283/93/1
f 272/94/1 271/96/1 281/97/1 282/95/1
f 271/96/1 270/98/1 280/99/1 281/97/1
f 270/98/1 269/81/1 279/1/1 280/99/1
f 16/51/1 268/100/1 278/82/1 17/53/1
f 268/100/1 267/101/1 277/84/1 278/82/1
f 267/101/1 266/102/1 276/86/1 277/84/1
f 266/102/1 265/103/1 275/88/1 276/86/1
f 265/103/1 264/104/1 274/90/1 275/88/1
f 264/104/1 263/105/1 273/92/1 274/90/1
f 263/105/1 262/106/1 272/94/1 273/92/1
f 262/106/1 261/107/1 271/96/1 272/94/1
f 261/107/1 260/108/1 270/98/1 271/96/1
f 260/108/1 259/79/1 269/81/1 270/98/1
f 15/49/1 258/109/1 268/100/1 16/51/1
f 258/109/1 257/110/1 267/101/1 268/100/1
f 257/110/1 256/111/1 266/102/1 267/101/1
f 256/111/1 255/112/1 265/103/1 266/102/1
f 255/112/1 254/113/1 264/104/1 265/103/1
f 254/113/1 253/114/1 263/105/1 264/104/1
f 253/114/1 252/115/1 262/106/1 263/105/1
f 252/115/1 251/116/1 261/107/1 262/106/1
f 251/116/1 250/117/1 260/108/1 261/107/1
f 250/117/1 249/77/1 259/79/1 260/108/1
f 14/47/1 248/118/1 258/109/1 15/49/1
f 248/118/1 247/119/1 257/110/1 258/109/1
f 247/119/1 246/120/1 256/111/1 257/110/1
f 246/120/1 245/121/1 255/112/1 256/111/1
f 245/121/1 244/122/1 254/113/1 255/112/1
f 244/122/1 243/123/1 253/114/1 254/113/1
f 243/123/1 242/124/1 252/115/1 253/114/1
f 242/124/1 241/125/1 251/116/1 252/115/1
f 241/125/1 240/126/1 250/117/1 251/116/1
f 240/126/1 239/75/1 249/77/1 250/117/1
f 13/45/1 238/127/1 248/118/1 14/47/1
f 238/127/1 237/128/1 247/119/1 248/118/1
f 237/128/1 236/129/1 246/120/1 247/119/1
f 236/129/1 235/130/1 245/121/1 246/120/1
f 235/130/1 234/131/1 244/122/1 245/121/1
f 234/131/1 233/132/1 243/123/1 244/122/1
f 233/132/1 232/133/1 242/124/1 243/123/1
f 232/133/1 231/134/1 241/125/1 242/124/1
f 231/134/1 230/135/1 240/126/1 241/125/1
f 230/135/1 229/73/1 239/75/1 240/126/1
f 12/43/1 228/136/1 238/127/1 13/45/1
f 228/136/1 227/137/1 237/128/1 238/127/1
f 227/137/1 226/138/1 236/129/1 237/128/1
f 226/138/1 225/139/1 235/130/1 236/129/1
f 225/139/1 224/140/1 234/131/1 235/130/1
f 224/140/1 223/141/1 233/132/1 234/131/1
f 223/141/1 222/142/1 232/133/1 233/132/1
f 222/142/1 221/143/1 231/134/1 232/133/1
f 221/143/1 220/144/1 230/135/1 231/134/1
f 220/144/1 219/71/1 229/73/1 230/135/1
f 11/41/1 218/145/1 228/136/1 12/43/1
f 218/145/1 217/146/1 227/137/1 228/136/1
f 217/146/1 216/147/1 226/138/1 227/137/1
f 216/147/1 215/148/1 225/139/1 226/138/1
f 215/148/1 214/149/1 224/140/1 225/139/1
f 214/149/1 213/150/1 223/141/1 224/140/1
f 213/150/1 212/151/1 222/142/1 223/141/1
f 212/151/1 211/152/1 221/143/1 222/142/1
f 211/152/1 210/153/1 220/144/1 221/143/1
f 210/153/1 209/69/1 219/71/1 220/144/1
f 10/39/1 208/154/1 218/145/1 11/41/1
f 208/154/1 207/155/1 217/146/1 218/145/1
f 207/155/1 206/156/1 216/147/1 217/146/1
f 206/156/1 205/157/1 215/148/1 216/147/1
f 205/157/1 204/158/1 214/149/1 215/148/1
f 204/158/1 203/159/1 213/150/1 214/149/1
f 203/159/1 202/160/1 212/151/1 213/150/1
f 202/160/1 201/161/1 211/152/1 212/151/1
f 201/161/1 200/162/1 210/153/1 211/152/1
f 200/162/1 199/67/1 209/69/1 210/153/1
f 9/8/1 198/163/1 208/154/1 10/39/1
f 198/163/1 197/164/1 207/155/1 208/154/1
f 197/164/1 196/165/1 206/156/1 207/155/1
f 196/165/1 195/166/1 205/157/1 206/156/1
f 195/166/1 194/167/1 204/158/1 205/157/1
f 194/167/1 193/168/1 203/159/1 204/158/1
f 193/168/1 192/169/1 202/160/1 203/159/1
f 192/169/1 191/170/1 201/161/1 202/160/1
f 191/170/1 190/171/1 200/162/1 201/161/1
f 190/171/1 189/65/1 199/67/1 200/162/1
f 1/7/1 49/18/1 198/163/1 9/8/1
f 49/18/1 50/172/1 197/164/1 198/163/1
f 50/172/1 51/173/1 196/165/1 197/164/1
f 51/173/1 52/174/1 195/166/1 196/165/1
f 52/174/1 53/175/1 194/167/1 195/166/1
f 53/175/1 54/176/1 193/168/1 194/167/1
f 54/176/1 55/177/1 192/169/1 193/168/1
f 55/177/1 56/178/1 191/170/1 192/169/1
f 56/178/1 57/179/1 190/171/1 191/170/1
f 57/179/1 58/64/1 189/65/1 190/171/1
f 37/80/4 178/180/4 188/181/4 38/2/4
f 178/180/4 177/182/4 187/183/4 188/181/4
f 177/182/4 176/184/4 186/185/4 187/183/4
f 176/184/4 175/186/4 185/187/4 186/185/4
f 175/186/4 174/92/4 184/93/4 185/187/4
f 174/92/4 173/188/4 183/189/4 184/93/4
f 173/188/4 172/88/4 182/89/4 183/189/4
f 172/88/4 171/86/4 181/87/4 182/89/4
f 171/86/4 170/190/4 180/191/4 181/87/4
f 170/190/4 169/54/4 179/11/4 180/191/4
f 36/78/4 168/192/4 178/180/4 37/80/4
f 168/192/4 167/193/4 177/182/4 178/180/4
f 167/193/4 166/194/4 176/184/4 177/182/4
f 166/194/4 165/195/4 175/186/4 176/184/4
f 165/195/4 164/105/4 174/92/4 175/186/4
f 164/105/4 163/196/4 173/188/4 174/92/4
f 163/196/4 162/103/4 172/88/4 173/188/4
f 162/103/4 161/102/4 171/86/4 172/88/4
f 161/102/4 160/197/4 170/190/4 171/86/4
f 160/197/4 159/52/4 169/54/4 170/190/4
f 35/76/4 158/77/4 168/192/4 36/78/4
f 158/77/4 157/198/4 167/193/4 168/192/4
f 157/198/4 156/199/4 166/194/4 167/193/4
f 156/199/4 155/200/4 165/195/4 166/194/4
f 155/200/4 154/114/4 164/105/4 165/195/4
f 154/114/4 153/201/4 163/196/4 164/105/4
f 153/201/4 152/112/4 162/103/4 163/196/4
f 152/112/4 151/111/4 161/102/4 162/103/4
f 151/111/4 150/202/4 160/197/4 161/102/4
f 150/202/4 149/50/4 159/52/4 160/197/4
f 34/74/4 148/203/4 158/77/4 35/76/4
f 148/203/4 147/204/4 157/198/4 158/77/4
f 147/204/4 146/205/4 156/199/4 157/198/4
f 146/205/4 145/206/4 155/200/4 156/199/4
f 145/206/4 144/123/4 154/114/4 155/200/4
f 144/123/4 143/207/4 153/201/4 154/114/4
f 143/207/4 142/121/4 152/112/4 153/201/4
f 142/121/4 141/120/4 151/111/4 152/112/4
f 141/120/4 140/208/4 150/202/4 151/111/4
f 140/208/4 139/48/4 149/50/4 150/202/4
f 33/72/4 138/209/4 148/203/4 34/74/4
f 138/209/4 137/210/4 147/204/4 148/203/4
f 137/210/4 136/211/4 146/205/4 147/204/4
f 136/211/4 135/212/4 145/206/4 146/205/4
f 135/212/4 134/132/4 144/123/4 145/206/4
f 134/132/4 133/213/4 143/207/4 144/123/4
f 133/213/4 132/130/4 142/121/4 143/207/4
f 132/130/4 131/129/4 141/120/4 142/121/4
f 131/129/4 130/214/4 140/208/4 141/120/4
f 130/214/4 129/46/4 139/48/4 140/208/4
f 32/70/4 128/71/4 138/209/4 33/72/4
f 128/71/4 127/215/4 137/210/4 138/209/4
f 127/215/4 126/216/4 136/211/4 137/210/4
f 126/216/4 125/217/4 135/212/4 136/211/4
f 125/217/4 124/141/4 134/132/4 135/212/4
f 124/141/4 123/218/4 133/213/4 134/132/4
f 123/218/4 122/139/4 132/130/4 133/213/4
f 122/139/4 121/138/4 131/129/4 132/130/4
f 121/138/4 120/219/4 130/214/4 131/129/4
f 120/219/4 119/44/4 129/46/4 130/214/4
f 31/68/4 118/220/4 128/71/4 32/70/4
f 118/220/4 117/221/4 127/215/4 128/71/4
f 117/221/4 116/222/4 126/216/4 127/215/4
f 116/222/4 115/223/4 125/217/4 126/216/4
f 115/223/4 114/150/4 124/141/4 125/217/4
f 114/150/4 113/224/4 123/218/4 124/141/4
f 113/224/4 112/148/4 122/139/4 123/218/4
f 112/148/4 111/147/4 121/138/4 122/139/4
f 111/147/4 110/225/4 120/219/4 121/138/4
f 110/225/4 109/42/4 119/44/4 120/219/4
f 30/66/4 108/67/4 118/220/4 31/68/4
f 108/67/4 107/226/4 117/221/4 118/220/4
f 107/226/4 106/227/4 116/222/4 117/221/4
f 106/227/4 105/228/4 115/223/4 116/222/4
f 105/228/4 104/159/4 114/150/4 115/223/4
f 104/159/4 103/229/4 113/224/4 114/150/4
f 103/229/4 102/157/4 112/148/4 113/224/4
f 102/157/4 101/230/4 111/147/4 112/148/4
f 101/230/4 100/231/4 110/225/4 111/147/4
f 100/231/4 99/40/4 109/42/4 110/225/4
f 29/19/4 98/65/4 108/67/4 30/66/4
f 98/65/4 97/232/4 107/226/4 108/67/4
f 97/232/4 96/233/4 106/227/4 107/226/4
f 96/233/4 95/234/4 105/228/4 106/227/4
f 95/234/4 94/235/4 104/159/4 105/228/4
f 94/235/4 93/236/4 103/229/4 104/159/4
f 93/236/4 92/237/4 102/157/4 103/229/4
f 92/237/4 91/238/4 101/230/4 102/157/4
f 91/238/4 90/239/4 100/231/4 101/230/4
f 90/239/4 89/17/4 99/40/4 100/231/4
f 6/20/4 88/240/4 98/65/4 29/19/4
f 88/240/4 87/179/4 97/232/4 98/65/4
f 87/179/4 86/241/4 96/233/4 97/232/4
f 86/241/4 85/177/4 95/234/4 96/233/4
f 85/177/4 84/242/4 94/235/4 95/234/4
f 84/242/4 83/175/4 93/236/4 94/235/4
f 83/175/4 82/174/4 92/237/4 93/236/4
f 82/174/4 81/173/4 91/238/4 92/237/4
f 81/173/4 80/172/4 90/239/4 91/238/4
f 80/172/4 79/18/4 89/17/4 90/239/4
f 309/19/6 5/20/6 58/64/6 529/65/6
f 529/65/6 58/64/6 57/179/6 539/243/6
f 539/243/6 57/179/6 56/178/6 549/244/6
f 549/244/6 56/178/6 55/177/6 559/234/6
f 559/234/6 55/177/6 54/176/6 569/245/6
f 569/245/6 54/176/6 53/175/6 579/246/6
f 579/246/6 53/175/6 52/174/6 589/247/6
f 589/247/6 52/174/6 51/173/6 599/165/6
f 599/165/6 51/173/6 50/172/6 609/248/6
f 609/248/6 50/172/6 49/18/6 619/17/6
f 38/2/4 188/181/4 78/4/4 8/3/4
f 188/181/4 187/183/4 77/249/4 78/4/4
f 187/183/4 186/185/4 76/250/4 77/249/4
f 186/185/4 185/187/4 75/251/4 76/250/4
f 185/187/4 184/93/4 74/252/4 75/251/4
f 184/93/4 183/189/4 73/253/4 74/252/4
f 183/189/4 182/89/4 72/254/4 73/253/4
f 182/89/4 181/87/4 71/255/4 72/254/4
f 181/87/4 180/191/4 70/256/4 71/255/4
f 180/191/4 179/11/4 69/14/4 70/256/4
f 289/19/2 3/20/2 59/257/2 629/258/2
f 629/258/2 59/257/2 60/259/2 639/260/2
f 639/260/2 60/259/2 61/261/2 649/262/2
f 649/262/2 61/261/2 62/263/2 659/264/2
f 659/264/2 62/263/2 63/265/2 669/266/2
f 669/266/2 63/265/2 64/267/2 679/268/2
f 679/268/2 64/267/2 65/269/2 689/270/2
f 689/270/2 65/269/2 66/271/2 699/272/2
f 699/272/2 66/271/2 67/273/2 709/274/2
f 709/274/2 67/273/2 68/6/2 719/5/2
f 18/12/1 288/83/1 59/275/1 3/13/1
f 288/83/1 287/85/1 60/276/1 59/275/1
f 287/85/1 286/87/1 61/255/1 60/276/1
f 286/87/1 285/89/1 62/277/1 61/255/1
f 285/89/1 284/91/1 63/253/1 62/277/1
f 284/91/1 283/93/1 64/278/1 63/253/1
f 283/93/1 282/95/1 65/251/1 64/278/1
f 282/95/1 281/97/1 66/250/1 65/251/1
f 281/97/1 280/99/1 67/249/1 66/250/1
f 280/99/1 279/1/1 68/4/1 67/249/1
f 77/279/2 718/280/2 728/281/2 78/282/2
f 718/280/2 717/283/2 727/284/2 728/281/2
f 717/283/2 716/285/2 726/286/2 727/284/2
f 716/285/2 715/287/2 725/288/2 726/286/2
f 715/287/2 714/289/2 724/290/2 725/288/2
f 714/289/2 713/291/2 723/292/2 724/290/2
f 713/291/2 712/293/2 722/294/2 723/292/2
f 712/293/2 711/295/2 721/296/2 722/294/2
f 711/295/2 710/297/2 720/298/2 721/296/2
f 710/297/2 709/274/2 719/5/2 720/298/2
f 76/299/2 708/300/2 718/280/2 77/279/2
f 708/300/2 707/301/2 717/283/2 718/280/2
f 707/301/2 706/302/2 716/285/2 717/283/2
f 706/302/2 705/303/2 715/287/2 716/285/2
f 705/303/2 704/304/2 714/289/2 715/287/2
f 704/304/2 703/305/2 713/291/2 714/289/2
f 703/305/2 702/306/2 712/293/2 713/291/2
f 702/306/2 701/307/2 711/295/2 712/293/2
f 701/307/2 700/308/2 710/297/2 711/295/2
f 700/308/2 699/272/2 709/274/2 710/297/2
f 75/309/2 698/310/2 708/300/2 76/299/2
f 698/310/2 697/311/2 707/301/2 708/300/2
f 697/311/2 696/312/2 706/302/2 707/301/2
f 696/312/2 695/313/2 705/303/2 706/302/2
f 695/313/2 694/314/2 704/304/2 705/303/2
f 694/314/2 693/315/2 703/305/2 704/304/2
f 693/315/2 692/316/2 702/306/2 703/305/2
f 692/316/2 691/317/2 701/307/2 702/306/2
f 691/317/2 690/318/2 700/308/2 701/307/2
f 690/318/2 689/270/2 699/272/2 700/308/2
f 74/319/2 688/320/2 698/310/2 75/309/2
f 688/320/2 687/321/2 697/311/2 698/310/2
f 687/321/2 686/322/2 696/312/2 697/311/2
f 686/322/2 685/323/2 695/313/2 696/312/2
f 685/323/2 684/324/2 694/314/2 695/313/2
f 684/324/2 683/325/2 693/315/2 694/314/2
f 683/325/2 682/326/2 692/316/2 693/315/2
f 682/326/2 681/327/2 691/317/2 692/316/2
f 681/327/2 680/328/2 690/318/2 691/317/2
f 680/328/2 679/268/2 689/270/2 690/318/2
f 73/329/2 678/330/2 688/320/2 74/319/2
f 678/330/2 677/331/2 687/321/2 688/320/2
f 677/331/2 676/332/2 686/322/2 687/321/2
f 676/332/2 675/333/2 685/323/2 686/322/2
f 675/333/2 674/334/2 684/324/2 685/323/2
f 674/334/2 673/335/2 683/325/2 684/324/2
f 673/335/2 672/336/2 682/326/2 683/325/2
f 672/336/2 671/337/2 681/327/2 682/326/2
f 671/337/2 670/338/2 680/328/2 681/327/2
f 670/338/2 669/266/2 679/268/2 680/328/2
f 72/339/2 668/340/2 678/330/2 73/329/2
f 668/340/2 667/341/2 677/331/2 678/330/2
f 667/341/2 666/342/2 676/332/2 677/331/2
f 666/342/2 665/343/2 675/333/2 676/332/2
f 665/343/2 664/344/2 674/334/2 675/333/2
f 664/344/2 663/345/2 673/335/2 674/334/2
f 663/345/2 662/346/2 672/336/2 673/335/2
f 662/346/2 661/347/2 671/337/2 672/336/2
f 661/347/2 660/348/2 670/338/2 671/337/2
f 660/348/2 659/264/2 669/266/2 670/338/2
f 71/349/2 658/350/2 668/340/2 72/339/2
f 658/350/2 657/351/2 667/341/2 668/340/2
f 657/351/2 656/352/2 666/342/2 667/341/2
f 656/352/2 655/353/2 665/343/2 666/342/2
f 655/353/2 654/354/2 664/344/2 665/343/2
f 654/354/2 653/355/2 663/345/2 664/344/2
f 653/355/2 652/356/2 662/346/2 663/345/2
f 652/356/2 651/357/2 661/347/2 662/346/2
f 651/357/2 650/358/2 660/348/2 661/347/2
f 650/358/2 649/262/2 659/264/2 660/348/2
f 70/359/2 648/360/2 658/350/2 71/349/2
f 648/360/2 647/361/2 657/351/2 658/350/2
f 647/361/2 646/362/2 656/352/2 657/351/2
f 646/362/2 645/363/2 655/353/2 656/352/2
f 645/363/2 644/364/2 654/354/2 655/353/2
f 644/364/2 643/365/2 653/355/2 654/354/2
f 643/365/2 642/366/2 652/356/2 653/355/2
f 642/366/2 641/367/2 651/357/2 652/356/2
f 641/367/2 640/368/2 650/358/2 651/357/2
f 640/368/2 639/260/2 649/262/2 650/358/2
f 69/369/2 638/370/2 648/360/2 70/359/2
f 638/370/2 637/371/2 647/361/2 648/360/2
f 637/371/2 636/372/2 646/362/2 647/361/2
f 636/372/2 635/373/2 645/363/2 646/362/2
f 635/373/2 634/374/2 644/364/2 645/363/2
f 634/374/2 633/375/2 643/365/2 644/364/2
f 633/375/2 632/376/2 642/366/2 643/365/2
f 632/376/2 631/377/2 641/367/2 642/366/2
f 631/377/2 630/378/2 640/368/2 641/367/2
f 630/378/2 629/258/2 639/260/2 640/368/2
f 4/3/2 298/2/2 638/370/2 69/369/2
f 298/2/2 297/80/2 637/371/2 638/370/2
f 297/80/2 296/78/2 636/372/2 637/371/2
f 296/78/2 295/76/2 635/373/2 636/372/2
f 295/76/2 294/74/2 634/374/2 635/373/2
f 294/74/2 293/72/2 633/375/2 634/374/2
f 293/72/2 292/70/2 632/376/2 633/375/2
f 292/70/2 291/68/2 631/377/2 632/376/2
f 291/68/2 290/66/2 630/378/2 631/377/2
f 290/66/2 289/19/2 629/258/2 630/378/2
f 80/256/6 618/379/6 628/380/6 79/14/6
f 618/379/6 617/381/6 627/382/6 628/380/6
f 617/381/6 616/197/6 626/52/6 627/382/6
f 616/197/6 615/202/6 625/50/6 626/52/6
f 615/202/6 614/383/6 624/48/6 625/50/6
f 614/383/6 613/214/6 623/46/6 624/48/6
f 613/214/6 612/219/6 622/384/6 623/46/6
f 612/219/6 611/385/6 621/386/6 622/384/6
f 611/385/6 610/387/6 620/388/6 621/386/6
f 610/387/6 609/248/6 619/17/6 620/388/6
f 81/255/6 608/87/6 618/379/6 80/256/6
f 608/87/6 607/86/6 617/381/6 618/379/6
f 607/86/6 606/389/6 616/197/6 617/381/6
f 606/389/6 605/111/6 615/202/6 616/197/6
f 605/111/6 604/390/6 614/383/6 615/202/6
f 604/390/6 603/391/6 613/214/6 614/383/6
f 603/391/6 602/138/6 612/219/6 613/214/6
f 602/138/6 601/147/6 611/385/6 612/219/6
f 601/147/6 600/156/6 610/387/6 611/385/6
f 600/156/6 599/165/6 609/248/6 610/387/6
f 82/254/6 598/89/6 608/87/6 81/255/6
f 598/89/6 597/88/6 607/86/6 608/87/6
f 597/88/6 596/392/6 606/389/6 607/86/6
f 596/392/6 595/112/6 605/111/6 606/389/6
f 595/112/6 594/393/6 604/390/6 605/111/6
f 594/393/6 593/394/6 603/391/6 604/390/6
f 593/394/6 592/395/6 602/138/6 603/391/6
f 592/395/6 591/396/6 601/147/6 602/138/6
f 591/396/6 590/397/6 600/156/6 601/147/6
f 590/397/6 589/247/6 599/165/6 600/156/6
f 83/253/6 588/189/6 598/89/6 82/254/6
f 588/189/6 587/188/6 597/88/6 598/89/6
f 587/188/6 586/196/6 596/392/6 597/88/6
f 586/196/6 585/201/6 595/112/6 596/392/6
f 585/201/6 584/398/6 594/393/6 595/112/6
f 584/398/6 583/213/6 593/394/6 594/393/6
f 583/213/6 582/140/6 592/395/6 593/394/6
f 582/140/6 581/149/6 591/396/6 592/395/6
f 581/149/6 580/158/6 590/397/6 591/396/6
f 580/158/6 579/246/6 589/247/6 590/397/6
f 84/252/6 578/399/6 588/189/6 83/253/6
f 578/399/6 577/400/6 587/188/6 588/189/6
f 577/400/6 576/401/6 586/196/6 587/188/6
f 576/401/6 575/402/6 585/201/6 586/196/6
f 575/402/6 574/403/6 584/398/6 585/201/6
f 574/403/6 573/404/6 583/213/6 584/398/6
f 573/404/6 572/405/6 582/140/6 583/213/6
f 572/405/6 571/406/6 581/149/6 582/140/6
f 571/406/6 570/407/6 580/158/6 581/149/6
f 570/407/6 569/245/6 579/246/6 580/158/6
f 85/251/6 568/187/6 578/399/6 84/252/6
f 568/187/6 567/408/6 577/400/6 578/399/6
f 567/408/6 566/409/6 576/401/6 577/400/6
f 566/409/6 565/410/6 575/402/6 576/401/6
f 565/410/6 564/411/6 574/403/6 575/402/6
f 564/411/6 563/212/6 573/404/6 574/403/6
f 563/212/6 562/217/6 572/405/6 573/404/6
f 562/217/6 561/223/6 571/406/6 572/405/6
f 561/223/6 560/228/6 570/407/6 571/406/6
f 560/228/6 559/234/6 569/245/6 570/407/6
f 86/250/6 558/97/6 568/187/6 85/251/6
f 558/97/6 557/96/6 567/408/6 568/187/6
f 557/96/6 556/412/6 566/409/6 567/408/6
f 556/412/6 555/116/6 565/410/6 566/409/6
f 555/116/6 554/413/6 564/411/6 565/410/6
f 554/413/6 553/414/6 563/212/6 564/411/6
f 553/414/6 552/143/6 562/217/6 563/212/6
f 552/143/6 551/152/6 561/223/6 562/217/6
f 551/152/6 550/415/6 560/228/6 561/223/6
f 550/415/6 549/244/6 559/234/6 560/228/6
f 87/249/6 548/183/6 558/97/6 86/250/6
f 548/183/6 547/182/6 557/96/6 558/97/6
f 547/182/6 546/416/6 556/412/6 557/96/6
f 546/416/6 545/198/6 555/116/6 556/412/6
f 545/198/6 544/417/6 554/413/6 555/116/6
f 544/417/6 543/418/6 553/414/6 554/413/6
f 543/418/6 542/144/6 552/143/6 553/414/6
f 542/144/6 541/419/6 551/152/6 552/143/6
f 541/419/6 540/420/6 550/415/6 551/152/6
f 540/420/6 539/243/6 549/244/6 550/415/6
f 88/4/6 538/181/6 548/183/6 87/249/6
f 538/181/6 537/180/6 547/182/6 548/183/6
f 537/180/6 536/421/6 546/416/6 547/182/6
f 536/421/6 535/422/6 545/198/6 546/416/6
f 535/422/6 534/423/6 544/417/6 545/198/6
f 534/423/6 533/424/6 543/418/6 544/417/6
f 533/424/6 532/71/6 542/144/6 543/418/6
f 532/71/6 531/220/6 541/419/6 542/144/6
f 531/220/6 530/425/6 540/420/6 541/419/6
f 530/425/6 529/65/6 539/243/6 540/420/6
f 6/3/6 318/2/6 538/181/6 88/4/6
f 318/2/6 317/80/6 537/180/6 538/181/6
f 317/80/6 316/78/6 536/421/6 537/180/6
f 316/78/6 315/76/6 535/422/6 536/421/6
f 315/76/6 314/74/6 534/423/6 535/422/6
f 314/74/6 313/72/6 533/424/6 534/423/6
f 313/72/6 312/70/6 532/71/6 533/424/6
f 312/70/6 311/68/6 531/220/6 532/71/6
f 311/68/6 310/66/6 530/425/6 531/220/6
f 310/66/6 309/19/6 529/65/6 530/425/6
f 30/426/3 518/427/3 528/428/3 29/429/3
f 518/427/3 517/430/3 527/431/3 528/428/3
f 517/430/3 516/432/3 526/433/3 527/431/3
f 516/432/3 515/434/3 525/435/3 526/433/3
f 515/434/3 514/436/3 524/437/3 525/435/3
f 514/436/3 513/438/3 523/439/3 524/437/3
f 513/438/3 512/440/3 522/441/3 523/439/3
f 512/440/3 511/442/3 521/443/3 522/441/3
f 511/442/3 510/444/3 520/445/3 521/443/3
f 510/444/3 509/63/3 519/9/3 520/445/3
f 31/446/3 508/447/3 518/427/3 30/426/3
f 508/447/3 507/448/3 517/430/3 518/427/3
f 507/448/3 506/449/3 516/432/3 517/430/3
f 506/449/3 505/450/3 515/434/3 516/432/3
f 505/450/3 504/451/3 514/436/3 515/434/3
f 504/451/3 503/452/3 513/438/3 514/436/3
f 503/452/3 502/453/3 512/440/3 513/438/3
f 502/453/3 501/454/3 511/442/3 512/440/3
f 501/454/3 500/455/3 510/444/3 511/442/3
f 500/455/3 499/36/3 509/63/3 510/444/3
f 32/456/3 498/457/3 508/447/3 31/446/3
f 498/457/3 497/458/3 507/448/3 508/447/3
f 497/458/3 496/459/3 506/449/3 507/448/3
f 496/459/3 495/460/3 505/450/3 506/449/3
f 495/460/3 494/461/3 504/451/3 505/450/3
f 494/461/3 493/462/3 503/452/3 504/451/3
f 493/462/3 492/463/3 502/453/3 503/452/3
f 492/463/3 491/464/3 501/454/3 502/453/3
f 491/464/3 490/465/3 500/455/3 501/454/3
f 490/465/3 489/34/3 499/36/3 500/455/3
f 33/466/3 488/467/3 498/457/3 32/456/3
f 488/467/3 487/468/3 497/458/3 498/457/3
f 487/468/3 486/469/3 496/459/3 497/458/3
f 486/469/3 485/470/3 495/460/3 496/459/3
f 485/470/3 484/471/3 494/461/3 495/460/3
f 484/471/3 483/472/3 493/462/3 494/461/3
f 483/472/3 482/473/3 492/463/3 493/462/3
f 482/473/3 481/474/3 491/464/3 492/463/3
f 481/474/3 480/475/3 490/465/3 491/464/3
f 480/475/3 479/61/3 489/34/3 490/465/3
f 34/476/3 478/477/3 488/467/3 33/466/3
f 478/477/3 477/478/3 487/468/3 488/467/3
f 477/478/3 476/479/3 486/469/3 487/468/3
f 476/479/3 475/480/3 485/470/3 486/469/3
f 475/480/3 474/481/3 484/471/3 485/470/3
f 474/481/3 473/482/3 483/472/3 484/471/3
f 473/482/3 472/483/3 482/473/3 483/472/3
f 472/483/3 471/484/3 481/474/3 482/473/3
f 471/484/3 470/485/3 480/475/3 481/474/3
f 470/485/3 469/30/3 479/61/3 480/475/3
f 35/486/3 468/487/3 478/477/3 34/476/3
f 468/487/3 467/488/3 477/478/3 478/477/3
f 467/488/3 466/489/3 476/479/3 477/478/3
f 466/489/3 465/490/3 475/480/3 476/479/3
f 465/490/3 464/491/3 474/481/3 475/480/3
f 464/491/3 463/492/3 473/482/3 474/481/3
f 463/492/3 462/493/3 472/483/3 473/482/3
f 462/493/3 461/494/3 471/484/3 472/483/3
f 461/494/3 460/495/3 470/485/3 471/484/3
f 460/495/3 459/59/3 469/30/3 470/485/3
f 36/496/3 458/497/3 468/487/3 35/486/3
f 458/497/3 457/498/3 467/488/3 468/487/3
f 457/498/3 456/499/3 466/489/3 467/488/3
f 456/499/3 455/500/3 465/490/3 466/489/3
f 455/500/3 454/501/3 464/491/3 465/490/3
f 454/501/3 453/502/3 463/492/3 464/491/3
f 453/502/3 452/503/3 462/493/3 463/492/3
f 452/503/3 451/504/3 461/494/3 462/493/3
f 451/504/3 450/505/3 460/495/3 461/494/3
f 450/505/3 449/57/3 459/59/3 460/495/3
f 37/506/3 448/507/3 458/497/3 36/496/3
f 448/507/3 447/508/3 457/498/3 458/497/3
f 447/508/3 446/509/3 456/499/3 457/498/3
f 446/509/3 445/510/3 455/500/3 456/499/3
f 445/510/3 444/511/3 454/501/3 455/500/3
f 444/511/3 443/512/3 453/502/3 454/501/3
f 443/512/3 442/513/3 452/503/3 453/502/3
f 442/513/3 441/514/3 451/504/3 452/503/3
f 441/514/3 440/515/3 450/505/3 451/504/3
f 440/515/3 439/24/3 449/57/3 450/505/3
f 38/516/3 438/517/3 448/507/3 37/506/3
f 438/517/3 437/518/3 447/508/3 448/507/3
f 437/518/3 436/519/3 446/509/3 447/508/3
f 436/519/3 435/520/3 445/510/3 446/509/3
f 435/520/3 434/521/3 444/511/3 445/510/3
f 434/521/3 433/522/3 443/512/3 444/511/3
f 433/522/3 432/523/3 442/513/3 443/512/3
f 432/523/3 431/524/3 441/514/3 442/513/3
f 431/524/3 430/525/3 440/515/3 441/514/3
f 430/525/3 429/22/3 439/24/3 440/515/3
f 8/3/3 308/2/3 438/517/3 38/516/3
f 308/2/3 307/80/3 437/518/3 438/517/3
f 307/80/3 306/78/3 436/519/3 437/518/3
f 306/78/3 305/76/3 435/520/3 436/519/3
f 305/76/3 304/74/3 434/521/3 435/520/3
f 304/74/3 303/72/3 433/522/3 434/521/3
f 303/72/3 302/70/3 432/523/3 433/522/3
f 302/70/3 301/68/3 431/524/3 432/523/3
f 301/68/3 300/66/3 430/525/3 431/524/3
f 300/66/3 299/19/3 429/22/3 430/525/3
f 47/526/5 418/527/5 428/528/5 48/529/5
f 418/527/5 417/530/5 427/531/5 428/528/5
f 417/530/5 416/532/5 426/533/5 427/531/5
f 416/532/5 415/534/5 425/535/5 426/533/5
f 415/534/5 414/536/5 424/537/5 425/535/5
f 414/536/5 413/538/5 423/539/5 424/537/5
f 413/538/5 412/540/5 422/541/5 423/539/5
f 412/540/5 411/542/5 421/543/5 422/541/5
f 411/542/5 410/544/5 420/545/5 421/543/5
f 410/544/5 409/38/5 419/15/5 420/545/5
f 46/446/5 408/447/5 418/527/5 47/526/5
f 408/447/5 407/448/5 417/530/5 418/527/5
f 407/448/5 406/449/5 416/532/5 417/530/5
f 406/449/5 405/450/5 415/534/5 416/532/5
f 405/450/5 404/451/5 414/536/5 415/534/5
f 404/451/5 403/452/5 413/538/5 414/536/5
f 403/452/5 402/453/5 412/540/5 413/538/5
f 402/453/5 401/454/5 411/542/5 412/540/5
f 401/454/5 400/455/5 410/544/5 411/542/5
f 400/455/5 399/36/5 409/38/5 410/544/5
f 45/456/5 398/457/5 408/447/5 46/446/5
f 398/457/5 397/458/5 407/448/5 408/447/5
f 397/458/5 396/459/5 406/449/5 407/448/5
f 396/459/5 395/460/5 405/450/5 406/449/5
f 395/460/5 394/461/5 404/451/5 405/450/5
f 394/461/5 393/462/5 403/452/5 404/451/5
f 393/462/5 392/463/5 402/453/5 403/452/5
f 392/463/5 391/464/5 401/454/5 402/453/5
f 391/464/5 390/465/5 400/455/5 401/454/5
f 390/465/5 389/34/5 399/36/5 400/455/5
f 44/546/5 388/547/5 398/457/5 45/456/5
f 388/547/5 387/548/5 397/458/5 398/457/5
f 387/548/5 386/549/5 396/459/5 397/458/5
f 386/549/5 385/550/5 395/460/5 396/459/5
f 385/550/5 384/551/5 394/461/5 395/460/5
f 384/551/5 383/552/5 393/462/5 394/461/5
f 383/552/5 382/553/5 392/463/5 393/462/5
f 382/553/5 381/554/5 391/464/5 392/463/5
f 381/554/5 380/555/5 390/465/5 391/464/5
f 380/555/5 379/32/5 389/34/5 390/465/5
f 43/476/5 378/477/5 388/547/5 44/546/5
f 378/477/5 377/478/5 387/548/5 388/547/5
f 377/478/5 376/479/5 386/549/5 387/548/5
f 376/479/5 375/480/5 385/550/5 386/549/5
f 375/480/5 374/481/5 384/551/5 385/550/5
f 374/481/5 373/482/5 383/552/5 384/551/5
f 373/482/5 372/483/5 382/553/5 383/552/5
f 372/483/5 371/484/5 381/554/5 382/553/5
f 371/484/5 370/485/5 380/555/5 381/554/5
f 370/485/5 369/30/5 379/32/5 380/555/5
f 42/556/5 368/557/5 378/477/5 43/476/5
f 368/557/5 367/558/5 377/478/5 378/477/5
f 367/558/5 366/559/5 376/479/5 377/478/5
f 366/559/5 365/560/5 375/480/5 376/479/5
f 365/560/5 364/561/5 374/481/5 375/480/5
f 364/561/5 363/562/5 373/482/5 374/481/5
f 363/562/5 362/563/5 372/483/5 373/482/5
f 362/563/5 361/564/5 371/484/5 372/483/5
f 361/564/5 360/565/5 370/485/5 371/484/5
f 360/565/5 359/28/5 369/30/5 370/485/5
f 41/566/5 358/567/5 368/557/5 42/556/5
f 358/567/5 357/568/5 367/558/5 368/557/5
f 357/568/5 356/569/5 366/559/5 367/558/5
f 356/569/5 355/570/5 365/560/5 366/559/5
f 355/570/5 354/571/5 364/561/5 365/560/5
f 354/571/5 353/572/5 363/562/5 364/561/5
f 353/572/5 352/573/5 362/563/5 363/562/5
f 352/573/5 351/574/5 361/564/5 362/563/5
f 351/574/5 350/575/5 360/565/5 361/564/5
f 350/575/5 349/26/5 359/28/5 360/565/5
f 40/576/5 348/507/5 358/567/5 41/566/5
f 348/507/5 347/577/5 357/568/5 358/567/5
f 347/577/5 346/578/5 356/569/5 357/568/5
f 346/578/5 345/579/5 355/570/5 356/569/5
f 345/579/5 344/511/5 354/571/5 355/570/5
f 344/511/5 343/512/5 353/572/5 354/571/5
f 343/512/5 342/513/5 352/573/5 353/572/5
f 342/513/5 341/580/5 351/574/5 352/573/5
f 341/580/5 340/515/5 350/575/5 351/574/5
f 340/515/5 339/24/5 349/26/5 350/575/5
f 39/516/5 338/517/5 348/507/5 40/576/5
f 338/517/5 337/518/5 347/577/5 348/507/5
f 337/518/5 336/519/5 346/578/5 347/577/5
f 336/519/5 335/520/5 345/579/5 346/578/5
f 335/520/5 334/521/5 344/511/5 345/579/5
f 334/521/5 333/522/5 343/512/5 344/511/5
f 333/522/5 332/523/5 342/513/5 343/512/5
f 332/523/5 331/524/5 341/580/5 342/513/5
f 331/524/5 330/525/5 340/515/5 341/580/5
f 330/525/5 329/22/5 339/24/5 340/515/5
f 2/3/5 328/2/5 338/517/5 39/516/5
f 328/2/5 327/80/5 337/518/5 338/517/5
f 327/80/5 326/78/5 336/519/5 337/518/5
f 326/78/5 325/76/5 335/520/5 336/519/5
f 325/76/5 324/74/5 334/521/5 335/520/5
f 324/74/5 323/72/5 333/522/5 334/521/5
f 323/72/5 322/70/5 332/523/5 333/522/5
f 322/70/5 321/68/5 331/524/5 332/523/5
f 321/68/5 320/66/5 330/525/5 331/524/5
f 320/66/5 319/19/5 329/22/5 330/525/5
f 79/14/6 628/380/6 328/12/6 2/13/6
f 628/380/6 627/382/6 327/53/6 328/12/6
f 627/382/6 626/52/6 326/51/6 327/53/6
f 626/52/6 625/50/6 325/49/6 326/51/6
f 625/50/6 624/48/6 324/47/6 325/49/6
f 624/48/6 623/46/6 323/45/6 324/47/6
f 623/46/6 622/384/6 322/43/6 323/45/6
f 622/384/6 621/386/6 321/41/6 322/43/6
f 621/386/6 620/388/6 320/39/6 321/41/6
f 620/388/6 619/17/6 319/8/6 320/39/6
f 48/529/5 428/528/5 298/12/5 4/13/5
f 428/528/5 427/531/5 297/53/5 298/12/5
f 427/531/5 426/533/5 296/51/5 297/53/5
f 426/533/5 425/535/5 295/49/5 296/51/5
f 425/535/5 424/537/5 294/47/5 295/49/5
f 424/537/5 423/539/5 293/45/5 294/47/5
f 423/539/5 422/541/5 292/43/5 293/45/5
f 422/541/5 421/543/5 291/41/5 292/43/5
f 421/543/5 420/545/5 290/39/5 291/41/5
f 420/545/5 419/15/5 289/8/5 290/39/5
f 29/429/3 528/428/3 318/12/3 6/13/3
f 528/428/3 527/431/3 317/53/3 318/12/3
f 527/431/3 526/433/3 316/51/3 317/53/3
f 526/433/3 525/435/3 315/49/3 316/51/3
f 525/435/3 524/437/3 314/47/3 315/49/3
f 524/437/3 523/439/3 313/45/3 314/47/3
f 523/439/3 522/441/3 312/43/3 313/45/3
f 522/441/3 521/443/3 311/41/3 312/43/3
f 521/443/3 520/445/3 310/39/3 311/41/3
f 520/445/3 519/9/3 309/8/3 310/39/3
f 78/282/2 728/281/2 308/12/2 8/13/2
f 728/281/2 727/284/2 307/53/2 308/12/2
f 727/284/2 726/286/2 306/51/2 307/53/2
f 726/286/2 725/288/2 305/49/2 306/51/2
f 725/288/2 724/290/2 304/47/2 305/49/2
f 724/290/2 723/292/2 303/45/2 304/47/2
f 723/292/2 722/294/2 302/43/2 303/45/2
f 722/294/2 721/296/2 301/41/2 302/43/2
f 721/296/2 720/298/2 300/39/2 301/41/2
f 720/298/2 719/5/2 299/8/2 300/39/2
