# Blender 5.0.1
# www.blender.org
mtllib water.mtl
o Cube
v -51.090466 0.000001 51.090466
v -51.090466 -0.000001 -51.090466
v 51.090466 0.000001 51.090466
v 51.090466 -0.000001 -51.090466
v -51.090466 -16.578327 -51.090466
v 51.090466 -16.578327 -51.090466
v -51.090466 -16.578323 51.090466
v 51.090466 -16.578323 51.090466
vn -0.2492 0.9359 -0.2492
vn -0.2492 0.9359 0.2492
vn 0.2492 0.9359 0.2492
vn 0.2492 0.9359 -0.2492
vn -0.2492 -0.9359 -0.2492
vn 0.2492 -0.9359 -0.2492
vn 0.2492 -0.9359 0.2492
vn -0.2492 -0.9359 0.2492
vt 0.125000 0.500000
vt 0.125000 0.750000
vt 0.375000 0.750000
vt 0.375000 0.500000
s 1
f 2/1/1 1/2/2 3/3/3 4/4/4
f 5/1/5 6/4/6 8/3/7 7/2/8
f 4/4/4 6/4/6 5/1/5 2/1/1
f 3/3/3 8/3/7 6/4/6 4/4/4
f 2/1/1 5/1/5 7/2/8 1/2/2
f 1/2/2 7/2/8 8/3/7 3/3/3
