{
	"asset":{
		"generator":"Khronos glTF Blender I/O v5.1.19",
		"version":"2.0"
	},
	"scene":0,
	"scenes":[
		{
			"name":"Scene",
			"nodes":[
				0,
				1,
				2,
				3,
				4,
				5,
				6,
				7,
				8,
				9,
				10,
				11,
				12,
				13,
				14,
				15,
				16,
				17,
				18,
				19,
				20,
				21,
				22,
				23,
				24,
				25,
				26,
				27,
				28,
				29,
				30,
				31,
				32,
				33,
				34,
				35
			]
		}
	],
	"nodes":[
		{
			"mesh":0,
			"name":"Plane.001"
		},
		{
			"mesh":1,
			"name":"Cube.007",
			"rotation":[
				0,
				0.7210569977760315,
				0,
				0.6928757429122925
			],
			"scale":[
				1.8904621601104736,
				1.8904619216918945,
				1.8904621601104736
			],
			"translation":[
				8.75895881652832,
				0.36413833498954773,
				7.814121246337891
			]
		},
		{
			"mesh":2,
			"name":"Cube.006",
			"rotation":[
				0,
				0.8918631076812744,
				0,
				0.4523054361343384
			],
			"scale":[
				1.8904619216918945,
				1.8904619216918945,
				1.8904619216918945
			],
			"translation":[
				8.122504234313965,
				0.36413833498954773,
				6.655447959899902
			]
		},
		{
			"mesh":3,
			"name":"Cube.005",
			"rotation":[
				0,
				-0.6143754124641418,
				0,
				0.7890138626098633
			],
			"scale":[
				1.8904619216918945,
				1.8904619216918945,
				1.8904619216918945
			],
			"translation":[
				7.645847320556641,
				0.36413833498954773,
				7.899213790893555
			]
		},
		{
			"mesh":4,
			"name":"Cube.004",
			"rotation":[
				0,
				-0.7512786984443665,
				0,
				0.6599850654602051
			],
			"scale":[
				1.890462040901184,
				1.8904619216918945,
				1.890462040901184
			],
			"translation":[
				7.650210380554199,
				1.1015971899032593,
				7.908024787902832
			]
		},
		{
			"mesh":5,
			"name":"Cube.002",
			"rotation":[
				0,
				-0.9988223314285278,
				0,
				0.048519838601350784
			],
			"scale":[
				1.8904619216918945,
				1.8904619216918945,
				1.8904619216918945
			],
			"translation":[
				6.523208141326904,
				0.36413833498954773,
				7.748844146728516
			]
		},
		{
			"mesh":6,
			"name":"Cube.015",
			"rotation":[
				0,
				-0.6198102235794067,
				0,
				0.7847517728805542
			],
			"translation":[
				-2.6094698905944824,
				0.6206492781639099,
				-11.008796691894531
			]
		},
		{
			"mesh":7,
			"name":"Cylinder.008",
			"translation":[
				-1.956263542175293,
				2.164720058441162,
				-41.828155517578125
			]
		},
		{
			"mesh":8,
			"name":"Cylinder.006",
			"translation":[
				-2.504019260406494,
				2.164720058441162,
				-40.14710998535156
			]
		},
		{
			"mesh":9,
			"name":"Cylinder.004",
			"translation":[
				-1.4273958206176758,
				2.164720058441162,
				-41.31817626953125
			]
		},
		{
			"mesh":10,
			"name":"Cylinder.003",
			"translation":[
				-2.037221908569336,
				2.1213512420654297,
				-38.86698913574219
			]
		},
		{
			"mesh":11,
			"name":"beczka.005",
			"scale":[
				0.4743110239505768,
				0.4743110239505768,
				0.4743110239505768
			],
			"translation":[
				8.601858139038086,
				0.5723512172698975,
				-6.87094259262085
			]
		},
		{
			"mesh":12,
			"name":"beczka.004",
			"scale":[
				0.4743110239505768,
				0.4743110239505768,
				0.4743110239505768
			],
			"translation":[
				6.983180046081543,
				0.5723512172698975,
				-7.779674053192139
			]
		},
		{
			"mesh":13,
			"name":"beczka.001",
			"scale":[
				0.4743110239505768,
				0.4743110239505768,
				0.4743110239505768
			],
			"translation":[
				3.6837551593780518,
				0.5723512172698975,
				-11.699958801269531
			]
		},
		{
			"mesh":14,
			"name":"beczka.002",
			"scale":[
				0.4743110239505768,
				0.4743110239505768,
				0.4743110239505768
			],
			"translation":[
				-8.711017608642578,
				0.5723512172698975,
				6.473846912384033
			]
		},
		{
			"mesh":15,
			"name":"beczka.003",
			"scale":[
				0.4743110239505768,
				0.4743110239505768,
				0.4743110239505768
			],
			"translation":[
				-7.944699287414551,
				0.5723512172698975,
				7.699955940246582
			]
		},
		{
			"mesh":16,
			"name":"beczka.006",
			"scale":[
				0.4743110239505768,
				0.4743110239505768,
				0.4743110239505768
			],
			"translation":[
				-8.036662101745605,
				0.5723512172698975,
				4.1186957359313965
			]
		},
		{
			"mesh":17,
			"name":"beczka.007",
			"scale":[
				0.4743110239505768,
				0.4743110239505768,
				0.4743110239505768
			],
			"translation":[
				-7.4687299728393555,
				0.5723512172698975,
				6.543099403381348
			]
		},
		{
			"mesh":18,
			"name":"Cube.014",
			"rotation":[
				0,
				0.13253915309906006,
				0,
				0.9911777973175049
			],
			"scale":[
				1.8904619216918945,
				1.8904619216918945,
				1.8904619216918945
			],
			"translation":[
				-8.15609359741211,
				1.099387288093567,
				-7.781653881072998
			]
		},
		{
			"mesh":19,
			"name":"Cube.001",
			"rotation":[
				0,
				-0.14392490684986115,
				0,
				0.9895886182785034
			],
			"scale":[
				1.8904621601104736,
				1.8904619216918945,
				1.8904621601104736
			],
			"translation":[
				-8.568170547485352,
				0.36413833498954773,
				-7.78069543838501
			]
		},
		{
			"mesh":20,
			"name":"Cube.003",
			"rotation":[
				0,
				-0.3308180570602417,
				0,
				0.9436945915222168
			],
			"scale":[
				1.8904619216918945,
				1.8904619216918945,
				1.8904619216918945
			],
			"translation":[
				-7.641223907470703,
				0.36413833498954773,
				-7.689831256866455
			]
		},
		{
			"mesh":21,
			"name":"Cube.008",
			"rotation":[
				0,
				0.7071068286895752,
				0,
				0.7071067094802856
			],
			"scale":[
				0.7031399607658386,
				0.7031399011611938,
				0.7031399607658386
			],
			"translation":[
				-2.0350863933563232,
				0.8109124898910522,
				12.365602493286133
			]
		},
		{
			"mesh":22,
			"name":"Plane.003"
		},
		{
			"mesh":23,
			"name":"Cube.009",
			"rotation":[
				0,
				0.022670423611998558,
				0,
				0.9997429847717285
			],
			"scale":[
				1.8904619216918945,
				1.8904619216918945,
				1.8904619216918945
			],
			"translation":[
				3.9328956604003906,
				0.36413833498954773,
				11.363950729370117
			]
		},
		{
			"mesh":24,
			"name":"Cube.010",
			"rotation":[
				0,
				-0.16497322916984558,
				0,
				0.986298143863678
			],
			"scale":[
				1.8904619216918945,
				1.8904619216918945,
				1.8904619216918945
			],
			"translation":[
				3.9424023628234863,
				1.1015971899032593,
				11.361446380615234
			]
		},
		{
			"mesh":25,
			"name":"Cube.011",
			"rotation":[
				0,
				-0.9973898530006409,
				0,
				0.07220494747161865
			],
			"scale":[
				1.8904626369476318,
				1.8904619216918945,
				1.8904626369476318
			],
			"translation":[
				2.88673996925354,
				0.36413833498954773,
				11.858349800109863
			]
		},
		{
			"mesh":26,
			"name":"Cube.012",
			"rotation":[
				0,
				-0.9998302459716797,
				0,
				0.01842532865703106
			],
			"scale":[
				1.8904621601104736,
				1.8904619216918945,
				1.8904621601104736
			],
			"translation":[
				-3.972289800643921,
				0.36413833498954773,
				9.951421737670898
			]
		},
		{
			"mesh":27,
			"name":"Cylinder.022",
			"rotation":[
				0,
				-0.7071065902709961,
				0,
				0.7071070671081543
			],
			"translation":[
				-5.332254409790039,
				1.3380988836288452,
				-8.35778522491455
			]
		},
		{
			"mesh":28,
			"name":"Cylinder.021",
			"rotation":[
				0,
				-0.7071065902709961,
				0,
				0.7071070671081543
			],
			"translation":[
				5.318805694580078,
				1.3380988836288452,
				-8.35778522491455
			]
		},
		{
			"mesh":29,
			"name":"Cylinder.020",
			"rotation":[
				0,
				-1,
				0,
				1.6292068494294654e-07
			],
			"translation":[
				9.353083610534668,
				1.3380988836288452,
				-2.819899082183838
			]
		},
		{
			"mesh":30,
			"name":"Cylinder.019",
			"rotation":[
				0,
				-1,
				0,
				1.6292068494294654e-07
			],
			"translation":[
				9.353083610534668,
				1.3380988836288452,
				2.8243789672851562
			]
		},
		{
			"mesh":31,
			"name":"Cylinder.012",
			"translation":[
				-7.327170372009277,
				2,
				-36.496055603027344
			]
		},
		{
			"mesh":32,
			"name":"Cylinder.011",
			"translation":[
				-7.327170372009277,
				2,
				-30.937049865722656
			]
		},
		{
			"mesh":33,
			"name":"Cylinder.001",
			"rotation":[
				0,
				0.7071070671081543,
				0,
				0.7071064710617065
			],
			"translation":[
				-5.332254409790039,
				1.3380988836288452,
				8.340494155883789
			]
		},
		{
			"mesh":34,
			"name":"Cylinder.002",
			"rotation":[
				0,
				0.7071070671081543,
				0,
				0.7071064710617065
			],
			"translation":[
				5.318805694580078,
				1.3380988836288452,
				8.340494155883789
			]
		},
		{
			"mesh":35,
			"name":"Cylinder.016",
			"rotation":[
				0.30100056529045105,
				0.6398427486419678,
				-0.6398426294326782,
				0.30100059509277344
			],
			"translation":[
				3.136763095855713,
				0.5459249019622803,
				10.139077186584473
			]
		}
	],
	"materials":[
		{
			"doubleSided":true,
			"name":"sciana",
			"pbrMetallicRoughness":{
				"baseColorTexture":{
					"index":0
				},
				"metallicFactor":0,
				"roughnessFactor":0.6854545474052429
			}
		},
		{
			"doubleSided":true,
			"name":"crate",
			"pbrMetallicRoughness":{
				"baseColorTexture":{
					"index":1
				},
				"metallicFactor":0,
				"roughnessFactor":0.5
			}
		},
		{
			"doubleSided":true,
			"name":"Material.001",
			"pbrMetallicRoughness":{
				"baseColorFactor":[
					0.800000011920929,
					0.800000011920929,
					0.800000011920929,
					1
				],
				"metallicFactor":0,
				"roughnessFactor":0.5
			}
		},
		{
			"doubleSided":true,
			"name":"dzban",
			"pbrMetallicRoughness":{
				"baseColorFactor":[
					0.12624900043010712,
					0.07289353758096695,
					0.050659820437431335,
					1
				],
				"metallicFactor":0,
				"roughnessFactor":0.7981818318367004
			}
		},
		{
			"doubleSided":true,
			"name":"drewno",
			"pbrMetallicRoughness":{
				"baseColorTexture":{
					"index":2
				},
				"metallicFactor":0,
				"roughnessFactor":0.5
			}
		},
		{
			"doubleSided":true,
			"name":"podloga",
			"pbrMetallicRoughness":{
				"baseColorTexture":{
					"index":3
				},
				"metallicFactor":0
			}
		},
		{
			"doubleSided":true,
			"name":"Material.002",
			"pbrMetallicRoughness":{
				"baseColorFactor":[
					0.22115007042884827,
					0.22115007042884827,
					0.22115007042884827,
					1
				],
				"metallicFactor":0.7963636517524719,
				"roughnessFactor":0.5
			}
		}
	],
	"meshes":[
		{
			"name":"Plane.001",
			"primitives":[
				{
					"attributes":{
						"POSITION":0,
						"NORMAL":1,
						"TEXCOORD_0":2
					},
					"indices":3,
					"material":0
				}
			]
		},
		{
			"name":"Cube.008",
			"primitives":[
				{
					"attributes":{
						"POSITION":4,
						"NORMAL":5,
						"TEXCOORD_0":6
					},
					"indices":7,
					"material":1
				}
			]
		},
		{
			"name":"Cube.007",
			"primitives":[
				{
					"attributes":{
						"POSITION":8,
						"NORMAL":9,
						"TEXCOORD_0":10
					},
					"indices":7,
					"material":1
				}
			]
		},
		{
			"name":"Cube.006",
			"primitives":[
				{
					"attributes":{
						"POSITION":11,
						"NORMAL":12,
						"TEXCOORD_0":13
					},
					"indices":7,
					"material":1
				}
			]
		},
		{
			"name":"Cube.004",
			"primitives":[
				{
					"attributes":{
						"POSITION":14,
						"NORMAL":15,
						"TEXCOORD_0":16
					},
					"indices":7,
					"material":1
				}
			]
		},
		{
			"name":"Cube.001",
			"primitives":[
				{
					"attributes":{
						"POSITION":17,
						"NORMAL":18,
						"TEXCOORD_0":19
					},
					"indices":7,
					"material":1
				}
			]
		},
		{
			"name":"Cube.015",
			"primitives":[
				{
					"attributes":{
						"POSITION":20,
						"NORMAL":21,
						"TEXCOORD_0":22
					},
					"indices":23,
					"material":1
				},
				{
					"attributes":{
						"POSITION":24,
						"NORMAL":25,
						"TEXCOORD_0":26
					},
					"indices":27,
					"material":2
				}
			]
		},
		{
			"name":"Cylinder.008",
			"primitives":[
				{
					"attributes":{
						"POSITION":28,
						"NORMAL":29,
						"TEXCOORD_0":30
					},
					"indices":31,
					"material":3
				}
			]
		},
		{
			"name":"Cylinder.006",
			"primitives":[
				{
					"attributes":{
						"POSITION":32,
						"NORMAL":33,
						"TEXCOORD_0":34
					},
					"indices":31,
					"material":3
				}
			]
		},
		{
			"name":"Cylinder.004",
			"primitives":[
				{
					"attributes":{
						"POSITION":35,
						"NORMAL":36,
						"TEXCOORD_0":37
					},
					"indices":31,
					"material":3
				}
			]
		},
		{
			"name":"Cylinder.003",
			"primitives":[
				{
					"attributes":{
						"POSITION":38,
						"NORMAL":39,
						"TEXCOORD_0":40
					},
					"indices":41,
					"material":3
				}
			]
		},
		{
			"name":"Cylinder.011",
			"primitives":[
				{
					"attributes":{
						"POSITION":42,
						"NORMAL":43,
						"TEXCOORD_0":44
					},
					"indices":45,
					"material":4
				}
			]
		},
		{
			"name":"Cylinder.012",
			"primitives":[
				{
					"attributes":{
						"POSITION":46,
						"NORMAL":47,
						"TEXCOORD_0":48
					},
					"indices":45,
					"material":4
				}
			]
		},
		{
			"name":"Cylinder.001",
			"primitives":[
				{
					"attributes":{
						"POSITION":49,
						"NORMAL":50,
						"TEXCOORD_0":51
					},
					"indices":45,
					"material":4
				}
			]
		},
		{
			"name":"Cylinder.002",
			"primitives":[
				{
					"attributes":{
						"POSITION":52,
						"NORMAL":53,
						"TEXCOORD_0":54
					},
					"indices":45,
					"material":4
				}
			]
		},
		{
			"name":"Cylinder.005",
			"primitives":[
				{
					"attributes":{
						"POSITION":55,
						"NORMAL":56,
						"TEXCOORD_0":57
					},
					"indices":45,
					"material":4
				}
			]
		},
		{
			"name":"Cylinder.007",
			"primitives":[
				{
					"attributes":{
						"POSITION":58,
						"NORMAL":59,
						"TEXCOORD_0":60
					},
					"indices":45,
					"material":4
				}
			]
		},
		{
			"name":"Cylinder.009",
			"primitives":[
				{
					"attributes":{
						"POSITION":61,
						"NORMAL":62,
						"TEXCOORD_0":63
					},
					"indices":45,
					"material":4
				}
			]
		},
		{
			"name":"Cube.016",
			"primitives":[
				{
					"attributes":{
						"POSITION":64,
						"NORMAL":65,
						"TEXCOORD_0":66
					},
					"indices":7,
					"material":1
				}
			]
		},
		{
			"name":"Cube.003",
			"primitives":[
				{
					"attributes":{
						"POSITION":67,
						"NORMAL":68,
						"TEXCOORD_0":69
					},
					"indices":7,
					"material":1
				}
			]
		},
		{
			"name":"Cube.002",
			"primitives":[
				{
					"attributes":{
						"POSITION":70,
						"NORMAL":71,
						"TEXCOORD_0":72
					},
					"indices":7,
					"material":1
				}
			]
		},
		{
			"name":"Cube.005",
			"primitives":[
				{
					"attributes":{
						"POSITION":73,
						"NORMAL":74,
						"TEXCOORD_0":75
					},
					"indices":76,
					"material":0
				}
			]
		},
		{
			"name":"Plane.003",
			"primitives":[
				{
					"attributes":{
						"POSITION":77,
						"NORMAL":78,
						"TEXCOORD_0":79
					},
					"indices":80,
					"material":5
				}
			]
		},
		{
			"name":"Cube.010",
			"primitives":[
				{
					"attributes":{
						"POSITION":81,
						"NORMAL":82,
						"TEXCOORD_0":83
					},
					"indices":7,
					"material":1
				}
			]
		},
		{
			"name":"Cube.011",
			"primitives":[
				{
					"attributes":{
						"POSITION":84,
						"NORMAL":85,
						"TEXCOORD_0":86
					},
					"indices":7,
					"material":1
				}
			]
		},
		{
			"name":"Cube.012",
			"primitives":[
				{
					"attributes":{
						"POSITION":87,
						"NORMAL":88,
						"TEXCOORD_0":89
					},
					"indices":7,
					"material":1
				}
			]
		},
		{
			"name":"Cube.013",
			"primitives":[
				{
					"attributes":{
						"POSITION":90,
						"NORMAL":91,
						"TEXCOORD_0":92
					},
					"indices":7,
					"material":1
				}
			]
		},
		{
			"name":"Cylinder.029",
			"primitives":[
				{
					"attributes":{
						"POSITION":93,
						"NORMAL":94,
						"TEXCOORD_0":95
					},
					"indices":96,
					"material":4
				}
			]
		},
		{
			"name":"Cylinder.028",
			"primitives":[
				{
					"attributes":{
						"POSITION":97,
						"NORMAL":98,
						"TEXCOORD_0":99
					},
					"indices":96,
					"material":4
				}
			]
		},
		{
			"name":"Cylinder.027",
			"primitives":[
				{
					"attributes":{
						"POSITION":100,
						"NORMAL":101,
						"TEXCOORD_0":102
					},
					"indices":96,
					"material":4
				}
			]
		},
		{
			"name":"Cylinder.026",
			"primitives":[
				{
					"attributes":{
						"POSITION":103,
						"NORMAL":104,
						"TEXCOORD_0":105
					},
					"indices":96,
					"material":4
				}
			]
		},
		{
			"name":"Cylinder.022",
			"primitives":[
				{
					"attributes":{
						"POSITION":106,
						"NORMAL":107,
						"TEXCOORD_0":108
					},
					"indices":109,
					"material":4
				}
			]
		},
		{
			"name":"Cylinder.021",
			"primitives":[
				{
					"attributes":{
						"POSITION":110,
						"NORMAL":111,
						"TEXCOORD_0":112
					},
					"indices":109,
					"material":4
				}
			]
		},
		{
			"name":"Cylinder.010",
			"primitives":[
				{
					"attributes":{
						"POSITION":113,
						"NORMAL":114,
						"TEXCOORD_0":115
					},
					"indices":96,
					"material":4
				}
			]
		},
		{
			"name":"Cylinder.013",
			"primitives":[
				{
					"attributes":{
						"POSITION":116,
						"NORMAL":117,
						"TEXCOORD_0":118
					},
					"indices":96,
					"material":4
				}
			]
		},
		{
			"name":"Cylinder.016",
			"primitives":[
				{
					"attributes":{
						"POSITION":119,
						"NORMAL":120,
						"TEXCOORD_0":121
					},
					"indices":122,
					"material":6
				}
			]
		}
	],
	"textures":[
		{
			"sampler":0,
			"source":0
		},
		{
			"sampler":0,
			"source":1
		},
		{
			"sampler":0,
			"source":2
		},
		{
			"sampler":0,
			"source":3
		}
	],
	"images":[
		{
			"mimeType":"image/png",
			"name":"Brick 25 - 512x512",
			"uri":"textures/Brick%2025%20-%20512x512.png"
		},
		{
			"mimeType":"image/jpeg",
			"name":"crate",
			"uri":"textures/crate.jpg"
		},
		{
			"mimeType":"image/png",
			"name":"Wood 10 - 512x512",
			"uri":"textures/Wood%2010%20-%20512x512.png"
		},
		{
			"mimeType":"image/jpeg",
			"name":"stone2",
			"uri":"textures/stone2.jpg"
		}
	],
	"accessors":[
		{
			"bufferView":0,
			"componentType":5126,
			"count":368,
			"max":[
				14,
				2,
				13
			],
			"min":[
				-14,
				-0.017243612557649612,
				-13.000019073486328
			],
			"type":"VEC3"
		},
		{
			"bufferView":1,
			"componentType":5126,
			"count":368,
			"type":"VEC3"
		},
		{
			"bufferView":2,
			"componentType":5126,
			"count":368,
			"type":"VEC2"
		},
		{
			"bufferView":3,
			"componentType":5123,
			"count":768,
			"type":"SCALAR"
		},
		{
			"bufferView":4,
			"componentType":5126,
			"count":605,
			"max":[
				0.19075191020965576,
				0.19628597795963287,
				0.19920097291469574
			],
			"min":[
				-0.1992480754852295,
				-0.19371400773525238,
				-0.19079901278018951
			],
			"type":"VEC3"
		},
		{
			"bufferView":5,
			"componentType":5126,
			"count":605,
			"type":"VEC3"
		},
		{
			"bufferView":6,
			"componentType":5126,
			"count":605,
			"type":"VEC2"
		},
		{
			"bufferView":7,
			"componentType":5123,
			"count":1254,
			"type":"SCALAR"
		},
		{
			"bufferView":8,
			"componentType":5126,
			"count":605,
			"max":[
				0.19075191020965576,
				0.19628597795963287,
				0.19920097291469574
			],
			"min":[
				-0.1992480754852295,
				-0.19371400773525238,
				-0.19079901278018951
			],
			"type":"VEC3"
		},
		{
			"bufferView":9,
			"componentType":5126,
			"count":605,
			"type":"VEC3"
		},
		{
			"bufferView":10,
			"componentType":5126,
			"count":605,
			"type":"VEC2"
		},
		{
			"bufferView":11,
			"componentType":5126,
			"count":605,
			"max":[
				0.19075191020965576,
				0.19628597795963287,
				0.19920097291469574
			],
			"min":[
				-0.1992480754852295,
				-0.19371400773525238,
				-0.19079901278018951
			],
			"type":"VEC3"
		},
		{
			"bufferView":12,
			"componentType":5126,
			"count":605,
			"type":"VEC3"
		},
		{
			"bufferView":13,
			"componentType":5126,
			"count":605,
			"type":"VEC2"
		},
		{
			"bufferView":14,
			"componentType":5126,
			"count":605,
			"max":[
				0.19075191020965576,
				0.19628597795963287,
				0.19920097291469574
			],
			"min":[
				-0.1992480754852295,
				-0.19371400773525238,
				-0.19079901278018951
			],
			"type":"VEC3"
		},
		{
			"bufferView":15,
			"componentType":5126,
			"count":605,
			"type":"VEC3"
		},
		{
			"bufferView":16,
			"componentType":5126,
			"count":605,
			"type":"VEC2"
		},
		{
			"bufferView":17,
			"componentType":5126,
			"count":605,
			"max":[
				0.19075191020965576,
				0.19628597795963287,
				0.19920097291469574
			],
			"min":[
				-0.1992480754852295,
				-0.19371400773525238,
				-0.19079901278018951
			],
			"type":"VEC3"
		},
		{
			"bufferView":18,
			"componentType":5126,
			"count":605,
			"type":"VEC3"
		},
		{
			"bufferView":19,
			"componentType":5126,
			"count":605,
			"type":"VEC2"
		},
		{
			"bufferView":20,
			"componentType":5126,
			"count":3175,
			"max":[
				1.0780479907989502,
				1.1036992073059082,
				1.0090351104736328
			],
			"min":[
				-0.6596150398254395,
				-0.657731294631958,
				-1.0605030059814453
			],
			"type":"VEC3"
		},
		{
			"bufferView":21,
			"componentType":5126,
			"count":3175,
			"type":"VEC3"
		},
		{
			"bufferView":22,
			"componentType":5126,
			"count":3175,
			"type":"VEC2"
		},
		{
			"bufferView":23,
			"componentType":5123,
			"count":6414,
			"type":"SCALAR"
		},
		{
			"bufferView":24,
			"componentType":5126,
			"count":2863,
			"max":[
				0.26971912384033203,
				0.5015978813171387,
				0.3538227081298828
			],
			"min":[
				-0.48946523666381836,
				-0.6341712474822998,
				-0.3346061706542969
			],
			"type":"VEC3"
		},
		{
			"bufferView":25,
			"componentType":5126,
			"count":2863,
			"type":"VEC3"
		},
		{
			"bufferView":26,
			"componentType":5126,
			"count":2863,
			"type":"VEC2"
		},
		{
			"bufferView":27,
			"componentType":5123,
			"count":4740,
			"type":"SCALAR"
		},
		{
			"bufferView":28,
			"componentType":5126,
			"count":714,
			"max":[
				-1.7153196334838867,
				-1.6456607580184937,
				32.38288879394531
			],
			"min":[
				-2.1661767959594727,
				-2.174649715423584,
				31.932029724121094
			],
			"type":"VEC3"
		},
		{
			"bufferView":29,
			"componentType":5126,
			"count":714,
			"type":"VEC3"
		},
		{
			"bufferView":30,
			"componentType":5126,
			"count":714,
			"type":"VEC2"
		},
		{
			"bufferView":31,
			"componentType":5123,
			"count":852,
			"type":"SCALAR"
		},
		{
			"bufferView":32,
			"componentType":5126,
			"count":714,
			"max":[
				-1.7153196334838867,
				-1.6456607580184937,
				32.38288879394531
			],
			"min":[
				-2.1661767959594727,
				-2.174649715423584,
				31.932029724121094
			],
			"type":"VEC3"
		},
		{
			"bufferView":33,
			"componentType":5126,
			"count":714,
			"type":"VEC3"
		},
		{
			"bufferView":34,
			"componentType":5126,
			"count":714,
			"type":"VEC2"
		},
		{
			"bufferView":35,
			"componentType":5126,
			"count":714,
			"max":[
				-1.7153196334838867,
				-1.6456607580184937,
				32.38288879394531
			],
			"min":[
				-2.1661767959594727,
				-2.174649715423584,
				31.932029724121094
			],
			"type":"VEC3"
		},
		{
			"bufferView":36,
			"componentType":5126,
			"count":714,
			"type":"VEC3"
		},
		{
			"bufferView":37,
			"componentType":5126,
			"count":714,
			"type":"VEC2"
		},
		{
			"bufferView":38,
			"componentType":5126,
			"count":402,
			"max":[
				-1.674770474433899,
				-1.270566701889038,
				30.476032257080078
			],
			"min":[
				-2.206725835800171,
				-2.174044609069824,
				29.944076538085938
			],
			"type":"VEC3"
		},
		{
			"bufferView":39,
			"componentType":5126,
			"count":402,
			"type":"VEC3"
		},
		{
			"bufferView":40,
			"componentType":5126,
			"count":402,
			"type":"VEC2"
		},
		{
			"bufferView":41,
			"componentType":5123,
			"count":564,
			"type":"SCALAR"
		},
		{
			"bufferView":42,
			"componentType":5126,
			"count":462,
			"max":[
				1.167971134185791,
				1.191305160522461,
				1.2057090997695923
			],
			"min":[
				-1.1494168043136597,
				-1.191305160522461,
				-1.210943341255188
			],
			"type":"VEC3"
		},
		{
			"bufferView":43,
			"componentType":5126,
			"count":462,
			"type":"VEC3"
		},
		{
			"bufferView":44,
			"componentType":5126,
			"count":462,
			"type":"VEC2"
		},
		{
			"bufferView":45,
			"componentType":5123,
			"count":744,
			"type":"SCALAR"
		},
		{
			"bufferView":46,
			"componentType":5126,
			"count":462,
			"max":[
				1.167971134185791,
				1.191305160522461,
				1.2057090997695923
			],
			"min":[
				-1.1494168043136597,
				-1.191305160522461,
				-1.210943341255188
			],
			"type":"VEC3"
		},
		{
			"bufferView":47,
			"componentType":5126,
			"count":462,
			"type":"VEC3"
		},
		{
			"bufferView":48,
			"componentType":5126,
			"count":462,
			"type":"VEC2"
		},
		{
			"bufferView":49,
			"componentType":5126,
			"count":462,
			"max":[
				1.167971134185791,
				1.191305160522461,
				1.2057090997695923
			],
			"min":[
				-1.1494168043136597,
				-1.191305160522461,
				-1.210943341255188
			],
			"type":"VEC3"
		},
		{
			"bufferView":50,
			"componentType":5126,
			"count":462,
			"type":"VEC3"
		},
		{
			"bufferView":51,
			"componentType":5126,
			"count":462,
			"type":"VEC2"
		},
		{
			"bufferView":52,
			"componentType":5126,
			"count":462,
			"max":[
				1.167971134185791,
				1.191305160522461,
				1.2057090997695923
			],
			"min":[
				-1.1494168043136597,
				-1.191305160522461,
				-1.210943341255188
			],
			"type":"VEC3"
		},
		{
			"bufferView":53,
			"componentType":5126,
			"count":462,
			"type":"VEC3"
		},
		{
			"bufferView":54,
			"componentType":5126,
			"count":462,
			"type":"VEC2"
		},
		{
			"bufferView":55,
			"componentType":5126,
			"count":462,
			"max":[
				1.167971134185791,
				1.191305160522461,
				1.2057090997695923
			],
			"min":[
				-1.1494168043136597,
				-1.191305160522461,
				-1.210943341255188
			],
			"type":"VEC3"
		},
		{
			"bufferView":56,
			"componentType":5126,
			"count":462,
			"type":"VEC3"
		},
		{
			"bufferView":57,
			"componentType":5126,
			"count":462,
			"type":"VEC2"
		},
		{
			"bufferView":58,
			"componentType":5126,
			"count":462,
			"max":[
				1.167971134185791,
				1.191305160522461,
				1.2057090997695923
			],
			"min":[
				-1.1494168043136597,
				-1.191305160522461,
				-1.210943341255188
			],
			"type":"VEC3"
		},
		{
			"bufferView":59,
			"componentType":5126,
			"count":462,
			"type":"VEC3"
		},
		{
			"bufferView":60,
			"componentType":5126,
			"count":462,
			"type":"VEC2"
		},
		{
			"bufferView":61,
			"componentType":5126,
			"count":462,
			"max":[
				1.167971134185791,
				1.191305160522461,
				1.2057090997695923
			],
			"min":[
				-1.1494168043136597,
				-1.191305160522461,
				-1.210943341255188
			],
			"type":"VEC3"
		},
		{
			"bufferView":62,
			"componentType":5126,
			"count":462,
			"type":"VEC3"
		},
		{
			"bufferView":63,
			"componentType":5126,
			"count":462,
			"type":"VEC2"
		},
		{
			"bufferView":64,
			"componentType":5126,
			"count":605,
			"max":[
				0.19075191020965576,
				0.19628597795963287,
				0.19920097291469574
			],
			"min":[
				-0.1992480754852295,
				-0.19371400773525238,
				-0.19079901278018951
			],
			"type":"VEC3"
		},
		{
			"bufferView":65,
			"componentType":5126,
			"count":605,
			"type":"VEC3"
		},
		{
			"bufferView":66,
			"componentType":5126,
			"count":605,
			"type":"VEC2"
		},
		{
			"bufferView":67,
			"componentType":5126,
			"count":605,
			"max":[
				0.19075191020965576,
				0.19628597795963287,
				0.19920097291469574
			],
			"min":[
				-0.1992480754852295,
				-0.19371400773525238,
				-0.19079901278018951
			],
			"type":"VEC3"
		},
		{
			"bufferView":68,
			"componentType":5126,
			"count":605,
			"type":"VEC3"
		},
		{
			"bufferView":69,
			"componentType":5126,
			"count":605,
			"type":"VEC2"
		},
		{
			"bufferView":70,
			"componentType":5126,
			"count":605,
			"max":[
				0.19075191020965576,
				0.19628597795963287,
				0.19920097291469574
			],
			"min":[
				-0.1992480754852295,
				-0.19371400773525238,
				-0.19079901278018951
			],
			"type":"VEC3"
		},
		{
			"bufferView":71,
			"componentType":5126,
			"count":605,
			"type":"VEC3"
		},
		{
			"bufferView":72,
			"componentType":5126,
			"count":605,
			"type":"VEC2"
		},
		{
			"bufferView":73,
			"componentType":5126,
			"count":1170,
			"max":[
				0.2050151824951172,
				1.3309390544891357,
				0.88629150390625
			],
			"min":[
				-0.19925785064697266,
				-1.1373322010040283,
				-0.947601318359375
			],
			"type":"VEC3"
		},
		{
			"bufferView":74,
			"componentType":5126,
			"count":1170,
			"type":"VEC3"
		},
		{
			"bufferView":75,
			"componentType":5126,
			"count":1170,
			"type":"VEC2"
		},
		{
			"bufferView":76,
			"componentType":5123,
			"count":2247,
			"type":"SCALAR"
		},
		{
			"bufferView":77,
			"componentType":5126,
			"count":46,
			"max":[
				14,
				0,
				12.5
			],
			"min":[
				-14,
				-0.017243612557649612,
				-12.500018119812012
			],
			"type":"VEC3"
		},
		{
			"bufferView":78,
			"componentType":5126,
			"count":46,
			"type":"VEC3"
		},
		{
			"bufferView":79,
			"componentType":5126,
			"count":46,
			"type":"VEC2"
		},
		{
			"bufferView":80,
			"componentType":5123,
			"count":96,
			"type":"SCALAR"
		},
		{
			"bufferView":81,
			"componentType":5126,
			"count":605,
			"max":[
				0.19075191020965576,
				0.19628597795963287,
				0.19920097291469574
			],
			"min":[
				-0.1992480754852295,
				-0.19371400773525238,
				-0.19079901278018951
			],
			"type":"VEC3"
		},
		{
			"bufferView":82,
			"componentType":5126,
			"count":605,
			"type":"VEC3"
		},
		{
			"bufferView":83,
			"componentType":5126,
			"count":605,
			"type":"VEC2"
		},
		{
			"bufferView":84,
			"componentType":5126,
			"count":605,
			"max":[
				0.19075191020965576,
				0.19628597795963287,
				0.19920097291469574
			],
			"min":[
				-0.1992480754852295,
				-0.19371400773525238,
				-0.19079901278018951
			],
			"type":"VEC3"
		},
		{
			"bufferView":85,
			"componentType":5126,
			"count":605,
			"type":"VEC3"
		},
		{
			"bufferView":86,
			"componentType":5126,
			"count":605,
			"type":"VEC2"
		},
		{
			"bufferView":87,
			"componentType":5126,
			"count":605,
			"max":[
				0.19075191020965576,
				0.19628597795963287,
				0.19920097291469574
			],
			"min":[
				-0.1992480754852295,
				-0.19371400773525238,
				-0.19079901278018951
			],
			"type":"VEC3"
		},
		{
			"bufferView":88,
			"componentType":5126,
			"count":605,
			"type":"VEC3"
		},
		{
			"bufferView":89,
			"componentType":5126,
			"count":605,
			"type":"VEC2"
		},
		{
			"bufferView":90,
			"componentType":5126,
			"count":605,
			"max":[
				0.19075191020965576,
				0.19628597795963287,
				0.19920097291469574
			],
			"min":[
				-0.1992480754852295,
				-0.19371400773525238,
				-0.19079901278018951
			],
			"type":"VEC3"
		},
		{
			"bufferView":91,
			"componentType":5126,
			"count":605,
			"type":"VEC3"
		},
		{
			"bufferView":92,
			"componentType":5126,
			"count":605,
			"type":"VEC2"
		},
		{
			"bufferView":93,
			"componentType":5126,
			"count":1199,
			"max":[
				0.13655361533164978,
				0.21064303815364838,
				0.1293332725763321
			],
			"min":[
				-0.15991631150245667,
				-0.25389915704727173,
				-0.1471712440252304
			],
			"type":"VEC3"
		},
		{
			"bufferView":94,
			"componentType":5126,
			"count":1199,
			"type":"VEC3"
		},
		{
			"bufferView":95,
			"componentType":5126,
			"count":1199,
			"type":"VEC2"
		},
		{
			"bufferView":96,
			"componentType":5123,
			"count":1668,
			"type":"SCALAR"
		},
		{
			"bufferView":97,
			"componentType":5126,
			"count":1199,
			"max":[
				0.13655361533164978,
				0.21064303815364838,
				0.1293332725763321
			],
			"min":[
				-0.15991631150245667,
				-0.25389915704727173,
				-0.1471712440252304
			],
			"type":"VEC3"
		},
		{
			"bufferView":98,
			"componentType":5126,
			"count":1199,
			"type":"VEC3"
		},
		{
			"bufferView":99,
			"componentType":5126,
			"count":1199,
			"type":"VEC2"
		},
		{
			"bufferView":100,
			"componentType":5126,
			"count":1199,
			"max":[
				0.13655361533164978,
				0.21064303815364838,
				0.1293332725763321
			],
			"min":[
				-0.15991631150245667,
				-0.25389915704727173,
				-0.1471712440252304
			],
			"type":"VEC3"
		},
		{
			"bufferView":101,
			"componentType":5126,
			"count":1199,
			"type":"VEC3"
		},
		{
			"bufferView":102,
			"componentType":5126,
			"count":1199,
			"type":"VEC2"
		},
		{
			"bufferView":103,
			"componentType":5126,
			"count":1199,
			"max":[
				0.13655361533164978,
				0.21064303815364838,
				0.1293332725763321
			],
			"min":[
				-0.15991631150245667,
				-0.25389915704727173,
				-0.1471712440252304
			],
			"type":"VEC3"
		},
		{
			"bufferView":104,
			"componentType":5126,
			"count":1199,
			"type":"VEC3"
		},
		{
			"bufferView":105,
			"componentType":5126,
			"count":1199,
			"type":"VEC2"
		},
		{
			"bufferView":106,
			"componentType":5126,
			"count":1375,
			"max":[
				-1.8840081691741943,
				-0.45125800371170044,
				33.95118713378906
			],
			"min":[
				-2.180478096008301,
				-0.9158002138137817,
				33.6746826171875
			],
			"type":"VEC3"
		},
		{
			"bufferView":107,
			"componentType":5126,
			"count":1375,
			"type":"VEC3"
		},
		{
			"bufferView":108,
			"componentType":5126,
			"count":1375,
			"type":"VEC2"
		},
		{
			"bufferView":109,
			"componentType":5123,
			"count":1668,
			"type":"SCALAR"
		},
		{
			"bufferView":110,
			"componentType":5126,
			"count":1375,
			"max":[
				-1.8840081691741943,
				-0.45125800371170044,
				33.95118713378906
			],
			"min":[
				-2.180478096008301,
				-0.9158002138137817,
				33.6746826171875
			],
			"type":"VEC3"
		},
		{
			"bufferView":111,
			"componentType":5126,
			"count":1375,
			"type":"VEC3"
		},
		{
			"bufferView":112,
			"componentType":5126,
			"count":1375,
			"type":"VEC2"
		},
		{
			"bufferView":113,
			"componentType":5126,
			"count":1199,
			"max":[
				0.13655361533164978,
				0.21064303815364838,
				0.1293332725763321
			],
			"min":[
				-0.15991631150245667,
				-0.25389915704727173,
				-0.1471712440252304
			],
			"type":"VEC3"
		},
		{
			"bufferView":114,
			"componentType":5126,
			"count":1199,
			"type":"VEC3"
		},
		{
			"bufferView":115,
			"componentType":5126,
			"count":1199,
			"type":"VEC2"
		},
		{
			"bufferView":116,
			"componentType":5126,
			"count":1199,
			"max":[
				0.13655361533164978,
				0.21064303815364838,
				0.1293332725763321
			],
			"min":[
				-0.15991631150245667,
				-0.25389915704727173,
				-0.1471712440252304
			],
			"type":"VEC3"
		},
		{
			"bufferView":117,
			"componentType":5126,
			"count":1199,
			"type":"VEC3"
		},
		{
			"bufferView":118,
			"componentType":5126,
			"count":1199,
			"type":"VEC2"
		},
		{
			"bufferView":119,
			"componentType":5126,
			"count":1694,
			"max":[
				0.5564119815826416,
				1.190945029258728,
				0.5563755035400391
			],
			"min":[
				-0.5564124584197998,
				-1.0278338193893433,
				-0.5564479827880859
			],
			"type":"VEC3"
		},
		{
			"bufferView":120,
			"componentType":5126,
			"count":1694,
			"type":"VEC3"
		},
		{
			"bufferView":121,
			"componentType":5126,
			"count":1694,
			"type":"VEC2"
		},
		{
			"bufferView":122,
			"componentType":5123,
			"count":3096,
			"type":"SCALAR"
		}
	],
	"bufferViews":[
		{
			"buffer":0,
			"byteLength":4416,
			"byteOffset":0,
			"target":34962
		},
		{
			"buffer":0,
			"byteLength":4416,
			"byteOffset":4416,
			"target":34962
		},
		{
			"buffer":0,
			"byteLength":2944,
			"byteOffset":8832,
			"target":34962
		},
		{
			"buffer":0,
			"byteLength":1536,
			"byteOffset":11776,
			"target":34963
		},
		{
			"buffer":0,
			"byteLength":7260,
			"byteOffset":13312,
			"target":34962
		},
		{
			"buffer":0,
			"byteLength":7260,
			"byteOffset":20572,
			"target":34962
		},
		{
			"buffer":0,
			"byteLength":4840,
			"byteOffset":27832,
			"target":34962
		},
		{
			"buffer":0,
			"byteLength":2508,
			"byteOffset":32672,
			"target":34963
		},
		{
			"buffer":0,
			"byteLength":7260,
			"byteOffset":35180,
			"target":34962
		},
		{
			"buffer":0,
			"byteLength":7260,
			"byteOffset":42440,
			"target":34962
		},
		{
			"buffer":0,
			"byteLength":4840,
			"byteOffset":49700,
			"target":34962
		},
		{
			"buffer":0,
			"byteLength":7260,
			"byteOffset":54540,
			"target":34962
		},
		{
			"buffer":0,
			"byteLength":7260,
			"byteOffset":61800,
			"target":34962
		},
		{
			"buffer":0,
			"byteLength":4840,
			"byteOffset":69060,
			"target":34962
		},
		{
			"buffer":0,
			"byteLength":7260,
			"byteOffset":73900,
			"target":34962
		},
		{
			"buffer":0,
			"byteLength":7260,
			"byteOffset":81160,
			"target":34962
		},
		{
			"buffer":0,
			"byteLength":4840,
			"byteOffset":88420,
			"target":34962
		},
		{
			"buffer":0,
			"byteLength":7260,
			"byteOffset":93260,
			"target":34962
		},
		{
			"buffer":0,
			"byteLength":7260,
			"byteOffset":100520,
			"target":34962
		},
		{
			"buffer":0,
			"byteLength":4840,
			"byteOffset":107780,
			"target":34962
		},
		{
			"buffer":0,
			"byteLength":38100,
			"byteOffset":112620,
			"target":34962
		},
		{
			"buffer":0,
			"byteLength":38100,
			"byteOffset":150720,
			"target":34962
		},
		{
			"buffer":0,
			"byteLength":25400,
			"byteOffset":188820,
			"target":34962
		},
		{
			"buffer":0,
			"byteLength":12828,
			"byteOffset":214220,
			"target":34963
		},
		{
			"buffer":0,
			"byteLength":34356,
			"byteOffset":227048,
			"target":34962
		},
		{
			"buffer":0,
			"byteLength":34356,
			"byteOffset":261404,
			"target":34962
		},
		{
			"buffer":0,
			"byteLength":22904,
			"byteOffset":295760,
			"target":34962
		},
		{
			"buffer":0,
			"byteLength":9480,
			"byteOffset":318664,
			"target":34963
		},
		{
			"buffer":0,
			"byteLength":8568,
			"byteOffset":328144,
			"target":34962
		},
		{
			"buffer":0,
			"byteLength":8568,
			"byteOffset":336712,
			"target":34962
		},
		{
			"buffer":0,
			"byteLength":5712,
			"byteOffset":345280,
			"target":34962
		},
		{
			"buffer":0,
			"byteLength":1704,
			"byteOffset":350992,
			"target":34963
		},
		{
			"buffer":0,
			"byteLength":8568,
			"byteOffset":352696,
			"target":34962
		},
		{
			"buffer":0,
			"byteLength":8568,
			"byteOffset":361264,
			"target":34962
		},
		{
			"buffer":0,
			"byteLength":5712,
			"byteOffset":369832,
			"target":34962
		},
		{
			"buffer":0,
			"byteLength":8568,
			"byteOffset":375544,
			"target":34962
		},
		{
			"buffer":0,
			"byteLength":8568,
			"byteOffset":384112,
			"target":34962
		},
		{
			"buffer":0,
			"byteLength":5712,
			"byteOffset":392680,
			"target":34962
		},
		{
			"buffer":0,
			"byteLength":4824,
			"byteOffset":398392,
			"target":34962
		},
		{
			"buffer":0,
			"byteLength":4824,
			"byteOffset":403216,
			"target":34962
		},
		{
			"buffer":0,
			"byteLength":3216,
			"byteOffset":408040,
			"target":34962
		},
		{
			"buffer":0,
			"byteLength":1128,
			"byteOffset":411256,
			"target":34963
		},
		{
			"buffer":0,
			"byteLength":5544,
			"byteOffset":412384,
			"target":34962
		},
		{
			"buffer":0,
			"byteLength":5544,
			"byteOffset":417928,
			"target":34962
		},
		{
			"buffer":0,
			"byteLength":3696,
			"byteOffset":423472,
			"target":34962
		},
		{
			"buffer":0,
			"byteLength":1488,
			"byteOffset":427168,
			"target":34963
		},
		{
			"buffer":0,
			"byteLength":5544,
			"byteOffset":428656,
			"target":34962
		},
		{
			"buffer":0,
			"byteLength":5544,
			"byteOffset":434200,
			"target":34962
		},
		{
			"buffer":0,
			"byteLength":3696,
			"byteOffset":439744,
			"target":34962
		},
		{
			"buffer":0,
			"byteLength":5544,
			"byteOffset":443440,
			"target":34962
		},
		{
			"buffer":0,
			"byteLength":5544,
			"byteOffset":448984,
			"target":34962
		},
		{
			"buffer":0,
			"byteLength":3696,
			"byteOffset":454528,
			"target":34962
		},
		{
			"buffer":0,
			"byteLength":5544,
			"byteOffset":458224,
			"target":34962
		},
		{
			"buffer":0,
			"byteLength":5544,
			"byteOffset":463768,
			"target":34962
		},
		{
			"buffer":0,
			"byteLength":3696,
			"byteOffset":469312,
			"target":34962
		},
		{
			"buffer":0,
			"byteLength":5544,
			"byteOffset":473008,
			"target":34962
		},
		{
			"buffer":0,
			"byteLength":5544,
			"byteOffset":478552,
			"target":34962
		},
		{
			"buffer":0,
			"byteLength":3696,
			"byteOffset":484096,
			"target":34962
		},
		{
			"buffer":0,
			"byteLength":5544,
			"byteOffset":487792,
			"target":34962
		},
		{
			"buffer":0,
			"byteLength":5544,
			"byteOffset":493336,
			"target":34962
		},
		{
			"buffer":0,
			"byteLength":3696,
			"byteOffset":498880,
			"target":34962
		},
		{
			"buffer":0,
			"byteLength":5544,
			"byteOffset":502576,
			"target":34962
		},
		{
			"buffer":0,
			"byteLength":5544,
			"byteOffset":508120,
			"target":34962
		},
		{
			"buffer":0,
			"byteLength":3696,
			"byteOffset":513664,
			"target":34962
		},
		{
			"buffer":0,
			"byteLength":7260,
			"byteOffset":517360,
			"target":34962
		},
		{
			"buffer":0,
			"byteLength":7260,
			"byteOffset":524620,
			"target":34962
		},
		{
			"buffer":0,
			"byteLength":4840,
			"byteOffset":531880,
			"target":34962
		},
		{
			"buffer":0,
			"byteLength":7260,
			"byteOffset":536720,
			"target":34962
		},
		{
			"buffer":0,
			"byteLength":7260,
			"byteOffset":543980,
			"target":34962
		},
		{
			"buffer":0,
			"byteLength":4840,
			"byteOffset":551240,
			"target":34962
		},
		{
			"buffer":0,
			"byteLength":7260,
			"byteOffset":556080,
			"target":34962
		},
		{
			"buffer":0,
			"byteLength":7260,
			"byteOffset":563340,
			"target":34962
		},
		{
			"buffer":0,
			"byteLength":4840,
			"byteOffset":570600,
			"target":34962
		},
		{
			"buffer":0,
			"byteLength":14040,
			"byteOffset":575440,
			"target":34962
		},
		{
			"buffer":0,
			"byteLength":14040,
			"byteOffset":589480,
			"target":34962
		},
		{
			"buffer":0,
			"byteLength":9360,
			"byteOffset":603520,
			"target":34962
		},
		{
			"buffer":0,
			"byteLength":4494,
			"byteOffset":612880,
			"target":34963
		},
		{
			"buffer":0,
			"byteLength":552,
			"byteOffset":617376,
			"target":34962
		},
		{
			"buffer":0,
			"byteLength":552,
			"byteOffset":617928,
			"target":34962
		},
		{
			"buffer":0,
			"byteLength":368,
			"byteOffset":618480,
			"target":34962
		},
		{
			"buffer":0,
			"byteLength":192,
			"byteOffset":618848,
			"target":34963
		},
		{
			"buffer":0,
			"byteLength":7260,
			"byteOffset":619040,
			"target":34962
		},
		{
			"buffer":0,
			"byteLength":7260,
			"byteOffset":626300,
			"target":34962
		},
		{
			"buffer":0,
			"byteLength":4840,
			"byteOffset":633560,
			"target":34962
		},
		{
			"buffer":0,
			"byteLength":7260,
			"byteOffset":638400,
			"target":34962
		},
		{
			"buffer":0,
			"byteLength":7260,
			"byteOffset":645660,
			"target":34962
		},
		{
			"buffer":0,
			"byteLength":4840,
			"byteOffset":652920,
			"target":34962
		},
		{
			"buffer":0,
			"byteLength":7260,
			"byteOffset":657760,
			"target":34962
		},
		{
			"buffer":0,
			"byteLength":7260,
			"byteOffset":665020,
			"target":34962
		},
		{
			"buffer":0,
			"byteLength":4840,
			"byteOffset":672280,
			"target":34962
		},
		{
			"buffer":0,
			"byteLength":7260,
			"byteOffset":677120,
			"target":34962
		},
		{
			"buffer":0,
			"byteLength":7260,
			"byteOffset":684380,
			"target":34962
		},
		{
			"buffer":0,
			"byteLength":4840,
			"byteOffset":691640,
			"target":34962
		},
		{
			"buffer":0,
			"byteLength":14388,
			"byteOffset":696480,
			"target":34962
		},
		{
			"buffer":0,
			"byteLength":14388,
			"byteOffset":710868,
			"target":34962
		},
		{
			"buffer":0,
			"byteLength":9592,
			"byteOffset":725256,
			"target":34962
		},
		{
			"buffer":0,
			"byteLength":3336,
			"byteOffset":734848,
			"target":34963
		},
		{
			"buffer":0,
			"byteLength":14388,
			"byteOffset":738184,
			"target":34962
		},
		{
			"buffer":0,
			"byteLength":14388,
			"byteOffset":752572,
			"target":34962
		},
		{
			"buffer":0,
			"byteLength":9592,
			"byteOffset":766960,
			"target":34962
		},
		{
			"buffer":0,
			"byteLength":14388,
			"byteOffset":776552,
			"target":34962
		},
		{
			"buffer":0,
			"byteLength":14388,
			"byteOffset":790940,
			"target":34962
		},
		{
			"buffer":0,
			"byteLength":9592,
			"byteOffset":805328,
			"target":34962
		},
		{
			"buffer":0,
			"byteLength":14388,
			"byteOffset":814920,
			"target":34962
		},
		{
			"buffer":0,
			"byteLength":14388,
			"byteOffset":829308,
			"target":34962
		},
		{
			"buffer":0,
			"byteLength":9592,
			"byteOffset":843696,
			"target":34962
		},
		{
			"buffer":0,
			"byteLength":16500,
			"byteOffset":853288,
			"target":34962
		},
		{
			"buffer":0,
			"byteLength":16500,
			"byteOffset":869788,
			"target":34962
		},
		{
			"buffer":0,
			"byteLength":11000,
			"byteOffset":886288,
			"target":34962
		},
		{
			"buffer":0,
			"byteLength":3336,
			"byteOffset":897288,
			"target":34963
		},
		{
			"buffer":0,
			"byteLength":16500,
			"byteOffset":900624,
			"target":34962
		},
		{
			"buffer":0,
			"byteLength":16500,
			"byteOffset":917124,
			"target":34962
		},
		{
			"buffer":0,
			"byteLength":11000,
			"byteOffset":933624,
			"target":34962
		},
		{
			"buffer":0,
			"byteLength":14388,
			"byteOffset":944624,
			"target":34962
		},
		{
			"buffer":0,
			"byteLength":14388,
			"byteOffset":959012,
			"target":34962
		},
		{
			"buffer":0,
			"byteLength":9592,
			"byteOffset":973400,
			"target":34962
		},
		{
			"buffer":0,
			"byteLength":14388,
			"byteOffset":982992,
			"target":34962
		},
		{
			"buffer":0,
			"byteLength":14388,
			"byteOffset":997380,
			"target":34962
		},
		{
			"buffer":0,
			"byteLength":9592,
			"byteOffset":1011768,
			"target":34962
		},
		{
			"buffer":0,
			"byteLength":20328,
			"byteOffset":1021360,
			"target":34962
		},
		{
			"buffer":0,
			"byteLength":20328,
			"byteOffset":1041688,
			"target":34962
		},
		{
			"buffer":0,
			"byteLength":13552,
			"byteOffset":1062016,
			"target":34962
		},
		{
			"buffer":0,
			"byteLength":6192,
			"byteOffset":1075568,
			"target":34963
		}
	],
	"samplers":[
		{
			"magFilter":9729,
			"minFilter":9987
		}
	],
	"buffers":[
		{
			"byteLength":1081760,
			"uri":"room_I.bin"
		}
	]
}
