{
	"asset":{
		"generator":"Khronos glTF Blender I/O v5.1.19",
		"version":"2.0"
	},
	"scene":0,
	"scenes":[
		{
			"name":"Scene",
			"nodes":[
				0,
				1,
				2,
				3,
				4,
				5,
				6,
				7,
				8,
				9,
				10,
				11,
				12,
				13,
				14,
				15,
				16,
				17,
				18,
				19,
				20,
				21,
				22,
				23,
				24,
				25,
				26,
				27,
				28,
				29,
				30,
				31,
				32,
				33,
				34,
				35,
				36,
				37,
				38,
				39,
				40,
				41,
				42,
				43,
				44
			]
		}
	],
	"nodes":[
		{
			"mesh":0,
			"name":"Plane",
			"translation":[
				0,
				-1,
				0
			]
		},
		{
			"mesh":1,
			"name":"Plane.001"
		},
		{
			"mesh":2,
			"name":"Plane.002",
			"translation":[
				2.7703592777252197,
				-1,
				-0.2371985912322998
			]
		},
		{
			"mesh":3,
			"name":"Plane.005"
		},
		{
			"mesh":4,
			"name":"Cylinder.001",
			"translation":[
				-7.327170372009277,
				2,
				-27.816410064697266
			]
		},
		{
			"mesh":5,
			"name":"beczka",
			"scale":[
				0.32390525937080383,
				0.32390525937080383,
				0.32390525937080383
			],
			"translation":[
				-3.4333043098449707,
				0.37884393334388733,
				11.857028007507324
			]
		},
		{
			"mesh":6,
			"name":"beczka.001",
			"scale":[
				0.4743110239505768,
				0.4743110239505768,
				0.4743110239505768
			],
			"translation":[
				-8.462090492248535,
				0.5723512172698975,
				7.929315567016602
			]
		},
		{
			"mesh":7,
			"name":"beczka.002",
			"scale":[
				0.4743110239505768,
				0.4743110239505768,
				0.4743110239505768
			],
			"translation":[
				-7.416891574859619,
				0.5723512172698975,
				8.757586479187012
			]
		},
		{
			"mesh":8,
			"name":"beczka.003",
			"scale":[
				0.4743110239505768,
				0.4743110239505768,
				0.4743110239505768
			],
			"translation":[
				-6.016719341278076,
				0.5723512172698975,
				8.65898323059082
			]
		},
		{
			"mesh":9,
			"name":"beczka.004",
			"scale":[
				0.4743110239505768,
				0.4743110239505768,
				0.4743110239505768
			],
			"translation":[
				-5.562353610992432,
				0.5723512172698975,
				-8.635313034057617
			]
		},
		{
			"mesh":10,
			"name":"beczka.005",
			"scale":[
				0.4743110239505768,
				0.4743110239505768,
				0.4743110239505768
			],
			"translation":[
				-3.9436755180358887,
				0.5723512172698975,
				-7.726581573486328
			]
		},
		{
			"mesh":11,
			"name":"beczka.006",
			"scale":[
				0.4743110239505768,
				0.4743110239505768,
				0.4743110239505768
			],
			"translation":[
				8.636575698852539,
				0.5723512172698975,
				-4.703241348266602
			]
		},
		{
			"mesh":12,
			"name":"Cylinder.012",
			"rotation":[
				0,
				0.26117703318595886,
				0,
				0.9652910232543945
			],
			"translation":[
				-7.323117256164551,
				0.2815260589122772,
				7.571786880493164
			]
		},
		{
			"mesh":13,
			"name":"Cube.002",
			"scale":[
				0.7130308151245117,
				0.7130308151245117,
				0.7130308151245117
			],
			"translation":[
				-9.351975440979004,
				0.7312842011451721,
				-2.3508033752441406
			]
		},
		{
			"mesh":14,
			"name":"Cube",
			"rotation":[
				0,
				-0.10080155730247498,
				0,
				0.9949066638946533
			],
			"scale":[
				1.8904619216918945,
				1.8904619216918945,
				1.8904619216918945
			],
			"translation":[
				-7.548300266265869,
				0.36413833498954773,
				-8.215143203735352
			]
		},
		{
			"mesh":15,
			"name":"Cube.001",
			"rotation":[
				0,
				0.09164207428693771,
				0,
				0.9957920908927917
			],
			"scale":[
				1.8904619216918945,
				1.8904619216918945,
				1.8904619216918945
			],
			"translation":[
				-8.415074348449707,
				0.36413833498954773,
				-7.874277114868164
			]
		},
		{
			"mesh":16,
			"name":"Cube.003",
			"rotation":[
				0,
				0.36080190539360046,
				0,
				0.9326424598693848
			],
			"scale":[
				1.890462040901184,
				1.8904619216918945,
				1.890462040901184
			],
			"translation":[
				-8.902026176452637,
				0.36413833498954773,
				-8.916353225708008
			]
		},
		{
			"mesh":17,
			"name":"Cube.004",
			"rotation":[
				0,
				0.11153708398342133,
				0,
				0.9937602877616882
			],
			"scale":[
				1.8904619216918945,
				1.8904619216918945,
				1.8904619216918945
			],
			"translation":[
				5.465358734130859,
				0.36413833498954773,
				8.841052055358887
			]
		},
		{
			"mesh":18,
			"name":"Cube.005",
			"rotation":[
				0,
				-0.13946039974689484,
				0,
				0.9902277588844299
			],
			"scale":[
				1.8904619216918945,
				1.8904619216918945,
				1.8904619216918945
			],
			"translation":[
				6.653520584106445,
				0.36413833498954773,
				8.315144538879395
			]
		},
		{
			"mesh":19,
			"name":"Cube.006",
			"rotation":[
				0,
				0.3612169325351715,
				0,
				0.9324818253517151
			],
			"scale":[
				1.890462040901184,
				1.8904619216918945,
				1.890462040901184
			],
			"translation":[
				8.562370300292969,
				0.36413833498954773,
				8.792357444763184
			]
		},
		{
			"mesh":20,
			"name":"Cube.007",
			"rotation":[
				0,
				-0.15596580505371094,
				0,
				0.987762451171875
			],
			"scale":[
				1.8904619216918945,
				1.8904619216918945,
				1.8904619216918945
			],
			"translation":[
				8.679238319396973,
				0.36413833498954773,
				7.828193664550781
			]
		},
		{
			"mesh":21,
			"name":"Cube.008",
			"rotation":[
				0,
				-0.018651433289051056,
				0,
				0.9998260736465454
			],
			"scale":[
				1.8904619216918945,
				1.8904619216918945,
				1.8904619216918945
			],
			"translation":[
				8.727705955505371,
				0.36413833498954773,
				3.878080129623413
			]
		},
		{
			"mesh":22,
			"name":"Cube.009",
			"rotation":[
				0,
				0.04750677943229675,
				0,
				0.9988710284233093
			],
			"scale":[
				1.8904619216918945,
				1.8904619216918945,
				1.8904619216918945
			],
			"translation":[
				8.800407409667969,
				0.36413833498954773,
				4.847433090209961
			]
		},
		{
			"mesh":23,
			"name":"Cube.010",
			"rotation":[
				0,
				0.04750677943229675,
				0,
				0.9988710284233093
			],
			"scale":[
				1.8904619216918945,
				1.8904619216918945,
				1.8904619216918945
			],
			"translation":[
				8.723176956176758,
				1.0896190404891968,
				3.8741374015808105
			]
		},
		{
			"mesh":24,
			"name":"Cube.011",
			"rotation":[
				0,
				-0.14041303098201752,
				0,
				0.9900930523872375
			],
			"scale":[
				1.8904619216918945,
				1.8904619216918945,
				1.8904619216918945
			],
			"translation":[
				8.809779167175293,
				1.1015971899032593,
				4.844459533691406
			]
		},
		{
			"mesh":25,
			"name":"Cube.012",
			"rotation":[
				0,
				-0.7264477014541626,
				0,
				0.6872217655181885
			],
			"scale":[
				1.8904619216918945,
				1.8904619216918945,
				1.8904619216918945
			],
			"translation":[
				8.481180191040039,
				0.36413833498954773,
				5.934182167053223
			]
		},
		{
			"mesh":26,
			"name":"Cube.013",
			"rotation":[
				0,
				-0.14041303098201752,
				0,
				0.9900930523872375
			],
			"scale":[
				1.8904619216918945,
				1.8904619216918945,
				1.8904619216918945
			],
			"translation":[
				8.592338562011719,
				1.0896190404891968,
				8.363272666931152
			]
		},
		{
			"mesh":27,
			"name":"Cube.014",
			"rotation":[
				0,
				0.36080190539360046,
				0,
				0.9326424598693848
			],
			"scale":[
				1.890462040901184,
				1.8904619216918945,
				1.890462040901184
			],
			"translation":[
				-8.048563957214355,
				1.099387288093567,
				-8.062633514404297
			]
		},
		{
			"mesh":28,
			"name":"Cylinder.008",
			"translation":[
				3.9927971363067627,
				0.35584431886672974,
				-9.034880638122559
			]
		},
		{
			"mesh":29,
			"name":"Cylinder.002",
			"rotation":[
				0,
				0,
				-0.7071068286895752,
				0.7071068286895752
			],
			"translation":[
				6.030932426452637,
				0.19334575533866882,
				-7.484928131103516
			]
		},
		{
			"mesh":30,
			"name":"Cylinder.003",
			"rotation":[
				0.2490134835243225,
				-0.24901345372200012,
				-0.6618098020553589,
				0.6618099212646484
			],
			"translation":[
				1.8227829933166504,
				0.19334575533866882,
				-7.0293450355529785
			]
		},
		{
			"mesh":31,
			"name":"Cylinder.004",
			"rotation":[
				0.5554359555244446,
				-0.5554359555244446,
				-0.43759676814079285,
				0.43759676814079285
			],
			"translation":[
				2.2903552055358887,
				0.19334575533866882,
				-7.640785217285156
			]
		},
		{
			"mesh":32,
			"name":"Cylinder.005",
			"rotation":[
				-0.6165354251861572,
				0.6165353655815125,
				-0.3462428152561188,
				0.34624284505844116
			],
			"translation":[
				4.189417839050293,
				0.19334575533866882,
				-4.216717720031738
			]
		},
		{
			"mesh":33,
			"name":"Cylinder.006",
			"translation":[
				-7.213192462921143,
				2.1709868907928467,
				-31.9459228515625
			]
		},
		{
			"mesh":34,
			"name":"Cylinder.009",
			"translation":[
				-6.8653435707092285,
				2.1709868907928467,
				-31.9459228515625
			]
		},
		{
			"mesh":35,
			"name":"Cylinder.007",
			"rotation":[
				-0.6165354251861572,
				0.6165353655815125,
				-0.3462428152561188,
				0.34624284505844116
			],
			"translation":[
				-4.163700103759766,
				0.19334575533866882,
				8.039496421813965
			]
		},
		{
			"mesh":36,
			"name":"Cylinder.010",
			"rotation":[
				-0.3008135259151459,
				0.3008134961128235,
				-0.6399306058883667,
				0.6399306654930115
			],
			"translation":[
				-5.807271957397461,
				0.19334575533866882,
				5.255123138427734
			]
		},
		{
			"mesh":37,
			"name":"Cylinder.011",
			"translation":[
				-7.327170372009277,
				2,
				-39.95574951171875
			]
		},
		{
			"mesh":38,
			"name":"Cylinder.013",
			"translation":[
				-7.327170372009277,
				2,
				-27.816410064697266
			]
		},
		{
			"mesh":39,
			"name":"Cylinder.014",
			"rotation":[
				0,
				0.7071068286895752,
				0,
				0.7071068286895752
			],
			"translation":[
				-4.401346683502197,
				1.3380987644195557,
				9.35151195526123
			]
		},
		{
			"mesh":40,
			"name":"Cylinder.015",
			"rotation":[
				0,
				0.7071068286895752,
				0,
				0.7071068286895752
			],
			"translation":[
				4.451291561126709,
				1.3380987644195557,
				9.35151195526123
			]
		},
		{
			"mesh":41,
			"name":"Cylinder.016",
			"rotation":[
				0,
				-1,
				0,
				1.6292068494294654e-07
			],
			"translation":[
				9.343416213989258,
				1.3380987644195557,
				2.7393321990966797
			]
		},
		{
			"mesh":42,
			"name":"Cylinder.017",
			"rotation":[
				0,
				-1,
				0,
				1.6292068494294654e-07
			],
			"translation":[
				9.343416213989258,
				1.3380987644195557,
				-2.6093783378601074
			]
		},
		{
			"mesh":43,
			"name":"Cylinder.018",
			"rotation":[
				0,
				-0.7071065902709961,
				0,
				0.7071069478988647
			],
			"translation":[
				4.401663303375244,
				1.3380987644195557,
				-9.351907730102539
			]
		},
		{
			"mesh":44,
			"name":"Cylinder.019",
			"rotation":[
				0,
				-0.7071065902709961,
				0,
				0.7071069478988647
			],
			"translation":[
				-4.639861583709717,
				1.3380987644195557,
				-9.351907730102539
			]
		}
	],
	"materials":[
		{
			"doubleSided":true,
			"name":"sciana",
			"pbrMetallicRoughness":{
				"baseColorTexture":{
					"index":0
				},
				"metallicFactor":0,
				"roughnessFactor":0.8636363744735718
			}
		},
		{
			"doubleSided":true,
			"name":"Material",
			"pbrMetallicRoughness":{
				"baseColorFactor":[
					0.37118279933929443,
					0.37118279933929443,
					0.37118279933929443,
					1
				],
				"metallicFactor":0.9163635969161987,
				"roughnessFactor":0.5072727203369141
			}
		},
		{
			"doubleSided":true,
			"name":"podloga",
			"pbrMetallicRoughness":{
				"baseColorTexture":{
					"index":1
				},
				"metallicFactor":0,
				"roughnessFactor":0.8272727131843567
			}
		},
		{
			"doubleSided":true,
			"name":"drewno",
			"pbrMetallicRoughness":{
				"baseColorTexture":{
					"index":2
				},
				"metallicFactor":0,
				"roughnessFactor":0.5
			}
		},
		{
			"doubleSided":true,
			"name":"dzban",
			"pbrMetallicRoughness":{
				"baseColorFactor":[
					0.10826024413108826,
					0.027262888848781586,
					0.02666867896914482,
					1
				],
				"metallicFactor":0,
				"roughnessFactor":0.9509090781211853
			}
		},
		{
			"doubleSided":true,
			"name":"crate",
			"pbrMetallicRoughness":{
				"baseColorTexture":{
					"index":3
				},
				"metallicFactor":0,
				"roughnessFactor":0.5
			}
		}
	],
	"meshes":[
		{
			"name":"Plane",
			"primitives":[
				{
					"attributes":{
						"POSITION":0,
						"NORMAL":1,
						"TEXCOORD_0":2
					},
					"indices":3
				}
			]
		},
		{
			"name":"Plane.001",
			"primitives":[
				{
					"attributes":{
						"POSITION":4,
						"NORMAL":5,
						"TEXCOORD_0":6
					},
					"indices":7,
					"material":0
				}
			]
		},
		{
			"name":"Plane.003",
			"primitives":[
				{
					"attributes":{
						"POSITION":8,
						"NORMAL":9,
						"TEXCOORD_0":10
					},
					"indices":11,
					"material":1
				}
			]
		},
		{
			"name":"Plane.006",
			"primitives":[
				{
					"attributes":{
						"POSITION":12,
						"NORMAL":13,
						"TEXCOORD_0":14
					},
					"indices":15,
					"material":2
				}
			]
		},
		{
			"name":"Cylinder.001",
			"primitives":[
				{
					"attributes":{
						"POSITION":16,
						"NORMAL":17,
						"TEXCOORD_0":18
					},
					"indices":19,
					"material":3
				}
			]
		},
		{
			"name":"Cylinder.011",
			"primitives":[
				{
					"attributes":{
						"POSITION":20,
						"NORMAL":21,
						"TEXCOORD_0":22
					},
					"indices":23,
					"material":3
				}
			]
		},
		{
			"name":"Cylinder.002",
			"primitives":[
				{
					"attributes":{
						"POSITION":24,
						"NORMAL":25,
						"TEXCOORD_0":26
					},
					"indices":23,
					"material":3
				}
			]
		},
		{
			"name":"Cylinder.003",
			"primitives":[
				{
					"attributes":{
						"POSITION":27,
						"NORMAL":28,
						"TEXCOORD_0":29
					},
					"indices":23,
					"material":3
				}
			]
		},
		{
			"name":"Cylinder.004",
			"primitives":[
				{
					"attributes":{
						"POSITION":30,
						"NORMAL":31,
						"TEXCOORD_0":32
					},
					"indices":23,
					"material":3
				}
			]
		},
		{
			"name":"Cylinder.005",
			"primitives":[
				{
					"attributes":{
						"POSITION":33,
						"NORMAL":34,
						"TEXCOORD_0":35
					},
					"indices":23,
					"material":3
				}
			]
		},
		{
			"name":"Cylinder.006",
			"primitives":[
				{
					"attributes":{
						"POSITION":36,
						"NORMAL":37,
						"TEXCOORD_0":38
					},
					"indices":23,
					"material":3
				}
			]
		},
		{
			"name":"Cylinder.007",
			"primitives":[
				{
					"attributes":{
						"POSITION":39,
						"NORMAL":40,
						"TEXCOORD_0":41
					},
					"indices":23,
					"material":3
				}
			]
		},
		{
			"name":"Cylinder.012",
			"primitives":[
				{
					"attributes":{
						"POSITION":42,
						"NORMAL":43,
						"TEXCOORD_0":44
					},
					"indices":45,
					"material":4
				}
			]
		},
		{
			"name":"Cube.001",
			"primitives":[
				{
					"attributes":{
						"POSITION":46,
						"NORMAL":47,
						"TEXCOORD_0":48
					},
					"indices":49,
					"material":0
				}
			]
		},
		{
			"name":"Cube.002",
			"primitives":[
				{
					"attributes":{
						"POSITION":50,
						"NORMAL":51,
						"TEXCOORD_0":52
					},
					"indices":53,
					"material":5
				}
			]
		},
		{
			"name":"Cube.003",
			"primitives":[
				{
					"attributes":{
						"POSITION":54,
						"NORMAL":55,
						"TEXCOORD_0":56
					},
					"indices":53,
					"material":5
				}
			]
		},
		{
			"name":"Cube.005",
			"primitives":[
				{
					"attributes":{
						"POSITION":57,
						"NORMAL":58,
						"TEXCOORD_0":59
					},
					"indices":53,
					"material":5
				}
			]
		},
		{
			"name":"Cube.006",
			"primitives":[
				{
					"attributes":{
						"POSITION":60,
						"NORMAL":61,
						"TEXCOORD_0":62
					},
					"indices":53,
					"material":5
				}
			]
		},
		{
			"name":"Cube.007",
			"primitives":[
				{
					"attributes":{
						"POSITION":63,
						"NORMAL":64,
						"TEXCOORD_0":65
					},
					"indices":53,
					"material":5
				}
			]
		},
		{
			"name":"Cube.008",
			"primitives":[
				{
					"attributes":{
						"POSITION":66,
						"NORMAL":67,
						"TEXCOORD_0":68
					},
					"indices":53,
					"material":5
				}
			]
		},
		{
			"name":"Cube.009",
			"primitives":[
				{
					"attributes":{
						"POSITION":69,
						"NORMAL":70,
						"TEXCOORD_0":71
					},
					"indices":53,
					"material":5
				}
			]
		},
		{
			"name":"Cube.010",
			"primitives":[
				{
					"attributes":{
						"POSITION":72,
						"NORMAL":73,
						"TEXCOORD_0":74
					},
					"indices":53,
					"material":5
				}
			]
		},
		{
			"name":"Cube.011",
			"primitives":[
				{
					"attributes":{
						"POSITION":75,
						"NORMAL":76,
						"TEXCOORD_0":77
					},
					"indices":53,
					"material":5
				}
			]
		},
		{
			"name":"Cube.012",
			"primitives":[
				{
					"attributes":{
						"POSITION":78,
						"NORMAL":79,
						"TEXCOORD_0":80
					},
					"indices":53,
					"material":5
				}
			]
		},
		{
			"name":"Cube.013",
			"primitives":[
				{
					"attributes":{
						"POSITION":81,
						"NORMAL":82,
						"TEXCOORD_0":83
					},
					"indices":53,
					"material":5
				}
			]
		},
		{
			"name":"Cube.014",
			"primitives":[
				{
					"attributes":{
						"POSITION":84,
						"NORMAL":85,
						"TEXCOORD_0":86
					},
					"indices":53,
					"material":5
				}
			]
		},
		{
			"name":"Cube.015",
			"primitives":[
				{
					"attributes":{
						"POSITION":87,
						"NORMAL":88,
						"TEXCOORD_0":89
					},
					"indices":53,
					"material":5
				}
			]
		},
		{
			"name":"Cube.016",
			"primitives":[
				{
					"attributes":{
						"POSITION":90,
						"NORMAL":91,
						"TEXCOORD_0":92
					},
					"indices":53,
					"material":5
				}
			]
		},
		{
			"name":"Cylinder.008",
			"primitives":[
				{
					"attributes":{
						"POSITION":93,
						"NORMAL":94,
						"TEXCOORD_0":95
					},
					"indices":96,
					"material":4
				}
			]
		},
		{
			"name":"Cylinder.009",
			"primitives":[
				{
					"attributes":{
						"POSITION":97,
						"NORMAL":98,
						"TEXCOORD_0":99
					},
					"indices":96,
					"material":4
				}
			]
		},
		{
			"name":"Cylinder.010",
			"primitives":[
				{
					"attributes":{
						"POSITION":100,
						"NORMAL":101,
						"TEXCOORD_0":102
					},
					"indices":96,
					"material":4
				}
			]
		},
		{
			"name":"Cylinder.013",
			"primitives":[
				{
					"attributes":{
						"POSITION":103,
						"NORMAL":104,
						"TEXCOORD_0":105
					},
					"indices":96,
					"material":4
				}
			]
		},
		{
			"name":"Cylinder.014",
			"primitives":[
				{
					"attributes":{
						"POSITION":106,
						"NORMAL":107,
						"TEXCOORD_0":108
					},
					"indices":96,
					"material":4
				}
			]
		},
		{
			"name":"Cylinder.015",
			"primitives":[
				{
					"attributes":{
						"POSITION":109,
						"NORMAL":110,
						"TEXCOORD_0":111
					},
					"indices":112,
					"material":4
				}
			]
		},
		{
			"name":"Cylinder.016",
			"primitives":[
				{
					"attributes":{
						"POSITION":113,
						"NORMAL":114,
						"TEXCOORD_0":115
					},
					"indices":116,
					"material":4
				}
			]
		},
		{
			"name":"Cylinder.017",
			"primitives":[
				{
					"attributes":{
						"POSITION":117,
						"NORMAL":118,
						"TEXCOORD_0":119
					},
					"indices":96,
					"material":4
				}
			]
		},
		{
			"name":"Cylinder.018",
			"primitives":[
				{
					"attributes":{
						"POSITION":120,
						"NORMAL":121,
						"TEXCOORD_0":122
					},
					"indices":96,
					"material":4
				}
			]
		},
		{
			"name":"Cylinder.019",
			"primitives":[
				{
					"attributes":{
						"POSITION":123,
						"NORMAL":124,
						"TEXCOORD_0":125
					},
					"indices":19,
					"material":3
				}
			]
		},
		{
			"name":"Cylinder.020",
			"primitives":[
				{
					"attributes":{
						"POSITION":126,
						"NORMAL":127,
						"TEXCOORD_0":128
					},
					"indices":129
				}
			]
		},
		{
			"name":"Cylinder.021",
			"primitives":[
				{
					"attributes":{
						"POSITION":130,
						"NORMAL":131,
						"TEXCOORD_0":132
					},
					"indices":129,
					"material":3
				}
			]
		},
		{
			"name":"Cylinder.022",
			"primitives":[
				{
					"attributes":{
						"POSITION":133,
						"NORMAL":134,
						"TEXCOORD_0":135
					},
					"indices":129,
					"material":3
				}
			]
		},
		{
			"name":"Cylinder.023",
			"primitives":[
				{
					"attributes":{
						"POSITION":136,
						"NORMAL":137,
						"TEXCOORD_0":138
					},
					"indices":129,
					"material":3
				}
			]
		},
		{
			"name":"Cylinder.024",
			"primitives":[
				{
					"attributes":{
						"POSITION":139,
						"NORMAL":140,
						"TEXCOORD_0":141
					},
					"indices":129,
					"material":3
				}
			]
		},
		{
			"name":"Cylinder.025",
			"primitives":[
				{
					"attributes":{
						"POSITION":142,
						"NORMAL":143,
						"TEXCOORD_0":144
					},
					"indices":129,
					"material":3
				}
			]
		},
		{
			"name":"Cylinder.026",
			"primitives":[
				{
					"attributes":{
						"POSITION":145,
						"NORMAL":146,
						"TEXCOORD_0":147
					},
					"indices":129,
					"material":3
				}
			]
		}
	],
	"textures":[
		{
			"sampler":0,
			"source":0
		},
		{
			"sampler":0,
			"source":1
		},
		{
			"sampler":0,
			"source":2
		},
		{
			"sampler":0,
			"source":3
		}
	],
	"images":[
		{
			"mimeType":"image/png",
			"name":"Brick 25 - 512x512",
			"uri":"textures/Brick%2025%20-%20512x512.png"
		},
		{
			"mimeType":"image/jpeg",
			"name":"stone2",
			"uri":"textures/stone2.jpg"
		},
		{
			"mimeType":"image/png",
			"name":"Wood 10 - 512x512",
			"uri":"textures/Wood%2010%20-%20512x512.png"
		},
		{
			"mimeType":"image/jpeg",
			"name":"crate",
			"uri":"textures/crate.jpg"
		}
	],
	"accessors":[
		{
			"bufferView":0,
			"componentType":5126,
			"count":4,
			"max":[
				14,
				0,
				14
			],
			"min":[
				-14,
				0,
				-14
			],
			"type":"VEC3"
		},
		{
			"bufferView":1,
			"componentType":5126,
			"count":4,
			"type":"VEC3"
		},
		{
			"bufferView":2,
			"componentType":5126,
			"count":4,
			"type":"VEC2"
		},
		{
			"bufferView":3,
			"componentType":5123,
			"count":6,
			"type":"SCALAR"
		},
		{
			"bufferView":4,
			"componentType":5126,
			"count":264,
			"max":[
				14,
				2,
				13
			],
			"min":[
				-10,
				0,
				-10
			],
			"type":"VEC3"
		},
		{
			"bufferView":5,
			"componentType":5126,
			"count":264,
			"type":"VEC3"
		},
		{
			"bufferView":6,
			"componentType":5126,
			"count":264,
			"type":"VEC2"
		},
		{
			"bufferView":7,
			"componentType":5123,
			"count":558,
			"type":"SCALAR"
		},
		{
			"bufferView":8,
			"componentType":5126,
			"count":468,
			"max":[
				1.0915474891662598,
				2.8128292560577393,
				10.105710983276367
			],
			"min":[
				-6.6277384757995605,
				1.021984338760376,
				9.89428997039795
			],
			"type":"VEC3"
		},
		{
			"bufferView":9,
			"componentType":5126,
			"count":468,
			"type":"VEC3"
		},
		{
			"bufferView":10,
			"componentType":5126,
			"count":468,
			"type":"VEC2"
		},
		{
			"bufferView":11,
			"componentType":5123,
			"count":780,
			"type":"SCALAR"
		},
		{
			"bufferView":12,
			"componentType":5126,
			"count":14,
			"max":[
				14,
				0,
				13
			],
			"min":[
				-9.5,
				0,
				-10
			],
			"type":"VEC3"
		},
		{
			"bufferView":13,
			"componentType":5126,
			"count":14,
			"type":"VEC3"
		},
		{
			"bufferView":14,
			"componentType":5126,
			"count":14,
			"type":"VEC2"
		},
		{
			"bufferView":15,
			"componentType":5123,
			"count":36,
			"type":"SCALAR"
		},
		{
			"bufferView":16,
			"componentType":5126,
			"count":1060,
			"max":[
				-1.8840081691741943,
				-0.45125800371170044,
				33.95118713378906
			],
			"min":[
				-2.180478096008301,
				-0.9158002138137817,
				33.6746826171875
			],
			"type":"VEC3"
		},
		{
			"bufferView":17,
			"componentType":5126,
			"count":1060,
			"type":"VEC3"
		},
		{
			"bufferView":18,
			"componentType":5126,
			"count":1060,
			"type":"VEC2"
		},
		{
			"bufferView":19,
			"componentType":5123,
			"count":1668,
			"type":"SCALAR"
		},
		{
			"bufferView":20,
			"componentType":5126,
			"count":460,
			"max":[
				1.167971134185791,
				1.191305160522461,
				1.2057090997695923
			],
			"min":[
				-1.1494168043136597,
				-1.191305160522461,
				-1.210943341255188
			],
			"type":"VEC3"
		},
		{
			"bufferView":21,
			"componentType":5126,
			"count":460,
			"type":"VEC3"
		},
		{
			"bufferView":22,
			"componentType":5126,
			"count":460,
			"type":"VEC2"
		},
		{
			"bufferView":23,
			"componentType":5123,
			"count":744,
			"type":"SCALAR"
		},
		{
			"bufferView":24,
			"componentType":5126,
			"count":460,
			"max":[
				1.167971134185791,
				1.191305160522461,
				1.2057090997695923
			],
			"min":[
				-1.1494168043136597,
				-1.191305160522461,
				-1.210943341255188
			],
			"type":"VEC3"
		},
		{
			"bufferView":25,
			"componentType":5126,
			"count":460,
			"type":"VEC3"
		},
		{
			"bufferView":26,
			"componentType":5126,
			"count":460,
			"type":"VEC2"
		},
		{
			"bufferView":27,
			"componentType":5126,
			"count":460,
			"max":[
				1.167971134185791,
				1.191305160522461,
				1.2057090997695923
			],
			"min":[
				-1.1494168043136597,
				-1.191305160522461,
				-1.210943341255188
			],
			"type":"VEC3"
		},
		{
			"bufferView":28,
			"componentType":5126,
			"count":460,
			"type":"VEC3"
		},
		{
			"bufferView":29,
			"componentType":5126,
			"count":460,
			"type":"VEC2"
		},
		{
			"bufferView":30,
			"componentType":5126,
			"count":460,
			"max":[
				1.167971134185791,
				1.191305160522461,
				1.2057090997695923
			],
			"min":[
				-1.1494168043136597,
				-1.191305160522461,
				-1.210943341255188
			],
			"type":"VEC3"
		},
		{
			"bufferView":31,
			"componentType":5126,
			"count":460,
			"type":"VEC3"
		},
		{
			"bufferView":32,
			"componentType":5126,
			"count":460,
			"type":"VEC2"
		},
		{
			"bufferView":33,
			"componentType":5126,
			"count":460,
			"max":[
				1.167971134185791,
				1.191305160522461,
				1.2057090997695923
			],
			"min":[
				-1.1494168043136597,
				-1.191305160522461,
				-1.210943341255188
			],
			"type":"VEC3"
		},
		{
			"bufferView":34,
			"componentType":5126,
			"count":460,
			"type":"VEC3"
		},
		{
			"bufferView":35,
			"componentType":5126,
			"count":460,
			"type":"VEC2"
		},
		{
			"bufferView":36,
			"componentType":5126,
			"count":460,
			"max":[
				1.167971134185791,
				1.191305160522461,
				1.2057090997695923
			],
			"min":[
				-1.1494168043136597,
				-1.191305160522461,
				-1.210943341255188
			],
			"type":"VEC3"
		},
		{
			"bufferView":37,
			"componentType":5126,
			"count":460,
			"type":"VEC3"
		},
		{
			"bufferView":38,
			"componentType":5126,
			"count":460,
			"type":"VEC2"
		},
		{
			"bufferView":39,
			"componentType":5126,
			"count":460,
			"max":[
				1.167971134185791,
				1.191305160522461,
				1.2057090997695923
			],
			"min":[
				-1.1494168043136597,
				-1.191305160522461,
				-1.210943341255188
			],
			"type":"VEC3"
		},
		{
			"bufferView":40,
			"componentType":5126,
			"count":460,
			"type":"VEC3"
		},
		{
			"bufferView":41,
			"componentType":5126,
			"count":460,
			"type":"VEC2"
		},
		{
			"bufferView":42,
			"componentType":5126,
			"count":650,
			"max":[
				0.265974760055542,
				0.5537630319595337,
				0.41017913818359375
			],
			"min":[
				-0.26598060131073,
				-0.31224334239959717,
				-0.3102893829345703
			],
			"type":"VEC3"
		},
		{
			"bufferView":43,
			"componentType":5126,
			"count":650,
			"type":"VEC3"
		},
		{
			"bufferView":44,
			"componentType":5126,
			"count":650,
			"type":"VEC2"
		},
		{
			"bufferView":45,
			"componentType":5123,
			"count":1056,
			"type":"SCALAR"
		},
		{
			"bufferView":46,
			"componentType":5126,
			"count":724,
			"max":[
				0.06586277484893799,
				1.4227269887924194,
				0.8251533508300781
			],
			"min":[
				-0.21825957298278809,
				-1.0401973724365234,
				-0.8095207214355469
			],
			"type":"VEC3"
		},
		{
			"bufferView":47,
			"componentType":5126,
			"count":724,
			"type":"VEC3"
		},
		{
			"bufferView":48,
			"componentType":5126,
			"count":724,
			"type":"VEC2"
		},
		{
			"bufferView":49,
			"componentType":5123,
			"count":1158,
			"type":"SCALAR"
		},
		{
			"bufferView":50,
			"componentType":5126,
			"count":605,
			"max":[
				0.19075191020965576,
				0.19628597795963287,
				0.19920097291469574
			],
			"min":[
				-0.1992480754852295,
				-0.19371400773525238,
				-0.19079901278018951
			],
			"type":"VEC3"
		},
		{
			"bufferView":51,
			"componentType":5126,
			"count":605,
			"type":"VEC3"
		},
		{
			"bufferView":52,
			"componentType":5126,
			"count":605,
			"type":"VEC2"
		},
		{
			"bufferView":53,
			"componentType":5123,
			"count":1254,
			"type":"SCALAR"
		},
		{
			"bufferView":54,
			"componentType":5126,
			"count":605,
			"max":[
				0.19075191020965576,
				0.19628597795963287,
				0.19920097291469574
			],
			"min":[
				-0.1992480754852295,
				-0.19371400773525238,
				-0.19079901278018951
			],
			"type":"VEC3"
		},
		{
			"bufferView":55,
			"componentType":5126,
			"count":605,
			"type":"VEC3"
		},
		{
			"bufferView":56,
			"componentType":5126,
			"count":605,
			"type":"VEC2"
		},
		{
			"bufferView":57,
			"componentType":5126,
			"count":605,
			"max":[
				0.19075191020965576,
				0.19628597795963287,
				0.19920097291469574
			],
			"min":[
				-0.1992480754852295,
				-0.19371400773525238,
				-0.19079901278018951
			],
			"type":"VEC3"
		},
		{
			"bufferView":58,
			"componentType":5126,
			"count":605,
			"type":"VEC3"
		},
		{
			"bufferView":59,
			"componentType":5126,
			"count":605,
			"type":"VEC2"
		},
		{
			"bufferView":60,
			"componentType":5126,
			"count":605,
			"max":[
				0.19075191020965576,
				0.19628597795963287,
				0.19920097291469574
			],
			"min":[
				-0.1992480754852295,
				-0.19371400773525238,
				-0.19079901278018951
			],
			"type":"VEC3"
		},
		{
			"bufferView":61,
			"componentType":5126,
			"count":605,
			"type":"VEC3"
		},
		{
			"bufferView":62,
			"componentType":5126,
			"count":605,
			"type":"VEC2"
		},
		{
			"bufferView":63,
			"componentType":5126,
			"count":605,
			"max":[
				0.19075191020965576,
				0.19628597795963287,
				0.19920097291469574
			],
			"min":[
				-0.1992480754852295,
				-0.19371400773525238,
				-0.19079901278018951
			],
			"type":"VEC3"
		},
		{
			"bufferView":64,
			"componentType":5126,
			"count":605,
			"type":"VEC3"
		},
		{
			"bufferView":65,
			"componentType":5126,
			"count":605,
			"type":"VEC2"
		},
		{
			"bufferView":66,
			"componentType":5126,
			"count":605,
			"max":[
				0.19075191020965576,
				0.19628597795963287,
				0.19920097291469574
			],
			"min":[
				-0.1992480754852295,
				-0.19371400773525238,
				-0.19079901278018951
			],
			"type":"VEC3"
		},
		{
			"bufferView":67,
			"componentType":5126,
			"count":605,
			"type":"VEC3"
		},
		{
			"bufferView":68,
			"componentType":5126,
			"count":605,
			"type":"VEC2"
		},
		{
			"bufferView":69,
			"componentType":5126,
			"count":605,
			"max":[
				0.19075191020965576,
				0.19628597795963287,
				0.19920097291469574
			],
			"min":[
				-0.1992480754852295,
				-0.19371400773525238,
				-0.19079901278018951
			],
			"type":"VEC3"
		},
		{
			"bufferView":70,
			"componentType":5126,
			"count":605,
			"type":"VEC3"
		},
		{
			"bufferView":71,
			"componentType":5126,
			"count":605,
			"type":"VEC2"
		},
		{
			"bufferView":72,
			"componentType":5126,
			"count":605,
			"max":[
				0.19075191020965576,
				0.19628597795963287,
				0.19920097291469574
			],
			"min":[
				-0.1992480754852295,
				-0.19371400773525238,
				-0.19079901278018951
			],
			"type":"VEC3"
		},
		{
			"bufferView":73,
			"componentType":5126,
			"count":605,
			"type":"VEC3"
		},
		{
			"bufferView":74,
			"componentType":5126,
			"count":605,
			"type":"VEC2"
		},
		{
			"bufferView":75,
			"componentType":5126,
			"count":605,
			"max":[
				0.19075191020965576,
				0.19628597795963287,
				0.19920097291469574
			],
			"min":[
				-0.1992480754852295,
				-0.19371400773525238,
				-0.19079901278018951
			],
			"type":"VEC3"
		},
		{
			"bufferView":76,
			"componentType":5126,
			"count":605,
			"type":"VEC3"
		},
		{
			"bufferView":77,
			"componentType":5126,
			"count":605,
			"type":"VEC2"
		},
		{
			"bufferView":78,
			"componentType":5126,
			"count":605,
			"max":[
				0.19075191020965576,
				0.19628597795963287,
				0.19920097291469574
			],
			"min":[
				-0.1992480754852295,
				-0.19371400773525238,
				-0.19079901278018951
			],
			"type":"VEC3"
		},
		{
			"bufferView":79,
			"componentType":5126,
			"count":605,
			"type":"VEC3"
		},
		{
			"bufferView":80,
			"componentType":5126,
			"count":605,
			"type":"VEC2"
		},
		{
			"bufferView":81,
			"componentType":5126,
			"count":605,
			"max":[
				0.19075191020965576,
				0.19628597795963287,
				0.19920097291469574
			],
			"min":[
				-0.1992480754852295,
				-0.19371400773525238,
				-0.19079901278018951
			],
			"type":"VEC3"
		},
		{
			"bufferView":82,
			"componentType":5126,
			"count":605,
			"type":"VEC3"
		},
		{
			"bufferView":83,
			"componentType":5126,
			"count":605,
			"type":"VEC2"
		},
		{
			"bufferView":84,
			"componentType":5126,
			"count":605,
			"max":[
				0.19075191020965576,
				0.19628597795963287,
				0.19920097291469574
			],
			"min":[
				-0.1992480754852295,
				-0.19371400773525238,
				-0.19079901278018951
			],
			"type":"VEC3"
		},
		{
			"bufferView":85,
			"componentType":5126,
			"count":605,
			"type":"VEC3"
		},
		{
			"bufferView":86,
			"componentType":5126,
			"count":605,
			"type":"VEC2"
		},
		{
			"bufferView":87,
			"componentType":5126,
			"count":605,
			"max":[
				0.19075191020965576,
				0.19628597795963287,
				0.19920097291469574
			],
			"min":[
				-0.1992480754852295,
				-0.19371400773525238,
				-0.19079901278018951
			],
			"type":"VEC3"
		},
		{
			"bufferView":88,
			"componentType":5126,
			"count":605,
			"type":"VEC3"
		},
		{
			"bufferView":89,
			"componentType":5126,
			"count":605,
			"type":"VEC2"
		},
		{
			"bufferView":90,
			"componentType":5126,
			"count":605,
			"max":[
				0.19075191020965576,
				0.19628597795963287,
				0.19920097291469574
			],
			"min":[
				-0.1992480754852295,
				-0.19371400773525238,
				-0.19079901278018951
			],
			"type":"VEC3"
		},
		{
			"bufferView":91,
			"componentType":5126,
			"count":605,
			"type":"VEC3"
		},
		{
			"bufferView":92,
			"componentType":5126,
			"count":605,
			"type":"VEC2"
		},
		{
			"bufferView":93,
			"componentType":5126,
			"count":552,
			"max":[
				0.22542905807495117,
				0.17336726188659668,
				0.22542953491210938
			],
			"min":[
				-0.22542810440063477,
				-0.35562169551849365,
				-0.22542953491210938
			],
			"type":"VEC3"
		},
		{
			"bufferView":94,
			"componentType":5126,
			"count":552,
			"type":"VEC3"
		},
		{
			"bufferView":95,
			"componentType":5126,
			"count":552,
			"type":"VEC2"
		},
		{
			"bufferView":96,
			"componentType":5123,
			"count":852,
			"type":"SCALAR"
		},
		{
			"bufferView":97,
			"componentType":5126,
			"count":552,
			"max":[
				0.22542905807495117,
				0.17336726188659668,
				0.22542953491210938
			],
			"min":[
				-0.22542810440063477,
				-0.35562169551849365,
				-0.22542953491210938
			],
			"type":"VEC3"
		},
		{
			"bufferView":98,
			"componentType":5126,
			"count":552,
			"type":"VEC3"
		},
		{
			"bufferView":99,
			"componentType":5126,
			"count":552,
			"type":"VEC2"
		},
		{
			"bufferView":100,
			"componentType":5126,
			"count":552,
			"max":[
				0.22542905807495117,
				0.17336726188659668,
				0.22542953491210938
			],
			"min":[
				-0.22542810440063477,
				-0.35562169551849365,
				-0.22542953491210938
			],
			"type":"VEC3"
		},
		{
			"bufferView":101,
			"componentType":5126,
			"count":552,
			"type":"VEC3"
		},
		{
			"bufferView":102,
			"componentType":5126,
			"count":552,
			"type":"VEC2"
		},
		{
			"bufferView":103,
			"componentType":5126,
			"count":552,
			"max":[
				0.22542905807495117,
				0.17336726188659668,
				0.22542953491210938
			],
			"min":[
				-0.22542810440063477,
				-0.35562169551849365,
				-0.22542953491210938
			],
			"type":"VEC3"
		},
		{
			"bufferView":104,
			"componentType":5126,
			"count":552,
			"type":"VEC3"
		},
		{
			"bufferView":105,
			"componentType":5126,
			"count":552,
			"type":"VEC2"
		},
		{
			"bufferView":106,
			"componentType":5126,
			"count":552,
			"max":[
				0.22542905807495117,
				0.17336726188659668,
				0.22542953491210938
			],
			"min":[
				-0.22542810440063477,
				-0.35562169551849365,
				-0.22542953491210938
			],
			"type":"VEC3"
		},
		{
			"bufferView":107,
			"componentType":5126,
			"count":552,
			"type":"VEC3"
		},
		{
			"bufferView":108,
			"componentType":5126,
			"count":552,
			"type":"VEC2"
		},
		{
			"bufferView":109,
			"componentType":5126,
			"count":650,
			"max":[
				-1.674770474433899,
				-1.3288075923919678,
				31.19170570373535
			],
			"min":[
				-2.206725835800171,
				-2.1948139667510986,
				30.471237182617188
			],
			"type":"VEC3"
		},
		{
			"bufferView":110,
			"componentType":5126,
			"count":650,
			"type":"VEC3"
		},
		{
			"bufferView":111,
			"componentType":5126,
			"count":650,
			"type":"VEC2"
		},
		{
			"bufferView":112,
			"componentType":5123,
			"count":1056,
			"type":"SCALAR"
		},
		{
			"bufferView":113,
			"componentType":5126,
			"count":552,
			"max":[
				-1.674770474433899,
				-1.2333561182022095,
				31.811016082763672
			],
			"min":[
				-2.206725835800171,
				-2.174649715423584,
				31.27906036376953
			],
			"type":"VEC3"
		},
		{
			"bufferView":114,
			"componentType":5126,
			"count":552,
			"type":"VEC3"
		},
		{
			"bufferView":115,
			"componentType":5126,
			"count":552,
			"type":"VEC2"
		},
		{
			"bufferView":116,
			"componentType":5123,
			"count":852,
			"type":"SCALAR"
		},
		{
			"bufferView":117,
			"componentType":5126,
			"count":552,
			"max":[
				0.22542905807495117,
				0.17336726188659668,
				0.22542953491210938
			],
			"min":[
				-0.22542810440063477,
				-0.35562169551849365,
				-0.22542953491210938
			],
			"type":"VEC3"
		},
		{
			"bufferView":118,
			"componentType":5126,
			"count":552,
			"type":"VEC3"
		},
		{
			"bufferView":119,
			"componentType":5126,
			"count":552,
			"type":"VEC2"
		},
		{
			"bufferView":120,
			"componentType":5126,
			"count":552,
			"max":[
				0.22542905807495117,
				0.17336726188659668,
				0.22542953491210938
			],
			"min":[
				-0.22542810440063477,
				-0.35562169551849365,
				-0.22542953491210938
			],
			"type":"VEC3"
		},
		{
			"bufferView":121,
			"componentType":5126,
			"count":552,
			"type":"VEC3"
		},
		{
			"bufferView":122,
			"componentType":5126,
			"count":552,
			"type":"VEC2"
		},
		{
			"bufferView":123,
			"componentType":5126,
			"count":1060,
			"max":[
				-1.8840081691741943,
				-0.45125800371170044,
				33.95118713378906
			],
			"min":[
				-2.180478096008301,
				-0.9158002138137817,
				33.6746826171875
			],
			"type":"VEC3"
		},
		{
			"bufferView":124,
			"componentType":5126,
			"count":1060,
			"type":"VEC3"
		},
		{
			"bufferView":125,
			"componentType":5126,
			"count":1060,
			"type":"VEC2"
		},
		{
			"bufferView":126,
			"componentType":5126,
			"count":1036,
			"max":[
				0.13655352592468262,
				0.21064317226409912,
				0.12933731079101562
			],
			"min":[
				-0.15991640090942383,
				-0.2538990378379822,
				-0.14716720581054688
			],
			"type":"VEC3"
		},
		{
			"bufferView":127,
			"componentType":5126,
			"count":1036,
			"type":"VEC3"
		},
		{
			"bufferView":128,
			"componentType":5126,
			"count":1036,
			"type":"VEC2"
		},
		{
			"bufferView":129,
			"componentType":5123,
			"count":1668,
			"type":"SCALAR"
		},
		{
			"bufferView":130,
			"componentType":5126,
			"count":1036,
			"max":[
				0.13655352592468262,
				0.21064317226409912,
				0.12933731079101562
			],
			"min":[
				-0.15991640090942383,
				-0.2538990378379822,
				-0.14716720581054688
			],
			"type":"VEC3"
		},
		{
			"bufferView":131,
			"componentType":5126,
			"count":1036,
			"type":"VEC3"
		},
		{
			"bufferView":132,
			"componentType":5126,
			"count":1036,
			"type":"VEC2"
		},
		{
			"bufferView":133,
			"componentType":5126,
			"count":1036,
			"max":[
				0.13655352592468262,
				0.21064317226409912,
				0.12933731079101562
			],
			"min":[
				-0.15991640090942383,
				-0.2538990378379822,
				-0.14716720581054688
			],
			"type":"VEC3"
		},
		{
			"bufferView":134,
			"componentType":5126,
			"count":1036,
			"type":"VEC3"
		},
		{
			"bufferView":135,
			"componentType":5126,
			"count":1036,
			"type":"VEC2"
		},
		{
			"bufferView":136,
			"componentType":5126,
			"count":1036,
			"max":[
				0.13655352592468262,
				0.21064317226409912,
				0.12933731079101562
			],
			"min":[
				-0.15991640090942383,
				-0.2538990378379822,
				-0.14716720581054688
			],
			"type":"VEC3"
		},
		{
			"bufferView":137,
			"componentType":5126,
			"count":1036,
			"type":"VEC3"
		},
		{
			"bufferView":138,
			"componentType":5126,
			"count":1036,
			"type":"VEC2"
		},
		{
			"bufferView":139,
			"componentType":5126,
			"count":1036,
			"max":[
				0.13655352592468262,
				0.21064317226409912,
				0.12933731079101562
			],
			"min":[
				-0.15991640090942383,
				-0.2538990378379822,
				-0.14716720581054688
			],
			"type":"VEC3"
		},
		{
			"bufferView":140,
			"componentType":5126,
			"count":1036,
			"type":"VEC3"
		},
		{
			"bufferView":141,
			"componentType":5126,
			"count":1036,
			"type":"VEC2"
		},
		{
			"bufferView":142,
			"componentType":5126,
			"count":1036,
			"max":[
				0.13655352592468262,
				0.21064317226409912,
				0.12933731079101562
			],
			"min":[
				-0.15991640090942383,
				-0.2538990378379822,
				-0.14716720581054688
			],
			"type":"VEC3"
		},
		{
			"bufferView":143,
			"componentType":5126,
			"count":1036,
			"type":"VEC3"
		},
		{
			"bufferView":144,
			"componentType":5126,
			"count":1036,
			"type":"VEC2"
		},
		{
			"bufferView":145,
			"componentType":5126,
			"count":1036,
			"max":[
				0.13655352592468262,
				0.21064317226409912,
				0.12933731079101562
			],
			"min":[
				-0.15991640090942383,
				-0.2538990378379822,
				-0.14716720581054688
			],
			"type":"VEC3"
		},
		{
			"bufferView":146,
			"componentType":5126,
			"count":1036,
			"type":"VEC3"
		},
		{
			"bufferView":147,
			"componentType":5126,
			"count":1036,
			"type":"VEC2"
		}
	],
	"bufferViews":[
		{
			"buffer":0,
			"byteLength":48,
			"byteOffset":0,
			"target":34962
		},
		{
			"buffer":0,
			"byteLength":48,
			"byteOffset":48,
			"target":34962
		},
		{
			"buffer":0,
			"byteLength":32,
			"byteOffset":96,
			"target":34962
		},
		{
			"buffer":0,
			"byteLength":12,
			"byteOffset":128,
			"target":34963
		},
		{
			"buffer":0,
			"byteLength":3168,
			"byteOffset":140,
			"target":34962
		},
		{
			"buffer":0,
			"byteLength":3168,
			"byteOffset":3308,
			"target":34962
		},
		{
			"buffer":0,
			"byteLength":2112,
			"byteOffset":6476,
			"target":34962
		},
		{
			"buffer":0,
			"byteLength":1116,
			"byteOffset":8588,
			"target":34963
		},
		{
			"buffer":0,
			"byteLength":5616,
			"byteOffset":9704,
			"target":34962
		},
		{
			"buffer":0,
			"byteLength":5616,
			"byteOffset":15320,
			"target":34962
		},
		{
			"buffer":0,
			"byteLength":3744,
			"byteOffset":20936,
			"target":34962
		},
		{
			"buffer":0,
			"byteLength":1560,
			"byteOffset":24680,
			"target":34963
		},
		{
			"buffer":0,
			"byteLength":168,
			"byteOffset":26240,
			"target":34962
		},
		{
			"buffer":0,
			"byteLength":168,
			"byteOffset":26408,
			"target":34962
		},
		{
			"buffer":0,
			"byteLength":112,
			"byteOffset":26576,
			"target":34962
		},
		{
			"buffer":0,
			"byteLength":72,
			"byteOffset":26688,
			"target":34963
		},
		{
			"buffer":0,
			"byteLength":12720,
			"byteOffset":26760,
			"target":34962
		},
		{
			"buffer":0,
			"byteLength":12720,
			"byteOffset":39480,
			"target":34962
		},
		{
			"buffer":0,
			"byteLength":8480,
			"byteOffset":52200,
			"target":34962
		},
		{
			"buffer":0,
			"byteLength":3336,
			"byteOffset":60680,
			"target":34963
		},
		{
			"buffer":0,
			"byteLength":5520,
			"byteOffset":64016,
			"target":34962
		},
		{
			"buffer":0,
			"byteLength":5520,
			"byteOffset":69536,
			"target":34962
		},
		{
			"buffer":0,
			"byteLength":3680,
			"byteOffset":75056,
			"target":34962
		},
		{
			"buffer":0,
			"byteLength":1488,
			"byteOffset":78736,
			"target":34963
		},
		{
			"buffer":0,
			"byteLength":5520,
			"byteOffset":80224,
			"target":34962
		},
		{
			"buffer":0,
			"byteLength":5520,
			"byteOffset":85744,
			"target":34962
		},
		{
			"buffer":0,
			"byteLength":3680,
			"byteOffset":91264,
			"target":34962
		},
		{
			"buffer":0,
			"byteLength":5520,
			"byteOffset":94944,
			"target":34962
		},
		{
			"buffer":0,
			"byteLength":5520,
			"byteOffset":100464,
			"target":34962
		},
		{
			"buffer":0,
			"byteLength":3680,
			"byteOffset":105984,
			"target":34962
		},
		{
			"buffer":0,
			"byteLength":5520,
			"byteOffset":109664,
			"target":34962
		},
		{
			"buffer":0,
			"byteLength":5520,
			"byteOffset":115184,
			"target":34962
		},
		{
			"buffer":0,
			"byteLength":3680,
			"byteOffset":120704,
			"target":34962
		},
		{
			"buffer":0,
			"byteLength":5520,
			"byteOffset":124384,
			"target":34962
		},
		{
			"buffer":0,
			"byteLength":5520,
			"byteOffset":129904,
			"target":34962
		},
		{
			"buffer":0,
			"byteLength":3680,
			"byteOffset":135424,
			"target":34962
		},
		{
			"buffer":0,
			"byteLength":5520,
			"byteOffset":139104,
			"target":34962
		},
		{
			"buffer":0,
			"byteLength":5520,
			"byteOffset":144624,
			"target":34962
		},
		{
			"buffer":0,
			"byteLength":3680,
			"byteOffset":150144,
			"target":34962
		},
		{
			"buffer":0,
			"byteLength":5520,
			"byteOffset":153824,
			"target":34962
		},
		{
			"buffer":0,
			"byteLength":5520,
			"byteOffset":159344,
			"target":34962
		},
		{
			"buffer":0,
			"byteLength":3680,
			"byteOffset":164864,
			"target":34962
		},
		{
			"buffer":0,
			"byteLength":7800,
			"byteOffset":168544,
			"target":34962
		},
		{
			"buffer":0,
			"byteLength":7800,
			"byteOffset":176344,
			"target":34962
		},
		{
			"buffer":0,
			"byteLength":5200,
			"byteOffset":184144,
			"target":34962
		},
		{
			"buffer":0,
			"byteLength":2112,
			"byteOffset":189344,
			"target":34963
		},
		{
			"buffer":0,
			"byteLength":8688,
			"byteOffset":191456,
			"target":34962
		},
		{
			"buffer":0,
			"byteLength":8688,
			"byteOffset":200144,
			"target":34962
		},
		{
			"buffer":0,
			"byteLength":5792,
			"byteOffset":208832,
			"target":34962
		},
		{
			"buffer":0,
			"byteLength":2316,
			"byteOffset":214624,
			"target":34963
		},
		{
			"buffer":0,
			"byteLength":7260,
			"byteOffset":216940,
			"target":34962
		},
		{
			"buffer":0,
			"byteLength":7260,
			"byteOffset":224200,
			"target":34962
		},
		{
			"buffer":0,
			"byteLength":4840,
			"byteOffset":231460,
			"target":34962
		},
		{
			"buffer":0,
			"byteLength":2508,
			"byteOffset":236300,
			"target":34963
		},
		{
			"buffer":0,
			"byteLength":7260,
			"byteOffset":238808,
			"target":34962
		},
		{
			"buffer":0,
			"byteLength":7260,
			"byteOffset":246068,
			"target":34962
		},
		{
			"buffer":0,
			"byteLength":4840,
			"byteOffset":253328,
			"target":34962
		},
		{
			"buffer":0,
			"byteLength":7260,
			"byteOffset":258168,
			"target":34962
		},
		{
			"buffer":0,
			"byteLength":7260,
			"byteOffset":265428,
			"target":34962
		},
		{
			"buffer":0,
			"byteLength":4840,
			"byteOffset":272688,
			"target":34962
		},
		{
			"buffer":0,
			"byteLength":7260,
			"byteOffset":277528,
			"target":34962
		},
		{
			"buffer":0,
			"byteLength":7260,
			"byteOffset":284788,
			"target":34962
		},
		{
			"buffer":0,
			"byteLength":4840,
			"byteOffset":292048,
			"target":34962
		},
		{
			"buffer":0,
			"byteLength":7260,
			"byteOffset":296888,
			"target":34962
		},
		{
			"buffer":0,
			"byteLength":7260,
			"byteOffset":304148,
			"target":34962
		},
		{
			"buffer":0,
			"byteLength":4840,
			"byteOffset":311408,
			"target":34962
		},
		{
			"buffer":0,
			"byteLength":7260,
			"byteOffset":316248,
			"target":34962
		},
		{
			"buffer":0,
			"byteLength":7260,
			"byteOffset":323508,
			"target":34962
		},
		{
			"buffer":0,
			"byteLength":4840,
			"byteOffset":330768,
			"target":34962
		},
		{
			"buffer":0,
			"byteLength":7260,
			"byteOffset":335608,
			"target":34962
		},
		{
			"buffer":0,
			"byteLength":7260,
			"byteOffset":342868,
			"target":34962
		},
		{
			"buffer":0,
			"byteLength":4840,
			"byteOffset":350128,
			"target":34962
		},
		{
			"buffer":0,
			"byteLength":7260,
			"byteOffset":354968,
			"target":34962
		},
		{
			"buffer":0,
			"byteLength":7260,
			"byteOffset":362228,
			"target":34962
		},
		{
			"buffer":0,
			"byteLength":4840,
			"byteOffset":369488,
			"target":34962
		},
		{
			"buffer":0,
			"byteLength":7260,
			"byteOffset":374328,
			"target":34962
		},
		{
			"buffer":0,
			"byteLength":7260,
			"byteOffset":381588,
			"target":34962
		},
		{
			"buffer":0,
			"byteLength":4840,
			"byteOffset":388848,
			"target":34962
		},
		{
			"buffer":0,
			"byteLength":7260,
			"byteOffset":393688,
			"target":34962
		},
		{
			"buffer":0,
			"byteLength":7260,
			"byteOffset":400948,
			"target":34962
		},
		{
			"buffer":0,
			"byteLength":4840,
			"byteOffset":408208,
			"target":34962
		},
		{
			"buffer":0,
			"byteLength":7260,
			"byteOffset":413048,
			"target":34962
		},
		{
			"buffer":0,
			"byteLength":7260,
			"byteOffset":420308,
			"target":34962
		},
		{
			"buffer":0,
			"byteLength":4840,
			"byteOffset":427568,
			"target":34962
		},
		{
			"buffer":0,
			"byteLength":7260,
			"byteOffset":432408,
			"target":34962
		},
		{
			"buffer":0,
			"byteLength":7260,
			"byteOffset":439668,
			"target":34962
		},
		{
			"buffer":0,
			"byteLength":4840,
			"byteOffset":446928,
			"target":34962
		},
		{
			"buffer":0,
			"byteLength":7260,
			"byteOffset":451768,
			"target":34962
		},
		{
			"buffer":0,
			"byteLength":7260,
			"byteOffset":459028,
			"target":34962
		},
		{
			"buffer":0,
			"byteLength":4840,
			"byteOffset":466288,
			"target":34962
		},
		{
			"buffer":0,
			"byteLength":7260,
			"byteOffset":471128,
			"target":34962
		},
		{
			"buffer":0,
			"byteLength":7260,
			"byteOffset":478388,
			"target":34962
		},
		{
			"buffer":0,
			"byteLength":4840,
			"byteOffset":485648,
			"target":34962
		},
		{
			"buffer":0,
			"byteLength":6624,
			"byteOffset":490488,
			"target":34962
		},
		{
			"buffer":0,
			"byteLength":6624,
			"byteOffset":497112,
			"target":34962
		},
		{
			"buffer":0,
			"byteLength":4416,
			"byteOffset":503736,
			"target":34962
		},
		{
			"buffer":0,
			"byteLength":1704,
			"byteOffset":508152,
			"target":34963
		},
		{
			"buffer":0,
			"byteLength":6624,
			"byteOffset":509856,
			"target":34962
		},
		{
			"buffer":0,
			"byteLength":6624,
			"byteOffset":516480,
			"target":34962
		},
		{
			"buffer":0,
			"byteLength":4416,
			"byteOffset":523104,
			"target":34962
		},
		{
			"buffer":0,
			"byteLength":6624,
			"byteOffset":527520,
			"target":34962
		},
		{
			"buffer":0,
			"byteLength":6624,
			"byteOffset":534144,
			"target":34962
		},
		{
			"buffer":0,
			"byteLength":4416,
			"byteOffset":540768,
			"target":34962
		},
		{
			"buffer":0,
			"byteLength":6624,
			"byteOffset":545184,
			"target":34962
		},
		{
			"buffer":0,
			"byteLength":6624,
			"byteOffset":551808,
			"target":34962
		},
		{
			"buffer":0,
			"byteLength":4416,
			"byteOffset":558432,
			"target":34962
		},
		{
			"buffer":0,
			"byteLength":6624,
			"byteOffset":562848,
			"target":34962
		},
		{
			"buffer":0,
			"byteLength":6624,
			"byteOffset":569472,
			"target":34962
		},
		{
			"buffer":0,
			"byteLength":4416,
			"byteOffset":576096,
			"target":34962
		},
		{
			"buffer":0,
			"byteLength":7800,
			"byteOffset":580512,
			"target":34962
		},
		{
			"buffer":0,
			"byteLength":7800,
			"byteOffset":588312,
			"target":34962
		},
		{
			"buffer":0,
			"byteLength":5200,
			"byteOffset":596112,
			"target":34962
		},
		{
			"buffer":0,
			"byteLength":2112,
			"byteOffset":601312,
			"target":34963
		},
		{
			"buffer":0,
			"byteLength":6624,
			"byteOffset":603424,
			"target":34962
		},
		{
			"buffer":0,
			"byteLength":6624,
			"byteOffset":610048,
			"target":34962
		},
		{
			"buffer":0,
			"byteLength":4416,
			"byteOffset":616672,
			"target":34962
		},
		{
			"buffer":0,
			"byteLength":1704,
			"byteOffset":621088,
			"target":34963
		},
		{
			"buffer":0,
			"byteLength":6624,
			"byteOffset":622792,
			"target":34962
		},
		{
			"buffer":0,
			"byteLength":6624,
			"byteOffset":629416,
			"target":34962
		},
		{
			"buffer":0,
			"byteLength":4416,
			"byteOffset":636040,
			"target":34962
		},
		{
			"buffer":0,
			"byteLength":6624,
			"byteOffset":640456,
			"target":34962
		},
		{
			"buffer":0,
			"byteLength":6624,
			"byteOffset":647080,
			"target":34962
		},
		{
			"buffer":0,
			"byteLength":4416,
			"byteOffset":653704,
			"target":34962
		},
		{
			"buffer":0,
			"byteLength":12720,
			"byteOffset":658120,
			"target":34962
		},
		{
			"buffer":0,
			"byteLength":12720,
			"byteOffset":670840,
			"target":34962
		},
		{
			"buffer":0,
			"byteLength":8480,
			"byteOffset":683560,
			"target":34962
		},
		{
			"buffer":0,
			"byteLength":12432,
			"byteOffset":692040,
			"target":34962
		},
		{
			"buffer":0,
			"byteLength":12432,
			"byteOffset":704472,
			"target":34962
		},
		{
			"buffer":0,
			"byteLength":8288,
			"byteOffset":716904,
			"target":34962
		},
		{
			"buffer":0,
			"byteLength":3336,
			"byteOffset":725192,
			"target":34963
		},
		{
			"buffer":0,
			"byteLength":12432,
			"byteOffset":728528,
			"target":34962
		},
		{
			"buffer":0,
			"byteLength":12432,
			"byteOffset":740960,
			"target":34962
		},
		{
			"buffer":0,
			"byteLength":8288,
			"byteOffset":753392,
			"target":34962
		},
		{
			"buffer":0,
			"byteLength":12432,
			"byteOffset":761680,
			"target":34962
		},
		{
			"buffer":0,
			"byteLength":12432,
			"byteOffset":774112,
			"target":34962
		},
		{
			"buffer":0,
			"byteLength":8288,
			"byteOffset":786544,
			"target":34962
		},
		{
			"buffer":0,
			"byteLength":12432,
			"byteOffset":794832,
			"target":34962
		},
		{
			"buffer":0,
			"byteLength":12432,
			"byteOffset":807264,
			"target":34962
		},
		{
			"buffer":0,
			"byteLength":8288,
			"byteOffset":819696,
			"target":34962
		},
		{
			"buffer":0,
			"byteLength":12432,
			"byteOffset":827984,
			"target":34962
		},
		{
			"buffer":0,
			"byteLength":12432,
			"byteOffset":840416,
			"target":34962
		},
		{
			"buffer":0,
			"byteLength":8288,
			"byteOffset":852848,
			"target":34962
		},
		{
			"buffer":0,
			"byteLength":12432,
			"byteOffset":861136,
			"target":34962
		},
		{
			"buffer":0,
			"byteLength":12432,
			"byteOffset":873568,
			"target":34962
		},
		{
			"buffer":0,
			"byteLength":8288,
			"byteOffset":886000,
			"target":34962
		},
		{
			"buffer":0,
			"byteLength":12432,
			"byteOffset":894288,
			"target":34962
		},
		{
			"buffer":0,
			"byteLength":12432,
			"byteOffset":906720,
			"target":34962
		},
		{
			"buffer":0,
			"byteLength":8288,
			"byteOffset":919152,
			"target":34962
		}
	],
	"samplers":[
		{
			"magFilter":9729,
			"minFilter":9987
		}
	],
	"buffers":[
		{
			"byteLength":927440,
			"uri":"room_one.bin"
		}
	]
}
