{
	"asset":{
		"generator":"Khronos glTF Blender I/O v5.1.19",
		"version":"2.0"
	},
	"scene":0,
	"scenes":[
		{
			"name":"Scene",
			"nodes":[
				0,
				1,
				2,
				3,
				4,
				5,
				6,
				7,
				8,
				9,
				10,
				11,
				12,
				13,
				14,
				15,
				16,
				17,
				18,
				19,
				20,
				21,
				22,
				23,
				24,
				25,
				26,
				27,
				28,
				29,
				30,
				31,
				32,
				33,
				34,
				35,
				36,
				37,
				38,
				39,
				40,
				41,
				42,
				43,
				44,
				45,
				46,
				47,
				48,
				49,
				50,
				51,
				52
			]
		}
	],
	"nodes":[
		{
			"mesh":0,
			"name":"Plane",
			"translation":[
				0,
				-0.07229479402303696,
				0
			]
		},
		{
			"mesh":1,
			"name":"Plane.001"
		},
		{
			"mesh":2,
			"name":"Plane.002"
		},
		{
			"mesh":3,
			"name":"Cylinder.020",
			"rotation":[
				0,
				-1,
				0,
				1.6292068494294654e-07
			],
			"translation":[
				9.353083610534668,
				1.3380988836288452,
				-2.819899082183838
			]
		},
		{
			"mesh":4,
			"name":"Cylinder.019",
			"rotation":[
				0,
				-1,
				0,
				1.6292068494294654e-07
			],
			"translation":[
				9.353083610534668,
				1.3380988836288452,
				2.8243789672851562
			]
		},
		{
			"mesh":5,
			"name":"Cylinder.001",
			"rotation":[
				0,
				-0.7071065902709961,
				0,
				0.7071069478988647
			],
			"translation":[
				-2.8266704082489014,
				1.3380988836288452,
				-9.352191925048828
			]
		},
		{
			"mesh":6,
			"name":"Cylinder.002",
			"rotation":[
				0,
				-0.7071065902709961,
				0,
				0.7071069478988647
			],
			"translation":[
				2.8176074028015137,
				1.3380988836288452,
				-9.352192878723145
			]
		},
		{
			"mesh":7,
			"name":"Cylinder.018",
			"rotation":[
				0,
				0.7071068286895752,
				0,
				0.7071068286895752
			],
			"translation":[
				3.9797778129577637,
				1.3380987644195557,
				9.349723815917969
			]
		},
		{
			"mesh":8,
			"name":"Cylinder.017",
			"rotation":[
				0,
				0.7071068286895752,
				0,
				0.7071068286895752
			],
			"translation":[
				-2.186373233795166,
				1.3380987644195557,
				9.349723815917969
			]
		},
		{
			"mesh":9,
			"name":"Cylinder.003",
			"translation":[
				-9.341702461242676,
				1.3380987644195557,
				2.265235185623169
			]
		},
		{
			"mesh":10,
			"name":"Cylinder.004",
			"translation":[
				-9.341703414916992,
				1.3380987644195557,
				-4.341124534606934
			]
		},
		{
			"mesh":11,
			"name":"Cube.014",
			"rotation":[
				0,
				0.10828932374715805,
				0,
				0.9941195249557495
			],
			"scale":[
				1.890461802482605,
				1.8904619216918945,
				1.890461802482605
			],
			"translation":[
				5.43485689163208,
				0.349554181098938,
				-8.116029739379883
			]
		},
		{
			"mesh":12,
			"name":"Cube.003",
			"rotation":[
				0,
				0.019702833145856857,
				0,
				0.9998058676719666
			],
			"scale":[
				1.8904619216918945,
				1.8904619216918945,
				1.8904619216918945
			],
			"translation":[
				5.578546524047852,
				0.36413833498954773,
				-9.032209396362305
			]
		},
		{
			"mesh":13,
			"name":"Cube.001",
			"rotation":[
				0,
				-0.05023515969514847,
				0,
				0.9987374544143677
			],
			"scale":[
				1.8904619216918945,
				1.8904619216918945,
				1.8904619216918945
			],
			"translation":[
				3.5889673233032227,
				0.36413833498954773,
				-8.395176887512207
			]
		},
		{
			"mesh":14,
			"name":"Cube",
			"rotation":[
				0,
				-0.24061569571495056,
				0,
				0.9706205725669861
			],
			"scale":[
				1.890462040901184,
				1.8904619216918945,
				1.890462040901184
			],
			"translation":[
				4.516534328460693,
				0.36413833498954773,
				-8.479470252990723
			]
		},
		{
			"mesh":15,
			"name":"beczka.005",
			"rotation":[
				0,
				0.09403107315301895,
				0,
				0.9955693483352661
			],
			"scale":[
				0.4743110239505768,
				0.4743110239505768,
				0.4743110239505768
			],
			"translation":[
				8.634154319763184,
				0.5723512172698975,
				-8.234905242919922
			]
		},
		{
			"mesh":16,
			"name":"beczka.004",
			"rotation":[
				0,
				0.09403107315301895,
				0,
				0.9955693483352661
			],
			"scale":[
				0.4743110239505768,
				0.4743110239505768,
				0.4743110239505768
			],
			"translation":[
				6.873959541320801,
				0.5723512172698975,
				-8.824502944946289
			]
		},
		{
			"mesh":17,
			"name":"beczka.001",
			"rotation":[
				0,
				0.09403107315301895,
				0,
				0.9955693483352661
			],
			"scale":[
				0.4743110239505768,
				0.4743110239505768,
				0.4743110239505768
			],
			"translation":[
				7.379023551940918,
				0.5723512172698975,
				-7.728144645690918
			]
		},
		{
			"mesh":18,
			"name":"beczka.002",
			"rotation":[
				0,
				0.09403107315301895,
				0,
				0.9955693483352661
			],
			"scale":[
				0.4743110239505768,
				0.4743110239505768,
				0.4743110239505768
			],
			"translation":[
				8.598567962646484,
				0.5723512172698975,
				-5.239781379699707
			]
		},
		{
			"mesh":19,
			"name":"Cylinder.009",
			"rotation":[
				0,
				-0.34970587491989136,
				0,
				0.9368595480918884
			],
			"translation":[
				-5.219446182250977,
				0.2814291715621948,
				7.595896244049072
			]
		},
		{
			"mesh":20,
			"name":"Cylinder.008",
			"rotation":[
				0,
				-0.34970587491989136,
				0,
				0.9368595480918884
			],
			"translation":[
				-5.043034553527832,
				0.3456920385360718,
				6.5576863288879395
			]
		},
		{
			"mesh":21,
			"name":"Cylinder.007",
			"rotation":[
				0,
				-0.34970587491989136,
				0,
				0.9368595480918884
			],
			"translation":[
				-6.731968402862549,
				0.2814291715621948,
				5.75745153427124
			]
		},
		{
			"mesh":22,
			"name":"Cylinder.006",
			"rotation":[
				0,
				-0.34970587491989136,
				0,
				0.9368595480918884
			],
			"translation":[
				-8.585497856140137,
				0.3456920385360718,
				2.7886807918548584
			]
		},
		{
			"mesh":23,
			"name":"Cylinder.005",
			"rotation":[
				0,
				-0.34970587491989136,
				0,
				0.9368595480918884
			],
			"translation":[
				-6.718110084533691,
				0.3456920385360718,
				0.7079107165336609
			]
		},
		{
			"mesh":24,
			"name":"Cylinder.010",
			"rotation":[
				0,
				-0.34970587491989136,
				0,
				0.9368595480918884
			],
			"translation":[
				-7.004861831665039,
				0.3456920385360718,
				2.609501838684082
			]
		},
		{
			"mesh":25,
			"name":"Cube.038",
			"rotation":[
				0,
				-0.9055348038673401,
				0,
				0.42427197098731995
			],
			"translation":[
				-7.803284168243408,
				1.0811809301376343,
				4.574086666107178
			]
		},
		{
			"mesh":26,
			"name":"Cylinder.011",
			"translation":[
				-7.327170372009277,
				2,
				-25.219032287597656
			]
		},
		{
			"mesh":27,
			"name":"Cube.012",
			"rotation":[
				0,
				-0.7264477014541626,
				0,
				0.6872217655181885
			],
			"scale":[
				1.8904619216918945,
				1.8904619216918945,
				1.8904619216918945
			],
			"translation":[
				8.481180191040039,
				0.36413833498954773,
				8.531559944152832
			]
		},
		{
			"mesh":28,
			"name":"Cube.011",
			"rotation":[
				0,
				-0.14041303098201752,
				0,
				0.9900930523872375
			],
			"scale":[
				1.8904619216918945,
				1.8904619216918945,
				1.8904619216918945
			],
			"translation":[
				8.809779167175293,
				1.1015971899032593,
				7.441837310791016
			]
		},
		{
			"mesh":29,
			"name":"Cube.010",
			"rotation":[
				0,
				0.04750677943229675,
				0,
				0.9988710284233093
			],
			"scale":[
				1.8904619216918945,
				1.8904619216918945,
				1.8904619216918945
			],
			"translation":[
				8.723176956176758,
				1.0896190404891968,
				6.47151517868042
			]
		},
		{
			"mesh":30,
			"name":"Cube.009",
			"rotation":[
				0,
				0.04750677943229675,
				0,
				0.9988710284233093
			],
			"scale":[
				1.8904619216918945,
				1.8904619216918945,
				1.8904619216918945
			],
			"translation":[
				8.800407409667969,
				0.36413833498954773,
				7.44481086730957
			]
		},
		{
			"mesh":31,
			"name":"Cube.008",
			"rotation":[
				0,
				-0.018651433289051056,
				0,
				0.9998260736465454
			],
			"scale":[
				1.8904619216918945,
				1.8904619216918945,
				1.8904619216918945
			],
			"translation":[
				8.727705955505371,
				0.36413833498954773,
				6.475458145141602
			]
		},
		{
			"mesh":32,
			"name":"Cube.002",
			"rotation":[
				0,
				-0.8962401747703552,
				0,
				0.4435690939426422
			],
			"scale":[
				1.8904619216918945,
				1.8904619216918945,
				1.8904619216918945
			],
			"translation":[
				7.557282447814941,
				0.36413833498954773,
				7.051612854003906
			]
		},
		{
			"mesh":33,
			"name":"Cube.004",
			"rotation":[
				0,
				-0.98746657371521,
				0,
				0.15782839059829712
			],
			"scale":[
				1.8904619216918945,
				1.8904619216918945,
				1.8904619216918945
			],
			"translation":[
				8.181768417358398,
				0.36413833498954773,
				5.571665287017822
			]
		},
		{
			"mesh":34,
			"name":"Cube.005",
			"rotation":[
				0,
				-0.17610658705234528,
				0,
				0.9843711256980896
			],
			"scale":[
				1.8904619216918945,
				1.8904619216918945,
				1.8904619216918945
			],
			"translation":[
				-8.565225601196289,
				1.0896190404891968,
				-7.715524673461914
			]
		},
		{
			"mesh":35,
			"name":"Cube.006",
			"rotation":[
				0,
				-0.24081647396087646,
				0,
				0.9705706834793091
			],
			"scale":[
				1.8904619216918945,
				1.8904619216918945,
				1.8904619216918945
			],
			"translation":[
				-8.562856674194336,
				0.36413833498954773,
				-7.710006237030029
			]
		},
		{
			"mesh":36,
			"name":"Cube.007",
			"rotation":[
				0,
				0.9978185892105103,
				0,
				0.06601539999246597
			],
			"scale":[
				1.8904619216918945,
				1.8904619216918945,
				1.8904619216918945
			],
			"translation":[
				-8.662262916564941,
				0.36413833498954773,
				-8.761199951171875
			]
		},
		{
			"mesh":37,
			"name":"Cylinder.012",
			"translation":[
				-6.776649475097656,
				2.1709868907928467,
				-30.083345413208008
			]
		},
		{
			"mesh":38,
			"name":"Cylinder.013",
			"translation":[
				-7.12449836730957,
				2.1709868907928467,
				-30.083345413208008
			]
		},
		{
			"mesh":39,
			"name":"Cylinder.014",
			"rotation":[
				0,
				-0.17357011139392853,
				0,
				0.984821617603302
			],
			"translation":[
				19.94204330444336,
				2.1709868907928467,
				-20.092403411865234
			]
		},
		{
			"mesh":40,
			"name":"Cylinder.015",
			"rotation":[
				0,
				-0.17357011139392853,
				0,
				0.984821617603302
			],
			"translation":[
				19.615154266357422,
				2.1709868907928467,
				-20.211322784423828
			]
		},
		{
			"mesh":41,
			"name":"Cylinder.016",
			"rotation":[
				0,
				-0.34970587491989136,
				0,
				0.9368595480918884
			],
			"translation":[
				9.006734848022461,
				0.3456920385360718,
				4.692764759063721
			]
		},
		{
			"mesh":42,
			"name":"Cylinder.021",
			"rotation":[
				0,
				-0.34970587491989136,
				0,
				0.9368595480918884
			],
			"translation":[
				8.271069526672363,
				0.3456920385360718,
				4.386237621307373
			]
		},
		{
			"mesh":43,
			"name":"Cylinder.022",
			"rotation":[
				0,
				-0.34970587491989136,
				0,
				0.9368595480918884
			],
			"translation":[
				8.853470802307129,
				0.3456920385360718,
				4.079710483551025
			]
		},
		{
			"mesh":44,
			"name":"Cylinder.023",
			"rotation":[
				0,
				-0.34970587491989136,
				0,
				0.9368595480918884
			],
			"translation":[
				6.339947700500488,
				0.3456920385360718,
				-8.120073318481445
			]
		},
		{
			"mesh":45,
			"name":"Cylinder.024",
			"rotation":[
				0,
				-0.34970587491989136,
				0,
				0.9368595480918884
			],
			"translation":[
				6.6158223152160645,
				0.3456920385360718,
				-7.568324089050293
			]
		},
		{
			"mesh":46,
			"name":"Cylinder.025",
			"rotation":[
				0,
				-0.34970587491989136,
				0,
				0.9368595480918884
			],
			"translation":[
				5.9721150398254395,
				0.3456920385360718,
				-7.384407997131348
			]
		},
		{
			"mesh":47,
			"name":"Cylinder.026",
			"rotation":[
				0,
				-0.34970587491989136,
				0,
				0.9368595480918884
			],
			"translation":[
				4.163604736328125,
				0.3456920385360718,
				-7.782893180847168
			]
		},
		{
			"mesh":48,
			"name":"Cylinder.027",
			"rotation":[
				0,
				-0.34970587491989136,
				0,
				0.9368595480918884
			],
			"translation":[
				-7.852261543273926,
				0.3456920385360718,
				-8.426600456237793
			]
		},
		{
			"mesh":49,
			"name":"Cylinder.028",
			"rotation":[
				0,
				-0.34970587491989136,
				0,
				0.9368595480918884
			],
			"translation":[
				-7.607039928436279,
				0.3456920385360718,
				-9.039654731750488
			]
		},
		{
			"mesh":50,
			"name":"Cylinder.029",
			"rotation":[
				0,
				-0.34970587491989136,
				0,
				0.9368595480918884
			],
			"translation":[
				-9.047718048095703,
				0.3456920385360718,
				-6.924616813659668
			]
		},
		{
			"mesh":51,
			"name":"Cylinder.030",
			"rotation":[
				0,
				-0.34970587491989136,
				0,
				0.9368595480918884
			],
			"translation":[
				-7.208554744720459,
				0.3456920385360718,
				-6.372867584228516
			]
		},
		{
			"mesh":52,
			"name":"Plane.003"
		}
	],
	"meshes":[
		{
			"name":"Plane",
			"primitives":[
				{
					"attributes":{
						"POSITION":0,
						"NORMAL":1,
						"TEXCOORD_0":2
					},
					"indices":3
				}
			]
		},
		{
			"name":"Plane.001",
			"primitives":[
				{
					"attributes":{
						"POSITION":4,
						"NORMAL":5,
						"TEXCOORD_0":6
					},
					"indices":7
				}
			]
		},
		{
			"name":"Plane.002",
			"primitives":[
				{
					"attributes":{
						"POSITION":8,
						"NORMAL":9,
						"TEXCOORD_0":10
					},
					"indices":11
				}
			]
		},
		{
			"name":"Cylinder.027",
			"primitives":[
				{
					"attributes":{
						"POSITION":12,
						"NORMAL":13,
						"TEXCOORD_0":14
					},
					"indices":15
				}
			]
		},
		{
			"name":"Cylinder.026",
			"primitives":[
				{
					"attributes":{
						"POSITION":16,
						"NORMAL":17,
						"TEXCOORD_0":18
					},
					"indices":15
				}
			]
		},
		{
			"name":"Cylinder.001",
			"primitives":[
				{
					"attributes":{
						"POSITION":19,
						"NORMAL":20,
						"TEXCOORD_0":21
					},
					"indices":15
				}
			]
		},
		{
			"name":"Cylinder.002",
			"primitives":[
				{
					"attributes":{
						"POSITION":22,
						"NORMAL":23,
						"TEXCOORD_0":24
					},
					"indices":15
				}
			]
		},
		{
			"name":"Cylinder.025",
			"primitives":[
				{
					"attributes":{
						"POSITION":25,
						"NORMAL":26,
						"TEXCOORD_0":27
					},
					"indices":15
				}
			]
		},
		{
			"name":"Cylinder.024",
			"primitives":[
				{
					"attributes":{
						"POSITION":28,
						"NORMAL":29,
						"TEXCOORD_0":30
					},
					"indices":15
				}
			]
		},
		{
			"name":"Cylinder.003",
			"primitives":[
				{
					"attributes":{
						"POSITION":31,
						"NORMAL":32,
						"TEXCOORD_0":33
					},
					"indices":15
				}
			]
		},
		{
			"name":"Cylinder.004",
			"primitives":[
				{
					"attributes":{
						"POSITION":34,
						"NORMAL":35,
						"TEXCOORD_0":36
					},
					"indices":15
				}
			]
		},
		{
			"name":"Cube.016",
			"primitives":[
				{
					"attributes":{
						"POSITION":37,
						"NORMAL":38,
						"TEXCOORD_0":39
					},
					"indices":40
				}
			]
		},
		{
			"name":"Cube.005",
			"primitives":[
				{
					"attributes":{
						"POSITION":41,
						"NORMAL":42,
						"TEXCOORD_0":43
					},
					"indices":40
				}
			]
		},
		{
			"name":"Cube.003",
			"primitives":[
				{
					"attributes":{
						"POSITION":44,
						"NORMAL":45,
						"TEXCOORD_0":46
					},
					"indices":40
				}
			]
		},
		{
			"name":"Cube.002",
			"primitives":[
				{
					"attributes":{
						"POSITION":47,
						"NORMAL":48,
						"TEXCOORD_0":49
					},
					"indices":40
				}
			]
		},
		{
			"name":"Cylinder.011",
			"primitives":[
				{
					"attributes":{
						"POSITION":50,
						"NORMAL":51,
						"TEXCOORD_0":52
					},
					"indices":53
				}
			]
		},
		{
			"name":"Cylinder.012",
			"primitives":[
				{
					"attributes":{
						"POSITION":54,
						"NORMAL":55,
						"TEXCOORD_0":56
					},
					"indices":53
				}
			]
		},
		{
			"name":"Cylinder.005",
			"primitives":[
				{
					"attributes":{
						"POSITION":57,
						"NORMAL":58,
						"TEXCOORD_0":59
					},
					"indices":53
				}
			]
		},
		{
			"name":"Cylinder.006",
			"primitives":[
				{
					"attributes":{
						"POSITION":60,
						"NORMAL":61,
						"TEXCOORD_0":62
					},
					"indices":53
				}
			]
		},
		{
			"name":"Cylinder.009",
			"primitives":[
				{
					"attributes":{
						"POSITION":63,
						"NORMAL":64,
						"TEXCOORD_0":65
					},
					"indices":66
				}
			]
		},
		{
			"name":"Cylinder.008",
			"primitives":[
				{
					"attributes":{
						"POSITION":67,
						"NORMAL":68,
						"TEXCOORD_0":69
					},
					"indices":66
				}
			]
		},
		{
			"name":"Cylinder.007",
			"primitives":[
				{
					"attributes":{
						"POSITION":70,
						"NORMAL":71,
						"TEXCOORD_0":72
					},
					"indices":66
				}
			]
		},
		{
			"name":"Cylinder.010",
			"primitives":[
				{
					"attributes":{
						"POSITION":73,
						"NORMAL":74,
						"TEXCOORD_0":75
					},
					"indices":66
				}
			]
		},
		{
			"name":"Cylinder.013",
			"primitives":[
				{
					"attributes":{
						"POSITION":76,
						"NORMAL":77,
						"TEXCOORD_0":78
					},
					"indices":66
				}
			]
		},
		{
			"name":"Cylinder.014",
			"primitives":[
				{
					"attributes":{
						"POSITION":79,
						"NORMAL":80,
						"TEXCOORD_0":81
					},
					"indices":66
				}
			]
		},
		{
			"name":"Cube.038",
			"primitives":[
				{
					"attributes":{
						"POSITION":82,
						"NORMAL":83,
						"TEXCOORD_0":84
					},
					"indices":85
				}
			]
		},
		{
			"name":"Cylinder.015",
			"primitives":[
				{
					"attributes":{
						"POSITION":86,
						"NORMAL":87,
						"TEXCOORD_0":88
					},
					"indices":89
				}
			]
		},
		{
			"name":"Cube.014",
			"primitives":[
				{
					"attributes":{
						"POSITION":90,
						"NORMAL":91,
						"TEXCOORD_0":92
					},
					"indices":40
				}
			]
		},
		{
			"name":"Cube.013",
			"primitives":[
				{
					"attributes":{
						"POSITION":93,
						"NORMAL":94,
						"TEXCOORD_0":95
					},
					"indices":40
				}
			]
		},
		{
			"name":"Cube.012",
			"primitives":[
				{
					"attributes":{
						"POSITION":96,
						"NORMAL":97,
						"TEXCOORD_0":98
					},
					"indices":40
				}
			]
		},
		{
			"name":"Cube.011",
			"primitives":[
				{
					"attributes":{
						"POSITION":99,
						"NORMAL":100,
						"TEXCOORD_0":101
					},
					"indices":40
				}
			]
		},
		{
			"name":"Cube.010",
			"primitives":[
				{
					"attributes":{
						"POSITION":102,
						"NORMAL":103,
						"TEXCOORD_0":104
					},
					"indices":40
				}
			]
		},
		{
			"name":"Cube.001",
			"primitives":[
				{
					"attributes":{
						"POSITION":105,
						"NORMAL":106,
						"TEXCOORD_0":107
					},
					"indices":40
				}
			]
		},
		{
			"name":"Cube.004",
			"primitives":[
				{
					"attributes":{
						"POSITION":108,
						"NORMAL":109,
						"TEXCOORD_0":110
					},
					"indices":40
				}
			]
		},
		{
			"name":"Cube.006",
			"primitives":[
				{
					"attributes":{
						"POSITION":111,
						"NORMAL":112,
						"TEXCOORD_0":113
					},
					"indices":40
				}
			]
		},
		{
			"name":"Cube.007",
			"primitives":[
				{
					"attributes":{
						"POSITION":114,
						"NORMAL":115,
						"TEXCOORD_0":116
					},
					"indices":40
				}
			]
		},
		{
			"name":"Cube.008",
			"primitives":[
				{
					"attributes":{
						"POSITION":117,
						"NORMAL":118,
						"TEXCOORD_0":119
					},
					"indices":40
				}
			]
		},
		{
			"name":"Cylinder.016",
			"primitives":[
				{
					"attributes":{
						"POSITION":120,
						"NORMAL":121,
						"TEXCOORD_0":122
					},
					"indices":123
				}
			]
		},
		{
			"name":"Cylinder.017",
			"primitives":[
				{
					"attributes":{
						"POSITION":124,
						"NORMAL":125,
						"TEXCOORD_0":126
					},
					"indices":127
				}
			]
		},
		{
			"name":"Cylinder.018",
			"primitives":[
				{
					"attributes":{
						"POSITION":128,
						"NORMAL":129,
						"TEXCOORD_0":130
					},
					"indices":123
				}
			]
		},
		{
			"name":"Cylinder.019",
			"primitives":[
				{
					"attributes":{
						"POSITION":131,
						"NORMAL":132,
						"TEXCOORD_0":133
					},
					"indices":127
				}
			]
		},
		{
			"name":"Cylinder.020",
			"primitives":[
				{
					"attributes":{
						"POSITION":134,
						"NORMAL":135,
						"TEXCOORD_0":136
					},
					"indices":66
				}
			]
		},
		{
			"name":"Cylinder.021",
			"primitives":[
				{
					"attributes":{
						"POSITION":137,
						"NORMAL":138,
						"TEXCOORD_0":139
					},
					"indices":66
				}
			]
		},
		{
			"name":"Cylinder.022",
			"primitives":[
				{
					"attributes":{
						"POSITION":140,
						"NORMAL":141,
						"TEXCOORD_0":142
					},
					"indices":66
				}
			]
		},
		{
			"name":"Cylinder.023",
			"primitives":[
				{
					"attributes":{
						"POSITION":143,
						"NORMAL":144,
						"TEXCOORD_0":145
					},
					"indices":66
				}
			]
		},
		{
			"name":"Cylinder.028",
			"primitives":[
				{
					"attributes":{
						"POSITION":146,
						"NORMAL":147,
						"TEXCOORD_0":148
					},
					"indices":66
				}
			]
		},
		{
			"name":"Cylinder.029",
			"primitives":[
				{
					"attributes":{
						"POSITION":149,
						"NORMAL":150,
						"TEXCOORD_0":151
					},
					"indices":66
				}
			]
		},
		{
			"name":"Cylinder.030",
			"primitives":[
				{
					"attributes":{
						"POSITION":152,
						"NORMAL":153,
						"TEXCOORD_0":154
					},
					"indices":66
				}
			]
		},
		{
			"name":"Cylinder.031",
			"primitives":[
				{
					"attributes":{
						"POSITION":155,
						"NORMAL":156,
						"TEXCOORD_0":157
					},
					"indices":66
				}
			]
		},
		{
			"name":"Cylinder.032",
			"primitives":[
				{
					"attributes":{
						"POSITION":158,
						"NORMAL":159,
						"TEXCOORD_0":160
					},
					"indices":66
				}
			]
		},
		{
			"name":"Cylinder.033",
			"primitives":[
				{
					"attributes":{
						"POSITION":161,
						"NORMAL":162,
						"TEXCOORD_0":163
					},
					"indices":66
				}
			]
		},
		{
			"name":"Cylinder.034",
			"primitives":[
				{
					"attributes":{
						"POSITION":164,
						"NORMAL":165,
						"TEXCOORD_0":166
					},
					"indices":66
				}
			]
		},
		{
			"name":"Plane.003",
			"primitives":[
				{
					"attributes":{
						"POSITION":167,
						"NORMAL":168,
						"TEXCOORD_0":169
					},
					"indices":170
				}
			]
		}
	],
	"accessors":[
		{
			"bufferView":0,
			"componentType":5126,
			"count":4,
			"max":[
				14,
				0,
				14
			],
			"min":[
				-14,
				0,
				-14
			],
			"type":"VEC3"
		},
		{
			"bufferView":1,
			"componentType":5126,
			"count":4,
			"type":"VEC3"
		},
		{
			"bufferView":2,
			"componentType":5126,
			"count":4,
			"type":"VEC2"
		},
		{
			"bufferView":3,
			"componentType":5123,
			"count":6,
			"type":"SCALAR"
		},
		{
			"bufferView":4,
			"componentType":5126,
			"count":218,
			"max":[
				14,
				2,
				10.18478012084961
			],
			"min":[
				-10.195045471191406,
				0,
				-14
			],
			"type":"VEC3"
		},
		{
			"bufferView":5,
			"componentType":5126,
			"count":218,
			"type":"VEC3"
		},
		{
			"bufferView":6,
			"componentType":5126,
			"count":218,
			"type":"VEC2"
		},
		{
			"bufferView":7,
			"componentType":5123,
			"count":426,
			"type":"SCALAR"
		},
		{
			"bufferView":8,
			"componentType":5126,
			"count":20,
			"max":[
				14,
				0,
				9.5
			],
			"min":[
				-9.5,
				0,
				-14
			],
			"type":"VEC3"
		},
		{
			"bufferView":9,
			"componentType":5126,
			"count":20,
			"type":"VEC3"
		},
		{
			"bufferView":10,
			"componentType":5126,
			"count":20,
			"type":"VEC2"
		},
		{
			"bufferView":11,
			"componentType":5123,
			"count":54,
			"type":"SCALAR"
		},
		{
			"bufferView":12,
			"componentType":5126,
			"count":1036,
			"max":[
				0.13655361533164978,
				0.21064303815364838,
				0.1293332725763321
			],
			"min":[
				-0.15991631150245667,
				-0.25389915704727173,
				-0.1471712440252304
			],
			"type":"VEC3"
		},
		{
			"bufferView":13,
			"componentType":5126,
			"count":1036,
			"type":"VEC3"
		},
		{
			"bufferView":14,
			"componentType":5126,
			"count":1036,
			"type":"VEC2"
		},
		{
			"bufferView":15,
			"componentType":5123,
			"count":1668,
			"type":"SCALAR"
		},
		{
			"bufferView":16,
			"componentType":5126,
			"count":1036,
			"max":[
				0.13655361533164978,
				0.21064303815364838,
				0.1293332725763321
			],
			"min":[
				-0.15991631150245667,
				-0.25389915704727173,
				-0.1471712440252304
			],
			"type":"VEC3"
		},
		{
			"bufferView":17,
			"componentType":5126,
			"count":1036,
			"type":"VEC3"
		},
		{
			"bufferView":18,
			"componentType":5126,
			"count":1036,
			"type":"VEC2"
		},
		{
			"bufferView":19,
			"componentType":5126,
			"count":1036,
			"max":[
				0.13655361533164978,
				0.21064303815364838,
				0.1293332725763321
			],
			"min":[
				-0.15991631150245667,
				-0.25389915704727173,
				-0.1471712440252304
			],
			"type":"VEC3"
		},
		{
			"bufferView":20,
			"componentType":5126,
			"count":1036,
			"type":"VEC3"
		},
		{
			"bufferView":21,
			"componentType":5126,
			"count":1036,
			"type":"VEC2"
		},
		{
			"bufferView":22,
			"componentType":5126,
			"count":1036,
			"max":[
				0.13655361533164978,
				0.21064303815364838,
				0.1293332725763321
			],
			"min":[
				-0.15991631150245667,
				-0.25389915704727173,
				-0.1471712440252304
			],
			"type":"VEC3"
		},
		{
			"bufferView":23,
			"componentType":5126,
			"count":1036,
			"type":"VEC3"
		},
		{
			"bufferView":24,
			"componentType":5126,
			"count":1036,
			"type":"VEC2"
		},
		{
			"bufferView":25,
			"componentType":5126,
			"count":1036,
			"max":[
				0.13655352592468262,
				0.21064317226409912,
				0.12933731079101562
			],
			"min":[
				-0.15991640090942383,
				-0.2538990378379822,
				-0.14716720581054688
			],
			"type":"VEC3"
		},
		{
			"bufferView":26,
			"componentType":5126,
			"count":1036,
			"type":"VEC3"
		},
		{
			"bufferView":27,
			"componentType":5126,
			"count":1036,
			"type":"VEC2"
		},
		{
			"bufferView":28,
			"componentType":5126,
			"count":1036,
			"max":[
				0.13655352592468262,
				0.21064317226409912,
				0.12933731079101562
			],
			"min":[
				-0.15991640090942383,
				-0.2538990378379822,
				-0.14716720581054688
			],
			"type":"VEC3"
		},
		{
			"bufferView":29,
			"componentType":5126,
			"count":1036,
			"type":"VEC3"
		},
		{
			"bufferView":30,
			"componentType":5126,
			"count":1036,
			"type":"VEC2"
		},
		{
			"bufferView":31,
			"componentType":5126,
			"count":1036,
			"max":[
				0.13655352592468262,
				0.21064317226409912,
				0.12933731079101562
			],
			"min":[
				-0.15991640090942383,
				-0.2538990378379822,
				-0.14716720581054688
			],
			"type":"VEC3"
		},
		{
			"bufferView":32,
			"componentType":5126,
			"count":1036,
			"type":"VEC3"
		},
		{
			"bufferView":33,
			"componentType":5126,
			"count":1036,
			"type":"VEC2"
		},
		{
			"bufferView":34,
			"componentType":5126,
			"count":1036,
			"max":[
				0.13655352592468262,
				0.21064317226409912,
				0.12933731079101562
			],
			"min":[
				-0.15991640090942383,
				-0.2538990378379822,
				-0.14716720581054688
			],
			"type":"VEC3"
		},
		{
			"bufferView":35,
			"componentType":5126,
			"count":1036,
			"type":"VEC3"
		},
		{
			"bufferView":36,
			"componentType":5126,
			"count":1036,
			"type":"VEC2"
		},
		{
			"bufferView":37,
			"componentType":5126,
			"count":605,
			"max":[
				0.19075191020965576,
				0.19628597795963287,
				0.19920097291469574
			],
			"min":[
				-0.1992480754852295,
				-0.19371400773525238,
				-0.19079901278018951
			],
			"type":"VEC3"
		},
		{
			"bufferView":38,
			"componentType":5126,
			"count":605,
			"type":"VEC3"
		},
		{
			"bufferView":39,
			"componentType":5126,
			"count":605,
			"type":"VEC2"
		},
		{
			"bufferView":40,
			"componentType":5123,
			"count":1254,
			"type":"SCALAR"
		},
		{
			"bufferView":41,
			"componentType":5126,
			"count":605,
			"max":[
				0.19075191020965576,
				0.19628597795963287,
				0.19920097291469574
			],
			"min":[
				-0.1992480754852295,
				-0.19371400773525238,
				-0.19079901278018951
			],
			"type":"VEC3"
		},
		{
			"bufferView":42,
			"componentType":5126,
			"count":605,
			"type":"VEC3"
		},
		{
			"bufferView":43,
			"componentType":5126,
			"count":605,
			"type":"VEC2"
		},
		{
			"bufferView":44,
			"componentType":5126,
			"count":605,
			"max":[
				0.19075191020965576,
				0.19628597795963287,
				0.19920097291469574
			],
			"min":[
				-0.1992480754852295,
				-0.19371400773525238,
				-0.19079901278018951
			],
			"type":"VEC3"
		},
		{
			"bufferView":45,
			"componentType":5126,
			"count":605,
			"type":"VEC3"
		},
		{
			"bufferView":46,
			"componentType":5126,
			"count":605,
			"type":"VEC2"
		},
		{
			"bufferView":47,
			"componentType":5126,
			"count":605,
			"max":[
				0.19075191020965576,
				0.19628597795963287,
				0.19920097291469574
			],
			"min":[
				-0.1992480754852295,
				-0.19371400773525238,
				-0.19079901278018951
			],
			"type":"VEC3"
		},
		{
			"bufferView":48,
			"componentType":5126,
			"count":605,
			"type":"VEC3"
		},
		{
			"bufferView":49,
			"componentType":5126,
			"count":605,
			"type":"VEC2"
		},
		{
			"bufferView":50,
			"componentType":5126,
			"count":460,
			"max":[
				1.167971134185791,
				1.191305160522461,
				1.2057090997695923
			],
			"min":[
				-1.1494168043136597,
				-1.191305160522461,
				-1.210943341255188
			],
			"type":"VEC3"
		},
		{
			"bufferView":51,
			"componentType":5126,
			"count":460,
			"type":"VEC3"
		},
		{
			"bufferView":52,
			"componentType":5126,
			"count":460,
			"type":"VEC2"
		},
		{
			"bufferView":53,
			"componentType":5123,
			"count":744,
			"type":"SCALAR"
		},
		{
			"bufferView":54,
			"componentType":5126,
			"count":460,
			"max":[
				1.167971134185791,
				1.191305160522461,
				1.2057090997695923
			],
			"min":[
				-1.1494168043136597,
				-1.191305160522461,
				-1.210943341255188
			],
			"type":"VEC3"
		},
		{
			"bufferView":55,
			"componentType":5126,
			"count":460,
			"type":"VEC3"
		},
		{
			"bufferView":56,
			"componentType":5126,
			"count":460,
			"type":"VEC2"
		},
		{
			"bufferView":57,
			"componentType":5126,
			"count":460,
			"max":[
				1.167971134185791,
				1.191305160522461,
				1.2057090997695923
			],
			"min":[
				-1.1494168043136597,
				-1.191305160522461,
				-1.210943341255188
			],
			"type":"VEC3"
		},
		{
			"bufferView":58,
			"componentType":5126,
			"count":460,
			"type":"VEC3"
		},
		{
			"bufferView":59,
			"componentType":5126,
			"count":460,
			"type":"VEC2"
		},
		{
			"bufferView":60,
			"componentType":5126,
			"count":460,
			"max":[
				1.167971134185791,
				1.191305160522461,
				1.2057090997695923
			],
			"min":[
				-1.1494168043136597,
				-1.191305160522461,
				-1.210943341255188
			],
			"type":"VEC3"
		},
		{
			"bufferView":61,
			"componentType":5126,
			"count":460,
			"type":"VEC3"
		},
		{
			"bufferView":62,
			"componentType":5126,
			"count":460,
			"type":"VEC2"
		},
		{
			"bufferView":63,
			"componentType":5126,
			"count":552,
			"max":[
				0.22542905807495117,
				0.17336726188659668,
				0.22542953491210938
			],
			"min":[
				-0.22542810440063477,
				-0.35562169551849365,
				-0.22542953491210938
			],
			"type":"VEC3"
		},
		{
			"bufferView":64,
			"componentType":5126,
			"count":552,
			"type":"VEC3"
		},
		{
			"bufferView":65,
			"componentType":5126,
			"count":552,
			"type":"VEC2"
		},
		{
			"bufferView":66,
			"componentType":5123,
			"count":852,
			"type":"SCALAR"
		},
		{
			"bufferView":67,
			"componentType":5126,
			"count":552,
			"max":[
				0.22542905807495117,
				0.17336726188659668,
				0.22542953491210938
			],
			"min":[
				-0.22542810440063477,
				-0.35562169551849365,
				-0.22542953491210938
			],
			"type":"VEC3"
		},
		{
			"bufferView":68,
			"componentType":5126,
			"count":552,
			"type":"VEC3"
		},
		{
			"bufferView":69,
			"componentType":5126,
			"count":552,
			"type":"VEC2"
		},
		{
			"bufferView":70,
			"componentType":5126,
			"count":552,
			"max":[
				0.22542905807495117,
				0.17336726188659668,
				0.22542953491210938
			],
			"min":[
				-0.22542810440063477,
				-0.35562169551849365,
				-0.22542953491210938
			],
			"type":"VEC3"
		},
		{
			"bufferView":71,
			"componentType":5126,
			"count":552,
			"type":"VEC3"
		},
		{
			"bufferView":72,
			"componentType":5126,
			"count":552,
			"type":"VEC2"
		},
		{
			"bufferView":73,
			"componentType":5126,
			"count":552,
			"max":[
				0.22542905807495117,
				0.17336726188659668,
				0.22542953491210938
			],
			"min":[
				-0.22542810440063477,
				-0.35562169551849365,
				-0.22542953491210938
			],
			"type":"VEC3"
		},
		{
			"bufferView":74,
			"componentType":5126,
			"count":552,
			"type":"VEC3"
		},
		{
			"bufferView":75,
			"componentType":5126,
			"count":552,
			"type":"VEC2"
		},
		{
			"bufferView":76,
			"componentType":5126,
			"count":552,
			"max":[
				0.22542905807495117,
				0.17336726188659668,
				0.22542953491210938
			],
			"min":[
				-0.22542810440063477,
				-0.35562169551849365,
				-0.22542953491210938
			],
			"type":"VEC3"
		},
		{
			"bufferView":77,
			"componentType":5126,
			"count":552,
			"type":"VEC3"
		},
		{
			"bufferView":78,
			"componentType":5126,
			"count":552,
			"type":"VEC2"
		},
		{
			"bufferView":79,
			"componentType":5126,
			"count":552,
			"max":[
				0.22542905807495117,
				0.17336726188659668,
				0.22542953491210938
			],
			"min":[
				-0.22542810440063477,
				-0.35562169551849365,
				-0.22542953491210938
			],
			"type":"VEC3"
		},
		{
			"bufferView":80,
			"componentType":5126,
			"count":552,
			"type":"VEC3"
		},
		{
			"bufferView":81,
			"componentType":5126,
			"count":552,
			"type":"VEC2"
		},
		{
			"bufferView":82,
			"componentType":5126,
			"count":930,
			"max":[
				0.9017375111579895,
				1.0592867136001587,
				1.0234911441802979
			],
			"min":[
				-0.8359257578849792,
				-0.6809641122817993,
				-1.0460469722747803
			],
			"type":"VEC3"
		},
		{
			"bufferView":83,
			"componentType":5126,
			"count":930,
			"type":"VEC3"
		},
		{
			"bufferView":84,
			"componentType":5126,
			"count":930,
			"type":"VEC2"
		},
		{
			"bufferView":85,
			"componentType":5123,
			"count":2400,
			"type":"SCALAR"
		},
		{
			"bufferView":86,
			"componentType":5126,
			"count":1060,
			"max":[
				-1.8840081691741943,
				-0.45125800371170044,
				33.95118713378906
			],
			"min":[
				-2.180478096008301,
				-0.9158002138137817,
				33.6746826171875
			],
			"type":"VEC3"
		},
		{
			"bufferView":87,
			"componentType":5126,
			"count":1060,
			"type":"VEC3"
		},
		{
			"bufferView":88,
			"componentType":5126,
			"count":1060,
			"type":"VEC2"
		},
		{
			"bufferView":89,
			"componentType":5123,
			"count":1668,
			"type":"SCALAR"
		},
		{
			"bufferView":90,
			"componentType":5126,
			"count":605,
			"max":[
				0.19075191020965576,
				0.19628597795963287,
				0.19920097291469574
			],
			"min":[
				-0.1992480754852295,
				-0.19371400773525238,
				-0.19079901278018951
			],
			"type":"VEC3"
		},
		{
			"bufferView":91,
			"componentType":5126,
			"count":605,
			"type":"VEC3"
		},
		{
			"bufferView":92,
			"componentType":5126,
			"count":605,
			"type":"VEC2"
		},
		{
			"bufferView":93,
			"componentType":5126,
			"count":605,
			"max":[
				0.19075191020965576,
				0.19628597795963287,
				0.19920097291469574
			],
			"min":[
				-0.1992480754852295,
				-0.19371400773525238,
				-0.19079901278018951
			],
			"type":"VEC3"
		},
		{
			"bufferView":94,
			"componentType":5126,
			"count":605,
			"type":"VEC3"
		},
		{
			"bufferView":95,
			"componentType":5126,
			"count":605,
			"type":"VEC2"
		},
		{
			"bufferView":96,
			"componentType":5126,
			"count":605,
			"max":[
				0.19075191020965576,
				0.19628597795963287,
				0.19920097291469574
			],
			"min":[
				-0.1992480754852295,
				-0.19371400773525238,
				-0.19079901278018951
			],
			"type":"VEC3"
		},
		{
			"bufferView":97,
			"componentType":5126,
			"count":605,
			"type":"VEC3"
		},
		{
			"bufferView":98,
			"componentType":5126,
			"count":605,
			"type":"VEC2"
		},
		{
			"bufferView":99,
			"componentType":5126,
			"count":605,
			"max":[
				0.19075191020965576,
				0.19628597795963287,
				0.19920097291469574
			],
			"min":[
				-0.1992480754852295,
				-0.19371400773525238,
				-0.19079901278018951
			],
			"type":"VEC3"
		},
		{
			"bufferView":100,
			"componentType":5126,
			"count":605,
			"type":"VEC3"
		},
		{
			"bufferView":101,
			"componentType":5126,
			"count":605,
			"type":"VEC2"
		},
		{
			"bufferView":102,
			"componentType":5126,
			"count":605,
			"max":[
				0.19075191020965576,
				0.19628597795963287,
				0.19920097291469574
			],
			"min":[
				-0.1992480754852295,
				-0.19371400773525238,
				-0.19079901278018951
			],
			"type":"VEC3"
		},
		{
			"bufferView":103,
			"componentType":5126,
			"count":605,
			"type":"VEC3"
		},
		{
			"bufferView":104,
			"componentType":5126,
			"count":605,
			"type":"VEC2"
		},
		{
			"bufferView":105,
			"componentType":5126,
			"count":605,
			"max":[
				0.19075191020965576,
				0.19628597795963287,
				0.19920097291469574
			],
			"min":[
				-0.1992480754852295,
				-0.19371400773525238,
				-0.19079901278018951
			],
			"type":"VEC3"
		},
		{
			"bufferView":106,
			"componentType":5126,
			"count":605,
			"type":"VEC3"
		},
		{
			"bufferView":107,
			"componentType":5126,
			"count":605,
			"type":"VEC2"
		},
		{
			"bufferView":108,
			"componentType":5126,
			"count":605,
			"max":[
				0.19075191020965576,
				0.19628597795963287,
				0.19920097291469574
			],
			"min":[
				-0.1992480754852295,
				-0.19371400773525238,
				-0.19079901278018951
			],
			"type":"VEC3"
		},
		{
			"bufferView":109,
			"componentType":5126,
			"count":605,
			"type":"VEC3"
		},
		{
			"bufferView":110,
			"componentType":5126,
			"count":605,
			"type":"VEC2"
		},
		{
			"bufferView":111,
			"componentType":5126,
			"count":605,
			"max":[
				0.19075191020965576,
				0.19628597795963287,
				0.19920097291469574
			],
			"min":[
				-0.1992480754852295,
				-0.19371400773525238,
				-0.19079901278018951
			],
			"type":"VEC3"
		},
		{
			"bufferView":112,
			"componentType":5126,
			"count":605,
			"type":"VEC3"
		},
		{
			"bufferView":113,
			"componentType":5126,
			"count":605,
			"type":"VEC2"
		},
		{
			"bufferView":114,
			"componentType":5126,
			"count":605,
			"max":[
				0.19075191020965576,
				0.19628597795963287,
				0.19920097291469574
			],
			"min":[
				-0.1992480754852295,
				-0.19371400773525238,
				-0.19079901278018951
			],
			"type":"VEC3"
		},
		{
			"bufferView":115,
			"componentType":5126,
			"count":605,
			"type":"VEC3"
		},
		{
			"bufferView":116,
			"componentType":5126,
			"count":605,
			"type":"VEC2"
		},
		{
			"bufferView":117,
			"componentType":5126,
			"count":605,
			"max":[
				0.19075191020965576,
				0.19628597795963287,
				0.19920097291469574
			],
			"min":[
				-0.1992480754852295,
				-0.19371400773525238,
				-0.19079901278018951
			],
			"type":"VEC3"
		},
		{
			"bufferView":118,
			"componentType":5126,
			"count":605,
			"type":"VEC3"
		},
		{
			"bufferView":119,
			"componentType":5126,
			"count":605,
			"type":"VEC2"
		},
		{
			"bufferView":120,
			"componentType":5126,
			"count":552,
			"max":[
				-1.674770474433899,
				-1.2333561182022095,
				31.811016082763672
			],
			"min":[
				-2.206725835800171,
				-2.174649715423584,
				31.27906036376953
			],
			"type":"VEC3"
		},
		{
			"bufferView":121,
			"componentType":5126,
			"count":552,
			"type":"VEC3"
		},
		{
			"bufferView":122,
			"componentType":5126,
			"count":552,
			"type":"VEC2"
		},
		{
			"bufferView":123,
			"componentType":5123,
			"count":852,
			"type":"SCALAR"
		},
		{
			"bufferView":124,
			"componentType":5126,
			"count":650,
			"max":[
				-1.674770474433899,
				-1.3288075923919678,
				31.19170570373535
			],
			"min":[
				-2.206725835800171,
				-2.1948139667510986,
				30.471237182617188
			],
			"type":"VEC3"
		},
		{
			"bufferView":125,
			"componentType":5126,
			"count":650,
			"type":"VEC3"
		},
		{
			"bufferView":126,
			"componentType":5126,
			"count":650,
			"type":"VEC2"
		},
		{
			"bufferView":127,
			"componentType":5123,
			"count":1056,
			"type":"SCALAR"
		},
		{
			"bufferView":128,
			"componentType":5126,
			"count":552,
			"max":[
				-1.674770474433899,
				-1.2333561182022095,
				31.811016082763672
			],
			"min":[
				-2.206725835800171,
				-2.174649715423584,
				31.27906036376953
			],
			"type":"VEC3"
		},
		{
			"bufferView":129,
			"componentType":5126,
			"count":552,
			"type":"VEC3"
		},
		{
			"bufferView":130,
			"componentType":5126,
			"count":552,
			"type":"VEC2"
		},
		{
			"bufferView":131,
			"componentType":5126,
			"count":650,
			"max":[
				-1.674770474433899,
				-1.3288075923919678,
				31.19170570373535
			],
			"min":[
				-2.206725835800171,
				-2.1948139667510986,
				30.471237182617188
			],
			"type":"VEC3"
		},
		{
			"bufferView":132,
			"componentType":5126,
			"count":650,
			"type":"VEC3"
		},
		{
			"bufferView":133,
			"componentType":5126,
			"count":650,
			"type":"VEC2"
		},
		{
			"bufferView":134,
			"componentType":5126,
			"count":552,
			"max":[
				0.22542905807495117,
				0.17336726188659668,
				0.22542953491210938
			],
			"min":[
				-0.22542810440063477,
				-0.35562169551849365,
				-0.22542953491210938
			],
			"type":"VEC3"
		},
		{
			"bufferView":135,
			"componentType":5126,
			"count":552,
			"type":"VEC3"
		},
		{
			"bufferView":136,
			"componentType":5126,
			"count":552,
			"type":"VEC2"
		},
		{
			"bufferView":137,
			"componentType":5126,
			"count":552,
			"max":[
				0.22542905807495117,
				0.17336726188659668,
				0.22542953491210938
			],
			"min":[
				-0.22542810440063477,
				-0.35562169551849365,
				-0.22542953491210938
			],
			"type":"VEC3"
		},
		{
			"bufferView":138,
			"componentType":5126,
			"count":552,
			"type":"VEC3"
		},
		{
			"bufferView":139,
			"componentType":5126,
			"count":552,
			"type":"VEC2"
		},
		{
			"bufferView":140,
			"componentType":5126,
			"count":552,
			"max":[
				0.22542905807495117,
				0.17336726188659668,
				0.22542953491210938
			],
			"min":[
				-0.22542810440063477,
				-0.35562169551849365,
				-0.22542953491210938
			],
			"type":"VEC3"
		},
		{
			"bufferView":141,
			"componentType":5126,
			"count":552,
			"type":"VEC3"
		},
		{
			"bufferView":142,
			"componentType":5126,
			"count":552,
			"type":"VEC2"
		},
		{
			"bufferView":143,
			"componentType":5126,
			"count":552,
			"max":[
				0.22542905807495117,
				0.17336726188659668,
				0.22542953491210938
			],
			"min":[
				-0.22542810440063477,
				-0.35562169551849365,
				-0.22542953491210938
			],
			"type":"VEC3"
		},
		{
			"bufferView":144,
			"componentType":5126,
			"count":552,
			"type":"VEC3"
		},
		{
			"bufferView":145,
			"componentType":5126,
			"count":552,
			"type":"VEC2"
		},
		{
			"bufferView":146,
			"componentType":5126,
			"count":552,
			"max":[
				0.22542905807495117,
				0.17336726188659668,
				0.22542953491210938
			],
			"min":[
				-0.22542810440063477,
				-0.35562169551849365,
				-0.22542953491210938
			],
			"type":"VEC3"
		},
		{
			"bufferView":147,
			"componentType":5126,
			"count":552,
			"type":"VEC3"
		},
		{
			"bufferView":148,
			"componentType":5126,
			"count":552,
			"type":"VEC2"
		},
		{
			"bufferView":149,
			"componentType":5126,
			"count":552,
			"max":[
				0.22542905807495117,
				0.17336726188659668,
				0.22542953491210938
			],
			"min":[
				-0.22542810440063477,
				-0.35562169551849365,
				-0.22542953491210938
			],
			"type":"VEC3"
		},
		{
			"bufferView":150,
			"componentType":5126,
			"count":552,
			"type":"VEC3"
		},
		{
			"bufferView":151,
			"componentType":5126,
			"count":552,
			"type":"VEC2"
		},
		{
			"bufferView":152,
			"componentType":5126,
			"count":552,
			"max":[
				0.22542905807495117,
				0.17336726188659668,
				0.22542953491210938
			],
			"min":[
				-0.22542810440063477,
				-0.35562169551849365,
				-0.22542953491210938
			],
			"type":"VEC3"
		},
		{
			"bufferView":153,
			"componentType":5126,
			"count":552,
			"type":"VEC3"
		},
		{
			"bufferView":154,
			"componentType":5126,
			"count":552,
			"type":"VEC2"
		},
		{
			"bufferView":155,
			"componentType":5126,
			"count":552,
			"max":[
				0.22542905807495117,
				0.17336726188659668,
				0.22542953491210938
			],
			"min":[
				-0.22542810440063477,
				-0.35562169551849365,
				-0.22542953491210938
			],
			"type":"VEC3"
		},
		{
			"bufferView":156,
			"componentType":5126,
			"count":552,
			"type":"VEC3"
		},
		{
			"bufferView":157,
			"componentType":5126,
			"count":552,
			"type":"VEC2"
		},
		{
			"bufferView":158,
			"componentType":5126,
			"count":552,
			"max":[
				0.22542905807495117,
				0.17336726188659668,
				0.22542953491210938
			],
			"min":[
				-0.22542810440063477,
				-0.35562169551849365,
				-0.22542953491210938
			],
			"type":"VEC3"
		},
		{
			"bufferView":159,
			"componentType":5126,
			"count":552,
			"type":"VEC3"
		},
		{
			"bufferView":160,
			"componentType":5126,
			"count":552,
			"type":"VEC2"
		},
		{
			"bufferView":161,
			"componentType":5126,
			"count":552,
			"max":[
				0.22542905807495117,
				0.17336726188659668,
				0.22542953491210938
			],
			"min":[
				-0.22542810440063477,
				-0.35562169551849365,
				-0.22542953491210938
			],
			"type":"VEC3"
		},
		{
			"bufferView":162,
			"componentType":5126,
			"count":552,
			"type":"VEC3"
		},
		{
			"bufferView":163,
			"componentType":5126,
			"count":552,
			"type":"VEC2"
		},
		{
			"bufferView":164,
			"componentType":5126,
			"count":552,
			"max":[
				0.22542905807495117,
				0.17336726188659668,
				0.22542953491210938
			],
			"min":[
				-0.22542810440063477,
				-0.35562169551849365,
				-0.22542953491210938
			],
			"type":"VEC3"
		},
		{
			"bufferView":165,
			"componentType":5126,
			"count":552,
			"type":"VEC3"
		},
		{
			"bufferView":166,
			"componentType":5126,
			"count":552,
			"type":"VEC2"
		},
		{
			"bufferView":167,
			"componentType":5126,
			"count":23,
			"max":[
				14,
				0,
				9.5
			],
			"min":[
				-9.5,
				0,
				-14
			],
			"type":"VEC3"
		},
		{
			"bufferView":168,
			"componentType":5126,
			"count":23,
			"type":"VEC3"
		},
		{
			"bufferView":169,
			"componentType":5126,
			"count":23,
			"type":"VEC2"
		},
		{
			"bufferView":170,
			"componentType":5123,
			"count":57,
			"type":"SCALAR"
		}
	],
	"bufferViews":[
		{
			"buffer":0,
			"byteLength":48,
			"byteOffset":0,
			"target":34962
		},
		{
			"buffer":0,
			"byteLength":48,
			"byteOffset":48,
			"target":34962
		},
		{
			"buffer":0,
			"byteLength":32,
			"byteOffset":96,
			"target":34962
		},
		{
			"buffer":0,
			"byteLength":12,
			"byteOffset":128,
			"target":34963
		},
		{
			"buffer":0,
			"byteLength":2616,
			"byteOffset":140,
			"target":34962
		},
		{
			"buffer":0,
			"byteLength":2616,
			"byteOffset":2756,
			"target":34962
		},
		{
			"buffer":0,
			"byteLength":1744,
			"byteOffset":5372,
			"target":34962
		},
		{
			"buffer":0,
			"byteLength":852,
			"byteOffset":7116,
			"target":34963
		},
		{
			"buffer":0,
			"byteLength":240,
			"byteOffset":7968,
			"target":34962
		},
		{
			"buffer":0,
			"byteLength":240,
			"byteOffset":8208,
			"target":34962
		},
		{
			"buffer":0,
			"byteLength":160,
			"byteOffset":8448,
			"target":34962
		},
		{
			"buffer":0,
			"byteLength":108,
			"byteOffset":8608,
			"target":34963
		},
		{
			"buffer":0,
			"byteLength":12432,
			"byteOffset":8716,
			"target":34962
		},
		{
			"buffer":0,
			"byteLength":12432,
			"byteOffset":21148,
			"target":34962
		},
		{
			"buffer":0,
			"byteLength":8288,
			"byteOffset":33580,
			"target":34962
		},
		{
			"buffer":0,
			"byteLength":3336,
			"byteOffset":41868,
			"target":34963
		},
		{
			"buffer":0,
			"byteLength":12432,
			"byteOffset":45204,
			"target":34962
		},
		{
			"buffer":0,
			"byteLength":12432,
			"byteOffset":57636,
			"target":34962
		},
		{
			"buffer":0,
			"byteLength":8288,
			"byteOffset":70068,
			"target":34962
		},
		{
			"buffer":0,
			"byteLength":12432,
			"byteOffset":78356,
			"target":34962
		},
		{
			"buffer":0,
			"byteLength":12432,
			"byteOffset":90788,
			"target":34962
		},
		{
			"buffer":0,
			"byteLength":8288,
			"byteOffset":103220,
			"target":34962
		},
		{
			"buffer":0,
			"byteLength":12432,
			"byteOffset":111508,
			"target":34962
		},
		{
			"buffer":0,
			"byteLength":12432,
			"byteOffset":123940,
			"target":34962
		},
		{
			"buffer":0,
			"byteLength":8288,
			"byteOffset":136372,
			"target":34962
		},
		{
			"buffer":0,
			"byteLength":12432,
			"byteOffset":144660,
			"target":34962
		},
		{
			"buffer":0,
			"byteLength":12432,
			"byteOffset":157092,
			"target":34962
		},
		{
			"buffer":0,
			"byteLength":8288,
			"byteOffset":169524,
			"target":34962
		},
		{
			"buffer":0,
			"byteLength":12432,
			"byteOffset":177812,
			"target":34962
		},
		{
			"buffer":0,
			"byteLength":12432,
			"byteOffset":190244,
			"target":34962
		},
		{
			"buffer":0,
			"byteLength":8288,
			"byteOffset":202676,
			"target":34962
		},
		{
			"buffer":0,
			"byteLength":12432,
			"byteOffset":210964,
			"target":34962
		},
		{
			"buffer":0,
			"byteLength":12432,
			"byteOffset":223396,
			"target":34962
		},
		{
			"buffer":0,
			"byteLength":8288,
			"byteOffset":235828,
			"target":34962
		},
		{
			"buffer":0,
			"byteLength":12432,
			"byteOffset":244116,
			"target":34962
		},
		{
			"buffer":0,
			"byteLength":12432,
			"byteOffset":256548,
			"target":34962
		},
		{
			"buffer":0,
			"byteLength":8288,
			"byteOffset":268980,
			"target":34962
		},
		{
			"buffer":0,
			"byteLength":7260,
			"byteOffset":277268,
			"target":34962
		},
		{
			"buffer":0,
			"byteLength":7260,
			"byteOffset":284528,
			"target":34962
		},
		{
			"buffer":0,
			"byteLength":4840,
			"byteOffset":291788,
			"target":34962
		},
		{
			"buffer":0,
			"byteLength":2508,
			"byteOffset":296628,
			"target":34963
		},
		{
			"buffer":0,
			"byteLength":7260,
			"byteOffset":299136,
			"target":34962
		},
		{
			"buffer":0,
			"byteLength":7260,
			"byteOffset":306396,
			"target":34962
		},
		{
			"buffer":0,
			"byteLength":4840,
			"byteOffset":313656,
			"target":34962
		},
		{
			"buffer":0,
			"byteLength":7260,
			"byteOffset":318496,
			"target":34962
		},
		{
			"buffer":0,
			"byteLength":7260,
			"byteOffset":325756,
			"target":34962
		},
		{
			"buffer":0,
			"byteLength":4840,
			"byteOffset":333016,
			"target":34962
		},
		{
			"buffer":0,
			"byteLength":7260,
			"byteOffset":337856,
			"target":34962
		},
		{
			"buffer":0,
			"byteLength":7260,
			"byteOffset":345116,
			"target":34962
		},
		{
			"buffer":0,
			"byteLength":4840,
			"byteOffset":352376,
			"target":34962
		},
		{
			"buffer":0,
			"byteLength":5520,
			"byteOffset":357216,
			"target":34962
		},
		{
			"buffer":0,
			"byteLength":5520,
			"byteOffset":362736,
			"target":34962
		},
		{
			"buffer":0,
			"byteLength":3680,
			"byteOffset":368256,
			"target":34962
		},
		{
			"buffer":0,
			"byteLength":1488,
			"byteOffset":371936,
			"target":34963
		},
		{
			"buffer":0,
			"byteLength":5520,
			"byteOffset":373424,
			"target":34962
		},
		{
			"buffer":0,
			"byteLength":5520,
			"byteOffset":378944,
			"target":34962
		},
		{
			"buffer":0,
			"byteLength":3680,
			"byteOffset":384464,
			"target":34962
		},
		{
			"buffer":0,
			"byteLength":5520,
			"byteOffset":388144,
			"target":34962
		},
		{
			"buffer":0,
			"byteLength":5520,
			"byteOffset":393664,
			"target":34962
		},
		{
			"buffer":0,
			"byteLength":3680,
			"byteOffset":399184,
			"target":34962
		},
		{
			"buffer":0,
			"byteLength":5520,
			"byteOffset":402864,
			"target":34962
		},
		{
			"buffer":0,
			"byteLength":5520,
			"byteOffset":408384,
			"target":34962
		},
		{
			"buffer":0,
			"byteLength":3680,
			"byteOffset":413904,
			"target":34962
		},
		{
			"buffer":0,
			"byteLength":6624,
			"byteOffset":417584,
			"target":34962
		},
		{
			"buffer":0,
			"byteLength":6624,
			"byteOffset":424208,
			"target":34962
		},
		{
			"buffer":0,
			"byteLength":4416,
			"byteOffset":430832,
			"target":34962
		},
		{
			"buffer":0,
			"byteLength":1704,
			"byteOffset":435248,
			"target":34963
		},
		{
			"buffer":0,
			"byteLength":6624,
			"byteOffset":436952,
			"target":34962
		},
		{
			"buffer":0,
			"byteLength":6624,
			"byteOffset":443576,
			"target":34962
		},
		{
			"buffer":0,
			"byteLength":4416,
			"byteOffset":450200,
			"target":34962
		},
		{
			"buffer":0,
			"byteLength":6624,
			"byteOffset":454616,
			"target":34962
		},
		{
			"buffer":0,
			"byteLength":6624,
			"byteOffset":461240,
			"target":34962
		},
		{
			"buffer":0,
			"byteLength":4416,
			"byteOffset":467864,
			"target":34962
		},
		{
			"buffer":0,
			"byteLength":6624,
			"byteOffset":472280,
			"target":34962
		},
		{
			"buffer":0,
			"byteLength":6624,
			"byteOffset":478904,
			"target":34962
		},
		{
			"buffer":0,
			"byteLength":4416,
			"byteOffset":485528,
			"target":34962
		},
		{
			"buffer":0,
			"byteLength":6624,
			"byteOffset":489944,
			"target":34962
		},
		{
			"buffer":0,
			"byteLength":6624,
			"byteOffset":496568,
			"target":34962
		},
		{
			"buffer":0,
			"byteLength":4416,
			"byteOffset":503192,
			"target":34962
		},
		{
			"buffer":0,
			"byteLength":6624,
			"byteOffset":507608,
			"target":34962
		},
		{
			"buffer":0,
			"byteLength":6624,
			"byteOffset":514232,
			"target":34962
		},
		{
			"buffer":0,
			"byteLength":4416,
			"byteOffset":520856,
			"target":34962
		},
		{
			"buffer":0,
			"byteLength":11160,
			"byteOffset":525272,
			"target":34962
		},
		{
			"buffer":0,
			"byteLength":11160,
			"byteOffset":536432,
			"target":34962
		},
		{
			"buffer":0,
			"byteLength":7440,
			"byteOffset":547592,
			"target":34962
		},
		{
			"buffer":0,
			"byteLength":4800,
			"byteOffset":555032,
			"target":34963
		},
		{
			"buffer":0,
			"byteLength":12720,
			"byteOffset":559832,
			"target":34962
		},
		{
			"buffer":0,
			"byteLength":12720,
			"byteOffset":572552,
			"target":34962
		},
		{
			"buffer":0,
			"byteLength":8480,
			"byteOffset":585272,
			"target":34962
		},
		{
			"buffer":0,
			"byteLength":3336,
			"byteOffset":593752,
			"target":34963
		},
		{
			"buffer":0,
			"byteLength":7260,
			"byteOffset":597088,
			"target":34962
		},
		{
			"buffer":0,
			"byteLength":7260,
			"byteOffset":604348,
			"target":34962
		},
		{
			"buffer":0,
			"byteLength":4840,
			"byteOffset":611608,
			"target":34962
		},
		{
			"buffer":0,
			"byteLength":7260,
			"byteOffset":616448,
			"target":34962
		},
		{
			"buffer":0,
			"byteLength":7260,
			"byteOffset":623708,
			"target":34962
		},
		{
			"buffer":0,
			"byteLength":4840,
			"byteOffset":630968,
			"target":34962
		},
		{
			"buffer":0,
			"byteLength":7260,
			"byteOffset":635808,
			"target":34962
		},
		{
			"buffer":0,
			"byteLength":7260,
			"byteOffset":643068,
			"target":34962
		},
		{
			"buffer":0,
			"byteLength":4840,
			"byteOffset":650328,
			"target":34962
		},
		{
			"buffer":0,
			"byteLength":7260,
			"byteOffset":655168,
			"target":34962
		},
		{
			"buffer":0,
			"byteLength":7260,
			"byteOffset":662428,
			"target":34962
		},
		{
			"buffer":0,
			"byteLength":4840,
			"byteOffset":669688,
			"target":34962
		},
		{
			"buffer":0,
			"byteLength":7260,
			"byteOffset":674528,
			"target":34962
		},
		{
			"buffer":0,
			"byteLength":7260,
			"byteOffset":681788,
			"target":34962
		},
		{
			"buffer":0,
			"byteLength":4840,
			"byteOffset":689048,
			"target":34962
		},
		{
			"buffer":0,
			"byteLength":7260,
			"byteOffset":693888,
			"target":34962
		},
		{
			"buffer":0,
			"byteLength":7260,
			"byteOffset":701148,
			"target":34962
		},
		{
			"buffer":0,
			"byteLength":4840,
			"byteOffset":708408,
			"target":34962
		},
		{
			"buffer":0,
			"byteLength":7260,
			"byteOffset":713248,
			"target":34962
		},
		{
			"buffer":0,
			"byteLength":7260,
			"byteOffset":720508,
			"target":34962
		},
		{
			"buffer":0,
			"byteLength":4840,
			"byteOffset":727768,
			"target":34962
		},
		{
			"buffer":0,
			"byteLength":7260,
			"byteOffset":732608,
			"target":34962
		},
		{
			"buffer":0,
			"byteLength":7260,
			"byteOffset":739868,
			"target":34962
		},
		{
			"buffer":0,
			"byteLength":4840,
			"byteOffset":747128,
			"target":34962
		},
		{
			"buffer":0,
			"byteLength":7260,
			"byteOffset":751968,
			"target":34962
		},
		{
			"buffer":0,
			"byteLength":7260,
			"byteOffset":759228,
			"target":34962
		},
		{
			"buffer":0,
			"byteLength":4840,
			"byteOffset":766488,
			"target":34962
		},
		{
			"buffer":0,
			"byteLength":7260,
			"byteOffset":771328,
			"target":34962
		},
		{
			"buffer":0,
			"byteLength":7260,
			"byteOffset":778588,
			"target":34962
		},
		{
			"buffer":0,
			"byteLength":4840,
			"byteOffset":785848,
			"target":34962
		},
		{
			"buffer":0,
			"byteLength":6624,
			"byteOffset":790688,
			"target":34962
		},
		{
			"buffer":0,
			"byteLength":6624,
			"byteOffset":797312,
			"target":34962
		},
		{
			"buffer":0,
			"byteLength":4416,
			"byteOffset":803936,
			"target":34962
		},
		{
			"buffer":0,
			"byteLength":1704,
			"byteOffset":808352,
			"target":34963
		},
		{
			"buffer":0,
			"byteLength":7800,
			"byteOffset":810056,
			"target":34962
		},
		{
			"buffer":0,
			"byteLength":7800,
			"byteOffset":817856,
			"target":34962
		},
		{
			"buffer":0,
			"byteLength":5200,
			"byteOffset":825656,
			"target":34962
		},
		{
			"buffer":0,
			"byteLength":2112,
			"byteOffset":830856,
			"target":34963
		},
		{
			"buffer":0,
			"byteLength":6624,
			"byteOffset":832968,
			"target":34962
		},
		{
			"buffer":0,
			"byteLength":6624,
			"byteOffset":839592,
			"target":34962
		},
		{
			"buffer":0,
			"byteLength":4416,
			"byteOffset":846216,
			"target":34962
		},
		{
			"buffer":0,
			"byteLength":7800,
			"byteOffset":850632,
			"target":34962
		},
		{
			"buffer":0,
			"byteLength":7800,
			"byteOffset":858432,
			"target":34962
		},
		{
			"buffer":0,
			"byteLength":5200,
			"byteOffset":866232,
			"target":34962
		},
		{
			"buffer":0,
			"byteLength":6624,
			"byteOffset":871432,
			"target":34962
		},
		{
			"buffer":0,
			"byteLength":6624,
			"byteOffset":878056,
			"target":34962
		},
		{
			"buffer":0,
			"byteLength":4416,
			"byteOffset":884680,
			"target":34962
		},
		{
			"buffer":0,
			"byteLength":6624,
			"byteOffset":889096,
			"target":34962
		},
		{
			"buffer":0,
			"byteLength":6624,
			"byteOffset":895720,
			"target":34962
		},
		{
			"buffer":0,
			"byteLength":4416,
			"byteOffset":902344,
			"target":34962
		},
		{
			"buffer":0,
			"byteLength":6624,
			"byteOffset":906760,
			"target":34962
		},
		{
			"buffer":0,
			"byteLength":6624,
			"byteOffset":913384,
			"target":34962
		},
		{
			"buffer":0,
			"byteLength":4416,
			"byteOffset":920008,
			"target":34962
		},
		{
			"buffer":0,
			"byteLength":6624,
			"byteOffset":924424,
			"target":34962
		},
		{
			"buffer":0,
			"byteLength":6624,
			"byteOffset":931048,
			"target":34962
		},
		{
			"buffer":0,
			"byteLength":4416,
			"byteOffset":937672,
			"target":34962
		},
		{
			"buffer":0,
			"byteLength":6624,
			"byteOffset":942088,
			"target":34962
		},
		{
			"buffer":0,
			"byteLength":6624,
			"byteOffset":948712,
			"target":34962
		},
		{
			"buffer":0,
			"byteLength":4416,
			"byteOffset":955336,
			"target":34962
		},
		{
			"buffer":0,
			"byteLength":6624,
			"byteOffset":959752,
			"target":34962
		},
		{
			"buffer":0,
			"byteLength":6624,
			"byteOffset":966376,
			"target":34962
		},
		{
			"buffer":0,
			"byteLength":4416,
			"byteOffset":973000,
			"target":34962
		},
		{
			"buffer":0,
			"byteLength":6624,
			"byteOffset":977416,
			"target":34962
		},
		{
			"buffer":0,
			"byteLength":6624,
			"byteOffset":984040,
			"target":34962
		},
		{
			"buffer":0,
			"byteLength":4416,
			"byteOffset":990664,
			"target":34962
		},
		{
			"buffer":0,
			"byteLength":6624,
			"byteOffset":995080,
			"target":34962
		},
		{
			"buffer":0,
			"byteLength":6624,
			"byteOffset":1001704,
			"target":34962
		},
		{
			"buffer":0,
			"byteLength":4416,
			"byteOffset":1008328,
			"target":34962
		},
		{
			"buffer":0,
			"byteLength":6624,
			"byteOffset":1012744,
			"target":34962
		},
		{
			"buffer":0,
			"byteLength":6624,
			"byteOffset":1019368,
			"target":34962
		},
		{
			"buffer":0,
			"byteLength":4416,
			"byteOffset":1025992,
			"target":34962
		},
		{
			"buffer":0,
			"byteLength":6624,
			"byteOffset":1030408,
			"target":34962
		},
		{
			"buffer":0,
			"byteLength":6624,
			"byteOffset":1037032,
			"target":34962
		},
		{
			"buffer":0,
			"byteLength":4416,
			"byteOffset":1043656,
			"target":34962
		},
		{
			"buffer":0,
			"byteLength":6624,
			"byteOffset":1048072,
			"target":34962
		},
		{
			"buffer":0,
			"byteLength":6624,
			"byteOffset":1054696,
			"target":34962
		},
		{
			"buffer":0,
			"byteLength":4416,
			"byteOffset":1061320,
			"target":34962
		},
		{
			"buffer":0,
			"byteLength":276,
			"byteOffset":1065736,
			"target":34962
		},
		{
			"buffer":0,
			"byteLength":276,
			"byteOffset":1066012,
			"target":34962
		},
		{
			"buffer":0,
			"byteLength":184,
			"byteOffset":1066288,
			"target":34962
		},
		{
			"buffer":0,
			"byteLength":114,
			"byteOffset":1066472,
			"target":34963
		}
	],
	"buffers":[
		{
			"byteLength":1066588,
			"uri":"room_L.bin"
		}
	]
}
