{
	"asset":{
		"generator":"Khronos glTF Blender I/O v5.1.19",
		"version":"2.0"
	},
	"scene":0,
	"scenes":[
		{
			"name":"Scene",
			"nodes":[
				0,
				1,
				2,
				3,
				4,
				5,
				6,
				7,
				8,
				9,
				10,
				11,
				12,
				13,
				14,
				15,
				16,
				17,
				18,
				19,
				20,
				21,
				22,
				23,
				24,
				25,
				26,
				27,
				28,
				29,
				30,
				31,
				32,
				33,
				34,
				35,
				36,
				37,
				38,
				39,
				40,
				41,
				42,
				43,
				44,
				45,
				46,
				47,
				48,
				49,
				50,
				51
			]
		}
	],
	"nodes":[
		{
			"mesh":0,
			"name":"podloga_grid"
		},
		{
			"mesh":1,
			"name":"sciany"
		},
		{
			"mesh":2,
			"name":"kraty"
		},
		{
			"mesh":3,
			"name":"kraty_3"
		},
		{
			"mesh":4,
			"name":"kraty_2"
		},
		{
			"mesh":5,
			"name":"kraty_4"
		},
		{
			"mesh":6,
			"name":"kraty_6"
		},
		{
			"mesh":7,
			"name":"kraty_7"
		},
		{
			"mesh":8,
			"name":"kraty_8"
		},
		{
			"mesh":9,
			"name":"kraty_9"
		},
		{
			"mesh":10,
			"name":"wengle_2"
		},
		{
			"mesh":11,
			"name":"pochodnia"
		},
		{
			"mesh":12,
			"name":"wengle"
		},
		{
			"mesh":13,
			"name":"pochodnia_2"
		},
		{
			"mesh":14,
			"name":"wengle_3"
		},
		{
			"mesh":15,
			"name":"pochodnia_3"
		},
		{
			"mesh":16,
			"name":"wengle_6"
		},
		{
			"mesh":17,
			"name":"pochodnia_4"
		},
		{
			"mesh":18,
			"name":"wengle_7"
		},
		{
			"mesh":19,
			"name":"pochodnia_5"
		},
		{
			"mesh":20,
			"name":"wengle_8"
		},
		{
			"mesh":21,
			"name":"pochodnia_6"
		},
		{
			"mesh":22,
			"name":"wengle_9"
		},
		{
			"mesh":23,
			"name":"pochodnia_7"
		},
		{
			"mesh":24,
			"name":"wengle_10"
		},
		{
			"mesh":25,
			"name":"pochodnia_8"
		},
		{
			"mesh":26,
			"name":"wengle_4"
		},
		{
			"mesh":27,
			"name":"pochodnia_9"
		},
		{
			"mesh":28,
			"name":"wengle_5"
		},
		{
			"mesh":29,
			"name":"pochodnia_10"
		},
		{
			"mesh":30,
			"name":"sterta_kosci_2"
		},
		{
			"mesh":31,
			"name":"sterta_kosci"
		},
		{
			"mesh":32,
			"name":"dzban_duzy"
		},
		{
			"mesh":33,
			"name":"dzban_maly"
		},
		{
			"mesh":34,
			"name":"wazon"
		},
		{
			"mesh":35,
			"name":"dzban_sredni"
		},
		{
			"mesh":36,
			"name":"dzban_maly_2"
		},
		{
			"mesh":37,
			"name":"dzban_duzy_2"
		},
		{
			"mesh":38,
			"name":"sterta_kosci_3"
		},
		{
			"mesh":39,
			"name":"lancuch_3"
		},
		{
			"mesh":40,
			"name":"klatka_3"
		},
		{
			"mesh":41,
			"name":"szkielet_wisi_2"
		},
		{
			"mesh":42,
			"name":"lancuch_2"
		},
		{
			"mesh":43,
			"name":"klatka_2"
		},
		{
			"mesh":44,
			"name":"lancuch_4"
		},
		{
			"mesh":45,
			"name":"klatka_4"
		},
		{
			"mesh":46,
			"name":"lancuch"
		},
		{
			"mesh":47,
			"name":"klatka"
		},
		{
			"mesh":48,
			"name":"szkielet_wisi"
		},
		{
			"mesh":49,
			"name":"lancuch_5"
		},
		{
			"mesh":50,
			"name":"klatka_5"
		},
		{
			"mesh":51,
			"name":"szkielet_wisi_3"
		}
	],
	"materials":[
		{
			"doubleSided":true,
			"name":"Material.001",
			"pbrMetallicRoughness":{
				"baseColorFactor":[
					0.800000011920929,
					0.800000011920929,
					0.800000011920929,
					1
				],
				"metallicFactor":0,
				"roughnessFactor":0.5
			}
		},
		{
			"doubleSided":true,
			"name":"Material",
			"pbrMetallicRoughness":{
				"baseColorFactor":[
					0.800000011920929,
					0.800000011920929,
					0.800000011920929,
					1
				],
				"metallicFactor":0,
				"roughnessFactor":0.5
			}
		}
	],
	"meshes":[
		{
			"name":"Plane",
			"primitives":[
				{
					"attributes":{
						"POSITION":0,
						"NORMAL":1,
						"TEXCOORD_0":2
					},
					"indices":3
				}
			]
		},
		{
			"name":"Plane.001",
			"primitives":[
				{
					"attributes":{
						"POSITION":4,
						"NORMAL":5,
						"TEXCOORD_0":6
					},
					"indices":7
				}
			]
		},
		{
			"name":"Plane.003",
			"primitives":[
				{
					"attributes":{
						"POSITION":8,
						"NORMAL":9,
						"TEXCOORD_0":10
					},
					"indices":11
				}
			]
		},
		{
			"name":"Plane.005",
			"primitives":[
				{
					"attributes":{
						"POSITION":12,
						"NORMAL":13,
						"TEXCOORD_0":14
					},
					"indices":15
				}
			]
		},
		{
			"name":"Plane.007",
			"primitives":[
				{
					"attributes":{
						"POSITION":16,
						"NORMAL":17,
						"TEXCOORD_0":18
					},
					"indices":19
				}
			]
		},
		{
			"name":"Plane.009",
			"primitives":[
				{
					"attributes":{
						"POSITION":20,
						"NORMAL":21,
						"TEXCOORD_0":22
					},
					"indices":23
				}
			]
		},
		{
			"name":"Plane.013",
			"primitives":[
				{
					"attributes":{
						"POSITION":24,
						"NORMAL":25,
						"TEXCOORD_0":26
					},
					"indices":27
				}
			]
		},
		{
			"name":"Plane.014",
			"primitives":[
				{
					"attributes":{
						"POSITION":28,
						"NORMAL":29,
						"TEXCOORD_0":30
					},
					"indices":31
				}
			]
		},
		{
			"name":"Plane.015",
			"primitives":[
				{
					"attributes":{
						"POSITION":32,
						"NORMAL":33,
						"TEXCOORD_0":34
					},
					"indices":35
				}
			]
		},
		{
			"name":"Plane.016",
			"primitives":[
				{
					"attributes":{
						"POSITION":36,
						"NORMAL":37,
						"TEXCOORD_0":38
					},
					"indices":39
				}
			]
		},
		{
			"name":"Cylinder.007",
			"primitives":[
				{
					"attributes":{
						"POSITION":40,
						"NORMAL":41,
						"TEXCOORD_0":42
					},
					"indices":43
				}
			]
		},
		{
			"name":"Cylinder.014",
			"primitives":[
				{
					"attributes":{
						"POSITION":44,
						"NORMAL":45,
						"TEXCOORD_0":46
					},
					"indices":47
				}
			]
		},
		{
			"name":"Cylinder.015",
			"primitives":[
				{
					"attributes":{
						"POSITION":48,
						"NORMAL":49,
						"TEXCOORD_0":50
					},
					"indices":51
				}
			]
		},
		{
			"name":"Cylinder.018",
			"primitives":[
				{
					"attributes":{
						"POSITION":52,
						"NORMAL":53,
						"TEXCOORD_0":54
					},
					"indices":55
				}
			]
		},
		{
			"name":"Cylinder.019",
			"primitives":[
				{
					"attributes":{
						"POSITION":56,
						"NORMAL":57,
						"TEXCOORD_0":58
					},
					"indices":59
				}
			]
		},
		{
			"name":"Cylinder.022",
			"primitives":[
				{
					"attributes":{
						"POSITION":60,
						"NORMAL":61,
						"TEXCOORD_0":62
					},
					"indices":63
				}
			]
		},
		{
			"name":"Cylinder.024",
			"primitives":[
				{
					"attributes":{
						"POSITION":64,
						"NORMAL":65,
						"TEXCOORD_0":66
					},
					"indices":67
				}
			]
		},
		{
			"name":"Cylinder.028",
			"primitives":[
				{
					"attributes":{
						"POSITION":68,
						"NORMAL":69,
						"TEXCOORD_0":70
					},
					"indices":71
				}
			]
		},
		{
			"name":"Cylinder.034",
			"primitives":[
				{
					"attributes":{
						"POSITION":72,
						"NORMAL":73,
						"TEXCOORD_0":74
					},
					"indices":75
				}
			]
		},
		{
			"name":"Cylinder.037",
			"primitives":[
				{
					"attributes":{
						"POSITION":76,
						"NORMAL":77,
						"TEXCOORD_0":78
					},
					"indices":79
				}
			]
		},
		{
			"name":"Cylinder.038",
			"primitives":[
				{
					"attributes":{
						"POSITION":80,
						"NORMAL":81,
						"TEXCOORD_0":82
					},
					"indices":75
				}
			]
		},
		{
			"name":"Cylinder.041",
			"primitives":[
				{
					"attributes":{
						"POSITION":83,
						"NORMAL":84,
						"TEXCOORD_0":85
					},
					"indices":86
				}
			]
		},
		{
			"name":"Cylinder.042",
			"primitives":[
				{
					"attributes":{
						"POSITION":87,
						"NORMAL":88,
						"TEXCOORD_0":89
					},
					"indices":90
				}
			]
		},
		{
			"name":"Cylinder.045",
			"primitives":[
				{
					"attributes":{
						"POSITION":91,
						"NORMAL":92,
						"TEXCOORD_0":93
					},
					"indices":94
				}
			]
		},
		{
			"name":"Cylinder.046",
			"primitives":[
				{
					"attributes":{
						"POSITION":95,
						"NORMAL":96,
						"TEXCOORD_0":97
					},
					"indices":90
				}
			]
		},
		{
			"name":"Cylinder.049",
			"primitives":[
				{
					"attributes":{
						"POSITION":98,
						"NORMAL":99,
						"TEXCOORD_0":100
					},
					"indices":101
				}
			]
		},
		{
			"name":"Cylinder.050",
			"primitives":[
				{
					"attributes":{
						"POSITION":102,
						"NORMAL":103,
						"TEXCOORD_0":104
					},
					"indices":105
				}
			]
		},
		{
			"name":"Cylinder.053",
			"primitives":[
				{
					"attributes":{
						"POSITION":106,
						"NORMAL":107,
						"TEXCOORD_0":108
					},
					"indices":109
				}
			]
		},
		{
			"name":"Cylinder.056",
			"primitives":[
				{
					"attributes":{
						"POSITION":110,
						"NORMAL":111,
						"TEXCOORD_0":112
					},
					"indices":113
				}
			]
		},
		{
			"name":"Cylinder.057",
			"primitives":[
				{
					"attributes":{
						"POSITION":114,
						"NORMAL":115,
						"TEXCOORD_0":116
					},
					"indices":117
				}
			]
		},
		{
			"name":"Cube.015",
			"primitives":[
				{
					"attributes":{
						"POSITION":118,
						"NORMAL":119,
						"TEXCOORD_0":120
					},
					"indices":121
				},
				{
					"attributes":{
						"POSITION":122,
						"NORMAL":123,
						"TEXCOORD_0":124
					},
					"indices":125,
					"material":0
				}
			]
		},
		{
			"name":"Cube.045",
			"primitives":[
				{
					"attributes":{
						"POSITION":126,
						"NORMAL":127,
						"TEXCOORD_0":128
					},
					"indices":129
				},
				{
					"attributes":{
						"POSITION":130,
						"NORMAL":131,
						"TEXCOORD_0":132
					},
					"indices":133,
					"material":0
				}
			]
		},
		{
			"name":"Cylinder.058",
			"primitives":[
				{
					"attributes":{
						"POSITION":134,
						"NORMAL":135,
						"TEXCOORD_0":136
					},
					"indices":137
				}
			]
		},
		{
			"name":"Cylinder.059",
			"primitives":[
				{
					"attributes":{
						"POSITION":138,
						"NORMAL":139,
						"TEXCOORD_0":140
					},
					"indices":141
				}
			]
		},
		{
			"name":"Cylinder.060",
			"primitives":[
				{
					"attributes":{
						"POSITION":142,
						"NORMAL":143,
						"TEXCOORD_0":144
					},
					"indices":145
				}
			]
		},
		{
			"name":"Cylinder.061",
			"primitives":[
				{
					"attributes":{
						"POSITION":146,
						"NORMAL":147,
						"TEXCOORD_0":148
					},
					"indices":149
				}
			]
		},
		{
			"name":"Cylinder.062",
			"primitives":[
				{
					"attributes":{
						"POSITION":150,
						"NORMAL":151,
						"TEXCOORD_0":152
					},
					"indices":153
				}
			]
		},
		{
			"name":"Cylinder.063",
			"primitives":[
				{
					"attributes":{
						"POSITION":154,
						"NORMAL":155,
						"TEXCOORD_0":156
					},
					"indices":157
				}
			]
		},
		{
			"name":"Cube.048",
			"primitives":[
				{
					"attributes":{
						"POSITION":158,
						"NORMAL":159,
						"TEXCOORD_0":160
					},
					"indices":161,
					"material":0
				},
				{
					"attributes":{
						"POSITION":162,
						"NORMAL":163,
						"TEXCOORD_0":164
					},
					"indices":165
				}
			]
		},
		{
			"name":"Torus.005",
			"primitives":[
				{
					"attributes":{
						"POSITION":166,
						"NORMAL":167,
						"TEXCOORD_0":168
					},
					"indices":169
				}
			]
		},
		{
			"name":"Cylinder.017",
			"primitives":[
				{
					"attributes":{
						"POSITION":170,
						"NORMAL":171,
						"TEXCOORD_0":172
					},
					"indices":173
				}
			]
		},
		{
			"name":"Cube.044",
			"primitives":[
				{
					"attributes":{
						"POSITION":174,
						"NORMAL":175,
						"TEXCOORD_0":176
					},
					"indices":177
				},
				{
					"attributes":{
						"POSITION":178,
						"NORMAL":179,
						"TEXCOORD_0":180
					},
					"indices":181,
					"material":1
				}
			]
		},
		{
			"name":"Torus.001",
			"primitives":[
				{
					"attributes":{
						"POSITION":182,
						"NORMAL":183,
						"TEXCOORD_0":184
					},
					"indices":185
				}
			]
		},
		{
			"name":"Cylinder.001",
			"primitives":[
				{
					"attributes":{
						"POSITION":186,
						"NORMAL":187,
						"TEXCOORD_0":188
					},
					"indices":173
				}
			]
		},
		{
			"name":"Torus.002",
			"primitives":[
				{
					"attributes":{
						"POSITION":189,
						"NORMAL":190,
						"TEXCOORD_0":191
					},
					"indices":192
				}
			]
		},
		{
			"name":"Cylinder.002",
			"primitives":[
				{
					"attributes":{
						"POSITION":193,
						"NORMAL":194,
						"TEXCOORD_0":195
					},
					"indices":196
				}
			]
		},
		{
			"name":"Torus.003",
			"primitives":[
				{
					"attributes":{
						"POSITION":197,
						"NORMAL":198,
						"TEXCOORD_0":199
					},
					"indices":200
				}
			]
		},
		{
			"name":"Cylinder.003",
			"primitives":[
				{
					"attributes":{
						"POSITION":201,
						"NORMAL":202,
						"TEXCOORD_0":203
					},
					"indices":204
				}
			]
		},
		{
			"name":"Cube.001",
			"primitives":[
				{
					"attributes":{
						"POSITION":205,
						"NORMAL":206,
						"TEXCOORD_0":207
					},
					"indices":208
				},
				{
					"attributes":{
						"POSITION":209,
						"NORMAL":210,
						"TEXCOORD_0":211
					},
					"indices":212,
					"material":1
				}
			]
		},
		{
			"name":"Torus.004",
			"primitives":[
				{
					"attributes":{
						"POSITION":213,
						"NORMAL":214,
						"TEXCOORD_0":215
					},
					"indices":216
				}
			]
		},
		{
			"name":"Cylinder.004",
			"primitives":[
				{
					"attributes":{
						"POSITION":217,
						"NORMAL":218,
						"TEXCOORD_0":219
					},
					"indices":220
				}
			]
		},
		{
			"name":"Cube.002",
			"primitives":[
				{
					"attributes":{
						"POSITION":221,
						"NORMAL":222,
						"TEXCOORD_0":223
					},
					"indices":224
				},
				{
					"attributes":{
						"POSITION":225,
						"NORMAL":226,
						"TEXCOORD_0":227
					},
					"indices":228,
					"material":1
				}
			]
		}
	],
	"accessors":[
		{
			"bufferView":0,
			"componentType":5126,
			"count":4,
			"max":[
				14,
				0,
				14
			],
			"min":[
				-14,
				0,
				-14
			],
			"type":"VEC3"
		},
		{
			"bufferView":1,
			"componentType":5126,
			"count":4,
			"type":"VEC3"
		},
		{
			"bufferView":2,
			"componentType":5126,
			"count":4,
			"type":"VEC2"
		},
		{
			"bufferView":3,
			"componentType":5123,
			"count":6,
			"type":"SCALAR"
		},
		{
			"bufferView":4,
			"componentType":5126,
			"count":904,
			"max":[
				14,
				2,
				9.5
			],
			"min":[
				-14,
				0,
				-9.5
			],
			"type":"VEC3"
		},
		{
			"bufferView":5,
			"componentType":5126,
			"count":904,
			"type":"VEC3"
		},
		{
			"bufferView":6,
			"componentType":5126,
			"count":904,
			"type":"VEC2"
		},
		{
			"bufferView":7,
			"componentType":5123,
			"count":1944,
			"type":"SCALAR"
		},
		{
			"bufferView":8,
			"componentType":5126,
			"count":1192,
			"max":[
				3.2199599742889404,
				1.987910270690918,
				6.670206546783447
			],
			"min":[
				1.054086446762085,
				-0.011357784271240234,
				6.481125831604004
			],
			"type":"VEC3"
		},
		{
			"bufferView":9,
			"componentType":5126,
			"count":1192,
			"type":"VEC3"
		},
		{
			"bufferView":10,
			"componentType":5126,
			"count":1192,
			"type":"VEC2"
		},
		{
			"bufferView":11,
			"componentType":5123,
			"count":3204,
			"type":"SCALAR"
		},
		{
			"bufferView":12,
			"componentType":5126,
			"count":1204,
			"max":[
				7.595636367797852,
				1.9830905199050903,
				6.670206546783447
			],
			"min":[
				5.429762840270996,
				-0.01617753505706787,
				5.711976051330566
			],
			"type":"VEC3"
		},
		{
			"bufferView":13,
			"componentType":5126,
			"count":1204,
			"type":"VEC3"
		},
		{
			"bufferView":14,
			"componentType":5126,
			"count":1204,
			"type":"VEC2"
		},
		{
			"bufferView":15,
			"componentType":5123,
			"count":3204,
			"type":"SCALAR"
		},
		{
			"bufferView":16,
			"componentType":5126,
			"count":1192,
			"max":[
				-0.17217278480529785,
				2.0117976665496826,
				6.670206546783447
			],
			"min":[
				-3.255974054336548,
				0.012529611587524414,
				5.9235005378723145
			],
			"type":"VEC3"
		},
		{
			"bufferView":17,
			"componentType":5126,
			"count":1192,
			"type":"VEC3"
		},
		{
			"bufferView":18,
			"componentType":5126,
			"count":1192,
			"type":"VEC2"
		},
		{
			"bufferView":19,
			"componentType":5123,
			"count":3204,
			"type":"SCALAR"
		},
		{
			"bufferView":20,
			"componentType":5126,
			"count":1196,
			"max":[
				-5.418210029602051,
				2.012432813644409,
				6.670206546783447
			],
			"min":[
				-8.123481750488281,
				-0.14825379848480225,
				3.435110569000244
			],
			"type":"VEC3"
		},
		{
			"bufferView":21,
			"componentType":5126,
			"count":1196,
			"type":"VEC3"
		},
		{
			"bufferView":22,
			"componentType":5126,
			"count":1196,
			"type":"VEC2"
		},
		{
			"bufferView":23,
			"componentType":5123,
			"count":3204,
			"type":"SCALAR"
		},
		{
			"bufferView":24,
			"componentType":5126,
			"count":1192,
			"max":[
				3.2923593521118164,
				1.987910270690918,
				-6.478565216064453
			],
			"min":[
				1.1264857053756714,
				-0.011357784271240234,
				-6.667646408081055
			],
			"type":"VEC3"
		},
		{
			"bufferView":25,
			"componentType":5126,
			"count":1192,
			"type":"VEC3"
		},
		{
			"bufferView":26,
			"componentType":5126,
			"count":1192,
			"type":"VEC2"
		},
		{
			"bufferView":27,
			"componentType":5123,
			"count":3204,
			"type":"SCALAR"
		},
		{
			"bufferView":28,
			"componentType":5126,
			"count":1204,
			"max":[
				-1.0833170413970947,
				1.9830905199050903,
				-5.709415435791016
			],
			"min":[
				-3.24919056892395,
				-0.01617753505706787,
				-6.667646408081055
			],
			"type":"VEC3"
		},
		{
			"bufferView":29,
			"componentType":5126,
			"count":1204,
			"type":"VEC3"
		},
		{
			"bufferView":30,
			"componentType":5126,
			"count":1204,
			"type":"VEC2"
		},
		{
			"bufferView":31,
			"componentType":5123,
			"count":3204,
			"type":"SCALAR"
		},
		{
			"bufferView":32,
			"componentType":5126,
			"count":1196,
			"max":[
				7.602419853210449,
				2.0117976665496826,
				-5.9209394454956055
			],
			"min":[
				4.518618583679199,
				0.012529611587524414,
				-6.667647361755371
			],
			"type":"VEC3"
		},
		{
			"bufferView":33,
			"componentType":5126,
			"count":1196,
			"type":"VEC3"
		},
		{
			"bufferView":34,
			"componentType":5126,
			"count":1196,
			"type":"VEC2"
		},
		{
			"bufferView":35,
			"componentType":5123,
			"count":3204,
			"type":"SCALAR"
		},
		{
			"bufferView":36,
			"componentType":5126,
			"count":1204,
			"max":[
				-5.426252841949463,
				2.0117976665496826,
				-5.9209394454956055
			],
			"min":[
				-8.510053634643555,
				0.012529611587524414,
				-6.667647361755371
			],
			"type":"VEC3"
		},
		{
			"bufferView":37,
			"componentType":5126,
			"count":1204,
			"type":"VEC3"
		},
		{
			"bufferView":38,
			"componentType":5126,
			"count":1204,
			"type":"VEC2"
		},
		{
			"bufferView":39,
			"componentType":5123,
			"count":3204,
			"type":"SCALAR"
		},
		{
			"bufferView":40,
			"componentType":5126,
			"count":252,
			"max":[
				-4.305253505706787,
				1.3975365161895752,
				5.873343467712402
			],
			"min":[
				-4.380956172943115,
				1.3429887294769287,
				5.807574272155762
			],
			"type":"VEC3"
		},
		{
			"bufferView":41,
			"componentType":5126,
			"count":252,
			"type":"VEC3"
		},
		{
			"bufferView":42,
			"componentType":5126,
			"count":252,
			"type":"VEC2"
		},
		{
			"bufferView":43,
			"componentType":5123,
			"count":396,
			"type":"SCALAR"
		},
		{
			"bufferView":44,
			"componentType":5126,
			"count":1454,
			"max":[
				-4.209481716156006,
				1.4700500965118408,
				6.046784400939941
			],
			"min":[
				-4.485986232757568,
				0.9974443316459656,
				5.759228229522705
			],
			"type":"VEC3"
		},
		{
			"bufferView":45,
			"componentType":5126,
			"count":1454,
			"type":"VEC3"
		},
		{
			"bufferView":46,
			"componentType":5126,
			"count":1454,
			"type":"VEC2"
		},
		{
			"bufferView":47,
			"componentType":5123,
			"count":2370,
			"type":"SCALAR"
		},
		{
			"bufferView":48,
			"componentType":5126,
			"count":252,
			"max":[
				-0.008070103824138641,
				1.399590253829956,
				5.873467445373535
			],
			"min":[
				-0.08377277106046677,
				1.3450424671173096,
				5.8076982498168945
			],
			"type":"VEC3"
		},
		{
			"bufferView":49,
			"componentType":5126,
			"count":252,
			"type":"VEC3"
		},
		{
			"bufferView":50,
			"componentType":5126,
			"count":252,
			"type":"VEC2"
		},
		{
			"bufferView":51,
			"componentType":5123,
			"count":396,
			"type":"SCALAR"
		},
		{
			"bufferView":52,
			"componentType":5126,
			"count":1436,
			"max":[
				0.08228716254234314,
				1.4700500965118408,
				6.046784400939941
			],
			"min":[
				-0.19421735405921936,
				0.9974443316459656,
				5.759228229522705
			],
			"type":"VEC3"
		},
		{
			"bufferView":53,
			"componentType":5126,
			"count":1436,
			"type":"VEC3"
		},
		{
			"bufferView":54,
			"componentType":5126,
			"count":1436,
			"type":"VEC2"
		},
		{
			"bufferView":55,
			"componentType":5123,
			"count":2370,
			"type":"SCALAR"
		},
		{
			"bufferView":56,
			"componentType":5126,
			"count":252,
			"max":[
				4.371833801269531,
				1.396510124206543,
				5.876937389373779
			],
			"min":[
				4.296131134033203,
				1.3419625759124756,
				5.811168193817139
			],
			"type":"VEC3"
		},
		{
			"bufferView":57,
			"componentType":5126,
			"count":252,
			"type":"VEC3"
		},
		{
			"bufferView":58,
			"componentType":5126,
			"count":252,
			"type":"VEC2"
		},
		{
			"bufferView":59,
			"componentType":5123,
			"count":396,
			"type":"SCALAR"
		},
		{
			"bufferView":60,
			"componentType":5126,
			"count":1456,
			"max":[
				4.4676055908203125,
				1.4700500965118408,
				6.046784400939941
			],
			"min":[
				4.19110107421875,
				0.9974443316459656,
				5.759228229522705
			],
			"type":"VEC3"
		},
		{
			"bufferView":61,
			"componentType":5126,
			"count":1456,
			"type":"VEC3"
		},
		{
			"bufferView":62,
			"componentType":5126,
			"count":1456,
			"type":"VEC2"
		},
		{
			"bufferView":63,
			"componentType":5123,
			"count":2370,
			"type":"SCALAR"
		},
		{
			"bufferView":64,
			"componentType":5126,
			"count":252,
			"max":[
				4.375444412231445,
				1.399590253829956,
				-5.7641401290893555
			],
			"min":[
				4.299741744995117,
				1.3450424671173096,
				-5.829909324645996
			],
			"type":"VEC3"
		},
		{
			"bufferView":65,
			"componentType":5126,
			"count":252,
			"type":"VEC3"
		},
		{
			"bufferView":66,
			"componentType":5126,
			"count":252,
			"type":"VEC2"
		},
		{
			"bufferView":67,
			"componentType":5123,
			"count":396,
			"type":"SCALAR"
		},
		{
			"bufferView":68,
			"componentType":5126,
			"count":1450,
			"max":[
				4.480474472045898,
				1.4700500965118408,
				-5.685573577880859
			],
			"min":[
				4.203969955444336,
				0.9974443316459656,
				-5.973130226135254
			],
			"type":"VEC3"
		},
		{
			"bufferView":69,
			"componentType":5126,
			"count":1450,
			"type":"VEC3"
		},
		{
			"bufferView":70,
			"componentType":5126,
			"count":1450,
			"type":"VEC2"
		},
		{
			"bufferView":71,
			"componentType":5123,
			"count":2370,
			"type":"SCALAR"
		},
		{
			"bufferView":72,
			"componentType":5126,
			"count":252,
			"max":[
				-0.017069336026906967,
				1.399590253829956,
				-5.7641401290893555
			],
			"min":[
				-0.09277200698852539,
				1.3450424671173096,
				-5.829909324645996
			],
			"type":"VEC3"
		},
		{
			"bufferView":73,
			"componentType":5126,
			"count":252,
			"type":"VEC3"
		},
		{
			"bufferView":74,
			"componentType":5126,
			"count":252,
			"type":"VEC2"
		},
		{
			"bufferView":75,
			"componentType":5123,
			"count":396,
			"type":"SCALAR"
		},
		{
			"bufferView":76,
			"componentType":5126,
			"count":1448,
			"max":[
				0.08796072006225586,
				1.4700500965118408,
				-5.685573577880859
			],
			"min":[
				-0.18854379653930664,
				0.9974443316459656,
				-5.973130226135254
			],
			"type":"VEC3"
		},
		{
			"bufferView":77,
			"componentType":5126,
			"count":1448,
			"type":"VEC3"
		},
		{
			"bufferView":78,
			"componentType":5126,
			"count":1448,
			"type":"VEC2"
		},
		{
			"bufferView":79,
			"componentType":5123,
			"count":2370,
			"type":"SCALAR"
		},
		{
			"bufferView":80,
			"componentType":5126,
			"count":252,
			"max":[
				-4.295527458190918,
				1.399590253829956,
				-5.7641401290893555
			],
			"min":[
				-4.371230125427246,
				1.3450424671173096,
				-5.829909324645996
			],
			"type":"VEC3"
		},
		{
			"bufferView":81,
			"componentType":5126,
			"count":252,
			"type":"VEC3"
		},
		{
			"bufferView":82,
			"componentType":5126,
			"count":252,
			"type":"VEC2"
		},
		{
			"bufferView":83,
			"componentType":5126,
			"count":1450,
			"max":[
				-4.190497398376465,
				1.4700500965118408,
				-5.685573577880859
			],
			"min":[
				-4.467001914978027,
				0.9974443316459656,
				-5.973130226135254
			],
			"type":"VEC3"
		},
		{
			"bufferView":84,
			"componentType":5126,
			"count":1450,
			"type":"VEC3"
		},
		{
			"bufferView":85,
			"componentType":5126,
			"count":1450,
			"type":"VEC2"
		},
		{
			"bufferView":86,
			"componentType":5123,
			"count":2370,
			"type":"SCALAR"
		},
		{
			"bufferView":87,
			"componentType":5126,
			"count":252,
			"max":[
				-9.291772842407227,
				1.399590253829956,
				-2.485403060913086
			],
			"min":[
				-9.357542037963867,
				1.3450424671173096,
				-2.561105728149414
			],
			"type":"VEC3"
		},
		{
			"bufferView":88,
			"componentType":5126,
			"count":252,
			"type":"VEC3"
		},
		{
			"bufferView":89,
			"componentType":5126,
			"count":252,
			"type":"VEC2"
		},
		{
			"bufferView":90,
			"componentType":5123,
			"count":396,
			"type":"SCALAR"
		},
		{
			"bufferView":91,
			"componentType":5126,
			"count":1444,
			"max":[
				-9.213207244873047,
				1.4700500965118408,
				-2.3896312713623047
			],
			"min":[
				-9.500762939453125,
				0.9974443316459656,
				-2.666135787963867
			],
			"type":"VEC3"
		},
		{
			"bufferView":92,
			"componentType":5126,
			"count":1444,
			"type":"VEC3"
		},
		{
			"bufferView":93,
			"componentType":5126,
			"count":1444,
			"type":"VEC2"
		},
		{
			"bufferView":94,
			"componentType":5123,
			"count":2370,
			"type":"SCALAR"
		},
		{
			"bufferView":95,
			"componentType":5126,
			"count":252,
			"max":[
				-9.291772842407227,
				1.399590253829956,
				2.516496181488037
			],
			"min":[
				-9.357542037963867,
				1.3450424671173096,
				2.440793514251709
			],
			"type":"VEC3"
		},
		{
			"bufferView":96,
			"componentType":5126,
			"count":252,
			"type":"VEC3"
		},
		{
			"bufferView":97,
			"componentType":5126,
			"count":252,
			"type":"VEC2"
		},
		{
			"bufferView":98,
			"componentType":5126,
			"count":1450,
			"max":[
				-9.213207244873047,
				1.4700500965118408,
				2.6122679710388184
			],
			"min":[
				-9.500762939453125,
				0.9974443316459656,
				2.335763454437256
			],
			"type":"VEC3"
		},
		{
			"bufferView":99,
			"componentType":5126,
			"count":1450,
			"type":"VEC3"
		},
		{
			"bufferView":100,
			"componentType":5126,
			"count":1450,
			"type":"VEC2"
		},
		{
			"bufferView":101,
			"componentType":5123,
			"count":2370,
			"type":"SCALAR"
		},
		{
			"bufferView":102,
			"componentType":5126,
			"count":252,
			"max":[
				9.329516410827637,
				1.399590253829956,
				2.520106792449951
			],
			"min":[
				9.263747215270996,
				1.3450424671173096,
				2.444404125213623
			],
			"type":"VEC3"
		},
		{
			"bufferView":103,
			"componentType":5126,
			"count":252,
			"type":"VEC3"
		},
		{
			"bufferView":104,
			"componentType":5126,
			"count":252,
			"type":"VEC2"
		},
		{
			"bufferView":105,
			"componentType":5123,
			"count":396,
			"type":"SCALAR"
		},
		{
			"bufferView":106,
			"componentType":5126,
			"count":1452,
			"max":[
				9.49739933013916,
				1.4700500965118408,
				2.6309876441955566
			],
			"min":[
				9.209842681884766,
				0.9974443316459656,
				2.354483127593994
			],
			"type":"VEC3"
		},
		{
			"bufferView":107,
			"componentType":5126,
			"count":1452,
			"type":"VEC3"
		},
		{
			"bufferView":108,
			"componentType":5126,
			"count":1452,
			"type":"VEC2"
		},
		{
			"bufferView":109,
			"componentType":5123,
			"count":2370,
			"type":"SCALAR"
		},
		{
			"bufferView":110,
			"componentType":5126,
			"count":252,
			"max":[
				9.3373384475708,
				1.399590253829956,
				-2.481792449951172
			],
			"min":[
				9.27156925201416,
				1.3450424671173096,
				-2.5574951171875
			],
			"type":"VEC3"
		},
		{
			"bufferView":111,
			"componentType":5126,
			"count":252,
			"type":"VEC3"
		},
		{
			"bufferView":112,
			"componentType":5126,
			"count":252,
			"type":"VEC2"
		},
		{
			"bufferView":113,
			"componentType":5123,
			"count":396,
			"type":"SCALAR"
		},
		{
			"bufferView":114,
			"componentType":5126,
			"count":1446,
			"max":[
				9.49739933013916,
				1.4700500965118408,
				-2.3595809936523438
			],
			"min":[
				9.209842681884766,
				0.9974443316459656,
				-2.6360855102539062
			],
			"type":"VEC3"
		},
		{
			"bufferView":115,
			"componentType":5126,
			"count":1446,
			"type":"VEC3"
		},
		{
			"bufferView":116,
			"componentType":5126,
			"count":1446,
			"type":"VEC2"
		},
		{
			"bufferView":117,
			"componentType":5123,
			"count":2370,
			"type":"SCALAR"
		},
		{
			"bufferView":118,
			"componentType":5126,
			"count":2012,
			"max":[
				0.857123851776123,
				0.5956295728683472,
				-4.570093154907227
			],
			"min":[
				-0.6644188165664673,
				-0.048685818910598755,
				-5.845468044281006
			],
			"type":"VEC3"
		},
		{
			"bufferView":119,
			"componentType":5126,
			"count":2012,
			"type":"VEC3"
		},
		{
			"bufferView":120,
			"componentType":5126,
			"count":2012,
			"type":"VEC2"
		},
		{
			"bufferView":121,
			"componentType":5123,
			"count":3516,
			"type":"SCALAR"
		},
		{
			"bufferView":122,
			"componentType":5126,
			"count":4448,
			"max":[
				0.5309251546859741,
				0.3203772008419037,
				-4.4487104415893555
			],
			"min":[
				-0.8084499835968018,
				0.002802819013595581,
				-5.850774765014648
			],
			"type":"VEC3"
		},
		{
			"bufferView":123,
			"componentType":5126,
			"count":4448,
			"type":"VEC3"
		},
		{
			"bufferView":124,
			"componentType":5126,
			"count":4448,
			"type":"VEC2"
		},
		{
			"bufferView":125,
			"componentType":5123,
			"count":7524,
			"type":"SCALAR"
		},
		{
			"bufferView":126,
			"componentType":5126,
			"count":2012,
			"max":[
				5.5189971923828125,
				0.5956295728683472,
				5.866491794586182
			],
			"min":[
				3.9504404067993164,
				-0.048685818910598755,
				4.788721084594727
			],
			"type":"VEC3"
		},
		{
			"bufferView":127,
			"componentType":5126,
			"count":2012,
			"type":"VEC3"
		},
		{
			"bufferView":128,
			"componentType":5126,
			"count":2012,
			"type":"VEC2"
		},
		{
			"bufferView":129,
			"componentType":5123,
			"count":3516,
			"type":"SCALAR"
		},
		{
			"bufferView":130,
			"componentType":5126,
			"count":4448,
			"max":[
				5.762182235717773,
				0.3203772008419037,
				6.233099460601807
			],
			"min":[
				4.314453125,
				0.002802819013595581,
				4.86058235168457
			],
			"type":"VEC3"
		},
		{
			"bufferView":131,
			"componentType":5126,
			"count":4448,
			"type":"VEC3"
		},
		{
			"bufferView":132,
			"componentType":5126,
			"count":4448,
			"type":"VEC2"
		},
		{
			"bufferView":133,
			"componentType":5123,
			"count":7524,
			"type":"SCALAR"
		},
		{
			"bufferView":134,
			"componentType":5126,
			"count":1760,
			"max":[
				-8.599760055541992,
				0.8566001653671265,
				3.577395439147949
			],
			"min":[
				-9.44204044342041,
				-0.008031010627746582,
				2.7351179122924805
			],
			"type":"VEC3"
		},
		{
			"bufferView":135,
			"componentType":5126,
			"count":1760,
			"type":"VEC3"
		},
		{
			"bufferView":136,
			"componentType":5126,
			"count":1760,
			"type":"VEC2"
		},
		{
			"bufferView":137,
			"componentType":5123,
			"count":2766,
			"type":"SCALAR"
		},
		{
			"bufferView":138,
			"componentType":5126,
			"count":650,
			"max":[
				-8.012521743774414,
				0.42576414346694946,
				2.8642635345458984
			],
			"min":[
				-8.66455078125,
				-0.010991498827934265,
				2.1912708282470703
			],
			"type":"VEC3"
		},
		{
			"bufferView":139,
			"componentType":5126,
			"count":650,
			"type":"VEC3"
		},
		{
			"bufferView":140,
			"componentType":5126,
			"count":650,
			"type":"VEC2"
		},
		{
			"bufferView":141,
			"componentType":5123,
			"count":1056,
			"type":"SCALAR"
		},
		{
			"bufferView":142,
			"componentType":5126,
			"count":338,
			"max":[
				-8.463966369628906,
				0.8605534434318542,
				-4.153163909912109
			],
			"min":[
				-8.995922088623047,
				-0.042924463748931885,
				-4.68511962890625
			],
			"type":"VEC3"
		},
		{
			"bufferView":143,
			"componentType":5126,
			"count":338,
			"type":"VEC3"
		},
		{
			"bufferView":144,
			"componentType":5126,
			"count":338,
			"type":"VEC2"
		},
		{
			"bufferView":145,
			"componentType":5123,
			"count":564,
			"type":"SCALAR"
		},
		{
			"bufferView":146,
			"componentType":5126,
			"count":650,
			"max":[
				-6.802311897277832,
				0.8266320824623108,
				-3.0087943077087402
			],
			"min":[
				-7.334267616271973,
				-0.01921015977859497,
				-3.7292628288269043
			],
			"type":"VEC3"
		},
		{
			"bufferView":147,
			"componentType":5126,
			"count":650,
			"type":"VEC3"
		},
		{
			"bufferView":148,
			"componentType":5126,
			"count":650,
			"type":"VEC2"
		},
		{
			"bufferView":149,
			"componentType":5123,
			"count":1056,
			"type":"SCALAR"
		},
		{
			"bufferView":150,
			"componentType":5126,
			"count":552,
			"max":[
				-7.812288761138916,
				0.4575743079185486,
				-3.752699851989746
			],
			"min":[
				-8.263145446777344,
				-0.07141464948654175,
				-4.203558921813965
			],
			"type":"VEC3"
		},
		{
			"bufferView":151,
			"componentType":5126,
			"count":552,
			"type":"VEC3"
		},
		{
			"bufferView":152,
			"componentType":5126,
			"count":552,
			"type":"VEC2"
		},
		{
			"bufferView":153,
			"componentType":5123,
			"count":852,
			"type":"SCALAR"
		},
		{
			"bufferView":154,
			"componentType":5126,
			"count":1056,
			"max":[
				-8.08900260925293,
				0.6348222494125366,
				-1.5046405792236328
			],
			"min":[
				-8.931282043457031,
				-0.036044955253601074,
				-2.3469181060791016
			],
			"type":"VEC3"
		},
		{
			"bufferView":155,
			"componentType":5126,
			"count":1056,
			"type":"VEC3"
		},
		{
			"bufferView":156,
			"componentType":5126,
			"count":1056,
			"type":"VEC2"
		},
		{
			"bufferView":157,
			"componentType":5123,
			"count":1806,
			"type":"SCALAR"
		},
		{
			"bufferView":158,
			"componentType":5126,
			"count":384,
			"max":[
				-2.8640685081481934,
				0.1454094648361206,
				8.828722953796387
			],
			"min":[
				-3.4648072719573975,
				0.005434580147266388,
				7.64743185043335
			],
			"type":"VEC3"
		},
		{
			"bufferView":159,
			"componentType":5126,
			"count":384,
			"type":"VEC3"
		},
		{
			"bufferView":160,
			"componentType":5126,
			"count":384,
			"type":"VEC2"
		},
		{
			"bufferView":161,
			"componentType":5123,
			"count":618,
			"type":"SCALAR"
		},
		{
			"bufferView":162,
			"componentType":5126,
			"count":374,
			"max":[
				-2.609518527984619,
				0.29286789894104004,
				8.239487648010254
			],
			"min":[
				-3.010664939880371,
				-0.0063239336013793945,
				7.902575492858887
			],
			"type":"VEC3"
		},
		{
			"bufferView":163,
			"componentType":5126,
			"count":374,
			"type":"VEC3"
		},
		{
			"bufferView":164,
			"componentType":5126,
			"count":374,
			"type":"VEC2"
		},
		{
			"bufferView":165,
			"componentType":5123,
			"count":654,
			"type":"SCALAR"
		},
		{
			"bufferView":166,
			"componentType":5126,
			"count":8984,
			"max":[
				-9.09679889678955,
				7.64687442779541,
				5.7356109619140625
			],
			"min":[
				-9.223097801208496,
				4.306915283203125,
				5.604861259460449
			],
			"type":"VEC3"
		},
		{
			"bufferView":167,
			"componentType":5126,
			"count":8984,
			"type":"VEC3"
		},
		{
			"bufferView":168,
			"componentType":5126,
			"count":8984,
			"type":"VEC2"
		},
		{
			"bufferView":169,
			"componentType":5123,
			"count":13800,
			"type":"SCALAR"
		},
		{
			"bufferView":170,
			"componentType":5126,
			"count":1682,
			"max":[
				-8.632858276367188,
				4.358425140380859,
				6.196961402893066
			],
			"min":[
				-9.744300842285156,
				2.139646053314209,
				5.085518836975098
			],
			"type":"VEC3"
		},
		{
			"bufferView":171,
			"componentType":5126,
			"count":1682,
			"type":"VEC3"
		},
		{
			"bufferView":172,
			"componentType":5126,
			"count":1682,
			"type":"VEC2"
		},
		{
			"bufferView":173,
			"componentType":5123,
			"count":3096,
			"type":"SCALAR"
		},
		{
			"bufferView":174,
			"componentType":5126,
			"count":2342,
			"max":[
				-8.323784828186035,
				3.314997911453247,
				5.803239822387695
			],
			"min":[
				-9.135071754455566,
				1.4914159774780273,
				4.791329860687256
			],
			"type":"VEC3"
		},
		{
			"bufferView":175,
			"componentType":5126,
			"count":2342,
			"type":"VEC3"
		},
		{
			"bufferView":176,
			"componentType":5126,
			"count":2342,
			"type":"VEC2"
		},
		{
			"bufferView":177,
			"componentType":5123,
			"count":3810,
			"type":"SCALAR"
		},
		{
			"bufferView":178,
			"componentType":5126,
			"count":2822,
			"max":[
				-8.349573135375977,
				3.0664896965026855,
				5.853357791900635
			],
			"min":[
				-9.250645637512207,
				1.7931838035583496,
				4.874603748321533
			],
			"type":"VEC3"
		},
		{
			"bufferView":179,
			"componentType":5126,
			"count":2822,
			"type":"VEC3"
		},
		{
			"bufferView":180,
			"componentType":5126,
			"count":2822,
			"type":"VEC2"
		},
		{
			"bufferView":181,
			"componentType":5123,
			"count":4740,
			"type":"SCALAR"
		},
		{
			"bufferView":182,
			"componentType":5126,
			"count":8764,
			"max":[
				2.3309199810028076,
				9.919709205627441,
				0.2523362636566162
			],
			"min":[
				2.2046210765838623,
				6.579750061035156,
				0.12158697098493576
			],
			"type":"VEC3"
		},
		{
			"bufferView":183,
			"componentType":5126,
			"count":8764,
			"type":"VEC3"
		},
		{
			"bufferView":184,
			"componentType":5126,
			"count":8764,
			"type":"VEC2"
		},
		{
			"bufferView":185,
			"componentType":5123,
			"count":13800,
			"type":"SCALAR"
		},
		{
			"bufferView":186,
			"componentType":5126,
			"count":1682,
			"max":[
				2.79486083984375,
				6.631259918212891,
				0.7136869430541992
			],
			"min":[
				1.6834180355072021,
				4.41248083114624,
				-0.39775580167770386
			],
			"type":"VEC3"
		},
		{
			"bufferView":187,
			"componentType":5126,
			"count":1682,
			"type":"VEC3"
		},
		{
			"bufferView":188,
			"componentType":5126,
			"count":1682,
			"type":"VEC2"
		},
		{
			"bufferView":189,
			"componentType":5126,
			"count":8992,
			"max":[
				8.33051586151123,
				6.299528121948242,
				-4.9892048835754395
			],
			"min":[
				8.204216957092285,
				2.959568977355957,
				-5.119954586029053
			],
			"type":"VEC3"
		},
		{
			"bufferView":190,
			"componentType":5126,
			"count":8992,
			"type":"VEC3"
		},
		{
			"bufferView":191,
			"componentType":5126,
			"count":8992,
			"type":"VEC2"
		},
		{
			"bufferView":192,
			"componentType":5123,
			"count":13800,
			"type":"SCALAR"
		},
		{
			"bufferView":193,
			"componentType":5126,
			"count":1686,
			"max":[
				8.79445743560791,
				3.011078357696533,
				-4.5278544425964355
			],
			"min":[
				7.683014869689941,
				0.7922996282577515,
				-5.639297008514404
			],
			"type":"VEC3"
		},
		{
			"bufferView":194,
			"componentType":5126,
			"count":1686,
			"type":"VEC3"
		},
		{
			"bufferView":195,
			"componentType":5126,
			"count":1686,
			"type":"VEC2"
		},
		{
			"bufferView":196,
			"componentType":5123,
			"count":3096,
			"type":"SCALAR"
		},
		{
			"bufferView":197,
			"componentType":5126,
			"count":8984,
			"max":[
				8.24258804321289,
				10.37375545501709,
				5.737973213195801
			],
			"min":[
				8.111736297607422,
				7.033796310424805,
				5.611569404602051
			],
			"type":"VEC3"
		},
		{
			"bufferView":198,
			"componentType":5126,
			"count":8984,
			"type":"VEC3"
		},
		{
			"bufferView":199,
			"componentType":5126,
			"count":8984,
			"type":"VEC2"
		},
		{
			"bufferView":200,
			"componentType":5123,
			"count":13800,
			"type":"SCALAR"
		},
		{
			"bufferView":201,
			"componentType":5126,
			"count":1682,
			"max":[
				8.703326225280762,
				7.085306644439697,
				6.259122371673584
			],
			"min":[
				7.591126441955566,
				4.866527557373047,
				5.146921634674072
			],
			"type":"VEC3"
		},
		{
			"bufferView":202,
			"componentType":5126,
			"count":1682,
			"type":"VEC3"
		},
		{
			"bufferView":203,
			"componentType":5126,
			"count":1682,
			"type":"VEC2"
		},
		{
			"bufferView":204,
			"componentType":5123,
			"count":3096,
			"type":"SCALAR"
		},
		{
			"bufferView":205,
			"componentType":5126,
			"count":2339,
			"max":[
				8.321176528930664,
				6.041879177093506,
				5.64725923538208
			],
			"min":[
				7.301163673400879,
				4.218297004699707,
				4.8401288986206055
			],
			"type":"VEC3"
		},
		{
			"bufferView":206,
			"componentType":5126,
			"count":2339,
			"type":"VEC3"
		},
		{
			"bufferView":207,
			"componentType":5126,
			"count":2339,
			"type":"VEC2"
		},
		{
			"bufferView":208,
			"componentType":5123,
			"count":3810,
			"type":"SCALAR"
		},
		{
			"bufferView":209,
			"componentType":5126,
			"count":2822,
			"max":[
				8.371060371398926,
				5.793370723724365,
				5.762983322143555
			],
			"min":[
				7.383541107177734,
				4.5200653076171875,
				4.865327835083008
			],
			"type":"VEC3"
		},
		{
			"bufferView":210,
			"componentType":5126,
			"count":2822,
			"type":"VEC3"
		},
		{
			"bufferView":211,
			"componentType":5126,
			"count":2822,
			"type":"VEC2"
		},
		{
			"bufferView":212,
			"componentType":5123,
			"count":4740,
			"type":"SCALAR"
		},
		{
			"bufferView":213,
			"componentType":5126,
			"count":8884,
			"max":[
				-4.620748996734619,
				10.37375545501709,
				-4.343387603759766
			],
			"min":[
				-4.753514289855957,
				7.033796310424805,
				-4.479095935821533
			],
			"type":"VEC3"
		},
		{
			"bufferView":214,
			"componentType":5126,
			"count":8884,
			"type":"VEC3"
		},
		{
			"bufferView":215,
			"componentType":5126,
			"count":8884,
			"type":"VEC2"
		},
		{
			"bufferView":216,
			"componentType":5123,
			"count":13800,
			"type":"SCALAR"
		},
		{
			"bufferView":217,
			"componentType":5126,
			"count":1682,
			"max":[
				-4.122354984283447,
				7.085306644439697,
				-3.8914453983306885
			],
			"min":[
				-5.23051118850708,
				4.866527557373047,
				-4.9996018409729
			],
			"type":"VEC3"
		},
		{
			"bufferView":218,
			"componentType":5126,
			"count":1682,
			"type":"VEC3"
		},
		{
			"bufferView":219,
			"componentType":5126,
			"count":1682,
			"type":"VEC2"
		},
		{
			"bufferView":220,
			"componentType":5123,
			"count":3096,
			"type":"SCALAR"
		},
		{
			"bufferView":221,
			"componentType":5126,
			"count":2288,
			"max":[
				-3.8026809692382812,
				6.041879177093506,
				-3.6023685932159424
			],
			"min":[
				-4.633130073547363,
				4.218297004699707,
				-4.629336357116699
			],
			"type":"VEC3"
		},
		{
			"bufferView":222,
			"componentType":5126,
			"count":2288,
			"type":"VEC3"
		},
		{
			"bufferView":223,
			"componentType":5126,
			"count":2288,
			"type":"VEC2"
		},
		{
			"bufferView":224,
			"componentType":5123,
			"count":3810,
			"type":"SCALAR"
		},
		{
			"bufferView":225,
			"componentType":5126,
			"count":2822,
			"max":[
				-3.900033712387085,
				5.793370723724365,
				-3.635510206222534
			],
			"min":[
				-4.770845890045166,
				4.5200653076171875,
				-4.616494655609131
			],
			"type":"VEC3"
		},
		{
			"bufferView":226,
			"componentType":5126,
			"count":2822,
			"type":"VEC3"
		},
		{
			"bufferView":227,
			"componentType":5126,
			"count":2822,
			"type":"VEC2"
		},
		{
			"bufferView":228,
			"componentType":5123,
			"count":4740,
			"type":"SCALAR"
		}
	],
	"bufferViews":[
		{
			"buffer":0,
			"byteLength":48,
			"byteOffset":0,
			"target":34962
		},
		{
			"buffer":0,
			"byteLength":48,
			"byteOffset":48,
			"target":34962
		},
		{
			"buffer":0,
			"byteLength":32,
			"byteOffset":96,
			"target":34962
		},
		{
			"buffer":0,
			"byteLength":12,
			"byteOffset":128,
			"target":34963
		},
		{
			"buffer":0,
			"byteLength":10848,
			"byteOffset":140,
			"target":34962
		},
		{
			"buffer":0,
			"byteLength":10848,
			"byteOffset":10988,
			"target":34962
		},
		{
			"buffer":0,
			"byteLength":7232,
			"byteOffset":21836,
			"target":34962
		},
		{
			"buffer":0,
			"byteLength":3888,
			"byteOffset":29068,
			"target":34963
		},
		{
			"buffer":0,
			"byteLength":14304,
			"byteOffset":32956,
			"target":34962
		},
		{
			"buffer":0,
			"byteLength":14304,
			"byteOffset":47260,
			"target":34962
		},
		{
			"buffer":0,
			"byteLength":9536,
			"byteOffset":61564,
			"target":34962
		},
		{
			"buffer":0,
			"byteLength":6408,
			"byteOffset":71100,
			"target":34963
		},
		{
			"buffer":0,
			"byteLength":14448,
			"byteOffset":77508,
			"target":34962
		},
		{
			"buffer":0,
			"byteLength":14448,
			"byteOffset":91956,
			"target":34962
		},
		{
			"buffer":0,
			"byteLength":9632,
			"byteOffset":106404,
			"target":34962
		},
		{
			"buffer":0,
			"byteLength":6408,
			"byteOffset":116036,
			"target":34963
		},
		{
			"buffer":0,
			"byteLength":14304,
			"byteOffset":122444,
			"target":34962
		},
		{
			"buffer":0,
			"byteLength":14304,
			"byteOffset":136748,
			"target":34962
		},
		{
			"buffer":0,
			"byteLength":9536,
			"byteOffset":151052,
			"target":34962
		},
		{
			"buffer":0,
			"byteLength":6408,
			"byteOffset":160588,
			"target":34963
		},
		{
			"buffer":0,
			"byteLength":14352,
			"byteOffset":166996,
			"target":34962
		},
		{
			"buffer":0,
			"byteLength":14352,
			"byteOffset":181348,
			"target":34962
		},
		{
			"buffer":0,
			"byteLength":9568,
			"byteOffset":195700,
			"target":34962
		},
		{
			"buffer":0,
			"byteLength":6408,
			"byteOffset":205268,
			"target":34963
		},
		{
			"buffer":0,
			"byteLength":14304,
			"byteOffset":211676,
			"target":34962
		},
		{
			"buffer":0,
			"byteLength":14304,
			"byteOffset":225980,
			"target":34962
		},
		{
			"buffer":0,
			"byteLength":9536,
			"byteOffset":240284,
			"target":34962
		},
		{
			"buffer":0,
			"byteLength":6408,
			"byteOffset":249820,
			"target":34963
		},
		{
			"buffer":0,
			"byteLength":14448,
			"byteOffset":256228,
			"target":34962
		},
		{
			"buffer":0,
			"byteLength":14448,
			"byteOffset":270676,
			"target":34962
		},
		{
			"buffer":0,
			"byteLength":9632,
			"byteOffset":285124,
			"target":34962
		},
		{
			"buffer":0,
			"byteLength":6408,
			"byteOffset":294756,
			"target":34963
		},
		{
			"buffer":0,
			"byteLength":14352,
			"byteOffset":301164,
			"target":34962
		},
		{
			"buffer":0,
			"byteLength":14352,
			"byteOffset":315516,
			"target":34962
		},
		{
			"buffer":0,
			"byteLength":9568,
			"byteOffset":329868,
			"target":34962
		},
		{
			"buffer":0,
			"byteLength":6408,
			"byteOffset":339436,
			"target":34963
		},
		{
			"buffer":0,
			"byteLength":14448,
			"byteOffset":345844,
			"target":34962
		},
		{
			"buffer":0,
			"byteLength":14448,
			"byteOffset":360292,
			"target":34962
		},
		{
			"buffer":0,
			"byteLength":9632,
			"byteOffset":374740,
			"target":34962
		},
		{
			"buffer":0,
			"byteLength":6408,
			"byteOffset":384372,
			"target":34963
		},
		{
			"buffer":0,
			"byteLength":3024,
			"byteOffset":390780,
			"target":34962
		},
		{
			"buffer":0,
			"byteLength":3024,
			"byteOffset":393804,
			"target":34962
		},
		{
			"buffer":0,
			"byteLength":2016,
			"byteOffset":396828,
			"target":34962
		},
		{
			"buffer":0,
			"byteLength":792,
			"byteOffset":398844,
			"target":34963
		},
		{
			"buffer":0,
			"byteLength":17448,
			"byteOffset":399636,
			"target":34962
		},
		{
			"buffer":0,
			"byteLength":17448,
			"byteOffset":417084,
			"target":34962
		},
		{
			"buffer":0,
			"byteLength":11632,
			"byteOffset":434532,
			"target":34962
		},
		{
			"buffer":0,
			"byteLength":4740,
			"byteOffset":446164,
			"target":34963
		},
		{
			"buffer":0,
			"byteLength":3024,
			"byteOffset":450904,
			"target":34962
		},
		{
			"buffer":0,
			"byteLength":3024,
			"byteOffset":453928,
			"target":34962
		},
		{
			"buffer":0,
			"byteLength":2016,
			"byteOffset":456952,
			"target":34962
		},
		{
			"buffer":0,
			"byteLength":792,
			"byteOffset":458968,
			"target":34963
		},
		{
			"buffer":0,
			"byteLength":17232,
			"byteOffset":459760,
			"target":34962
		},
		{
			"buffer":0,
			"byteLength":17232,
			"byteOffset":476992,
			"target":34962
		},
		{
			"buffer":0,
			"byteLength":11488,
			"byteOffset":494224,
			"target":34962
		},
		{
			"buffer":0,
			"byteLength":4740,
			"byteOffset":505712,
			"target":34963
		},
		{
			"buffer":0,
			"byteLength":3024,
			"byteOffset":510452,
			"target":34962
		},
		{
			"buffer":0,
			"byteLength":3024,
			"byteOffset":513476,
			"target":34962
		},
		{
			"buffer":0,
			"byteLength":2016,
			"byteOffset":516500,
			"target":34962
		},
		{
			"buffer":0,
			"byteLength":792,
			"byteOffset":518516,
			"target":34963
		},
		{
			"buffer":0,
			"byteLength":17472,
			"byteOffset":519308,
			"target":34962
		},
		{
			"buffer":0,
			"byteLength":17472,
			"byteOffset":536780,
			"target":34962
		},
		{
			"buffer":0,
			"byteLength":11648,
			"byteOffset":554252,
			"target":34962
		},
		{
			"buffer":0,
			"byteLength":4740,
			"byteOffset":565900,
			"target":34963
		},
		{
			"buffer":0,
			"byteLength":3024,
			"byteOffset":570640,
			"target":34962
		},
		{
			"buffer":0,
			"byteLength":3024,
			"byteOffset":573664,
			"target":34962
		},
		{
			"buffer":0,
			"byteLength":2016,
			"byteOffset":576688,
			"target":34962
		},
		{
			"buffer":0,
			"byteLength":792,
			"byteOffset":578704,
			"target":34963
		},
		{
			"buffer":0,
			"byteLength":17400,
			"byteOffset":579496,
			"target":34962
		},
		{
			"buffer":0,
			"byteLength":17400,
			"byteOffset":596896,
			"target":34962
		},
		{
			"buffer":0,
			"byteLength":11600,
			"byteOffset":614296,
			"target":34962
		},
		{
			"buffer":0,
			"byteLength":4740,
			"byteOffset":625896,
			"target":34963
		},
		{
			"buffer":0,
			"byteLength":3024,
			"byteOffset":630636,
			"target":34962
		},
		{
			"buffer":0,
			"byteLength":3024,
			"byteOffset":633660,
			"target":34962
		},
		{
			"buffer":0,
			"byteLength":2016,
			"byteOffset":636684,
			"target":34962
		},
		{
			"buffer":0,
			"byteLength":792,
			"byteOffset":638700,
			"target":34963
		},
		{
			"buffer":0,
			"byteLength":17376,
			"byteOffset":639492,
			"target":34962
		},
		{
			"buffer":0,
			"byteLength":17376,
			"byteOffset":656868,
			"target":34962
		},
		{
			"buffer":0,
			"byteLength":11584,
			"byteOffset":674244,
			"target":34962
		},
		{
			"buffer":0,
			"byteLength":4740,
			"byteOffset":685828,
			"target":34963
		},
		{
			"buffer":0,
			"byteLength":3024,
			"byteOffset":690568,
			"target":34962
		},
		{
			"buffer":0,
			"byteLength":3024,
			"byteOffset":693592,
			"target":34962
		},
		{
			"buffer":0,
			"byteLength":2016,
			"byteOffset":696616,
			"target":34962
		},
		{
			"buffer":0,
			"byteLength":17400,
			"byteOffset":698632,
			"target":34962
		},
		{
			"buffer":0,
			"byteLength":17400,
			"byteOffset":716032,
			"target":34962
		},
		{
			"buffer":0,
			"byteLength":11600,
			"byteOffset":733432,
			"target":34962
		},
		{
			"buffer":0,
			"byteLength":4740,
			"byteOffset":745032,
			"target":34963
		},
		{
			"buffer":0,
			"byteLength":3024,
			"byteOffset":749772,
			"target":34962
		},
		{
			"buffer":0,
			"byteLength":3024,
			"byteOffset":752796,
			"target":34962
		},
		{
			"buffer":0,
			"byteLength":2016,
			"byteOffset":755820,
			"target":34962
		},
		{
			"buffer":0,
			"byteLength":792,
			"byteOffset":757836,
			"target":34963
		},
		{
			"buffer":0,
			"byteLength":17328,
			"byteOffset":758628,
			"target":34962
		},
		{
			"buffer":0,
			"byteLength":17328,
			"byteOffset":775956,
			"target":34962
		},
		{
			"buffer":0,
			"byteLength":11552,
			"byteOffset":793284,
			"target":34962
		},
		{
			"buffer":0,
			"byteLength":4740,
			"byteOffset":804836,
			"target":34963
		},
		{
			"buffer":0,
			"byteLength":3024,
			"byteOffset":809576,
			"target":34962
		},
		{
			"buffer":0,
			"byteLength":3024,
			"byteOffset":812600,
			"target":34962
		},
		{
			"buffer":0,
			"byteLength":2016,
			"byteOffset":815624,
			"target":34962
		},
		{
			"buffer":0,
			"byteLength":17400,
			"byteOffset":817640,
			"target":34962
		},
		{
			"buffer":0,
			"byteLength":17400,
			"byteOffset":835040,
			"target":34962
		},
		{
			"buffer":0,
			"byteLength":11600,
			"byteOffset":852440,
			"target":34962
		},
		{
			"buffer":0,
			"byteLength":4740,
			"byteOffset":864040,
			"target":34963
		},
		{
			"buffer":0,
			"byteLength":3024,
			"byteOffset":868780,
			"target":34962
		},
		{
			"buffer":0,
			"byteLength":3024,
			"byteOffset":871804,
			"target":34962
		},
		{
			"buffer":0,
			"byteLength":2016,
			"byteOffset":874828,
			"target":34962
		},
		{
			"buffer":0,
			"byteLength":792,
			"byteOffset":876844,
			"target":34963
		},
		{
			"buffer":0,
			"byteLength":17424,
			"byteOffset":877636,
			"target":34962
		},
		{
			"buffer":0,
			"byteLength":17424,
			"byteOffset":895060,
			"target":34962
		},
		{
			"buffer":0,
			"byteLength":11616,
			"byteOffset":912484,
			"target":34962
		},
		{
			"buffer":0,
			"byteLength":4740,
			"byteOffset":924100,
			"target":34963
		},
		{
			"buffer":0,
			"byteLength":3024,
			"byteOffset":928840,
			"target":34962
		},
		{
			"buffer":0,
			"byteLength":3024,
			"byteOffset":931864,
			"target":34962
		},
		{
			"buffer":0,
			"byteLength":2016,
			"byteOffset":934888,
			"target":34962
		},
		{
			"buffer":0,
			"byteLength":792,
			"byteOffset":936904,
			"target":34963
		},
		{
			"buffer":0,
			"byteLength":17352,
			"byteOffset":937696,
			"target":34962
		},
		{
			"buffer":0,
			"byteLength":17352,
			"byteOffset":955048,
			"target":34962
		},
		{
			"buffer":0,
			"byteLength":11568,
			"byteOffset":972400,
			"target":34962
		},
		{
			"buffer":0,
			"byteLength":4740,
			"byteOffset":983968,
			"target":34963
		},
		{
			"buffer":0,
			"byteLength":24144,
			"byteOffset":988708,
			"target":34962
		},
		{
			"buffer":0,
			"byteLength":24144,
			"byteOffset":1012852,
			"target":34962
		},
		{
			"buffer":0,
			"byteLength":16096,
			"byteOffset":1036996,
			"target":34962
		},
		{
			"buffer":0,
			"byteLength":7032,
			"byteOffset":1053092,
			"target":34963
		},
		{
			"buffer":0,
			"byteLength":53376,
			"byteOffset":1060124,
			"target":34962
		},
		{
			"buffer":0,
			"byteLength":53376,
			"byteOffset":1113500,
			"target":34962
		},
		{
			"buffer":0,
			"byteLength":35584,
			"byteOffset":1166876,
			"target":34962
		},
		{
			"buffer":0,
			"byteLength":15048,
			"byteOffset":1202460,
			"target":34963
		},
		{
			"buffer":0,
			"byteLength":24144,
			"byteOffset":1217508,
			"target":34962
		},
		{
			"buffer":0,
			"byteLength":24144,
			"byteOffset":1241652,
			"target":34962
		},
		{
			"buffer":0,
			"byteLength":16096,
			"byteOffset":1265796,
			"target":34962
		},
		{
			"buffer":0,
			"byteLength":7032,
			"byteOffset":1281892,
			"target":34963
		},
		{
			"buffer":0,
			"byteLength":53376,
			"byteOffset":1288924,
			"target":34962
		},
		{
			"buffer":0,
			"byteLength":53376,
			"byteOffset":1342300,
			"target":34962
		},
		{
			"buffer":0,
			"byteLength":35584,
			"byteOffset":1395676,
			"target":34962
		},
		{
			"buffer":0,
			"byteLength":15048,
			"byteOffset":1431260,
			"target":34963
		},
		{
			"buffer":0,
			"byteLength":21120,
			"byteOffset":1446308,
			"target":34962
		},
		{
			"buffer":0,
			"byteLength":21120,
			"byteOffset":1467428,
			"target":34962
		},
		{
			"buffer":0,
			"byteLength":14080,
			"byteOffset":1488548,
			"target":34962
		},
		{
			"buffer":0,
			"byteLength":5532,
			"byteOffset":1502628,
			"target":34963
		},
		{
			"buffer":0,
			"byteLength":7800,
			"byteOffset":1508160,
			"target":34962
		},
		{
			"buffer":0,
			"byteLength":7800,
			"byteOffset":1515960,
			"target":34962
		},
		{
			"buffer":0,
			"byteLength":5200,
			"byteOffset":1523760,
			"target":34962
		},
		{
			"buffer":0,
			"byteLength":2112,
			"byteOffset":1528960,
			"target":34963
		},
		{
			"buffer":0,
			"byteLength":4056,
			"byteOffset":1531072,
			"target":34962
		},
		{
			"buffer":0,
			"byteLength":4056,
			"byteOffset":1535128,
			"target":34962
		},
		{
			"buffer":0,
			"byteLength":2704,
			"byteOffset":1539184,
			"target":34962
		},
		{
			"buffer":0,
			"byteLength":1128,
			"byteOffset":1541888,
			"target":34963
		},
		{
			"buffer":0,
			"byteLength":7800,
			"byteOffset":1543016,
			"target":34962
		},
		{
			"buffer":0,
			"byteLength":7800,
			"byteOffset":1550816,
			"target":34962
		},
		{
			"buffer":0,
			"byteLength":5200,
			"byteOffset":1558616,
			"target":34962
		},
		{
			"buffer":0,
			"byteLength":2112,
			"byteOffset":1563816,
			"target":34963
		},
		{
			"buffer":0,
			"byteLength":6624,
			"byteOffset":1565928,
			"target":34962
		},
		{
			"buffer":0,
			"byteLength":6624,
			"byteOffset":1572552,
			"target":34962
		},
		{
			"buffer":0,
			"byteLength":4416,
			"byteOffset":1579176,
			"target":34962
		},
		{
			"buffer":0,
			"byteLength":1704,
			"byteOffset":1583592,
			"target":34963
		},
		{
			"buffer":0,
			"byteLength":12672,
			"byteOffset":1585296,
			"target":34962
		},
		{
			"buffer":0,
			"byteLength":12672,
			"byteOffset":1597968,
			"target":34962
		},
		{
			"buffer":0,
			"byteLength":8448,
			"byteOffset":1610640,
			"target":34962
		},
		{
			"buffer":0,
			"byteLength":3612,
			"byteOffset":1619088,
			"target":34963
		},
		{
			"buffer":0,
			"byteLength":4608,
			"byteOffset":1622700,
			"target":34962
		},
		{
			"buffer":0,
			"byteLength":4608,
			"byteOffset":1627308,
			"target":34962
		},
		{
			"buffer":0,
			"byteLength":3072,
			"byteOffset":1631916,
			"target":34962
		},
		{
			"buffer":0,
			"byteLength":1236,
			"byteOffset":1634988,
			"target":34963
		},
		{
			"buffer":0,
			"byteLength":4488,
			"byteOffset":1636224,
			"target":34962
		},
		{
			"buffer":0,
			"byteLength":4488,
			"byteOffset":1640712,
			"target":34962
		},
		{
			"buffer":0,
			"byteLength":2992,
			"byteOffset":1645200,
			"target":34962
		},
		{
			"buffer":0,
			"byteLength":1308,
			"byteOffset":1648192,
			"target":34963
		},
		{
			"buffer":0,
			"byteLength":107808,
			"byteOffset":1649500,
			"target":34962
		},
		{
			"buffer":0,
			"byteLength":107808,
			"byteOffset":1757308,
			"target":34962
		},
		{
			"buffer":0,
			"byteLength":71872,
			"byteOffset":1865116,
			"target":34962
		},
		{
			"buffer":0,
			"byteLength":27600,
			"byteOffset":1936988,
			"target":34963
		},
		{
			"buffer":0,
			"byteLength":20184,
			"byteOffset":1964588,
			"target":34962
		},
		{
			"buffer":0,
			"byteLength":20184,
			"byteOffset":1984772,
			"target":34962
		},
		{
			"buffer":0,
			"byteLength":13456,
			"byteOffset":2004956,
			"target":34962
		},
		{
			"buffer":0,
			"byteLength":6192,
			"byteOffset":2018412,
			"target":34963
		},
		{
			"buffer":0,
			"byteLength":28104,
			"byteOffset":2024604,
			"target":34962
		},
		{
			"buffer":0,
			"byteLength":28104,
			"byteOffset":2052708,
			"target":34962
		},
		{
			"buffer":0,
			"byteLength":18736,
			"byteOffset":2080812,
			"target":34962
		},
		{
			"buffer":0,
			"byteLength":7620,
			"byteOffset":2099548,
			"target":34963
		},
		{
			"buffer":0,
			"byteLength":33864,
			"byteOffset":2107168,
			"target":34962
		},
		{
			"buffer":0,
			"byteLength":33864,
			"byteOffset":2141032,
			"target":34962
		},
		{
			"buffer":0,
			"byteLength":22576,
			"byteOffset":2174896,
			"target":34962
		},
		{
			"buffer":0,
			"byteLength":9480,
			"byteOffset":2197472,
			"target":34963
		},
		{
			"buffer":0,
			"byteLength":105168,
			"byteOffset":2206952,
			"target":34962
		},
		{
			"buffer":0,
			"byteLength":105168,
			"byteOffset":2312120,
			"target":34962
		},
		{
			"buffer":0,
			"byteLength":70112,
			"byteOffset":2417288,
			"target":34962
		},
		{
			"buffer":0,
			"byteLength":27600,
			"byteOffset":2487400,
			"target":34963
		},
		{
			"buffer":0,
			"byteLength":20184,
			"byteOffset":2515000,
			"target":34962
		},
		{
			"buffer":0,
			"byteLength":20184,
			"byteOffset":2535184,
			"target":34962
		},
		{
			"buffer":0,
			"byteLength":13456,
			"byteOffset":2555368,
			"target":34962
		},
		{
			"buffer":0,
			"byteLength":107904,
			"byteOffset":2568824,
			"target":34962
		},
		{
			"buffer":0,
			"byteLength":107904,
			"byteOffset":2676728,
			"target":34962
		},
		{
			"buffer":0,
			"byteLength":71936,
			"byteOffset":2784632,
			"target":34962
		},
		{
			"buffer":0,
			"byteLength":27600,
			"byteOffset":2856568,
			"target":34963
		},
		{
			"buffer":0,
			"byteLength":20232,
			"byteOffset":2884168,
			"target":34962
		},
		{
			"buffer":0,
			"byteLength":20232,
			"byteOffset":2904400,
			"target":34962
		},
		{
			"buffer":0,
			"byteLength":13488,
			"byteOffset":2924632,
			"target":34962
		},
		{
			"buffer":0,
			"byteLength":6192,
			"byteOffset":2938120,
			"target":34963
		},
		{
			"buffer":0,
			"byteLength":107808,
			"byteOffset":2944312,
			"target":34962
		},
		{
			"buffer":0,
			"byteLength":107808,
			"byteOffset":3052120,
			"target":34962
		},
		{
			"buffer":0,
			"byteLength":71872,
			"byteOffset":3159928,
			"target":34962
		},
		{
			"buffer":0,
			"byteLength":27600,
			"byteOffset":3231800,
			"target":34963
		},
		{
			"buffer":0,
			"byteLength":20184,
			"byteOffset":3259400,
			"target":34962
		},
		{
			"buffer":0,
			"byteLength":20184,
			"byteOffset":3279584,
			"target":34962
		},
		{
			"buffer":0,
			"byteLength":13456,
			"byteOffset":3299768,
			"target":34962
		},
		{
			"buffer":0,
			"byteLength":6192,
			"byteOffset":3313224,
			"target":34963
		},
		{
			"buffer":0,
			"byteLength":28068,
			"byteOffset":3319416,
			"target":34962
		},
		{
			"buffer":0,
			"byteLength":28068,
			"byteOffset":3347484,
			"target":34962
		},
		{
			"buffer":0,
			"byteLength":18712,
			"byteOffset":3375552,
			"target":34962
		},
		{
			"buffer":0,
			"byteLength":7620,
			"byteOffset":3394264,
			"target":34963
		},
		{
			"buffer":0,
			"byteLength":33864,
			"byteOffset":3401884,
			"target":34962
		},
		{
			"buffer":0,
			"byteLength":33864,
			"byteOffset":3435748,
			"target":34962
		},
		{
			"buffer":0,
			"byteLength":22576,
			"byteOffset":3469612,
			"target":34962
		},
		{
			"buffer":0,
			"byteLength":9480,
			"byteOffset":3492188,
			"target":34963
		},
		{
			"buffer":0,
			"byteLength":106608,
			"byteOffset":3501668,
			"target":34962
		},
		{
			"buffer":0,
			"byteLength":106608,
			"byteOffset":3608276,
			"target":34962
		},
		{
			"buffer":0,
			"byteLength":71072,
			"byteOffset":3714884,
			"target":34962
		},
		{
			"buffer":0,
			"byteLength":27600,
			"byteOffset":3785956,
			"target":34963
		},
		{
			"buffer":0,
			"byteLength":20184,
			"byteOffset":3813556,
			"target":34962
		},
		{
			"buffer":0,
			"byteLength":20184,
			"byteOffset":3833740,
			"target":34962
		},
		{
			"buffer":0,
			"byteLength":13456,
			"byteOffset":3853924,
			"target":34962
		},
		{
			"buffer":0,
			"byteLength":6192,
			"byteOffset":3867380,
			"target":34963
		},
		{
			"buffer":0,
			"byteLength":27456,
			"byteOffset":3873572,
			"target":34962
		},
		{
			"buffer":0,
			"byteLength":27456,
			"byteOffset":3901028,
			"target":34962
		},
		{
			"buffer":0,
			"byteLength":18304,
			"byteOffset":3928484,
			"target":34962
		},
		{
			"buffer":0,
			"byteLength":7620,
			"byteOffset":3946788,
			"target":34963
		},
		{
			"buffer":0,
			"byteLength":33864,
			"byteOffset":3954408,
			"target":34962
		},
		{
			"buffer":0,
			"byteLength":33864,
			"byteOffset":3988272,
			"target":34962
		},
		{
			"buffer":0,
			"byteLength":22576,
			"byteOffset":4022136,
			"target":34962
		},
		{
			"buffer":0,
			"byteLength":9480,
			"byteOffset":4044712,
			"target":34963
		}
	],
	"buffers":[
		{
			"byteLength":4054192,
			"uri":"room_I_cells.bin"
		}
	]
}
