# Blender 5.0.1
# www.blender.org
mtllib tornado_base.mtl
o Cylinder
v -0.807941 -0.005014 -0.589302
v -1.158213 0.589934 0.255096
v -0.627889 -0.005014 -0.778333
v -1.184772 0.589934 -0.053364
v -0.405047 -0.005014 -0.914321
v -1.130590 0.589934 -0.358187
v -0.154601 -0.005014 -0.988000
v -0.999360 0.589934 -0.638601
v 0.106380 -0.005014 -0.994349
v -0.800026 0.589934 -0.875494
v 0.360111 -0.005014 -0.932934
v -0.546171 0.589934 -1.052725
v 0.589302 -0.005014 -0.807941
v -0.255096 0.589934 -1.158213
v 0.778333 -0.005014 -0.627889
v 0.053364 0.589934 -1.184772
v 0.914321 -0.005014 -0.405047
v 0.358187 0.589934 -1.130590
v 0.988000 -0.005014 -0.154601
v 0.638601 0.589934 -0.999360
v 0.994349 -0.005014 0.106380
v 0.875494 0.589934 -0.800026
v 0.932934 -0.005014 0.360111
v 1.052725 0.589934 -0.546171
v 0.807941 -0.005014 0.589302
v 1.158213 0.589934 -0.255096
v 0.627889 -0.005014 0.778333
v 1.184772 0.589934 0.053364
v 0.405047 -0.005014 0.914321
v 1.130590 0.589934 0.358187
v 0.154601 -0.005014 0.988000
v 0.999360 0.589934 0.638601
v -0.106380 -0.005014 0.994349
v 0.800026 0.589934 0.875494
v -0.360111 -0.005014 0.932934
v 0.546171 0.589934 1.052725
v -0.589302 -0.005014 0.807941
v 0.255096 0.589934 1.158213
v -0.778333 -0.005014 0.627889
v -0.053364 0.589934 1.184772
v -0.914321 -0.005014 0.405047
v -0.358187 0.589934 1.130590
v -0.988000 -0.005014 0.154601
v -0.638601 0.589934 0.999360
v -0.994349 -0.005014 -0.106380
v -0.875494 0.589934 0.800026
v -0.932934 -0.005014 -0.360111
v -1.052725 0.589934 0.546171
v -0.905291 0.138195 -0.453240
v -1.006760 0.278327 -0.289414
v -1.103401 0.425526 -0.066243
v -1.048658 0.425526 -0.349567
v -0.897550 0.278327 -0.540122
v -0.757137 0.138195 -0.672103
v -0.922452 0.425526 -0.609068
v -0.727173 0.278327 -0.754020
v -0.557385 0.138195 -0.845163
v -0.733381 0.425526 -0.827063
v -0.507240 0.278327 -0.916534
v -0.319649 0.138195 -0.960627
v -0.494332 0.425526 -0.988694
v -0.252740 0.278327 -1.016587
v -0.060128 0.138195 -1.010625
v -0.221596 0.425526 -1.082948
v 0.018984 0.278327 -1.047362
v 0.203490 0.138195 -0.991751
v 0.066243 0.425526 -1.103401
v 0.289414 0.278327 -1.006760
v 0.453240 0.138195 -0.905291
v 0.349567 0.425526 -1.048658
v 0.540121 0.278327 -0.897550
v 0.672103 0.138195 -0.757137
v 0.609068 0.425526 -0.922452
v 0.754020 0.278327 -0.727173
v 0.845163 0.138195 -0.557385
v 0.827063 0.425526 -0.733381
v 0.916534 0.278327 -0.507240
v 0.960627 0.138195 -0.319648
v 0.988694 0.425526 -0.494332
v 1.016587 0.278327 -0.252740
v 1.010625 0.138195 -0.060128
v 1.082948 0.425526 -0.221596
v 1.047362 0.278327 0.018984
v 0.991751 0.138195 0.203490
v 1.103401 0.425526 0.066243
v 1.006760 0.278327 0.289414
v 0.905291 0.138195 0.453240
v 1.048658 0.425526 0.349567
v 0.897550 0.278327 0.540121
v 0.757137 0.138195 0.672103
v 0.922452 0.425526 0.609068
v 0.727173 0.278327 0.754020
v 0.557385 0.138195 0.845163
v 0.733381 0.425526 0.827063
v 0.507240 0.278327 0.916534
v 0.319648 0.138195 0.960627
v 0.494332 0.425526 0.988694
v 0.252740 0.278327 1.016587
v 0.060128 0.138195 1.010625
v 0.221595 0.425526 1.082948
v -0.018984 0.278327 1.047362
v -0.203490 0.138195 0.991751
v -0.066243 0.425526 1.103401
v -0.289414 0.278327 1.006760
v -0.453240 0.138195 0.905291
v -0.349567 0.425526 1.048658
v -0.540121 0.278327 0.897550
v -0.672103 0.138195 0.757137
v -0.609068 0.425526 0.922452
v -0.754020 0.278327 0.727173
v -0.845163 0.138195 0.557385
v -0.827063 0.425526 0.733381
v -0.916534 0.278327 0.507240
v -0.960627 0.138195 0.319648
v -0.988694 0.425526 0.494332
v -1.016587 0.278327 0.252740
v -1.010625 0.138195 0.060128
v -1.082948 0.425526 0.221596
v -1.047362 0.278327 -0.018984
v -0.991751 0.138195 -0.203490
vn -0.8967 -0.4405 -0.0427
vn -0.8551 -0.4405 -0.2733
vn -0.7552 -0.4405 -0.4854
vn -0.6039 -0.4405 -0.6643
vn -0.4114 -0.4405 -0.7980
vn -0.1908 -0.4405 -0.8772
vn 0.0427 -0.4405 -0.8967
vn 0.2733 -0.4405 -0.8551
vn 0.4854 -0.4405 -0.7552
vn 0.6643 -0.4405 -0.6039
vn 0.7980 -0.4405 -0.4114
vn 0.8772 -0.4405 -0.1908
vn 0.8967 -0.4405 0.0427
vn 0.8551 -0.4405 0.2733
vn 0.7552 -0.4405 0.4854
vn 0.6039 -0.4405 0.6643
vn 0.4114 -0.4405 0.7980
vn 0.1908 -0.4405 0.8772
vn -0.0427 -0.4405 0.8967
vn -0.2733 -0.4405 0.8551
vn -0.4854 -0.4405 0.7552
vn -0.6643 -0.4405 0.6039
vn -0.7980 -0.4405 0.4114
vn -0.8772 -0.4405 0.1908
vn -0.9114 -0.0858 -0.4024
vn -0.9425 -0.2421 -0.2302
vn -0.9304 -0.3650 -0.0336
vn -0.9845 -0.0858 -0.1528
vn -0.9700 -0.2421 0.0216
vn -0.9074 -0.3650 0.2084
vn -0.9905 -0.0858 0.1072
vn -0.9314 -0.2421 0.2719
vn -0.8225 -0.3650 0.4361
vn -0.9290 -0.0858 0.3599
vn -0.8293 -0.2421 0.5037
vn -0.6816 -0.3650 0.6342
vn -0.8042 -0.0858 0.5881
vn -0.6707 -0.2421 0.7011
vn -0.4943 -0.3650 0.7890
vn -0.6246 -0.0858 0.7762
vn -0.4663 -0.2421 0.8508
vn -0.2732 -0.3650 0.8900
vn -0.4024 -0.0858 0.9114
vn -0.2302 -0.2421 0.9425
vn -0.0336 -0.3650 0.9304
vn -0.1528 -0.0858 0.9845
vn 0.0216 -0.2421 0.9700
vn 0.2084 -0.3650 0.9074
vn 0.1072 -0.0858 0.9905
vn 0.2719 -0.2421 0.9314
vn 0.4361 -0.3650 0.8225
vn 0.3599 -0.0858 0.9290
vn 0.5037 -0.2421 0.8293
vn 0.6342 -0.3650 0.6816
vn 0.5881 -0.0858 0.8042
vn 0.7011 -0.2421 0.6707
vn 0.7890 -0.3650 0.4943
vn 0.7762 -0.0858 0.6246
vn 0.8508 -0.2421 0.4663
vn 0.8900 -0.3650 0.2732
vn 0.9114 -0.0858 0.4024
vn 0.9425 -0.2421 0.2302
vn 0.9304 -0.3650 0.0336
vn 0.9845 -0.0858 0.1528
vn 0.9700 -0.2421 -0.0216
vn 0.9074 -0.3650 -0.2084
vn 0.9905 -0.0858 -0.1072
vn 0.9314 -0.2421 -0.2719
vn 0.8225 -0.3650 -0.4361
vn 0.9290 -0.0858 -0.3599
vn 0.8293 -0.2421 -0.5037
vn 0.6816 -0.3650 -0.6342
vn 0.8042 -0.0858 -0.5881
vn 0.6707 -0.2421 -0.7011
vn 0.4943 -0.3650 -0.7890
vn 0.6246 -0.0858 -0.7762
vn 0.4663 -0.2421 -0.8508
vn 0.2732 -0.3650 -0.8900
vn 0.4024 -0.0858 -0.9114
vn 0.2302 -0.2421 -0.9425
vn 0.0336 -0.3650 -0.9304
vn 0.1528 -0.0858 -0.9845
vn -0.0216 -0.2421 -0.9700
vn -0.2084 -0.3650 -0.9074
vn -0.1072 -0.0858 -0.9905
vn -0.2719 -0.2421 -0.9314
vn -0.4361 -0.3650 -0.8225
vn -0.3599 -0.0858 -0.9290
vn -0.5037 -0.2421 -0.8293
vn -0.6342 -0.3650 -0.6816
vn -0.5881 -0.0858 -0.8042
vn -0.7011 -0.2421 -0.6707
vn -0.7890 -0.3650 -0.4943
vn -0.7762 -0.0858 -0.6246
vn -0.8508 -0.2421 -0.4663
vn -0.8900 -0.3650 -0.2732
vt 1.000000 0.750000
vt 1.000000 1.000000
vt 0.958333 1.000000
vt 0.958333 0.750000
vt 0.916667 1.000000
vt 0.916667 0.750000
vt 0.875000 1.000000
vt 0.875000 0.750000
vt 0.833333 1.000000
vt 0.833333 0.750000
vt 0.791667 1.000000
vt 0.791667 0.750000
vt 0.750000 1.000000
vt 0.750000 0.750000
vt 0.708333 1.000000
vt 0.708333 0.750000
vt 0.666667 1.000000
vt 0.666667 0.750000
vt 0.625000 1.000000
vt 0.625000 0.750000
vt 0.583333 1.000000
vt 0.583333 0.750000
vt 0.541666 1.000000
vt 0.541666 0.750000
vt 0.500000 1.000000
vt 0.500000 0.750000
vt 0.458333 1.000000
vt 0.458333 0.750000
vt 0.416666 1.000000
vt 0.416666 0.750000
vt 0.375000 1.000000
vt 0.375000 0.750000
vt 0.333333 1.000000
vt 0.333333 0.750000
vt 0.291667 1.000000
vt 0.291667 0.750000
vt 0.250000 1.000000
vt 0.250000 0.750000
vt 0.208333 1.000000
vt 0.208333 0.750000
vt 0.166666 1.000000
vt 0.166666 0.750000
vt 0.125000 1.000000
vt 0.125000 0.750000
vt 0.083333 1.000000
vt 0.083333 0.750000
vt 0.041666 1.000000
vt 0.041666 0.750000
vt -0.000000 1.000000
vt -0.000000 0.750000
vt 0.041666 0.000000
vt 0.041666 0.250000
vt -0.000000 0.250000
vt -0.000000 0.000000
vt 0.041666 0.500000
vt -0.000000 0.500000
vt 0.083333 0.000000
vt 0.083333 0.250000
vt 0.083333 0.500000
vt 0.125000 0.000000
vt 0.125000 0.250000
vt 0.125000 0.500000
vt 0.166666 0.000000
vt 0.166666 0.250000
vt 0.166666 0.500000
vt 0.208333 0.000000
vt 0.208333 0.250000
vt 0.208333 0.500000
vt 0.250000 0.000000
vt 0.250000 0.250000
vt 0.250000 0.500000
vt 0.291667 0.000000
vt 0.291667 0.250000
vt 0.291667 0.500000
vt 0.333333 0.000000
vt 0.333333 0.250000
vt 0.333333 0.500000
vt 0.375000 0.000000
vt 0.375000 0.250000
vt 0.375000 0.500000
vt 0.416666 0.000000
vt 0.416666 0.250000
vt 0.416666 0.500000
vt 0.458333 0.000000
vt 0.458333 0.250000
vt 0.458333 0.500000
vt 0.500000 0.000000
vt 0.500000 0.250000
vt 0.500000 0.500000
vt 0.541666 0.000000
vt 0.541666 0.250000
vt 0.541666 0.500000
vt 0.583333 0.000000
vt 0.583333 0.250000
vt 0.583333 0.500000
vt 0.625000 0.000000
vt 0.625000 0.250000
vt 0.625000 0.500000
vt 0.666667 0.000000
vt 0.666667 0.250000
vt 0.666667 0.500000
vt 0.708333 0.000000
vt 0.708333 0.250000
vt 0.708333 0.500000
vt 0.750000 0.000000
vt 0.750000 0.250000
vt 0.750000 0.500000
vt 0.791667 0.000000
vt 0.791667 0.250000
vt 0.791667 0.500000
vt 0.833333 0.000000
vt 0.833333 0.250000
vt 0.833333 0.500000
vt 0.875000 0.000000
vt 0.875000 0.250000
vt 0.875000 0.500000
vt 0.916667 0.000000
vt 0.916667 0.250000
vt 0.916667 0.500000
vt 0.958333 0.000000
vt 0.958333 0.250000
vt 0.958333 0.500000
vt 1.000000 0.000000
vt 1.000000 0.250000
vt 1.000000 0.500000
s 0
f 51/1/1 2/2/1 4/3/1 52/4/1
f 52/4/2 4/3/2 6/5/2 55/6/2
f 55/6/3 6/5/3 8/7/3 58/8/3
f 58/8/4 8/7/4 10/9/4 61/10/4
f 61/10/5 10/9/5 12/11/5 64/12/5
f 64/12/6 12/11/6 14/13/6 67/14/6
f 67/14/7 14/13/7 16/15/7 70/16/7
f 70/16/8 16/15/8 18/17/8 73/18/8
f 73/18/9 18/17/9 20/19/9 76/20/9
f 76/20/10 20/19/10 22/21/10 79/22/10
f 79/22/11 22/21/11 24/23/11 82/24/11
f 82/24/12 24/23/12 26/25/12 85/26/12
f 85/26/13 26/25/13 28/27/13 88/28/13
f 88/28/14 28/27/14 30/29/14 91/30/14
f 91/30/15 30/29/15 32/31/15 94/32/15
f 94/32/16 32/31/16 34/33/16 97/34/16
f 97/34/17 34/33/17 36/35/17 100/36/17
f 100/36/18 36/35/18 38/37/18 103/38/18
f 103/38/19 38/37/19 40/39/19 106/40/19
f 106/40/20 40/39/20 42/41/20 109/42/20
f 109/42/21 42/41/21 44/43/21 112/44/21
f 112/44/22 44/43/22 46/45/22 115/46/22
f 115/46/23 46/45/23 48/47/23 118/48/23
f 118/48/24 48/47/24 2/49/24 51/50/24
f 47/51/25 120/52/25 49/53/25 1/54/25
f 120/52/26 119/55/26 50/56/26 49/53/26
f 119/55/27 118/48/27 51/50/27 50/56/27
f 45/57/28 117/58/28 120/52/28 47/51/28
f 117/58/29 116/59/29 119/55/29 120/52/29
f 116/59/30 115/46/30 118/48/30 119/55/30
f 43/60/31 114/61/31 117/58/31 45/57/31
f 114/61/32 113/62/32 116/59/32 117/58/32
f 113/62/33 112/44/33 115/46/33 116/59/33
f 41/63/34 111/64/34 114/61/34 43/60/34
f 111/64/35 110/65/35 113/62/35 114/61/35
f 110/65/36 109/42/36 112/44/36 113/62/36
f 39/66/37 108/67/37 111/64/37 41/63/37
f 108/67/38 107/68/38 110/65/38 111/64/38
f 107/68/39 106/40/39 109/42/39 110/65/39
f 37/69/40 105/70/40 108/67/40 39/66/40
f 105/70/41 104/71/41 107/68/41 108/67/41
f 104/71/42 103/38/42 106/40/42 107/68/42
f 35/72/43 102/73/43 105/70/43 37/69/43
f 102/73/44 101/74/44 104/71/44 105/70/44
f 101/74/45 100/36/45 103/38/45 104/71/45
f 33/75/46 99/76/46 102/73/46 35/72/46
f 99/76/47 98/77/47 101/74/47 102/73/47
f 98/77/48 97/34/48 100/36/48 101/74/48
f 31/78/49 96/79/49 99/76/49 33/75/49
f 96/79/50 95/80/50 98/77/50 99/76/50
f 95/80/51 94/32/51 97/34/51 98/77/51
f 29/81/52 93/82/52 96/79/52 31/78/52
f 93/82/53 92/83/53 95/80/53 96/79/53
f 92/83/54 91/30/54 94/32/54 95/80/54
f 27/84/55 90/85/55 93/82/55 29/81/55
f 90/85/56 89/86/56 92/83/56 93/82/56
f 89/86/57 88/28/57 91/30/57 92/83/57
f 25/87/58 87/88/58 90/85/58 27/84/58
f 87/88/59 86/89/59 89/86/59 90/85/59
f 86/89/60 85/26/60 88/28/60 89/86/60
f 23/90/61 84/91/61 87/88/61 25/87/61
f 84/91/62 83/92/62 86/89/62 87/88/62
f 83/92/63 82/24/63 85/26/63 86/89/63
f 21/93/64 81/94/64 84/91/64 23/90/64
f 81/94/65 80/95/65 83/92/65 84/91/65
f 80/95/66 79/22/66 82/24/66 83/92/66
f 19/96/67 78/97/67 81/94/67 21/93/67
f 78/97/68 77/98/68 80/95/68 81/94/68
f 77/98/69 76/20/69 79/22/69 80/95/69
f 17/99/70 75/100/70 78/97/70 19/96/70
f 75/100/71 74/101/71 77/98/71 78/97/71
f 74/101/72 73/18/72 76/20/72 77/98/72
f 15/102/73 72/103/73 75/100/73 17/99/73
f 72/103/74 71/104/74 74/101/74 75/100/74
f 71/104/75 70/16/75 73/18/75 74/101/75
f 13/105/76 69/106/76 72/103/76 15/102/76
f 69/106/77 68/107/77 71/104/77 72/103/77
f 68/107/78 67/14/78 70/16/78 71/104/78
f 11/108/79 66/109/79 69/106/79 13/105/79
f 66/109/80 65/110/80 68/107/80 69/106/80
f 65/110/81 64/12/81 67/14/81 68/107/81
f 9/111/82 63/112/82 66/109/82 11/108/82
f 63/112/83 62/113/83 65/110/83 66/109/83
f 62/113/84 61/10/84 64/12/84 65/110/84
f 7/114/85 60/115/85 63/112/85 9/111/85
f 60/115/86 59/116/86 62/113/86 63/112/86
f 59/116/87 58/8/87 61/10/87 62/113/87
f 5/117/88 57/118/88 60/115/88 7/114/88
f 57/118/89 56/119/89 59/116/89 60/115/89
f 56/119/90 55/6/90 58/8/90 59/116/90
f 3/120/91 54/121/91 57/118/91 5/117/91
f 54/121/92 53/122/92 56/119/92 57/118/92
f 53/122/93 52/4/93 55/6/93 56/119/93
f 1/123/94 49/124/94 54/121/94 3/120/94
f 49/124/95 50/125/95 53/122/95 54/121/95
f 50/125/96 51/1/96 52/4/96 53/122/96
