# Blender 5.0.1
# www.blender.org
mtllib tornado.mtl
o Cylinder
v -0.090311 0.000000 -1.256161
v 0.258747 5.770027 3.089075
v 0.255100 0.000000 -1.210687
v -0.555212 5.770027 3.049195
v 0.576971 0.000000 -1.077363
v -1.331279 5.770027 2.800215
v 0.853368 0.000000 -0.865277
v -2.016565 5.770027 2.359093
v 1.065455 0.000000 -0.588879
v -2.564372 5.770027 1.755886
v 1.198779 0.000000 -0.267008
v -2.937365 5.770027 1.031703
v 1.244253 0.000000 0.078403
v -3.110127 5.770027 0.235902
v 1.198779 0.000000 0.423813
v -3.070883 5.770027 -0.577270
v 1.065455 0.000000 0.745684
v -2.822307 5.770027 -1.352386
v 0.853368 0.000000 1.022082
v -2.381339 5.770027 -2.036612
v 0.576971 0.000000 1.234169
v -1.778029 5.770027 -2.583315
v 0.255100 0.000000 1.367492
v -1.053493 5.770027 -2.955237
v -0.090311 0.000000 1.412966
v -0.257106 5.770027 -3.127041
v -0.435721 0.000000 1.367492
v 0.556858 5.770027 -3.087033
v -0.757593 0.000000 1.234169
v 1.332929 5.770027 -2.837949
v -1.033990 0.000000 1.022082
v 2.018218 5.770027 -2.396776
v -1.246077 0.000000 0.745684
v 2.566024 5.770027 -1.793584
v -1.379401 0.000000 0.423813
v 2.939015 5.770027 -1.069479
v -1.424875 0.000000 0.078403
v 3.111771 5.770027 -0.273798
v -1.379401 0.000000 -0.267008
v 3.072522 5.770027 0.539245
v -1.246077 0.000000 -0.588879
v 2.823942 5.770027 1.314257
v -1.033990 0.000000 -0.865277
v 2.382971 5.770027 1.998432
v -0.757593 0.000000 -1.077363
v 1.779662 5.770027 2.545150
v -0.435721 0.000000 -1.210687
v 1.055129 5.770027 2.917150
v -0.249001 0.641114 -0.955195
v -0.550162 1.282228 -0.908449
v -0.938257 1.923342 -0.767350
v -1.407092 2.564456 -0.463291
v -1.820205 3.205570 0.240930
v -1.741277 3.830815 1.323631
v -1.114475 4.423244 2.203318
v -0.264888 5.046782 2.716500
v -0.939760 5.046782 2.559785
v -1.612692 4.423244 1.866196
v -2.000289 3.830815 0.838896
v -1.757343 3.205570 -0.276589
v -1.080828 2.564456 -0.837657
v -0.530873 1.923342 -0.922037
v -0.184389 1.282228 -0.919714
v 0.055372 0.641114 -0.916944
v -1.554904 5.046782 2.231104
v -2.013206 4.423244 1.401231
v -2.121552 3.830815 0.293841
v -1.553703 3.205570 -0.751140
v -0.662698 2.564456 -1.090145
v -0.106946 1.923342 -0.942079
v 0.164801 1.282228 -0.828083
v 0.338487 0.641114 -0.800815
v -2.065794 5.046782 1.750639
v -2.280295 4.423244 0.837069
v -2.089571 3.830815 -0.269934
v -1.230324 3.205570 -1.144749
v -0.213045 2.564456 -1.202649
v 0.289187 1.923342 -0.840862
v 0.468964 1.282228 -0.647071
v 0.581014 0.641114 -0.615567
v -2.434275 5.046782 1.150486
v -2.386862 4.423244 0.213848
v -1.902642 3.830815 -0.806354
v -0.818065 3.205570 -1.429444
v 0.226707 2.564456 -1.187410
v 0.628255 1.923342 -0.645855
v 0.710400 1.282228 -0.397275
v 0.767114 0.641114 -0.374100
v -2.632015 5.046782 0.472627
v -2.318841 4.423244 -0.419911
v -1.574224 3.830815 -1.270266
v -0.352971 3.205570 -1.589195
v 0.635047 2.564456 -1.065035
v 0.895696 1.923342 -0.395870
v 0.878848 1.282228 -0.103941
v 0.884369 0.641114 -0.093394
v -2.643263 5.046782 -0.234192
v -2.078154 4.423244 -1.012297
v -1.131820 3.830815 -1.623132
v 0.128233 3.205570 -1.619804
v 0.975585 2.564456 -0.870746
v 1.098097 1.923342 -0.102825
v 0.972315 1.282228 0.216629
v 0.925523 0.641114 0.207155
v -2.466540 5.046782 -0.918430
v -1.683402 4.423244 -1.514055
v -0.613504 3.830815 -1.837712
v 0.591733 3.205570 -1.527248
v 1.257946 2.564456 -0.614992
v 1.232789 1.923342 0.211752
v 0.990395 1.282228 0.542953
v 0.888560 0.641114 0.507427
v -2.114941 5.046782 -1.530140
v -1.167923 4.423244 -1.884513
v -0.062912 3.830815 -1.900758
v 1.008929 3.205570 -1.325188
v 1.475721 2.564456 -0.309897
v 1.298197 1.923342 0.542103
v 0.933686 1.282228 0.861301
v 0.776608 0.641114 0.787517
v -1.615023 5.046782 -2.025252
v -0.575635 4.423244 -2.096172
v 0.476156 3.830815 -1.813327
v 1.357439 3.205570 -1.032299
v 1.621855 2.564456 0.031736
v 1.287881 1.923342 0.879922
v 0.803243 1.282228 1.156409
v 0.597513 0.641114 1.029216
v -1.004299 5.046782 -2.369265
v 0.044512 4.423244 -2.137113
v 0.964384 3.830815 -1.588990
v 1.621061 3.205570 -0.669951
v 1.689888 2.564456 0.397423
v 1.201936 1.923342 1.205402
v 0.608289 1.282228 1.409575
v 0.363086 0.641114 1.216968
v -0.327772 5.046782 -2.539819
v 0.644245 4.423244 -2.010953
v 1.370094 3.830815 -1.250681
v 1.789078 3.205570 -0.260523
v 1.673235 2.564456 0.773966
v 1.042806 1.923342 1.502517
v 0.356753 1.282228 1.607562
v 0.088324 0.641114 1.338542
v 0.366078 5.046782 -2.527957
v 1.180798 4.423244 -1.734694
v 1.670697 3.830815 -0.827104
v 1.855295 3.205570 0.173545
v 1.565247 2.564456 1.145876
v 0.807000 1.923342 1.759470
v 0.057548 1.282228 1.737595
v -0.209299 0.641114 1.385547
v 1.029262 5.046782 -2.338012
v 1.620145 4.423244 -1.335243
v 1.852697 3.830815 -0.349471
v 1.817214 3.205570 0.610016
v 1.358785 2.564456 1.493339
v 0.497333 1.923342 1.957058
v -0.275275 1.282228 1.787026
v -0.510005 0.641114 1.354154
v 1.617763 5.046782 -1.986336
v 1.938460 4.423244 -0.845479
v 1.910755 3.830815 0.150986
v 1.675648 3.205570 1.026664
v 1.064559 2.564456 1.780734
v 0.137318 1.923342 2.069866
v -0.610320 1.282228 1.749659
v -0.791868 0.641114 1.246767
v 2.094198 5.046782 -1.499256
v 2.122026 4.423244 -0.300700
v 1.846353 3.830815 0.644611
v 1.434944 3.205570 1.400952
v 0.715529 2.564456 1.983952
v -0.232987 1.923342 2.087983
v -0.927198 1.282228 1.626714
v -1.038103 0.641114 1.069071
v 2.429631 5.046782 -0.910618
v 2.166121 4.423244 0.264143
v 1.666502 3.830815 1.104155
v 1.103845 3.205570 1.709999
v 0.305879 2.564456 2.098257
v -0.619605 1.923342 2.005609
v -1.212619 1.282228 1.417991
v -1.231400 0.641114 0.831945
v 2.604562 5.046782 -0.259331
v 2.073426 4.423244 0.816156
v 1.382751 3.830815 1.505107
v 0.696743 3.205570 1.931237
v -0.142293 2.564456 2.103182
v -0.993052 1.923342 1.814708
v -1.440256 1.282228 1.134341
v -1.357413 0.641114 0.550898
v 2.609349 5.046782 0.412958
v 1.852491 4.423244 1.325328
v 1.010593 3.830815 1.825807
v 0.234882 3.205570 2.044067
v -0.597799 2.564456 1.983206
v -1.290391 1.923342 1.539568
v -1.581963 1.282228 0.806378
v -1.405891 0.641114 0.246928
v 2.444258 5.046782 1.063948
v 1.516628 4.423244 1.764722
v 0.569250 3.830815 2.047602
v -0.253145 3.205570 2.032524
v -0.997213 2.564456 1.747544
v -1.516297 1.923342 1.182348
v -1.635952 1.282228 0.441814
v -1.373554 0.641114 -0.059756
v 2.119289 5.046782 1.652606
v 1.083393 4.423244 2.110384
v 0.081750 3.830815 2.155268
v -0.732254 3.205570 1.888572
v -1.323105 2.564456 1.409090
v -1.644474 1.923342 0.762538
v -1.591032 1.282228 0.068590
v -1.262112 0.641114 -0.348330
v 1.653867 5.046782 2.141061
v 0.574648 4.423244 2.341461
v -0.424976 3.830815 2.137900
v -1.163538 3.205570 1.615243
v -1.551821 2.564456 0.981137
v -1.651578 1.923342 0.314107
v -1.445592 1.282228 -0.281517
v -1.078929 0.641114 -0.597892
v 1.076247 5.046782 2.496608
v 0.016950 4.423244 2.440816
v -0.920244 3.830815 1.990326
v -1.508577 3.205570 1.228579
v -1.651799 2.564456 0.495634
v -1.528215 1.923342 -0.113641
v -1.210500 1.282228 -0.574211
v -0.836957 0.641114 -0.790394
v 0.422545 5.046782 2.693792
v -0.558151 4.423244 2.396402
v -1.370507 3.830815 1.714953
v -1.734744 3.205570 0.757458
v -1.603852 2.564456 -0.002821
v -1.283883 1.923342 -0.486267
v -0.903543 1.282228 -0.789710
v -0.553572 0.641114 -0.912222
v 0.086301 0.516550 -0.921923
v 0.117305 0.401302 -0.953186
v 0.154242 0.284616 -1.011927
v 0.199646 0.154759 -1.098063
v 0.361896 0.516550 -0.807768
v 0.394315 0.401302 -0.838445
v 0.439931 0.284616 -0.893591
v 0.500536 0.154759 -0.973430
v 0.598555 0.516550 -0.626173
v 0.632188 0.401302 -0.655918
v 0.685257 0.284616 -0.705345
v 0.758916 0.154759 -0.775168
v 0.780150 0.516550 -0.389514
v 0.814715 0.401302 -0.418044
v 0.873503 0.284616 -0.460018
v 0.957178 0.154759 -0.516788
v 0.894306 0.516550 -0.113918
v 0.929456 0.401302 -0.141035
v 0.991839 0.284616 -0.174329
v 1.081811 0.154759 -0.215897
v 0.933255 0.516550 0.181773
v 0.968592 0.401302 0.156234
v 1.032202 0.284616 0.132253
v 1.124321 0.154759 0.106998
v 0.894551 0.516550 0.477140
v 0.929456 0.401302 0.453502
v 0.991839 0.284616 0.438835
v 1.081811 0.154759 0.429893
v 0.781218 0.516550 0.752099
v 0.814715 0.401302 0.730512
v 0.873503 0.284616 0.724524
v 0.957178 0.154759 0.730783
v 0.601258 0.516550 0.988231
v 0.632188 0.401302 0.968385
v 0.685257 0.284616 0.969850
v 0.758916 0.154759 0.989164
v 0.366917 0.516550 1.169898
v 0.394332 0.401302 1.150906
v 0.439931 0.284616 1.158096
v 0.500536 0.154759 1.187426
v 0.093793 0.516550 1.285075
v 0.117525 0.401302 1.265633
v 0.154242 0.284616 1.276432
v 0.199646 0.154759 1.312059
v -0.200084 0.516550 1.325956
v -0.179455 0.401302 1.304859
v -0.152340 0.284616 1.316795
v -0.123249 0.154759 1.354569
v -0.494622 0.516550 1.289641
v -0.476307 0.401302 1.265997
v -0.458922 0.284616 1.276432
v -0.446144 0.154759 1.312059
v -0.769823 0.516550 1.178565
v -0.753058 0.401302 1.151675
v -0.744611 0.284616 1.158096
v -0.747035 0.154759 1.187426
v -1.007718 0.516550 0.999571
v -0.991004 0.401302 0.969501
v -0.989938 0.284616 0.969850
v -1.005415 0.154759 0.989164
v -1.191842 0.516550 0.764265
v -1.173877 0.401302 0.731710
v -1.178183 0.284616 0.724524
v -1.203677 0.154759 0.730783
v -1.309066 0.516550 0.488402
v -1.289035 0.401302 0.454452
v -1.296520 0.284616 0.438835
v -1.328310 0.154759 0.429893
v -1.350687 0.516550 0.191401
v -1.328450 0.401302 0.156757
v -1.336882 0.284616 0.132253
v -1.370820 0.154759 0.106998
v -1.313744 0.516550 -0.106139
v -1.289405 0.401302 -0.140797
v -1.296520 0.284616 -0.174329
v -1.328310 0.154759 -0.215897
v -1.200684 0.516550 -0.384181
v -1.174651 0.401302 -0.418019
v -1.178183 0.284616 -0.460018
v -1.203677 0.154759 -0.516788
v -1.019220 0.516550 -0.623203
v -0.992115 0.401302 -0.655918
v -0.989938 0.284616 -0.705345
v -1.005415 0.154759 -0.775168
v -0.782046 0.516550 -0.806527
v -0.754241 0.401302 -0.838445
v -0.744611 0.284616 -0.893591
v -0.747035 0.154759 -0.973430
v -0.505771 0.516550 -0.921603
v -0.477232 0.401302 -0.953186
v -0.458922 0.284616 -1.011927
v -0.446144 0.154759 -1.098063
v -0.123249 0.154759 -1.140573
v -0.152340 0.284616 -1.052289
v -0.179963 0.401302 -0.992322
v -0.209561 0.516550 -0.960835
vn 0.0105 0.5998 -0.8001
vn 0.0406 -0.4579 0.8881
vn 0.2095 0.6233 -0.7534
vn -0.1923 -0.4575 0.8682
vn 0.3885 0.6382 -0.6646
vn -0.4106 -0.4640 0.7849
vn 0.5412 0.6447 -0.5399
vn -0.5969 -0.4764 0.6455
vn 0.6622 0.6427 -0.3851
vn -0.7369 -0.4936 0.4619
vn 0.7467 0.6324 -0.2060
vn -0.8208 -0.5138 0.2496
vn 0.7896 0.6135 -0.0089
vn -0.8442 -0.5355 0.0257
vn 0.7857 0.5860 0.1983
vn -0.8078 -0.5571 -0.1927
vn 0.7303 0.5500 0.4052
vn -0.7171 -0.5774 -0.3903
vn 0.6211 0.5063 0.5983
vn -0.5813 -0.5952 -0.5548
vn 0.4593 0.4569 0.7617
vn -0.4115 -0.6099 -0.6773
vn 0.2525 0.4052 0.8787
vn -0.2197 -0.6206 -0.7527
vn 0.0146 0.3557 0.9345
vn -0.0182 -0.6272 -0.7787
vn -0.2348 0.3137 0.9200
vn 0.1820 -0.6292 -0.7557
vn -0.4735 0.2841 0.8337
vn 0.3703 -0.6264 -0.6859
vn -0.6797 0.2705 0.6818
vn 0.5373 -0.6188 -0.5731
vn -0.8347 0.2746 0.4773
vn 0.6739 -0.6063 -0.4222
vn -0.9249 0.2960 0.2385
vn 0.7714 -0.5894 -0.2400
vn -0.9432 0.3319 -0.0130
vn 0.8218 -0.5687 -0.0354
vn -0.8901 0.3780 -0.2547
vn 0.8186 -0.5455 0.1799
vn -0.7737 0.4291 -0.4662
vn 0.7582 -0.5215 0.3913
vn -0.6083 0.4803 -0.6319
vn 0.6415 -0.4987 0.5828
vn -0.4115 0.5273 -0.7434
vn 0.4746 -0.4794 0.7382
vn -0.2003 0.5676 -0.7985
vn 0.2690 -0.4654 0.8432
vn -0.0453 0.0374 -0.9983
vn -0.2227 0.0073 -0.9749
vn -0.5330 -0.0998 -0.8402
vn -0.8308 -0.2583 -0.4930
vn -0.9288 -0.3699 0.0242
vn -0.7502 -0.4146 0.5151
vn -0.4192 -0.4103 0.8099
vn -0.1071 -0.4325 0.8952
vn -0.3367 -0.4249 0.8403
vn -0.6182 -0.4015 0.6758
vn -0.8528 -0.4303 0.2958
vn -0.8753 -0.4244 -0.2316
vn -0.6252 -0.3383 -0.7033
vn -0.2461 -0.1556 -0.9567
vn 0.0681 0.0137 -0.9976
vn 0.2224 0.0841 -0.9713
vn -0.5439 -0.4252 0.7234
vn -0.7759 -0.3978 0.4897
vn -0.8953 -0.4418 0.0566
vn -0.7575 -0.4687 -0.4545
vn -0.3768 -0.4128 -0.8292
vn 0.0524 -0.2179 -0.9746
vn 0.3472 0.0038 -0.9378
vn 0.4706 0.1121 -0.8752
vn -0.7117 -0.4332 0.5531
vn -0.8780 -0.3989 0.2647
vn -0.8742 -0.4484 -0.1864
vn -0.5930 -0.5011 -0.6302
vn -0.1240 -0.4739 -0.8718
vn 0.3215 -0.2812 -0.9042
vn 0.5891 -0.0239 -0.8077
vn 0.6830 0.1186 -0.7207
vn -0.8258 -0.4477 0.3429
vn -0.9144 -0.4044 0.0178
vn -0.7899 -0.4499 -0.4166
vn -0.3983 -0.5195 -0.7560
vn 0.1055 -0.5186 -0.8485
vn 0.5304 -0.3441 -0.7748
vn 0.7743 -0.0712 -0.6288
vn 0.8474 0.1010 -0.5212
vn -0.8773 -0.4671 0.1103
vn -0.8808 -0.4134 -0.2310
vn -0.6478 -0.4458 -0.6178
vn -0.1876 -0.5243 -0.8306
vn 0.2963 -0.5510 -0.7802
vn 0.6788 -0.4015 -0.6149
vn 0.8976 -0.1362 -0.4192
vn 0.9554 0.0582 -0.2895
vn -0.8627 -0.4898 -0.1256
vn -0.7791 -0.4249 -0.4608
vn -0.4570 -0.4359 -0.7753
vn 0.0270 -0.5163 -0.8560
vn 0.4609 -0.5616 -0.6872
vn 0.7754 -0.4511 -0.4419
vn 0.9572 -0.2142 -0.1948
vn 0.9992 -0.0088 -0.0400
vn -0.7851 -0.5139 -0.3457
vn -0.6182 -0.4382 -0.6526
vn -0.2310 -0.4202 -0.8775
vn 0.2449 -0.4899 -0.8367
vn 0.6032 -0.5545 -0.5733
vn 0.8322 -0.4884 -0.2627
vn 0.9545 -0.2966 0.0319
vn 0.9729 -0.0953 0.2105
vn -0.6528 -0.5380 -0.5333
vn -0.4124 -0.4522 -0.7909
vn 0.0140 -0.3992 -0.9167
vn 0.4556 -0.4486 -0.7688
vn 0.7285 -0.5294 -0.4347
vn 0.8575 -0.5090 -0.0749
vn 0.8940 -0.3721 0.2497
vn 0.8763 -0.1918 0.4420
vn -0.4788 -0.5605 -0.6757
vn -0.1798 -0.4663 -0.8661
vn 0.2603 -0.3737 -0.8903
vn 0.6480 -0.3938 -0.6519
vn 0.8308 -0.4876 -0.2682
vn 0.8491 -0.5151 0.1170
vn 0.7846 -0.4345 0.4423
vn 0.7189 -0.2866 0.6333
vn -0.2782 -0.5805 -0.7652
vn 0.0597 -0.4800 -0.8752
vn 0.4899 -0.3453 -0.8005
vn 0.8091 -0.3272 -0.4881
vn 0.8992 -0.4310 -0.0753
vn 0.8056 -0.5063 0.3077
vn 0.6380 -0.4801 0.6020
vn 0.5186 -0.3698 0.7709
vn -0.0666 -0.5970 -0.7995
vn 0.2876 -0.4926 -0.8213
vn 0.6867 -0.3160 -0.6547
vn 0.9251 -0.2522 -0.2839
vn 0.9226 -0.3587 0.1418
vn 0.7231 -0.4778 0.4988
vn 0.4618 -0.5058 0.7286
vn 0.2947 -0.4350 0.8508
vn 0.1420 -0.6094 -0.7801
vn 0.4883 -0.5037 -0.7126
vn 0.8376 -0.2884 -0.4640
vn 0.9834 -0.1743 -0.0508
vn 0.8863 -0.2713 0.3753
vn 0.5922 -0.4298 0.6815
vn 0.2619 -0.5121 0.8181
vn 0.0640 -0.4798 0.8750
vn 0.3356 -0.6170 -0.7119
vn 0.6505 -0.5128 -0.5603
vn 0.9332 -0.2654 -0.2422
vn 0.9757 -0.1009 0.1947
vn 0.7794 -0.1802 0.6000
vn 0.4102 -0.3668 0.8350
vn 0.0459 -0.5018 0.8638
vn -0.1604 -0.5058 0.8476
vn 0.5049 -0.6194 -0.6012
vn 0.7671 -0.5192 -0.3769
vn 0.9685 -0.2492 -0.0044
vn 0.9018 -0.0440 0.4300
vn 0.6117 -0.0997 0.7848
vn 0.1911 -0.3011 0.9343
vn -0.1778 -0.4760 0.8613
vn -0.3706 -0.5144 0.7734
vn 0.6427 -0.6163 -0.4551
vn 0.8346 -0.5224 -0.1746
vn 0.9418 -0.2415 0.2340
vn 0.7706 -0.0093 0.6373
vn 0.3980 -0.0300 0.9169
vn -0.0541 -0.2287 0.9720
vn -0.3994 -0.4371 0.8059
vn -0.5602 -0.5063 0.6556
vn 0.7430 -0.6075 -0.2809
vn 0.8523 -0.5219 0.0352
vn 0.8552 -0.2431 0.4577
vn 0.5861 0.0115 0.8102
vn 0.1495 0.0272 0.9884
vn -0.3064 -0.1601 0.9383
vn -0.6060 -0.3892 0.6937
vn -0.7213 -0.4830 0.4965
vn 0.8006 -0.5930 -0.0863
vn 0.8209 -0.5171 0.2425
vn 0.7144 -0.2535 0.6523
vn 0.3602 0.0102 0.9328
vn -0.1132 0.0609 0.9917
vn -0.5435 -0.1017 0.8332
vn -0.7867 -0.3274 0.5234
vn -0.8449 -0.4440 0.2984
vn 0.8105 -0.5734 0.1197
vn 0.7420 -0.5079 0.4377
vn 0.5280 -0.2712 0.8048
vn 0.1065 -0.0119 0.9942
vn -0.3691 0.0688 0.9268
vn -0.7496 -0.0471 0.6603
vn -0.9141 -0.2640 0.3077
vn -0.9175 -0.3913 0.0716
vn 0.7692 -0.5494 0.3263
vn 0.6183 -0.4945 0.6109
vn 0.3084 -0.2943 0.9046
vn -0.1564 -0.0533 0.9863
vn -0.6046 0.0577 0.7945
vn -0.8980 -0.0139 0.4397
vn -0.9772 -0.2034 0.0612
vn -0.9290 -0.3272 -0.1729
vn 0.6754 -0.5226 0.5203
vn 0.4540 -0.4778 0.7521
vn 0.0702 -0.3202 0.9447
vn -0.4109 -0.1080 0.9053
vn -0.7982 0.0238 0.6019
vn -0.9833 0.0003 0.1821
vn -0.9682 -0.1458 -0.2032
vn -0.8716 -0.2542 -0.4193
vn 0.5313 -0.4952 0.6874
vn 0.2561 -0.4592 0.8506
vn -0.1703 -0.3467 0.9224
vn -0.6346 -0.1717 0.7535
vn -0.9340 -0.0292 0.3560
vn -0.9950 -0.0012 -0.1002
vn -0.8808 -0.0912 -0.4647
vn -0.7427 -0.1754 -0.6462
vn 0.3441 -0.4694 0.8132
vn 0.0349 -0.4405 0.8971
vn -0.3970 -0.3721 0.8390
vn -0.8055 -0.2396 0.5420
vn -0.9927 -0.0969 0.0715
vn -0.9230 -0.0185 -0.3842
vn -0.7184 -0.0457 -0.6942
vn -0.5506 -0.0969 -0.8291
vn 0.1260 -0.4478 0.8852
vn -0.1956 -0.4237 0.8844
vn -0.5947 -0.3950 0.7002
vn -0.9062 -0.3071 0.2906
vn -0.9588 -0.1758 -0.2232
vn -0.7667 -0.0532 -0.6399
vn -0.4940 -0.0131 -0.8694
vn -0.3112 -0.0245 -0.9500
vn 0.2533 0.2125 -0.9438
vn 0.2366 0.4097 -0.8810
vn 0.2168 0.5453 -0.8097
vn 0.2050 0.6074 -0.7675
vn 0.4846 0.2484 -0.8387
vn 0.4498 0.4378 -0.7785
vn 0.4122 0.5657 -0.7142
vn 0.3905 0.6239 -0.6770
vn 0.6821 0.2638 -0.6820
vn 0.6315 0.4500 -0.6314
vn 0.5787 0.5746 -0.5787
vn 0.5485 0.6310 -0.5486
vn 0.8366 0.2579 -0.4833
vn 0.7749 0.4464 -0.4476
vn 0.7104 0.5719 -0.4101
vn 0.6734 0.6289 -0.3886
vn 0.9399 0.2300 -0.2525
vn 0.8734 0.4268 -0.2344
vn 0.8018 0.5577 -0.2147
vn 0.7599 0.6174 -0.2031
vn 0.9836 0.1802 -0.0012
vn 0.9203 0.3911 -0.0007
vn 0.8468 0.5318 0.0001
vn 0.8026 0.5965 0.0007
vn 0.9606 0.1100 0.2552
vn 0.9088 0.3394 0.2426
vn 0.8397 0.4941 0.2251
vn 0.7961 0.5660 0.2142
vn 0.8674 0.0238 0.4970
vn 0.8337 0.2728 0.4801
vn 0.7755 0.4451 0.4477
vn 0.7359 0.5263 0.4259
vn 0.7086 -0.0708 0.7021
vn 0.6943 0.1948 0.6928
vn 0.6523 0.3864 0.6521
vn 0.6203 0.4785 0.6215
vn 0.4981 -0.1640 0.8514
vn 0.4976 0.1113 0.8602
vn 0.4737 0.3212 0.8200
vn 0.4520 0.4250 0.7842
vn 0.2569 -0.2464 0.9345
vn 0.2592 0.0304 0.9654
vn 0.2506 0.2547 0.9340
vn 0.2400 0.3697 0.8976
vn 0.0066 -0.3120 0.9501
vn 0.0001 -0.0403 0.9992
vn 0.0004 0.1929 0.9812
vn -0.0003 0.3175 0.9483
vn -0.2347 -0.3585 0.9036
vn -0.2577 -0.0950 0.9615
vn -0.2560 0.1421 0.9562
vn -0.2490 0.2737 0.9290
vn -0.4549 -0.3853 0.8029
vn -0.4961 -0.1299 0.8585
vn -0.4971 0.1074 0.8610
vn -0.4850 0.2432 0.8400
vn -0.6451 -0.3924 0.6557
vn -0.7002 -0.1433 0.6994
vn -0.7043 0.0920 0.7039
vn -0.6883 0.2293 0.6883
vn -0.7971 -0.3808 0.4687
vn -0.8585 -0.1353 0.4947
vn -0.8621 0.0971 0.4973
vn -0.8421 0.2335 0.4862
vn -0.9026 -0.3513 0.2490
vn -0.9606 -0.1067 0.2564
vn -0.9588 0.1221 0.2565
vn -0.9339 0.2554 0.2503
vn -0.9526 -0.3042 0.0061
vn -0.9982 -0.0593 -0.0012
vn -0.9863 0.1647 -0.0004
vn -0.9563 0.2925 0.0002
vn -0.9389 -0.2409 -0.2460
vn -0.9656 0.0043 -0.2600
vn -0.9420 0.2209 -0.2528
vn -0.9082 0.3408 -0.2430
vn -0.8564 -0.1647 -0.4893
vn -0.8627 0.0790 -0.4995
vn -0.8299 0.2854 -0.4795
vn -0.7958 0.3952 -0.4588
vn -0.7070 -0.0804 -0.7026
vn -0.6974 0.1587 -0.6989
vn -0.6618 0.3519 -0.6620
vn -0.6319 0.4502 -0.6309
vn -0.5014 0.0058 -0.8652
vn -0.4850 0.2368 -0.8419
vn -0.4550 0.4145 -0.7882
vn -0.4333 0.5015 -0.7488
vn -0.2583 0.0873 -0.9621
vn -0.2455 0.3073 -0.9194
vn -0.2286 0.4691 -0.8531
vn -0.2177 0.5458 -0.8092
vn -0.0008 0.5813 -0.8137
vn -0.0001 0.5130 -0.8584
vn 0.0007 0.3658 -0.9307
vn 0.0003 0.1578 -0.9875
vt 1.000000 0.888889
vt 1.000000 1.000000
vt 0.958333 1.000000
vt 0.958333 0.888889
vt 0.916667 1.000000
vt 0.916667 0.888889
vt 0.875000 1.000000
vt 0.875000 0.888889
vt 0.833333 1.000000
vt 0.833333 0.888889
vt 0.791667 1.000000
vt 0.791667 0.888889
vt 0.750000 1.000000
vt 0.750000 0.888889
vt 0.708333 1.000000
vt 0.708333 0.888889
vt 0.666667 1.000000
vt 0.666667 0.888889
vt 0.625000 1.000000
vt 0.625000 0.888889
vt 0.583333 1.000000
vt 0.583333 0.888889
vt 0.541666 1.000000
vt 0.541666 0.888889
vt 0.500000 1.000000
vt 0.500000 0.888889
vt 0.458333 1.000000
vt 0.458333 0.888889
vt 0.416666 1.000000
vt 0.416666 0.888889
vt 0.375000 1.000000
vt 0.375000 0.888889
vt 0.333333 1.000000
vt 0.333333 0.888889
vt 0.291667 1.000000
vt 0.291667 0.888889
vt 0.250000 1.000000
vt 0.250000 0.888889
vt 0.208333 1.000000
vt 0.208333 0.888889
vt 0.166666 1.000000
vt 0.166667 0.888889
vt 0.125000 1.000000
vt 0.125000 0.888889
vt 0.083333 1.000000
vt 0.083333 0.888889
vt 0.041666 1.000000
vt 0.041666 0.888889
vt -0.000000 1.000000
vt -0.000000 0.888889
vt 0.041666 0.088889
vt 0.041666 0.111111
vt -0.000000 0.111111
vt -0.000000 0.088889
vt 0.041666 0.222222
vt -0.000000 0.222222
vt 0.041666 0.333333
vt -0.000000 0.333333
vt 0.041666 0.444444
vt -0.000000 0.444444
vt 0.041666 0.555556
vt -0.000000 0.555556
vt 0.041666 0.666667
vt -0.000000 0.666667
vt 0.041666 0.777778
vt -0.000000 0.777778
vt 0.083333 0.088889
vt 0.083333 0.111111
vt 0.083333 0.222222
vt 0.083333 0.333333
vt 0.083333 0.444444
vt 0.083333 0.555556
vt 0.083333 0.666667
vt 0.083333 0.777778
vt 0.125000 0.088889
vt 0.125000 0.111111
vt 0.125000 0.222222
vt 0.125000 0.333333
vt 0.125000 0.444444
vt 0.125000 0.555556
vt 0.125000 0.666667
vt 0.125000 0.777778
vt 0.166666 0.088889
vt 0.166666 0.111111
vt 0.166666 0.222222
vt 0.166666 0.333333
vt 0.166666 0.444444
vt 0.166666 0.555556
vt 0.166667 0.666667
vt 0.166667 0.777778
vt 0.208333 0.088889
vt 0.208333 0.111111
vt 0.208333 0.222222
vt 0.208333 0.333333
vt 0.208333 0.444444
vt 0.208333 0.555556
vt 0.208333 0.666667
vt 0.208333 0.777778
vt 0.250000 0.088889
vt 0.250000 0.111111
vt 0.250000 0.222222
vt 0.250000 0.333333
vt 0.250000 0.444444
vt 0.250000 0.555556
vt 0.250000 0.666667
vt 0.250000 0.777778
vt 0.291667 0.088889
vt 0.291667 0.111111
vt 0.291667 0.222222
vt 0.291667 0.333333
vt 0.291667 0.444444
vt 0.291667 0.555556
vt 0.291667 0.666667
vt 0.291667 0.777778
vt 0.333333 0.088889
vt 0.333333 0.111111
vt 0.333333 0.222222
vt 0.333333 0.333333
vt 0.333333 0.444444
vt 0.333333 0.555556
vt 0.333333 0.666667
vt 0.333333 0.777778
vt 0.375000 0.088889
vt 0.375000 0.111111
vt 0.375000 0.222222
vt 0.375000 0.333333
vt 0.375000 0.444444
vt 0.375000 0.555556
vt 0.375000 0.666667
vt 0.375000 0.777778
vt 0.416667 0.088889
vt 0.416666 0.111111
vt 0.416666 0.222222
vt 0.416667 0.333333
vt 0.416667 0.444444
vt 0.416666 0.555556
vt 0.416666 0.666667
vt 0.416666 0.777778
vt 0.458333 0.088889
vt 0.458333 0.111111
vt 0.458333 0.222222
vt 0.458333 0.333333
vt 0.458333 0.444444
vt 0.458333 0.555556
vt 0.458333 0.666667
vt 0.458333 0.777778
vt 0.500000 0.088889
vt 0.500000 0.111111
vt 0.500000 0.222222
vt 0.500000 0.333333
vt 0.500000 0.444444
vt 0.500000 0.555556
vt 0.500000 0.666667
vt 0.500000 0.777778
vt 0.541666 0.088889
vt 0.541666 0.111111
vt 0.541666 0.222222
vt 0.541666 0.333333
vt 0.541666 0.444444
vt 0.541666 0.555556
vt 0.541666 0.666667
vt 0.541666 0.777778
vt 0.583333 0.088889
vt 0.583333 0.111111
vt 0.583333 0.222222
vt 0.583333 0.333333
vt 0.583333 0.444444
vt 0.583333 0.555556
vt 0.583333 0.666667
vt 0.583333 0.777778
vt 0.625000 0.088889
vt 0.625000 0.111111
vt 0.625000 0.222222
vt 0.625000 0.333333
vt 0.625000 0.444444
vt 0.625000 0.555556
vt 0.625000 0.666667
vt 0.625000 0.777778
vt 0.666667 0.088889
vt 0.666667 0.111111
vt 0.666667 0.222222
vt 0.666667 0.333333
vt 0.666667 0.444444
vt 0.666667 0.555556
vt 0.666667 0.666667
vt 0.666667 0.777778
vt 0.708333 0.088889
vt 0.708333 0.111111
vt 0.708333 0.222222
vt 0.708333 0.333333
vt 0.708333 0.444444
vt 0.708333 0.555556
vt 0.708333 0.666667
vt 0.708333 0.777778
vt 0.750000 0.088889
vt 0.750000 0.111111
vt 0.750000 0.222222
vt 0.750000 0.333333
vt 0.750000 0.444444
vt 0.750000 0.555556
vt 0.750000 0.666667
vt 0.750000 0.777778
vt 0.791667 0.088889
vt 0.791667 0.111111
vt 0.791667 0.222222
vt 0.791667 0.333333
vt 0.791667 0.444444
vt 0.791667 0.555556
vt 0.791667 0.666667
vt 0.791667 0.777778
vt 0.833333 0.088889
vt 0.833333 0.111111
vt 0.833333 0.222222
vt 0.833333 0.333333
vt 0.833333 0.444444
vt 0.833333 0.555556
vt 0.833333 0.666667
vt 0.833333 0.777778
vt 0.875000 0.088889
vt 0.875000 0.111111
vt 0.875000 0.222222
vt 0.875000 0.333333
vt 0.875000 0.444444
vt 0.875000 0.555556
vt 0.875000 0.666667
vt 0.875000 0.777778
vt 0.916667 0.088889
vt 0.916667 0.111111
vt 0.916667 0.222222
vt 0.916667 0.333333
vt 0.916667 0.444444
vt 0.916667 0.555556
vt 0.916667 0.666667
vt 0.916667 0.777778
vt 0.958333 0.088889
vt 0.958333 0.111111
vt 0.958333 0.222222
vt 0.958333 0.333333
vt 0.958333 0.444444
vt 0.958333 0.555556
vt 0.958333 0.666667
vt 0.958333 0.777778
vt 1.000000 0.088889
vt 1.000000 0.111111
vt 1.000000 0.222222
vt 1.000000 0.333333
vt 1.000000 0.444444
vt 1.000000 0.555556
vt 1.000000 0.666667
vt 1.000000 0.777778
vt 1.000000 0.000000
vt 1.000000 0.022222
vt 0.958333 0.022222
vt 0.958333 0.000000
vt 1.000000 0.044444
vt 0.958333 0.044444
vt 1.000000 0.066667
vt 0.958333 0.066667
vt 0.916667 0.022222
vt 0.916667 0.000000
vt 0.916667 0.044444
vt 0.916667 0.066667
vt 0.875000 0.022222
vt 0.875000 0.000000
vt 0.875000 0.044444
vt 0.875000 0.066667
vt 0.833333 0.022222
vt 0.833333 0.000000
vt 0.833333 0.044444
vt 0.833333 0.066667
vt 0.791667 0.022222
vt 0.791667 0.000000
vt 0.791667 0.044444
vt 0.791667 0.066667
vt 0.750000 0.022222
vt 0.750000 0.000000
vt 0.750000 0.044444
vt 0.750000 0.066667
vt 0.708333 0.022222
vt 0.708333 0.000000
vt 0.708333 0.044444
vt 0.708333 0.066667
vt 0.666667 0.022222
vt 0.666667 0.000000
vt 0.666667 0.044444
vt 0.666667 0.066667
vt 0.625000 0.022222
vt 0.625000 0.000000
vt 0.625000 0.044444
vt 0.625000 0.066667
vt 0.583333 0.022222
vt 0.583333 0.000000
vt 0.583333 0.044444
vt 0.583333 0.066667
vt 0.541666 0.022222
vt 0.541666 0.000000
vt 0.541666 0.044444
vt 0.541666 0.066667
vt 0.500000 0.022222
vt 0.500000 0.000000
vt 0.500000 0.044444
vt 0.500000 0.066667
vt 0.458333 0.022222
vt 0.458333 0.000000
vt 0.458333 0.044444
vt 0.458333 0.066667
vt 0.416666 0.022222
vt 0.416666 0.000000
vt 0.416666 0.044444
vt 0.416667 0.066667
vt 0.375000 0.022222
vt 0.375000 0.000000
vt 0.375000 0.044444
vt 0.375000 0.066667
vt 0.333333 0.022222
vt 0.333333 0.000000
vt 0.333333 0.044444
vt 0.333333 0.066667
vt 0.291667 0.022222
vt 0.291667 0.000000
vt 0.291667 0.044444
vt 0.291667 0.066667
vt 0.250000 0.022222
vt 0.250000 0.000000
vt 0.250000 0.044444
vt 0.250000 0.066667
vt 0.208333 0.022222
vt 0.208333 0.000000
vt 0.208333 0.044444
vt 0.208333 0.066667
vt 0.166666 0.022222
vt 0.166666 0.000000
vt 0.166666 0.044444
vt 0.166666 0.066667
vt 0.125000 0.022222
vt 0.125000 0.000000
vt 0.125000 0.044444
vt 0.125000 0.066667
vt 0.083333 0.022222
vt 0.083333 0.000000
vt 0.083333 0.044444
vt 0.083333 0.066667
vt 0.041666 0.022222
vt 0.041666 0.000000
vt 0.041666 0.044444
vt 0.041666 0.066667
vt -0.000000 0.022222
vt -0.000000 0.000000
vt -0.000000 0.044444
vt -0.000000 0.066667
s 1
f 56/1/56 2/2/2 4/3/4 57/4/57
f 57/4/57 4/3/4 6/5/6 65/6/65
f 65/6/65 6/5/6 8/7/8 73/8/73
f 73/8/73 8/7/8 10/9/10 81/10/81
f 81/10/81 10/9/10 12/11/12 89/12/89
f 89/12/89 12/11/12 14/13/14 97/14/97
f 97/14/97 14/13/14 16/15/16 105/16/105
f 105/16/105 16/15/16 18/17/18 113/18/113
f 113/18/113 18/17/18 20/19/20 121/20/121
f 121/20/121 20/19/20 22/21/22 129/22/129
f 129/22/129 22/21/22 24/23/24 137/24/137
f 137/24/137 24/23/24 26/25/26 145/26/145
f 145/26/145 26/25/26 28/27/28 153/28/153
f 153/28/153 28/27/28 30/29/30 161/30/161
f 161/30/161 30/29/30 32/31/32 169/32/169
f 169/32/169 32/31/32 34/33/34 177/34/177
f 177/34/177 34/33/34 36/35/36 185/36/185
f 185/36/185 36/35/36 38/37/38 193/38/193
f 193/38/193 38/37/38 40/39/40 201/40/201
f 201/40/201 40/39/40 42/41/42 209/42/209
f 209/42/209 42/41/42 44/43/44 217/44/217
f 217/44/217 44/43/44 46/45/46 225/46/225
f 225/46/225 46/45/46 48/47/48 233/48/233
f 233/48/233 48/47/48 2/49/2 56/50/56
f 329/51/329 240/52/240 49/53/49 336/54/336
f 240/52/240 239/55/239 50/56/50 49/53/49
f 239/55/239 238/57/238 51/58/51 50/56/50
f 238/57/238 237/59/237 52/60/52 51/58/51
f 237/59/237 236/61/236 53/62/53 52/60/52
f 236/61/236 235/63/235 54/64/54 53/62/53
f 235/63/235 234/65/234 55/66/55 54/64/54
f 234/65/234 233/48/233 56/50/56 55/66/55
f 325/67/325 232/68/232 240/52/240 329/51/329
f 232/68/232 231/69/231 239/55/239 240/52/240
f 231/69/231 230/70/230 238/57/238 239/55/239
f 230/70/230 229/71/229 237/59/237 238/57/238
f 229/71/229 228/72/228 236/61/236 237/59/237
f 228/72/228 227/73/227 235/63/235 236/61/236
f 227/73/227 226/74/226 234/65/234 235/63/235
f 226/74/226 225/46/225 233/48/233 234/65/234
f 321/75/321 224/76/224 232/68/232 325/67/325
f 224/76/224 223/77/223 231/69/231 232/68/232
f 223/77/223 222/78/222 230/70/230 231/69/231
f 222/78/222 221/79/221 229/71/229 230/70/230
f 221/79/221 220/80/220 228/72/228 229/71/229
f 220/80/220 219/81/219 227/73/227 228/72/228
f 219/81/219 218/82/218 226/74/226 227/73/227
f 218/82/218 217/44/217 225/46/225 226/74/226
f 317/83/317 216/84/216 224/76/224 321/75/321
f 216/84/216 215/85/215 223/77/223 224/76/224
f 215/85/215 214/86/214 222/78/222 223/77/223
f 214/86/214 213/87/213 221/79/221 222/78/222
f 213/87/213 212/88/212 220/80/220 221/79/221
f 212/88/212 211/89/211 219/81/219 220/80/220
f 211/89/211 210/90/210 218/82/218 219/81/219
f 210/90/210 209/42/209 217/44/217 218/82/218
f 313/91/313 208/92/208 216/84/216 317/83/317
f 208/92/208 207/93/207 215/85/215 216/84/216
f 207/93/207 206/94/206 214/86/214 215/85/215
f 206/94/206 205/95/205 213/87/213 214/86/214
f 205/95/205 204/96/204 212/88/212 213/87/213
f 204/96/204 203/97/203 211/89/211 212/88/212
f 203/97/203 202/98/202 210/90/210 211/89/211
f 202/98/202 201/40/201 209/42/209 210/90/210
f 309/99/309 200/100/200 208/92/208 313/91/313
f 200/100/200 199/101/199 207/93/207 208/92/208
f 199/101/199 198/102/198 206/94/206 207/93/207
f 198/102/198 197/103/197 205/95/205 206/94/206
f 197/103/197 196/104/196 204/96/204 205/95/205
f 196/104/196 195/105/195 203/97/203 204/96/204
f 195/105/195 194/106/194 202/98/202 203/97/203
f 194/106/194 193/38/193 201/40/201 202/98/202
f 305/107/305 192/108/192 200/100/200 309/99/309
f 192/108/192 191/109/191 199/101/199 200/100/200
f 191/109/191 190/110/190 198/102/198 199/101/199
f 190/110/190 189/111/189 197/103/197 198/102/198
f 189/111/189 188/112/188 196/104/196 197/103/197
f 188/112/188 187/113/187 195/105/195 196/104/196
f 187/113/187 186/114/186 194/106/194 195/105/195
f 186/114/186 185/36/185 193/38/193 194/106/194
f 301/115/301 184/116/184 192/108/192 305/107/305
f 184/116/184 183/117/183 191/109/191 192/108/192
f 183/117/183 182/118/182 190/110/190 191/109/191
f 182/118/182 181/119/181 189/111/189 190/110/190
f 181/119/181 180/120/180 188/112/188 189/111/189
f 180/120/180 179/121/179 187/113/187 188/112/188
f 179/121/179 178/122/178 186/114/186 187/113/187
f 178/122/178 177/34/177 185/36/185 186/114/186
f 297/123/297 176/124/176 184/116/184 301/115/301
f 176/124/176 175/125/175 183/117/183 184/116/184
f 175/125/175 174/126/174 182/118/182 183/117/183
f 174/126/174 173/127/173 181/119/181 182/118/182
f 173/127/173 172/128/172 180/120/180 181/119/181
f 172/128/172 171/129/171 179/121/179 180/120/180
f 171/129/171 170/130/170 178/122/178 179/121/179
f 170/130/170 169/32/169 177/34/177 178/122/178
f 293/131/293 168/132/168 176/124/176 297/123/297
f 168/132/168 167/133/167 175/125/175 176/124/176
f 167/133/167 166/134/166 174/126/174 175/125/175
f 166/134/166 165/135/165 173/127/173 174/126/174
f 165/135/165 164/136/164 172/128/172 173/127/173
f 164/136/164 163/137/163 171/129/171 172/128/172
f 163/137/163 162/138/162 170/130/170 171/129/171
f 162/138/162 161/30/161 169/32/169 170/130/170
f 289/139/289 160/140/160 168/132/168 293/131/293
f 160/140/160 159/141/159 167/133/167 168/132/168
f 159/141/159 158/142/158 166/134/166 167/133/167
f 158/142/158 157/143/157 165/135/165 166/134/166
f 157/143/157 156/144/156 164/136/164 165/135/165
f 156/144/156 155/145/155 163/137/163 164/136/164
f 155/145/155 154/146/154 162/138/162 163/137/163
f 154/146/154 153/28/153 161/30/161 162/138/162
f 285/147/285 152/148/152 160/140/160 289/139/289
f 152/148/152 151/149/151 159/141/159 160/140/160
f 151/149/151 150/150/150 158/142/158 159/141/159
f 150/150/150 149/151/149 157/143/157 158/142/158
f 149/151/149 148/152/148 156/144/156 157/143/157
f 148/152/148 147/153/147 155/145/155 156/144/156
f 147/153/147 146/154/146 154/146/154 155/145/155
f 146/154/146 145/26/145 153/28/153 154/146/154
f 281/155/281 144/156/144 152/148/152 285/147/285
f 144/156/144 143/157/143 151/149/151 152/148/152
f 143/157/143 142/158/142 150/150/150 151/149/151
f 142/158/142 141/159/141 149/151/149 150/150/150
f 141/159/141 140/160/140 148/152/148 149/151/149
f 140/160/140 139/161/139 147/153/147 148/152/148
f 139/161/139 138/162/138 146/154/146 147/153/147
f 138/162/138 137/24/137 145/26/145 146/154/146
f 277/163/277 136/164/136 144/156/144 281/155/281
f 136/164/136 135/165/135 143/157/143 144/156/144
f 135/165/135 134/166/134 142/158/142 143/157/143
f 134/166/134 133/167/133 141/159/141 142/158/142
f 133/167/133 132/168/132 140/160/140 141/159/141
f 132/168/132 131/169/131 139/161/139 140/160/140
f 131/169/131 130/170/130 138/162/138 139/161/139
f 130/170/130 129/22/129 137/24/137 138/162/138
f 273/171/273 128/172/128 136/164/136 277/163/277
f 128/172/128 127/173/127 135/165/135 136/164/136
f 127/173/127 126/174/126 134/166/134 135/165/135
f 126/174/126 125/175/125 133/167/133 134/166/134
f 125/175/125 124/176/124 132/168/132 133/167/133
f 124/176/124 123/177/123 131/169/131 132/168/132
f 123/177/123 122/178/122 130/170/130 131/169/131
f 122/178/122 121/20/121 129/22/129 130/170/130
f 269/179/269 120/180/120 128/172/128 273/171/273
f 120/180/120 119/181/119 127/173/127 128/172/128
f 119/181/119 118/182/118 126/174/126 127/173/127
f 118/182/118 117/183/117 125/175/125 126/174/126
f 117/183/117 116/184/116 124/176/124 125/175/125
f 116/184/116 115/185/115 123/177/123 124/176/124
f 115/185/115 114/186/114 122/178/122 123/177/123
f 114/186/114 113/18/113 121/20/121 122/178/122
f 265/187/265 112/188/112 120/180/120 269/179/269
f 112/188/112 111/189/111 119/181/119 120/180/120
f 111/189/111 110/190/110 118/182/118 119/181/119
f 110/190/110 109/191/109 117/183/117 118/182/118
f 109/191/109 108/192/108 116/184/116 117/183/117
f 108/192/108 107/193/107 115/185/115 116/184/116
f 107/193/107 106/194/106 114/186/114 115/185/115
f 106/194/106 105/16/105 113/18/113 114/186/114
f 261/195/261 104/196/104 112/188/112 265/187/265
f 104/196/104 103/197/103 111/189/111 112/188/112
f 103/197/103 102/198/102 110/190/110 111/189/111
f 102/198/102 101/199/101 109/191/109 110/190/110
f 101/199/101 100/200/100 108/192/108 109/191/109
f 100/200/100 99/201/99 107/193/107 108/192/108
f 99/201/99 98/202/98 106/194/106 107/193/107
f 98/202/98 97/14/97 105/16/105 106/194/106
f 257/203/257 96/204/96 104/196/104 261/195/261
f 96/204/96 95/205/95 103/197/103 104/196/104
f 95/205/95 94/206/94 102/198/102 103/197/103
f 94/206/94 93/207/93 101/199/101 102/198/102
f 93/207/93 92/208/92 100/200/100 101/199/101
f 92/208/92 91/209/91 99/201/99 100/200/100
f 91/209/91 90/210/90 98/202/98 99/201/99
f 90/210/90 89/12/89 97/14/97 98/202/98
f 253/211/253 88/212/88 96/204/96 257/203/257
f 88/212/88 87/213/87 95/205/95 96/204/96
f 87/213/87 86/214/86 94/206/94 95/205/95
f 86/214/86 85/215/85 93/207/93 94/206/94
f 85/215/85 84/216/84 92/208/92 93/207/93
f 84/216/84 83/217/83 91/209/91 92/208/92
f 83/217/83 82/218/82 90/210/90 91/209/91
f 82/218/82 81/10/81 89/12/89 90/210/90
f 249/219/249 80/220/80 88/212/88 253/211/253
f 80/220/80 79/221/79 87/213/87 88/212/88
f 79/221/79 78/222/78 86/214/86 87/213/87
f 78/222/78 77/223/77 85/215/85 86/214/86
f 77/223/77 76/224/76 84/216/84 85/215/85
f 76/224/76 75/225/75 83/217/83 84/216/84
f 75/225/75 74/226/74 82/218/82 83/217/83
f 74/226/74 73/8/73 81/10/81 82/218/82
f 245/227/245 72/228/72 80/220/80 249/219/249
f 72/228/72 71/229/71 79/221/79 80/220/80
f 71/229/71 70/230/70 78/222/78 79/221/79
f 70/230/70 69/231/69 77/223/77 78/222/78
f 69/231/69 68/232/68 76/224/76 77/223/77
f 68/232/68 67/233/67 75/225/75 76/224/76
f 67/233/67 66/234/66 74/226/74 75/225/75
f 66/234/66 65/6/65 73/8/73 74/226/74
f 241/235/241 64/236/64 72/228/72 245/227/245
f 64/236/64 63/237/63 71/229/71 72/228/72
f 63/237/63 62/238/62 70/230/70 71/229/71
f 62/238/62 61/239/61 69/231/69 70/230/70
f 61/239/61 60/240/60 68/232/68 69/231/69
f 60/240/60 59/241/59 67/233/67 68/232/68
f 59/241/59 58/242/58 66/234/66 67/233/67
f 58/242/58 57/4/57 65/6/65 66/234/66
f 336/243/336 49/244/49 64/236/64 241/235/241
f 49/244/49 50/245/50 63/237/63 64/236/64
f 50/245/50 51/246/51 62/238/62 63/237/63
f 51/246/51 52/247/52 61/239/61 62/238/62
f 52/247/52 53/248/53 60/240/60 61/239/61
f 53/248/53 54/249/54 59/241/59 60/240/60
f 54/249/54 55/250/55 58/242/58 59/241/59
f 55/250/55 56/1/56 57/4/57 58/242/58
f 1/251/1 333/252/333 244/253/244 3/254/3
f 333/252/333 334/255/334 243/256/243 244/253/244
f 334/255/334 335/257/335 242/258/242 243/256/243
f 335/257/335 336/243/336 241/235/241 242/258/242
f 3/254/3 244/253/244 248/259/248 5/260/5
f 244/253/244 243/256/243 247/261/247 248/259/248
f 243/256/243 242/258/242 246/262/246 247/261/247
f 242/258/242 241/235/241 245/227/245 246/262/246
f 5/260/5 248/259/248 252/263/252 7/264/7
f 248/259/248 247/261/247 251/265/251 252/263/252
f 247/261/247 246/262/246 250/266/250 251/265/251
f 246/262/246 245/227/245 249/219/249 250/266/250
f 7/264/7 252/263/252 256/267/256 9/268/9
f 252/263/252 251/265/251 255/269/255 256/267/256
f 251/265/251 250/266/250 254/270/254 255/269/255
f 250/266/250 249/219/249 253/211/253 254/270/254
f 9/268/9 256/267/256 260/271/260 11/272/11
f 256/267/256 255/269/255 259/273/259 260/271/260
f 255/269/255 254/270/254 258/274/258 259/273/259
f 254/270/254 253/211/253 257/203/257 258/274/258
f 11/272/11 260/271/260 264/275/264 13/276/13
f 260/271/260 259/273/259 263/277/263 264/275/264
f 259/273/259 258/274/258 262/278/262 263/277/263
f 258/274/258 257/203/257 261/195/261 262/278/262
f 13/276/13 264/275/264 268/279/268 15/280/15
f 264/275/264 263/277/263 267/281/267 268/279/268
f 263/277/263 262/278/262 266/282/266 267/281/267
f 262/278/262 261/195/261 265/187/265 266/282/266
f 15/280/15 268/279/268 272/283/272 17/284/17
f 268/279/268 267/281/267 271/285/271 272/283/272
f 267/281/267 266/282/266 270/286/270 271/285/271
f 266/282/266 265/187/265 269/179/269 270/286/270
f 17/284/17 272/283/272 276/287/276 19/288/19
f 272/283/272 271/285/271 275/289/275 276/287/276
f 271/285/271 270/286/270 274/290/274 275/289/275
f 270/286/270 269/179/269 273/171/273 274/290/274
f 19/288/19 276/287/276 280/291/280 21/292/21
f 276/287/276 275/289/275 279/293/279 280/291/280
f 275/289/275 274/290/274 278/294/278 279/293/279
f 274/290/274 273/171/273 277/163/277 278/294/278
f 21/292/21 280/291/280 284/295/284 23/296/23
f 280/291/280 279/293/279 283/297/283 284/295/284
f 279/293/279 278/294/278 282/298/282 283/297/283
f 278/294/278 277/163/277 281/155/281 282/298/282
f 23/296/23 284/295/284 288/299/288 25/300/25
f 284/295/284 283/297/283 287/301/287 288/299/288
f 283/297/283 282/298/282 286/302/286 287/301/287
f 282/298/282 281/155/281 285/147/285 286/302/286
f 25/300/25 288/299/288 292/303/292 27/304/27
f 288/299/288 287/301/287 291/305/291 292/303/292
f 287/301/287 286/302/286 290/306/290 291/305/291
f 286/302/286 285/147/285 289/139/289 290/306/290
f 27/304/27 292/303/292 296/307/296 29/308/29
f 292/303/292 291/305/291 295/309/295 296/307/296
f 291/305/291 290/306/290 294/310/294 295/309/295
f 290/306/290 289/139/289 293/131/293 294/310/294
f 29/308/29 296/307/296 300/311/300 31/312/31
f 296/307/296 295/309/295 299/313/299 300/311/300
f 295/309/295 294/310/294 298/314/298 299/313/299
f 294/310/294 293/131/293 297/123/297 298/314/298
f 31/312/31 300/311/300 304/315/304 33/316/33
f 300/311/300 299/313/299 303/317/303 304/315/304
f 299/313/299 298/314/298 302/318/302 303/317/303
f 298/314/298 297/123/297 301/115/301 302/318/302
f 33/316/33 304/315/304 308/319/308 35/320/35
f 304/315/304 303/317/303 307/321/307 308/319/308
f 303/317/303 302/318/302 306/322/306 307/321/307
f 302/318/302 301/115/301 305/107/305 306/322/306
f 35/320/35 308/319/308 312/323/312 37/324/37
f 308/319/308 307/321/307 311/325/311 312/323/312
f 307/321/307 306/322/306 310/326/310 311/325/311
f 306/322/306 305/107/305 309/99/309 310/326/310
f 37/324/37 312/323/312 316/327/316 39/328/39
f 312/323/312 311/325/311 315/329/315 316/327/316
f 311/325/311 310/326/310 314/330/314 315/329/315
f 310/326/310 309/99/309 313/91/313 314/330/314
f 39/328/39 316/327/316 320/331/320 41/332/41
f 316/327/316 315/329/315 319/333/319 320/331/320
f 315/329/315 314/330/314 318/334/318 319/333/319
f 314/330/314 313/91/313 317/83/317 318/334/318
f 41/332/41 320/331/320 324/335/324 43/336/43
f 320/331/320 319/333/319 323/337/323 324/335/324
f 319/333/319 318/334/318 322/338/322 323/337/323
f 318/334/318 317/83/317 321/75/321 322/338/322
f 43/336/43 324/335/324 328/339/328 45/340/45
f 324/335/324 323/337/323 327/341/327 328/339/328
f 323/337/323 322/338/322 326/342/326 327/341/327
f 322/338/322 321/75/321 325/67/325 326/342/326
f 45/340/45 328/339/328 332/343/332 47/344/47
f 328/339/328 327/341/327 331/345/331 332/343/332
f 327/341/327 326/342/326 330/346/330 331/345/331
f 326/342/326 325/67/325 329/51/329 330/346/330
f 47/344/47 332/343/332 333/347/333 1/348/1
f 332/343/332 331/345/331 334/349/334 333/347/333
f 331/345/331 330/346/330 335/350/335 334/349/334
f 330/346/330 329/51/329 336/54/336 335/350/335
